<?xml version="1.0" encoding="utf-8"?>
<!-- Generator: Adobe Illustrator 23.0.1, SVG Export Plug-In . SVG Version: 6.00 Build 0)  -->
<svg version="1.1" id="Layer_1" xmlns="http://www.w3.org/2000/svg" xmlns:xlink="http://www.w3.org/1999/xlink" x="0px" y="0px"
	 viewBox="0 0 216.59 166.91" style="enable-background:new 0 0 216.59 166.91;" xml:space="preserve">
<style type="text/css">
	.st0{fill:#154C5E;}
	.st1{fill:#B7625E;}
	.st2{fill:#ECECE6;}
	.st3{opacity:0.27;fill:#F1A899;}
	.st4{fill:none;}
	.st5{fill:#F1A899;}
	.st6{fill-rule:evenodd;clip-rule:evenodd;fill:#154C5E;}
	.st7{opacity:0.41;fill:#F1A899;}
	.st8{fill:#F4CD87;}
	.st9{fill:none;stroke:#154C5E;stroke-miterlimit:10;}
	.st10{opacity:0.24;fill:#B7625E;}
</style>
<g>
	
		<rect x="88.78" y="125.29" transform="matrix(-1 -1.281039e-10 1.281039e-10 -1 209.1775 265.4862)" class="st7" width="31.62" height="14.91"/>
	
		<rect x="146.78" y="125.29" transform="matrix(-1 -1.281039e-10 1.281039e-10 -1 325.1775 265.4862)" class="st7" width="31.62" height="14.91"/>
	<path class="st0" d="M9.1,155.11v4.79h198.39v-4.79h-27.85V7.02l-91.21,0v148.09H9.1z M146.17,23.1v13.67h-24.59V23.1H146.17z
		 M121.59,21.95V8.16h24.59v13.79H121.59z M89.57,111.11h30.87v13.85H89.57V111.11z M146.17,52.01v13.62h-24.59V52.01H146.17z
		 M121.59,50.86V37.91h24.59v12.95H121.59z M146.17,66.77v13.62h-24.59V66.77H146.17z M146.17,81.53v13.64h-24.59V81.53H146.17z
		 M146.17,96.32v13.64h-24.59V96.32H146.17z M146.17,111.11v13.85h-24.59v-13.85H146.17z M89.57,96.32h30.87v13.64H89.57V96.32z
		 M89.57,81.53h30.87v13.64H89.57V81.53z M89.57,66.77h30.87v13.62H89.57V66.77z M89.57,52.01h30.87v13.62H89.57V52.01z
		 M89.57,37.91h30.87v12.95H89.57V37.91z M89.57,23.1h30.87v13.67H89.57V23.1z M147.32,23.1h31.17v13.67h-31.17V23.1z M178.49,37.91
		v12.95h-31.17V37.91H178.49z M178.49,52.01v13.62h-31.17V52.01H178.49z M178.49,66.77v13.62h-31.17V66.77H178.49z M178.49,81.53
		v13.64h-31.17V81.53H178.49z M178.49,96.32v13.64h-31.17V96.32H178.49z M178.49,111.11v13.85h-31.17v-13.85H178.49z M178.49,126.11
		v12.97h-31.17v-12.97H178.49z M146.17,139.08h-24.59v-12.97h24.59V139.08z M120.44,139.08H89.57v-12.97h30.87V139.08z M89.57,8.16
		h30.87v13.79H89.57V8.16z M178.49,8.16v13.79h-31.17V8.16H178.49z M178.49,155.11H89.57v-14.88h88.92V155.11z"/>
</g>
</svg>
