<?xml version="1.0" encoding="utf-8"?>
<!-- Generator: Adobe Illustrator 24.1.0, SVG Export Plug-In . SVG Version: 6.00 Build 0)  -->
<svg version="1.1" id="Capa_1" xmlns="http://www.w3.org/2000/svg" xmlns:xlink="http://www.w3.org/1999/xlink" x="0px" y="0px"
	 viewBox="0 0 70 110" style="enable-background:new 0 0 70 110;" xml:space="preserve">
<style type="text/css">
	.st0{fill:#00667C;}
	.st1{fill:#EFEFEF;}
	.st2{fill:#036381;}
</style>
<g>
	<g>
		<g>
			<path class="st0" d="M29.84,70.3c0,0.55-0.2,0.98-0.59,1.3c-0.4,0.32-0.95,0.48-1.65,0.48c-0.65,0-1.23-0.12-1.73-0.37v-1.2
				c0.41,0.18,0.76,0.31,1.05,0.39c0.28,0.07,0.55,0.11,0.78,0.11c0.28,0,0.5-0.05,0.65-0.16c0.15-0.11,0.23-0.27,0.23-0.48
				c0-0.12-0.03-0.23-0.1-0.32c-0.07-0.09-0.16-0.18-0.29-0.27c-0.13-0.09-0.39-0.22-0.79-0.41c-0.37-0.17-0.65-0.34-0.84-0.5
				c-0.19-0.16-0.33-0.35-0.45-0.56c-0.11-0.21-0.17-0.46-0.17-0.75c0-0.54,0.18-0.96,0.55-1.27c0.36-0.31,0.87-0.46,1.52-0.46
				c0.32,0,0.62,0.04,0.91,0.11c0.29,0.07,0.59,0.18,0.9,0.32l-0.42,1c-0.33-0.13-0.59-0.23-0.81-0.28
				c-0.21-0.05-0.42-0.08-0.63-0.08c-0.24,0-0.43,0.06-0.56,0.17c-0.13,0.11-0.2,0.26-0.2,0.45c0,0.11,0.03,0.21,0.08,0.3
				c0.05,0.08,0.14,0.17,0.25,0.25s0.39,0.22,0.82,0.43c0.57,0.27,0.96,0.55,1.17,0.82C29.73,69.57,29.84,69.9,29.84,70.3z"/>
			<path class="st0" d="M34.08,71.99l-0.25-0.63H33.8c-0.21,0.27-0.44,0.46-0.66,0.56c-0.23,0.1-0.52,0.16-0.89,0.16
				c-0.45,0-0.8-0.13-1.06-0.38c-0.26-0.26-0.39-0.62-0.39-1.09c0-0.49,0.17-0.86,0.52-1.1c0.35-0.23,0.87-0.36,1.57-0.39l0.81-0.03
				v-0.2c0-0.47-0.24-0.71-0.73-0.71c-0.37,0-0.81,0.11-1.31,0.34l-0.42-0.86c0.54-0.28,1.13-0.42,1.79-0.42
				c0.63,0,1.11,0.14,1.44,0.41c0.33,0.27,0.5,0.69,0.5,1.24v3.11H34.08z M33.71,69.83l-0.49,0.02c-0.37,0.01-0.65,0.08-0.83,0.2
				c-0.18,0.12-0.27,0.31-0.27,0.56c0,0.36,0.21,0.54,0.62,0.54c0.3,0,0.53-0.09,0.71-0.25c0.18-0.17,0.26-0.39,0.26-0.68V69.83z"/>
			<path class="st0" d="M37.83,71.99h-1.27V65.5h1.27V71.99z"/>
			<path class="st0" d="M42.41,71.99l-0.25-0.63h-0.03c-0.21,0.27-0.44,0.46-0.66,0.56s-0.52,0.16-0.89,0.16
				c-0.45,0-0.8-0.13-1.06-0.38c-0.26-0.26-0.39-0.62-0.39-1.09c0-0.49,0.17-0.86,0.52-1.1c0.35-0.23,0.87-0.36,1.57-0.39l0.81-0.03
				v-0.2c0-0.47-0.24-0.71-0.73-0.71c-0.37,0-0.81,0.11-1.31,0.34l-0.42-0.86c0.54-0.28,1.13-0.42,1.79-0.42
				c0.63,0,1.11,0.14,1.44,0.41c0.33,0.27,0.5,0.69,0.5,1.24v3.11H42.41z M42.04,69.83l-0.49,0.02c-0.37,0.01-0.65,0.08-0.83,0.2
				c-0.18,0.12-0.27,0.31-0.27,0.56c0,0.36,0.21,0.54,0.62,0.54c0.3,0,0.53-0.09,0.71-0.25c0.18-0.17,0.26-0.39,0.26-0.68V69.83z"/>
			<path class="st0" d="M10.1,83.36v-6.1h1.29v5.03h2.47v1.07H10.1z"/>
			<path class="st0" d="M19.35,81.02c0,0.76-0.2,1.35-0.6,1.78s-0.96,0.64-1.67,0.64c-0.45,0-0.84-0.1-1.19-0.29
				c-0.34-0.2-0.6-0.48-0.79-0.84c-0.18-0.37-0.28-0.79-0.28-1.28c0-0.76,0.2-1.35,0.6-1.78c0.4-0.42,0.96-0.63,1.68-0.63
				c0.45,0,0.84,0.1,1.19,0.29c0.34,0.2,0.6,0.47,0.79,0.84C19.25,80.1,19.35,80.53,19.35,81.02z M16.12,81.02
				c0,0.46,0.08,0.81,0.23,1.05c0.15,0.24,0.4,0.35,0.74,0.35c0.34,0,0.58-0.12,0.73-0.35c0.15-0.23,0.22-0.58,0.22-1.05
				c0-0.46-0.07-0.81-0.23-1.04c-0.15-0.23-0.4-0.35-0.74-0.35c-0.34,0-0.58,0.11-0.73,0.34C16.2,80.2,16.12,80.55,16.12,81.02z"/>
			<path class="st0" d="M23.98,83.36l-0.17-0.6h-0.07c-0.14,0.22-0.33,0.39-0.58,0.5c-0.25,0.12-0.54,0.18-0.85,0.18
				c-0.55,0-0.96-0.15-1.24-0.44c-0.28-0.29-0.42-0.71-0.42-1.27v-3.04h1.27v2.72c0,0.34,0.06,0.59,0.18,0.76s0.31,0.25,0.57,0.25
				c0.36,0,0.61-0.12,0.77-0.36s0.24-0.63,0.24-1.18v-2.19h1.27v4.66H23.98z"/>
			<path class="st0" d="M30.88,83.36h-1.27v-2.72c0-0.34-0.06-0.59-0.18-0.76c-0.12-0.17-0.31-0.25-0.57-0.25
				c-0.36,0-0.61,0.12-0.77,0.36c-0.16,0.24-0.24,0.63-0.24,1.18v2.19h-1.27v-4.66h0.97l0.17,0.6h0.07
				c0.14-0.23,0.34-0.39,0.59-0.51c0.25-0.12,0.53-0.17,0.85-0.17c0.54,0,0.95,0.15,1.23,0.44c0.28,0.29,0.42,0.72,0.42,1.27V83.36z
				"/>
			<path class="st0" d="M36.53,78.69v0.65l-0.73,0.19c0.13,0.21,0.2,0.44,0.2,0.7c0,0.5-0.17,0.89-0.52,1.17
				c-0.35,0.28-0.83,0.42-1.45,0.42l-0.23-0.01l-0.19-0.02c-0.13,0.1-0.2,0.21-0.2,0.33c0,0.18,0.23,0.28,0.7,0.28h0.79
				c0.51,0,0.9,0.11,1.17,0.33c0.27,0.22,0.4,0.54,0.4,0.97c0,0.55-0.23,0.97-0.68,1.27c-0.45,0.3-1.11,0.45-1.96,0.45
				c-0.65,0-1.15-0.11-1.49-0.34c-0.34-0.23-0.52-0.55-0.52-0.95c0-0.28,0.09-0.52,0.26-0.71c0.17-0.19,0.43-0.32,0.77-0.4
				c-0.13-0.06-0.24-0.15-0.34-0.27c-0.1-0.13-0.15-0.26-0.15-0.4c0-0.18,0.05-0.33,0.15-0.44c0.1-0.12,0.25-0.23,0.45-0.35
				c-0.24-0.11-0.44-0.28-0.58-0.51c-0.14-0.23-0.21-0.51-0.21-0.83c0-0.51,0.17-0.9,0.5-1.18c0.33-0.28,0.8-0.42,1.42-0.42
				c0.13,0,0.29,0.01,0.47,0.04c0.18,0.02,0.29,0.04,0.34,0.05H36.53z M32.93,84.01c0,0.17,0.08,0.31,0.25,0.41
				c0.17,0.1,0.4,0.15,0.71,0.15c0.46,0,0.81-0.06,1.07-0.19c0.26-0.13,0.39-0.3,0.39-0.51c0-0.17-0.08-0.3-0.23-0.36
				c-0.15-0.07-0.39-0.1-0.71-0.1h-0.66c-0.23,0-0.43,0.06-0.59,0.17S32.93,83.83,32.93,84.01z M33.39,80.22
				c0,0.25,0.06,0.45,0.17,0.6s0.29,0.22,0.53,0.22c0.24,0,0.41-0.07,0.53-0.22c0.11-0.15,0.17-0.35,0.17-0.6
				c0-0.56-0.23-0.84-0.69-0.84C33.62,79.38,33.39,79.66,33.39,80.22z"/>
			<path class="st0" d="M39.69,83.44c-0.75,0-1.34-0.21-1.76-0.62c-0.42-0.41-0.63-1-0.63-1.76c0-0.78,0.2-1.38,0.59-1.81
				c0.39-0.43,0.93-0.64,1.62-0.64c0.66,0,1.17,0.19,1.54,0.56c0.37,0.38,0.55,0.89,0.55,1.56v0.62h-3.01
				c0.01,0.36,0.12,0.64,0.32,0.85c0.2,0.2,0.48,0.3,0.84,0.3c0.28,0,0.55-0.03,0.8-0.09c0.25-0.06,0.51-0.15,0.78-0.28v0.98
				c-0.22,0.11-0.46,0.19-0.71,0.25S40.05,83.44,39.69,83.44z M39.51,79.51c-0.27,0-0.48,0.09-0.63,0.26
				c-0.15,0.17-0.24,0.41-0.26,0.73h1.78c-0.01-0.31-0.09-0.56-0.25-0.73C39.99,79.6,39.78,79.51,39.51,79.51z"/>
			<path class="st0" d="M45.51,77.26h1.9c0.87,0,1.49,0.12,1.88,0.37c0.39,0.25,0.59,0.64,0.59,1.17c0,0.36-0.09,0.66-0.26,0.9
				c-0.17,0.23-0.4,0.37-0.68,0.42v0.04c0.39,0.09,0.67,0.25,0.84,0.48s0.26,0.55,0.26,0.94c0,0.56-0.2,0.99-0.6,1.3
				c-0.4,0.31-0.95,0.47-1.64,0.47h-2.28V77.26z M46.8,79.67h0.75c0.35,0,0.6-0.05,0.76-0.16s0.24-0.29,0.24-0.54
				c0-0.23-0.09-0.4-0.26-0.5c-0.17-0.1-0.44-0.15-0.81-0.15H46.8V79.67z M46.8,80.7v1.59h0.84c0.36,0,0.62-0.07,0.79-0.2
				c0.17-0.14,0.25-0.34,0.25-0.63c0-0.51-0.36-0.76-1.08-0.76H46.8z"/>
			<path class="st0" d="M54.39,83.36l-0.25-0.63h-0.03c-0.21,0.27-0.44,0.46-0.66,0.56c-0.23,0.1-0.52,0.16-0.89,0.16
				c-0.45,0-0.8-0.13-1.06-0.38c-0.26-0.26-0.39-0.62-0.39-1.09c0-0.49,0.17-0.86,0.52-1.1c0.35-0.23,0.87-0.36,1.57-0.39l0.81-0.03
				v-0.2c0-0.47-0.24-0.71-0.73-0.71c-0.37,0-0.81,0.11-1.31,0.34l-0.42-0.86c0.54-0.28,1.13-0.42,1.79-0.42
				c0.63,0,1.11,0.14,1.44,0.41c0.33,0.27,0.5,0.69,0.5,1.24v3.11H54.39z M54.01,81.2l-0.49,0.02c-0.37,0.01-0.65,0.08-0.83,0.2
				c-0.18,0.12-0.27,0.31-0.27,0.56c0,0.36,0.21,0.54,0.62,0.54c0.3,0,0.53-0.09,0.71-0.25c0.18-0.17,0.26-0.39,0.26-0.68V81.2z"/>
			<path class="st0" d="M59.47,78.61c0.17,0,0.32,0.01,0.43,0.04l-0.1,1.19c-0.1-0.03-0.23-0.04-0.38-0.04
				c-0.41,0-0.72,0.1-0.95,0.31c-0.23,0.21-0.34,0.5-0.34,0.88v2.37h-1.27v-4.66h0.96l0.19,0.78h0.06c0.15-0.26,0.34-0.47,0.59-0.63
				C58.91,78.69,59.18,78.61,59.47,78.61z"/>
		</g>
	</g>
	<g>
		<g>
			<circle class="st1" cx="32.76" cy="39.94" r="19.38"/>
		</g>
		<g>
			<g>
				<path class="st0" d="M29.79,36.71h7.02l-3.46,4.05c-0.03-0.01-0.05-0.01-0.08-0.01c-0.01,0-0.02,0-0.03,0.01L29.79,36.71z
					 M27.75,35.03l1.51,1.76c-0.43,0.29-0.95,0.48-1.51,0.52V35.03z M28.2,34.85h10.19l-1.24,1.45c-0.01,0-0.01,0-0.02,0h-7.67
					c-0.01,0-0.01,0-0.02,0L28.2,34.85z M27.33,34.78v2.53c-0.67-0.04-1.27-0.3-1.75-0.69L27.33,34.78z M24.57,34.68h2.28
					l-1.57,1.65C24.88,35.89,24.61,35.31,24.57,34.68 M29.79,32.63c0.45,0.5,0.73,1.14,0.73,1.85c0,0.01,0,0.02,0,0.03H27.8
					L29.79,32.63z M25.29,32.63l1.74,1.65h-2.46C24.61,33.65,24.88,33.08,25.29,32.63 M27.75,31.66c0.66,0.04,1.26,0.3,1.73,0.68
					l-1.73,1.64V31.66z M27.33,31.66v2.33l-1.73-1.64C26.07,31.96,26.67,31.71,27.33,31.66 M27.54,31.24
					c-1.88,0-3.41,1.45-3.41,3.24c0,1.79,1.53,3.24,3.41,3.24c0.74,0,1.43-0.23,1.99-0.61l3.55,4.14v7h-1.92c-0.01,0-0.03,0-0.04,0
					c-0.12,0.01-0.2,0.11-0.19,0.22c0.01,0.11,0.12,0.19,0.23,0.18c0,0,0,0,0,0h4.26c0.12,0,0.21-0.09,0.22-0.2
					c0-0.11-0.09-0.2-0.21-0.21c0,0,0,0-0.01,0h-1.92v-7l5.55-6.48c0.07-0.08,0.03-0.19-0.08-0.23c-0.04-0.02-0.09-0.02-0.14-0.02
					h-7.88c0-0.01,0-0.02,0-0.03C30.95,32.7,29.42,31.24,27.54,31.24"/>
			</g>
		</g>
	</g>
</g>
</svg>
