<svg id="Capa_1" data-name="Capa 1" xmlns="http://www.w3.org/2000/svg" viewBox="0 0 70 110"><defs><style>.cls-1{fill:#efefef;}.cls-2{fill:#036381;}</style></defs><circle class="cls-1" cx="35" cy="39.75" r="19.19" transform="translate(-12.55 16.42) rotate(-22.5)"/><path class="cls-2" d="M25.25,36a4.19,4.19,0,0,1,.21-.88,1.68,1.68,0,0,1,1.6-1h3.86a1.72,1.72,0,0,1,1.78,1.74c0,1.76,0,3.52,0,5.27a.71.71,0,0,1-.63.71.73.73,0,0,1-.82-.58,1.56,1.56,0,0,1,0-.31V36a.41.41,0,0,0,0-.19c0-.05-.09-.12-.13-.12s-.11.07-.14.12a.61.61,0,0,0,0,.19q0,5.91,0,11.82a.88.88,0,1,1-1.75.16,2.35,2.35,0,0,1,0-.26V41H28.8v6.81a.88.88,0,1,1-1.75.12c0-1.58,0-3.16,0-4.74V36c0-.12.06-.32-.14-.32s-.14.2-.14.33c0,1.67,0,3.34,0,5a.74.74,0,0,1-.83.79.82.82,0,0,1-.65-.54Z"/><path class="cls-2" d="M42.11,37.12c.13.69.26,1.38.4,2.07.2,1,.39,2,.59,3a.4.4,0,0,1-.35.48,6,6,0,0,1-.6,0v5.16a.85.85,0,0,1-.67.87.86.86,0,0,1-1.07-.83c0-.5,0-1,0-1.48V42.7h-.36v5a1,1,0,0,1-.23.71.84.84,0,0,1-.89.26.8.8,0,0,1-.61-.7,1.66,1.66,0,0,1,0-.32v-5h-.46a.43.43,0,0,1-.46-.58l1-5s0,0,0-.11c-.21.56-.39,1.07-.58,1.59s-.43,1.21-.65,1.81a.72.72,0,0,1-.9.48.69.69,0,0,1-.49-.86c.24-.74.51-1.48.77-2.22s.58-1.65.89-2.47a1.7,1.7,0,0,1,1-1.07,2.14,2.14,0,0,1,.71-.14c.72,0,1.45,0,2.17,0a1.71,1.71,0,0,1,1.83,1.26c.47,1.22.89,2.46,1.33,3.7l.3.84a.73.73,0,1,1-1.38.46c-.37-1-.74-2.09-1.12-3.14a.78.78,0,0,0,0-.14h0"/><path class="cls-2" d="M35.06,39.75c0,2.46,0,4.92,0,7.38a1.11,1.11,0,0,1,0,.36.69.69,0,0,1-.72.35.63.63,0,0,1-.59-.5,1.47,1.47,0,0,1,0-.21q0-7.38,0-14.76a1,1,0,0,1,0-.3.66.66,0,0,1,.74-.41.59.59,0,0,1,.58.51,2.08,2.08,0,0,1,0,.25v7.33"/><path class="cls-2" d="M27.39,32.3A1.6,1.6,0,1,1,29,33.91a1.6,1.6,0,0,1-1.59-1.61"/><path class="cls-2" d="M41.81,32.36A1.57,1.57,0,0,1,40.23,34a1.59,1.59,0,1,1,1.58-1.59"/><path class="cls-2" d="M22.29,66.26h1.86a3.59,3.59,0,0,1,1.84.36,1.25,1.25,0,0,1,.58,1.15,1.5,1.5,0,0,1-.25.88,1,1,0,0,1-.67.41v0a1.36,1.36,0,0,1,.82.48,1.52,1.52,0,0,1,.25.92,1.54,1.54,0,0,1-.59,1.28,2.61,2.61,0,0,1-1.61.46H22.29Zm1.26,2.37h.74a1.44,1.44,0,0,0,.75-.16.62.62,0,0,0,.23-.53.53.53,0,0,0-.25-.49,1.64,1.64,0,0,0-.8-.15h-.67Zm0,1v1.56h.83a1.22,1.22,0,0,0,.77-.2.72.72,0,0,0,.25-.61c0-.5-.35-.75-1.06-.75Z"/><path class="cls-2" d="M31,72.24l-.25-.62h0a1.91,1.91,0,0,1-.65.55,2.12,2.12,0,0,1-.87.15,1.32,1.32,0,0,1-1.41-1.45,1.21,1.21,0,0,1,.51-1.07,2.9,2.9,0,0,1,1.53-.38l.8,0v-.2a.62.62,0,0,0-.71-.69,3.23,3.23,0,0,0-1.29.33L28.21,68A3.79,3.79,0,0,1,30,67.57a2.18,2.18,0,0,1,1.42.4,1.5,1.5,0,0,1,.49,1.22v3Zm-.37-2.12h-.48a1.66,1.66,0,0,0-.82.2.63.63,0,0,0-.26.55c0,.35.2.53.6.53a1,1,0,0,0,.7-.25.9.9,0,0,0,.26-.66Z"/><path class="cls-2" d="M37.65,72.24H36.4V69.57a1.39,1.39,0,0,0-.17-.75.67.67,0,0,0-.57-.24.82.82,0,0,0-.75.35,2.12,2.12,0,0,0-.23,1.16v2.15H33.43V67.67h1l.17.58h.07a1.32,1.32,0,0,1,.57-.5,2,2,0,0,1,.83-.17,1.57,1.57,0,0,1,1.21.43,1.72,1.72,0,0,1,.42,1.25Zm-2.8-5.51a.37.37,0,0,0-.24.11.58.58,0,0,0-.17.33h-.61a1.51,1.51,0,0,1,.34-.93,1,1,0,0,1,.77-.33,1,1,0,0,1,.33.06l.32.15.31.15a.8.8,0,0,0,.3.06.33.33,0,0,0,.24-.11.65.65,0,0,0,.17-.32h.61a1.62,1.62,0,0,1-.34.93,1,1,0,0,1-.77.33.72.72,0,0,1-.33-.07L35.46,67l-.31-.15A.66.66,0,0,0,34.85,66.73Z"/><path class="cls-2" d="M43.36,69.94a2.43,2.43,0,0,1-.59,1.75,2.11,2.11,0,0,1-1.63.63A2.36,2.36,0,0,1,40,72a1.94,1.94,0,0,1-.77-.83,2.78,2.78,0,0,1-.27-1.26,2.46,2.46,0,0,1,.59-1.74,2.13,2.13,0,0,1,1.64-.62,2.2,2.2,0,0,1,1.16.29,1.85,1.85,0,0,1,.77.82A2.71,2.71,0,0,1,43.36,69.94Zm-3.16,0a1.89,1.89,0,0,0,.23,1,.79.79,0,0,0,.72.35.8.8,0,0,0,.72-.35,1.9,1.9,0,0,0,.22-1,2,2,0,0,0-.22-1,.94.94,0,0,0-1.45,0A2,2,0,0,0,40.2,69.94Z"/><path class="cls-2" d="M47.86,70.88A1.24,1.24,0,0,1,47.37,72a2.36,2.36,0,0,1-1.46.37,4.16,4.16,0,0,1-.85-.07,3,3,0,0,1-.66-.2V71a4.53,4.53,0,0,0,.79.28,3.31,3.31,0,0,0,.76.11c.45,0,.68-.13.68-.4a.32.32,0,0,0-.09-.23.92.92,0,0,0-.31-.21l-.59-.28a3.52,3.52,0,0,1-.77-.4,1.07,1.07,0,0,1-.36-.44,1.34,1.34,0,0,1-.12-.6,1.08,1.08,0,0,1,.48-.94,2.31,2.31,0,0,1,1.34-.33,3.77,3.77,0,0,1,1.6.36l-.37.9a5.89,5.89,0,0,0-.65-.24,1.76,1.76,0,0,0-.6-.1c-.37,0-.56.1-.56.3a.35.35,0,0,0,.18.29,6,6,0,0,0,.78.37,3.77,3.77,0,0,1,.79.4,1.31,1.31,0,0,1,.36.43A1.35,1.35,0,0,1,47.86,70.88Z"/></svg>