<svg id="Capa_1" data-name="Capa 1" xmlns="http://www.w3.org/2000/svg" viewBox="0 0 70 110"><defs><style>.cls-1{fill:#efefef;}.cls-2{fill:#036381;}</style></defs><circle class="cls-1" cx="35" cy="40.01" r="19.45" transform="translate(-10.1 68.15) rotate(-80.78)"/><path class="cls-2" d="M43.86,47.79H33.78V46.66l1.07.86,0,0a.25.25,0,0,0,.17,0l.06,0h0l2.09-1.31,3.56,1.34a.27.27,0,0,0,.34-.13.28.28,0,0,0,0-.18.24.24,0,0,0-.15-.13l-3.7-1.4h-.14l0,0h0L35,47l-1.24-1V39.15l.08,0a22.49,22.49,0,0,1,3.36-.63,27.65,27.65,0,0,1,3.62.69l.32.09V39c0-3.11-3.2-5.67-7.29-5.81h-.09V32a.25.25,0,0,0-.26-.24.25.25,0,0,0-.25.24v1.16h-.1c-4.05.14-7.25,2.67-7.29,5.76V39s0,0,0,.07a.27.27,0,0,0,.33.16,25.25,25.25,0,0,1,3.61-.69,22.24,22.24,0,0,1,3.36.63l.08,0v6.46L30,43a.28.28,0,0,0-.37,0,.27.27,0,0,0-.06.17.28.28,0,0,0,.09.17l2.18,1.76-2.14,2.7H26.14a.24.24,0,1,0,0,.48H43.86a.24.24,0,1,0,0-.48Zm-10.59,0H30.34l1.89-2.38,1,.83Zm2.11-14c2.89.58,5,2.47,5.24,4.7l0,.14-.13,0a21,21,0,0,0-3.3-.59,2.83,2.83,0,0,0-.38,0h-.1V38a6.07,6.07,0,0,0-1.44-4l-.22-.22ZM29.58,38V38h-.09a18,18,0,0,0-1.92.33l-1,.23-.13,0,0-.14c.23-2.08,2.09-3.88,4.72-4.57l.38-.1-.29.26A5.63,5.63,0,0,0,29.58,38Zm3.94.76h0a30,30,0,0,0-3.31-.66H30.1V38c.12-2.43,1.63-4.33,3.42-4.33,1.42,0,2.63,2,2.69,4.43v.09h-.08c-1,.18-2.33.5-2.58.56Z"/><path class="cls-2" d="M22.27,73.7l-.44-1.44H19.62l-.44,1.44H17.8l2.13-6.08h1.58l2.14,6.08Zm-.75-2.52L20.84,69a2.81,2.81,0,0,1-.11-.4c-.09.35-.36,1.22-.79,2.62Zm-1.48-4V67a12.48,12.48,0,0,0,1-1.24h1.42v.08a7.89,7.89,0,0,1-.74.64c-.34.29-.61.5-.81.64Z"/><path class="cls-2" d="M27.18,69a1.74,1.74,0,0,1,.43,0l-.1,1.18a1.62,1.62,0,0,0-1.31.27,1.12,1.12,0,0,0-.34.87V73.7H24.6V69.07h.95l.19.78h.06a1.78,1.78,0,0,1,.59-.63A1.41,1.41,0,0,1,27.18,69Z"/><path class="cls-2" d="M30.83,73.78a2.39,2.39,0,0,1-1.75-.61,2.36,2.36,0,0,1-.63-1.75,2.55,2.55,0,0,1,.58-1.8A2.07,2.07,0,0,1,30.64,69a2,2,0,0,1,1.53.56,2.09,2.09,0,0,1,.55,1.54v.62h-3a1.19,1.19,0,0,0,.32.84,1.14,1.14,0,0,0,.84.3,3.35,3.35,0,0,0,.79-.09,3.82,3.82,0,0,0,.78-.27v1a2.83,2.83,0,0,1-.71.24A4.09,4.09,0,0,1,30.83,73.78Zm-.18-3.9a.79.79,0,0,0-.63.25,1.18,1.18,0,0,0-.26.73h1.77a1,1,0,0,0-.24-.73A.83.83,0,0,0,30.65,69.88Z"/><path class="cls-2" d="M37,73.7l-.24-.63h0a1.93,1.93,0,0,1-.65.56,2.23,2.23,0,0,1-.89.15,1.41,1.41,0,0,1-1-.38,1.46,1.46,0,0,1-.38-1.08,1.2,1.2,0,0,1,.52-1.09,3,3,0,0,1,1.55-.39l.81,0v-.21a.63.63,0,0,0-.72-.7,3.35,3.35,0,0,0-1.31.33l-.42-.85A3.8,3.8,0,0,1,35.93,69a2.23,2.23,0,0,1,1.43.41,1.49,1.49,0,0,1,.49,1.23V73.7Zm-.37-2.15-.49,0a1.56,1.56,0,0,0-.82.2.62.62,0,0,0-.27.55c0,.36.2.54.61.54a1,1,0,0,0,.7-.25.9.9,0,0,0,.27-.68Z"/><path class="cls-2" d="M43.39,73.78a1.51,1.51,0,0,1-1.29-.63,3.58,3.58,0,0,1,0-3.53A1.53,1.53,0,0,1,43.42,69a1.51,1.51,0,0,1,1.33.68h0a4.77,4.77,0,0,1-.1-.93V67.25H46V73.7H45l-.25-.6h0A1.45,1.45,0,0,1,43.39,73.78Zm.44-1a.86.86,0,0,0,.71-.29,1.64,1.64,0,0,0,.25-.95V71.4a1.93,1.93,0,0,0-.23-1.07.86.86,0,0,0-.75-.32.75.75,0,0,0-.66.36,1.93,1.93,0,0,0-.23,1,1.85,1.85,0,0,0,.23,1A.79.79,0,0,0,43.83,72.78Z"/><path class="cls-2" d="M49.67,73.78a2.39,2.39,0,0,1-1.75-.61,2.36,2.36,0,0,1-.63-1.75,2.55,2.55,0,0,1,.58-1.8A2.07,2.07,0,0,1,49.48,69a2,2,0,0,1,1.53.56,2.09,2.09,0,0,1,.55,1.54v.62h-3a1.19,1.19,0,0,0,.32.84,1.14,1.14,0,0,0,.84.3,3.35,3.35,0,0,0,.79-.09,3.82,3.82,0,0,0,.78-.27v1a2.83,2.83,0,0,1-.71.24A4.09,4.09,0,0,1,49.67,73.78Zm-.18-3.9a.79.79,0,0,0-.63.25,1.18,1.18,0,0,0-.26.73h1.77a1,1,0,0,0-.24-.73A.83.83,0,0,0,49.49,69.88Z"/><path class="cls-2" d="M26,84.64a1.55,1.55,0,0,1-1.28-.59h-.06c0,.39.06.61.06.67V86.6H23.44V79.92h1l.18.61h.05A1.48,1.48,0,0,1,26,79.84a1.5,1.5,0,0,1,1.28.63,2.92,2.92,0,0,1,.47,1.76,3.55,3.55,0,0,1-.22,1.29,1.82,1.82,0,0,1-.62.84A1.59,1.59,0,0,1,26,84.64Zm-.37-3.79a.77.77,0,0,0-.68.29,1.63,1.63,0,0,0-.23,1v.13a1.91,1.91,0,0,0,.23,1.07.77.77,0,0,0,.7.33c.56,0,.85-.47.85-1.4a2,2,0,0,0-.21-1A.71.71,0,0,0,25.61,80.85Z"/><path class="cls-2" d="M30.36,84.56H29.09V78.11h1.27Z"/><path class="cls-2" d="M34.91,84.56l-.25-.63h0a2,2,0,0,1-.66.56,2.18,2.18,0,0,1-.88.15,1.32,1.32,0,0,1-1.43-1.47,1.21,1.21,0,0,1,.51-1.08,2.9,2.9,0,0,1,1.56-.39l.8,0v-.2a.63.63,0,0,0-.72-.7,3.31,3.31,0,0,0-1.3.33l-.42-.85a3.73,3.73,0,0,1,1.77-.42,2.16,2.16,0,0,1,1.43.41,1.5,1.5,0,0,1,.5,1.23v3.09Zm-.38-2.15-.49,0a1.59,1.59,0,0,0-.82.2.61.61,0,0,0-.27.55c0,.36.21.54.62.54a1,1,0,0,0,.7-.26.85.85,0,0,0,.26-.67Z"/><path class="cls-2" d="M36.71,79.92h1.38L39,82.53a4.19,4.19,0,0,1,.15.81h0a4,4,0,0,1,.17-.81l.86-2.61h1.36l-2,5.23a2.32,2.32,0,0,1-.77,1.09,2,2,0,0,1-1.17.36,3.39,3.39,0,0,1-.64-.07v-1a1.93,1.93,0,0,0,.49.06.89.89,0,0,0,.59-.21,1.23,1.23,0,0,0,.39-.62l.08-.22Z"/><path class="cls-2" d="M45.42,84.56l-.24-.63h0a1.93,1.93,0,0,1-.65.56,2.21,2.21,0,0,1-.88.15,1.42,1.42,0,0,1-1-.38,1.45,1.45,0,0,1-.39-1.09,1.2,1.2,0,0,1,.52-1.08,2.86,2.86,0,0,1,1.55-.39l.81,0v-.2a.63.63,0,0,0-.72-.7A3.35,3.35,0,0,0,43,81.1l-.42-.85a3.8,3.8,0,0,1,1.78-.42,2.16,2.16,0,0,1,1.43.41,1.5,1.5,0,0,1,.5,1.23v3.09Zm-.37-2.15-.49,0a1.56,1.56,0,0,0-.82.2.61.61,0,0,0-.27.55c0,.36.2.54.61.54a1,1,0,0,0,.71-.26.89.89,0,0,0,.26-.67Z"/></svg>