<svg id="Capa_1" data-name="Capa 1" xmlns="http://www.w3.org/2000/svg" viewBox="0 0 70 110"><defs><style>.cls-1{fill:#efefef;}.cls-2{fill:#036381;}</style></defs><circle class="cls-1" cx="38.28" cy="39.75" r="19.19" transform="translate(-9.2 67.88) rotate(-76.72)"/><path class="cls-2" d="M47,35.24v9.42l-8.24,2v-9Zm-17.35,0,8.24,2.43v9l-8.24-2Zm4.23-1.41,7.21,2.24-2.77.82-7.7-2.28Zm4.44-1.07L46,34.61l-3.42,1h0l-7-2.18Zm-.07-.89h0l-9.11,2.19a.44.44,0,0,0-.33.43V45a.44.44,0,0,0,.33.42l9.11,2.19a.34.34,0,0,0,.2,0l9.12-2.19a.44.44,0,0,0,.33-.42V34.5a.45.45,0,0,0-.33-.43l-9.12-2.19a.47.47,0,0,0-.17,0"/><path class="cls-2" d="M20.56,66.26h1.86a3.63,3.63,0,0,1,1.85.36,1.27,1.27,0,0,1,.57,1.15,1.43,1.43,0,0,1-.25.88,1,1,0,0,1-.67.41v0a1.36,1.36,0,0,1,.82.48,1.52,1.52,0,0,1,.25.92,1.54,1.54,0,0,1-.59,1.28,2.58,2.58,0,0,1-1.6.46H20.56Zm1.27,2.37h.73a1.42,1.42,0,0,0,.75-.16.62.62,0,0,0,.23-.53.51.51,0,0,0-.25-.49,1.62,1.62,0,0,0-.8-.15h-.66Zm0,1v1.56h.82a1.28,1.28,0,0,0,.78-.2.75.75,0,0,0,.24-.61c0-.5-.35-.75-1.06-.75Z"/><path class="cls-2" d="M30.52,69.94a2.47,2.47,0,0,1-.59,1.75,2.13,2.13,0,0,1-1.64.63A2.29,2.29,0,0,1,27.13,72a1.88,1.88,0,0,1-.77-.83,2.78,2.78,0,0,1-.27-1.26,2.46,2.46,0,0,1,.58-1.74,2.17,2.17,0,0,1,1.65-.62,2.25,2.25,0,0,1,1.16.29,1.91,1.91,0,0,1,.77.82A2.71,2.71,0,0,1,30.52,69.94Zm-3.16,0a1.9,1.9,0,0,0,.22,1A.93.93,0,0,0,29,71a2,2,0,0,0,.21-1,1.89,1.89,0,0,0-.22-1,.8.8,0,0,0-.72-.34.82.82,0,0,0-.72.34A1.89,1.89,0,0,0,27.36,69.94Z"/><path class="cls-2" d="M33.28,72.32A1.49,1.49,0,0,1,32,71.69a3.49,3.49,0,0,1,0-3.48,1.51,1.51,0,0,1,1.29-.63,1.48,1.48,0,0,1,1.31.67h.05a4.58,4.58,0,0,1-.1-.91V65.87h1.25v6.37h-1l-.25-.6h0A1.42,1.42,0,0,1,33.28,72.32Zm.43-1a.85.85,0,0,0,.7-.28,1.67,1.67,0,0,0,.25-1V70a1.89,1.89,0,0,0-.23-1.06.85.85,0,0,0-.74-.32A.74.74,0,0,0,33,69a1.92,1.92,0,0,0-.23,1,1.75,1.75,0,0,0,.24,1A.76.76,0,0,0,33.71,71.33Z"/><path class="cls-2" d="M39.47,72.32a2.33,2.33,0,0,1-1.72-.61A2.29,2.29,0,0,1,37.13,70a2.53,2.53,0,0,1,.57-1.77,2,2,0,0,1,1.59-.63,2,2,0,0,1,1.51.55,2.1,2.1,0,0,1,.54,1.53v.6h-3a1.2,1.2,0,0,0,.31.83,1.13,1.13,0,0,0,.83.3A3.61,3.61,0,0,0,41.08,71v1a2.76,2.76,0,0,1-.7.24A4.66,4.66,0,0,1,39.47,72.32Zm-.17-3.85a.77.77,0,0,0-.62.25,1.14,1.14,0,0,0-.26.71h1.75a1.08,1.08,0,0,0-.24-.71A.82.82,0,0,0,39.3,68.47Z"/><path class="cls-2" d="M46.61,67.67v.63l-.72.18a1.29,1.29,0,0,1,.2.69,1.41,1.41,0,0,1-.51,1.15,2.27,2.27,0,0,1-1.43.41h-.22l-.19,0a.38.38,0,0,0-.19.32q0,.27.69.27H45a1.73,1.73,0,0,1,1.15.33,1.15,1.15,0,0,1,.4.94,1.43,1.43,0,0,1-.67,1.25,3.54,3.54,0,0,1-1.92.44,2.71,2.71,0,0,1-1.47-.33A1.09,1.09,0,0,1,42,73a1,1,0,0,1,.26-.69,1.49,1.49,0,0,1,.75-.4.81.81,0,0,1-.33-.26.67.67,0,0,1,0-.83,1.8,1.8,0,0,1,.43-.35,1.24,1.24,0,0,1-.57-.49,1.53,1.53,0,0,1-.21-.81A1.44,1.44,0,0,1,42.83,68a2.06,2.06,0,0,1,1.39-.41l.46,0a2.56,2.56,0,0,1,.33.06Zm-3.53,5.21a.45.45,0,0,0,.25.41,1.31,1.31,0,0,0,.69.15,2.46,2.46,0,0,0,1-.19.56.56,0,0,0,.38-.5.36.36,0,0,0-.22-.36,2,2,0,0,0-.7-.1h-.64a1,1,0,0,0-.58.17A.49.49,0,0,0,43.08,72.88Zm.45-3.72a.94.94,0,0,0,.17.59.62.62,0,0,0,.52.22.61.61,0,0,0,.52-.22.94.94,0,0,0,.16-.59c0-.55-.23-.83-.68-.83S43.53,68.61,43.53,69.16Z"/><path class="cls-2" d="M50.54,72.24l-.24-.62h0a2,2,0,0,1-.65.55,2.12,2.12,0,0,1-.87.15,1.43,1.43,0,0,1-1-.38,1.45,1.45,0,0,1-.37-1.07,1.21,1.21,0,0,1,.51-1.07,2.88,2.88,0,0,1,1.53-.38l.79,0v-.2c0-.46-.23-.69-.71-.69a3.31,3.31,0,0,0-1.29.33L47.76,68a3.79,3.79,0,0,1,1.75-.41,2.14,2.14,0,0,1,1.41.4,1.47,1.47,0,0,1,.49,1.22v3Zm-.37-2.12h-.48a1.65,1.65,0,0,0-.81.2.6.6,0,0,0-.26.55c0,.35.2.53.6.53a1,1,0,0,0,.69-.25.86.86,0,0,0,.26-.66Z"/><path class="cls-2" d="M56.16,70.88A1.26,1.26,0,0,1,55.68,72a2.42,2.42,0,0,1-1.47.37,4.22,4.22,0,0,1-.85-.07,3,3,0,0,1-.66-.2V71a5.21,5.21,0,0,0,.79.28,3.31,3.31,0,0,0,.76.11c.46,0,.68-.13.68-.4a.32.32,0,0,0-.09-.23.92.92,0,0,0-.31-.21c-.14-.08-.34-.17-.59-.28a3.52,3.52,0,0,1-.77-.4,1.07,1.07,0,0,1-.36-.44,1.34,1.34,0,0,1-.11-.6,1.07,1.07,0,0,1,.47-.94,2.31,2.31,0,0,1,1.34-.33,3.85,3.85,0,0,1,1.61.36l-.38.9a5.78,5.78,0,0,0-.64-.24,1.81,1.81,0,0,0-.61-.1c-.37,0-.55.1-.55.3a.34.34,0,0,0,.17.29,6,6,0,0,0,.78.37,3.77,3.77,0,0,1,.79.4,1.35,1.35,0,0,1,.37.43A1.51,1.51,0,0,1,56.16,70.88Z"/></svg>