<?xml version="1.0" encoding="utf-8"?>
<!-- Generator: Adobe Illustrator 24.1.0, SVG Export Plug-In . SVG Version: 6.00 Build 0)  -->
<svg version="1.1" id="Capa_1" xmlns="http://www.w3.org/2000/svg" xmlns:xlink="http://www.w3.org/1999/xlink" x="0px" y="0px"
	 viewBox="0 0 70 110" style="enable-background:new 0 0 70 110;" xml:space="preserve">
<style type="text/css">
	.st0{fill:#00667C;}
	.st1{fill:#EFEFEF;}
	.st2{fill:#036381;}
</style>
<g>
	<g>
		<g>
			<circle class="st1" cx="34.76" cy="39.94" r="19.38"/>
		</g>
		<g>
			<g>
				<g>
					<path class="st0" d="M26.74,30.97v17.95c0,0.12,0.1,0.21,0.21,0.21h7.85h7.76c0.12,0,0.21-0.1,0.21-0.21V30.97
						c0-0.12-0.1-0.21-0.21-0.21H34.8h-7.85C26.84,30.76,26.74,30.85,26.74,30.97z M35.01,31.18h7.34v17.53h-7.34V31.18z
						 M27.16,31.18h7.43v17.53h-7.43V31.18z"/>
				</g>
				<g>
					<path class="st0" d="M32.79,38.05c-0.12,0-0.21,0.1-0.21,0.21v2.24c0,0.12,0.1,0.21,0.21,0.21s0.21-0.1,0.21-0.21v-2.24
						C33.01,38.14,32.91,38.05,32.79,38.05z"/>
				</g>
				<g>
					<path class="st0" d="M36.72,38.05c-0.12,0-0.21,0.1-0.21,0.21v2.24c0,0.12,0.1,0.21,0.21,0.21s0.21-0.1,0.21-0.21v-2.24
						C36.93,38.14,36.84,38.05,36.72,38.05z"/>
				</g>
			</g>
		</g>
	</g>
	<g>
		<g>
			<g>
				<path class="st0" d="M24.17,72l-0.44-1.45H21.5L21.06,72h-1.39l2.15-6.12h1.58L25.56,72H24.17z M23.42,69.46
					c-0.41-1.32-0.64-2.06-0.69-2.23s-0.09-0.31-0.11-0.41c-0.09,0.36-0.35,1.24-0.79,2.64H23.42z"/>
				<path class="st0" d="M28.4,72.08c-1.45,0-2.17-0.8-2.17-2.39c0-0.79,0.2-1.4,0.59-1.82c0.4-0.42,0.96-0.63,1.7-0.63
					c0.54,0,1.02,0.11,1.45,0.32l-0.37,0.98c-0.2-0.08-0.39-0.15-0.56-0.2c-0.17-0.05-0.34-0.08-0.52-0.08
					c-0.66,0-0.99,0.47-0.99,1.41c0,0.91,0.33,1.37,0.99,1.37c0.24,0,0.47-0.03,0.68-0.1c0.21-0.07,0.41-0.17,0.62-0.31v1.09
					c-0.21,0.13-0.41,0.22-0.62,0.27C28.99,72.05,28.72,72.08,28.4,72.08z"/>
				<path class="st0" d="M33.08,72.08c-1.45,0-2.17-0.8-2.17-2.39c0-0.79,0.2-1.4,0.59-1.82c0.4-0.42,0.96-0.63,1.7-0.63
					c0.54,0,1.02,0.11,1.45,0.32l-0.37,0.98c-0.2-0.08-0.39-0.15-0.56-0.2c-0.17-0.05-0.34-0.08-0.52-0.08
					c-0.66,0-0.99,0.47-0.99,1.41c0,0.91,0.33,1.37,0.99,1.37c0.24,0,0.47-0.03,0.68-0.1c0.21-0.07,0.41-0.17,0.62-0.31v1.09
					c-0.21,0.13-0.41,0.22-0.62,0.27C33.66,72.05,33.4,72.08,33.08,72.08z"/>
				<path class="st0" d="M37.97,72.08c-0.75,0-1.34-0.21-1.76-0.62c-0.42-0.41-0.63-1-0.63-1.76c0-0.78,0.2-1.38,0.59-1.81
					s0.93-0.64,1.62-0.64c0.66,0,1.17,0.19,1.54,0.56c0.37,0.38,0.55,0.89,0.55,1.56v0.62h-3.01c0.01,0.36,0.12,0.64,0.32,0.85
					c0.2,0.2,0.48,0.3,0.84,0.3c0.28,0,0.55-0.03,0.8-0.09c0.25-0.06,0.51-0.15,0.78-0.28v0.98c-0.22,0.11-0.46,0.19-0.71,0.25
					C38.64,72.05,38.33,72.08,37.97,72.08z M37.79,68.15c-0.27,0-0.48,0.09-0.63,0.26c-0.15,0.17-0.24,0.41-0.26,0.73h1.78
					c-0.01-0.31-0.09-0.56-0.25-0.73C38.27,68.24,38.06,68.15,37.79,68.15z"/>
				<path class="st0" d="M44.44,70.61c0,0.48-0.17,0.84-0.5,1.09c-0.33,0.25-0.83,0.38-1.49,0.38c-0.34,0-0.63-0.02-0.87-0.07
					c-0.24-0.05-0.46-0.11-0.67-0.2v-1.05c0.24,0.11,0.5,0.2,0.8,0.28c0.3,0.07,0.56,0.11,0.78,0.11c0.46,0,0.69-0.13,0.69-0.4
					c0-0.1-0.03-0.18-0.09-0.24c-0.06-0.06-0.17-0.13-0.32-0.21c-0.15-0.08-0.35-0.17-0.6-0.28c-0.36-0.15-0.62-0.29-0.79-0.42
					c-0.17-0.13-0.29-0.28-0.37-0.44c-0.08-0.17-0.11-0.37-0.11-0.61c0-0.41,0.16-0.73,0.48-0.96c0.32-0.23,0.78-0.34,1.37-0.34
					c0.56,0,1.11,0.12,1.64,0.37L44,68.53c-0.23-0.1-0.45-0.18-0.66-0.25c-0.2-0.06-0.41-0.1-0.62-0.1c-0.37,0-0.56,0.1-0.56,0.31
					c0,0.11,0.06,0.21,0.18,0.3c0.12,0.08,0.39,0.21,0.79,0.37c0.36,0.15,0.63,0.28,0.8,0.41c0.17,0.13,0.29,0.28,0.37,0.44
					C44.4,70.18,44.44,70.38,44.44,70.61z"/>
				<path class="st0" d="M49.95,69.66c0,0.76-0.2,1.35-0.6,1.78c-0.4,0.43-0.96,0.64-1.67,0.64c-0.45,0-0.84-0.1-1.19-0.29
					c-0.34-0.2-0.6-0.48-0.79-0.84c-0.18-0.37-0.28-0.79-0.28-1.28c0-0.76,0.2-1.35,0.6-1.78c0.4-0.42,0.96-0.63,1.68-0.63
					c0.45,0,0.84,0.1,1.19,0.29c0.34,0.2,0.6,0.47,0.79,0.84C49.86,68.74,49.95,69.17,49.95,69.66z M46.72,69.66
					c0,0.46,0.08,0.81,0.23,1.05c0.15,0.24,0.4,0.35,0.74,0.35c0.34,0,0.58-0.12,0.73-0.35c0.15-0.23,0.22-0.58,0.22-1.05
					c0-0.46-0.07-0.81-0.23-1.04c-0.15-0.23-0.4-0.35-0.74-0.35c-0.34,0-0.58,0.11-0.73,0.34C46.8,68.84,46.72,69.19,46.72,69.66z"
					/>
				<path class="st0" d="M12.98,83.44c-1.45,0-2.18-0.8-2.18-2.39c0-0.79,0.2-1.4,0.59-1.82c0.39-0.42,0.96-0.63,1.69-0.63
					c0.54,0,1.03,0.11,1.45,0.32l-0.38,0.98c-0.2-0.08-0.39-0.15-0.56-0.2c-0.17-0.05-0.34-0.08-0.52-0.08
					c-0.66,0-0.99,0.47-0.99,1.41c0,0.91,0.33,1.37,0.99,1.37c0.25,0,0.47-0.03,0.68-0.1c0.21-0.07,0.42-0.17,0.63-0.31v1.09
					c-0.21,0.13-0.41,0.22-0.62,0.27C13.56,83.42,13.3,83.44,12.98,83.44z"/>
				<path class="st0" d="M20,81.02c0,0.76-0.2,1.35-0.6,1.78c-0.4,0.43-0.96,0.64-1.67,0.64c-0.45,0-0.84-0.1-1.19-0.29
					c-0.34-0.2-0.6-0.48-0.79-0.84c-0.18-0.37-0.28-0.79-0.28-1.28c0-0.76,0.2-1.35,0.6-1.78c0.4-0.42,0.96-0.63,1.68-0.63
					c0.45,0,0.84,0.1,1.19,0.29c0.34,0.2,0.6,0.47,0.79,0.84C19.9,80.1,20,80.53,20,81.02z M16.77,81.02c0,0.46,0.08,0.81,0.23,1.05
					c0.15,0.24,0.4,0.35,0.74,0.35c0.34,0,0.58-0.12,0.73-0.35c0.15-0.23,0.22-0.58,0.22-1.05c0-0.46-0.07-0.81-0.23-1.04
					c-0.15-0.23-0.4-0.35-0.74-0.35c-0.34,0-0.58,0.11-0.73,0.34C16.85,80.21,16.77,80.55,16.77,81.02z"/>
				<path class="st0" d="M25.63,83.36h-1.27v-2.72c0-0.34-0.06-0.59-0.18-0.76c-0.12-0.17-0.31-0.25-0.57-0.25
					c-0.36,0-0.61,0.12-0.77,0.36c-0.16,0.24-0.24,0.63-0.24,1.18v2.19h-1.27V78.7h0.97l0.17,0.6h0.07
					c0.14-0.23,0.34-0.39,0.59-0.51c0.25-0.12,0.53-0.17,0.85-0.17c0.54,0,0.95,0.15,1.23,0.44c0.28,0.29,0.42,0.72,0.42,1.27V83.36
					z"/>
				<path class="st0" d="M29.19,82.43c0.22,0,0.49-0.05,0.8-0.15v0.95c-0.32,0.14-0.71,0.21-1.17,0.21c-0.51,0-0.88-0.13-1.11-0.39
					c-0.23-0.26-0.35-0.64-0.35-1.16v-2.25h-0.61v-0.54l0.7-0.43l0.37-0.98h0.81v0.99h1.3v0.95h-1.3v2.25c0,0.18,0.05,0.31,0.15,0.4
					C28.89,82.38,29.02,82.43,29.19,82.43z"/>
				<path class="st0" d="M33.82,78.61c0.17,0,0.32,0.01,0.43,0.04l-0.1,1.19c-0.1-0.03-0.23-0.04-0.37-0.04
					c-0.41,0-0.72,0.1-0.95,0.31c-0.23,0.21-0.34,0.5-0.34,0.88v2.37h-1.27V78.7h0.96l0.19,0.78h0.06c0.15-0.26,0.34-0.47,0.59-0.63
					C33.26,78.69,33.53,78.61,33.82,78.61z"/>
				<path class="st0" d="M39.61,81.02c0,0.76-0.2,1.35-0.6,1.78c-0.4,0.43-0.96,0.64-1.67,0.64c-0.45,0-0.84-0.1-1.19-0.29
					c-0.34-0.2-0.6-0.48-0.79-0.84c-0.18-0.37-0.28-0.79-0.28-1.28c0-0.76,0.2-1.35,0.6-1.78c0.4-0.42,0.96-0.63,1.68-0.63
					c0.45,0,0.84,0.1,1.19,0.29c0.34,0.2,0.6,0.47,0.79,0.84C39.52,80.1,39.61,80.53,39.61,81.02z M36.39,81.02
					c0,0.46,0.08,0.81,0.23,1.05c0.15,0.24,0.4,0.35,0.74,0.35c0.34,0,0.58-0.12,0.73-0.35c0.15-0.23,0.22-0.58,0.22-1.05
					c0-0.46-0.07-0.81-0.23-1.04c-0.15-0.23-0.4-0.35-0.74-0.35c-0.34,0-0.58,0.11-0.73,0.34C36.46,80.21,36.39,80.55,36.39,81.02z"
					/>
				<path class="st0" d="M42.21,83.36h-1.27v-6.49h1.27V83.36z"/>
				<path class="st0" d="M46.8,83.36l-0.25-0.63h-0.03c-0.21,0.27-0.44,0.46-0.66,0.56c-0.23,0.1-0.52,0.16-0.89,0.16
					c-0.45,0-0.8-0.13-1.06-0.38c-0.26-0.26-0.39-0.62-0.39-1.09c0-0.49,0.17-0.86,0.52-1.1c0.35-0.23,0.87-0.36,1.57-0.39
					l0.81-0.03v-0.2c0-0.47-0.24-0.71-0.72-0.71c-0.37,0-0.81,0.11-1.32,0.34l-0.42-0.86c0.54-0.28,1.13-0.42,1.78-0.42
					c0.63,0,1.11,0.14,1.44,0.41c0.33,0.27,0.5,0.69,0.5,1.24v3.11H46.8z M46.42,81.2l-0.49,0.02c-0.37,0.01-0.65,0.08-0.83,0.2
					c-0.18,0.12-0.27,0.31-0.27,0.56c0,0.36,0.21,0.54,0.62,0.54c0.3,0,0.53-0.09,0.71-0.25c0.18-0.17,0.26-0.39,0.26-0.68V81.2z"/>
				<path class="st0" d="M50.75,83.44c-0.55,0-0.98-0.21-1.29-0.64c-0.31-0.43-0.47-1.01-0.47-1.77c0-0.76,0.16-1.36,0.48-1.79
					c0.32-0.43,0.76-0.64,1.32-0.64c0.59,0,1.04,0.23,1.35,0.68h0.04c-0.07-0.35-0.09-0.66-0.09-0.93v-1.49h1.27v6.49h-0.98
					l-0.24-0.6h-0.05C51.78,83.21,51.34,83.44,50.75,83.44z M51.2,82.43c0.33,0,0.56-0.09,0.71-0.28c0.15-0.19,0.24-0.51,0.25-0.96
					v-0.14c0-0.5-0.08-0.86-0.23-1.08c-0.15-0.22-0.41-0.33-0.75-0.33c-0.28,0-0.5,0.12-0.66,0.36c-0.16,0.24-0.24,0.59-0.24,1.05
					c0,0.46,0.08,0.8,0.24,1.03C50.67,82.31,50.9,82.43,51.2,82.43z"/>
				<path class="st0" d="M59.2,81.02c0,0.76-0.2,1.35-0.6,1.78c-0.4,0.43-0.96,0.64-1.67,0.64c-0.45,0-0.84-0.1-1.19-0.29
					c-0.34-0.2-0.6-0.48-0.79-0.84c-0.18-0.37-0.28-0.79-0.28-1.28c0-0.76,0.2-1.35,0.6-1.78c0.4-0.42,0.96-0.63,1.68-0.63
					c0.45,0,0.84,0.1,1.19,0.29c0.34,0.2,0.6,0.47,0.79,0.84C59.1,80.1,59.2,80.53,59.2,81.02z M55.97,81.02
					c0,0.46,0.08,0.81,0.23,1.05c0.15,0.24,0.4,0.35,0.74,0.35c0.34,0,0.58-0.12,0.73-0.35c0.15-0.23,0.22-0.58,0.22-1.05
					c0-0.46-0.07-0.81-0.23-1.04c-0.15-0.23-0.4-0.35-0.74-0.35c-0.34,0-0.58,0.11-0.73,0.34C56.05,80.21,55.97,80.55,55.97,81.02z"
					/>
			</g>
		</g>
	</g>
</g>
</svg>
