<?xml version="1.0" encoding="utf-8"?>
<!-- Generator: Adobe Illustrator 23.0.1, SVG Export Plug-In . SVG Version: 6.00 Build 0)  -->
<svg version="1.1" id="Layer_1" xmlns="http://www.w3.org/2000/svg" xmlns:xlink="http://www.w3.org/1999/xlink" x="0px" y="0px"
	 viewBox="0 0 24 24" style="enable-background:new 0 0 24 24;" xml:space="preserve">
<style type="text/css">
	.st0{fill:#154C5E;}
	.st1{fill:#B7625E;}
	.st2{fill:#ECECE6;}
	.st3{opacity:0.27;fill:#F1A899;}
	.st4{fill:none;}
	.st5{fill:#F1A899;}
	.st6{fill-rule:evenodd;clip-rule:evenodd;fill:#154C5E;}
	.st7{opacity:0.41;fill:#F1A899;}
	.st8{fill:#F4CD87;}
	.st9{fill:none;stroke:#154C5E;stroke-miterlimit:10;}
	.st10{opacity:0.24;fill:#B7625E;}
</style>
<g>
	<circle class="st2" cx="12" cy="12" r="11.66"/>
	<g>
		<g>
			<path class="st0" d="M7.01,8.12c0.53,0,2.14-0.11,3.02-1.33h4.05c0.15,0.32,0.8,1.31,2.91,1.47c-0.07,0.86-0.62,5.76-4.99,8.92
				C7.65,14.03,7.08,9.03,7.01,8.12z M12,17.48c0.03,0,0.07-0.01,0.09-0.03c4.98-3.52,5.21-9.26,5.21-9.32
				c0-0.07-0.06-0.14-0.14-0.14c-2.38-0.12-2.82-1.33-2.83-1.38c-0.02-0.06-0.08-0.1-0.14-0.1H9.95c-0.05,0-0.1,0.02-0.13,0.07
				C8.88,7.95,6.88,7.84,6.86,7.84c-0.04,0-0.08,0.01-0.12,0.04C6.71,7.9,6.7,7.94,6.7,7.98c0,0.06,0.23,5.95,5.21,9.48
				C11.93,17.47,11.97,17.48,12,17.48z"/>
			<path class="st0" d="M11.97,12.42c-1.3,0-2.41-1.13-2.7-1.45c0.29-0.32,1.4-1.45,2.7-1.45c1.3,0,2.41,1.13,2.7,1.45
				C14.39,11.29,13.27,12.42,11.97,12.42z M14.99,11.05c0.04-0.05,0.04-0.12,0-0.16c-0.05-0.07-1.36-1.64-3.02-1.64
				s-2.96,1.57-3.02,1.64c-0.04,0.05-0.04,0.12,0,0.16c0.05,0.07,1.36,1.64,3.02,1.64S14.93,11.12,14.99,11.05z"/>
			<path class="st0" d="M11.97,11.91c-0.57,0-1.03-0.42-1.03-0.93s0.46-0.93,1.03-0.93c0.57,0,1.03,0.42,1.03,0.93
				S12.54,11.91,11.97,11.91z M11.97,9.76c-0.73,0-1.33,0.54-1.33,1.21s0.6,1.21,1.33,1.21c0.73,0,1.33-0.54,1.33-1.21
				S12.71,9.76,11.97,9.76z"/>
		</g>
	</g>
</g>
</svg>
