<?xml version="1.0" encoding="utf-8"?>
<!-- Generator: Adobe Illustrator 23.0.1, SVG Export Plug-In . SVG Version: 6.00 Build 0)  -->
<svg version="1.1" id="Layer_1" xmlns="http://www.w3.org/2000/svg" xmlns:xlink="http://www.w3.org/1999/xlink" x="0px" y="0px"
	 viewBox="0 0 24 24" style="enable-background:new 0 0 24 24;" xml:space="preserve">
<style type="text/css">
	.st0{fill:#154C5E;}
	.st1{fill:#B7625E;}
	.st2{fill:#ECECE6;}
	.st3{opacity:0.27;fill:#F1A899;}
	.st4{fill:none;}
	.st5{fill:#F1A899;}
	.st6{fill-rule:evenodd;clip-rule:evenodd;fill:#154C5E;}
	.st7{opacity:0.41;fill:#F1A899;}
	.st8{fill:#F4CD87;}
	.st9{fill:none;stroke:#154C5E;stroke-miterlimit:10;}
	.st10{opacity:0.24;fill:#B7625E;}
</style>
<g>
	<circle class="st2" cx="12" cy="12" r="11.66"/>
	<g>
		<g>
			<path class="st0" d="M12,18.56c-0.15,0-0.3-0.05-0.42-0.16c-0.19-0.17-4.6-4.1-4.6-7.93c0-2.77,2.25-5.02,5.02-5.02
				s5.02,2.25,5.02,5.02c0,3.83-4.41,7.77-4.6,7.93C12.3,18.51,12.15,18.56,12,18.56z M12,5.84c-2.55,0-4.62,2.07-4.62,4.62
				c0,3.66,4.28,7.47,4.47,7.63c0.09,0.08,0.22,0.08,0.31,0c0.18-0.16,4.47-3.98,4.47-7.63C16.62,7.92,14.55,5.84,12,5.84z
				 M11.82,12.88l0-0.03c-1.23-0.1-2.21-1.13-2.21-2.39c0-1.32,1.07-2.39,2.39-2.39s2.39,1.07,2.39,2.39
				c0.01,1.32-1.05,2.4-2.37,2.41L11.82,12.88z M12,8.47c-1.1,0-1.99,0.89-1.99,1.99s0.89,1.99,1.99,1.99l0.2,0.01
				c1.02-0.11,1.8-0.96,1.79-2C13.99,9.37,13.1,8.47,12,8.47z"/>
		</g>
	</g>
</g>
</svg>
