<?xml version="1.0" encoding="utf-8"?>
<!-- Generator: Adobe Illustrator 23.0.1, SVG Export Plug-In . SVG Version: 6.00 Build 0)  -->
<svg version="1.1" id="Layer_1" xmlns="http://www.w3.org/2000/svg" xmlns:xlink="http://www.w3.org/1999/xlink" x="0px" y="0px"
	 viewBox="0 0 25 25" style="enable-background:new 0 0 25 25;" xml:space="preserve">
<style type="text/css">
	.st0{fill:#154C5E;}
	.st1{fill:#B7625E;}
	.st2{fill:#ECECE6;}
	.st3{opacity:0.27;fill:#F1A899;}
	.st4{fill:none;}
	.st5{fill:#F1A899;}
	.st6{fill-rule:evenodd;clip-rule:evenodd;fill:#154C5E;}
	.st7{opacity:0.41;fill:#F1A899;}
	.st8{fill:#F4CD87;}
	.st9{fill:none;stroke:#154C5E;stroke-miterlimit:10;}
	.st10{opacity:0.24;fill:#B7625E;}
</style>
<g>
	<path class="st5" d="M12.5,2.35c-4.25,0-7.7,3.45-7.7,7.7c0,5.95,6.95,12.17,7.24,12.43c0.26,0.23,0.66,0.23,0.92,0
		c0.29-0.26,7.24-6.48,7.24-12.43C20.2,5.8,16.75,2.35,12.5,2.35z M12.5,13.55c-1.93,0-3.5-1.57-3.5-3.5s1.57-3.5,3.5-3.5
		s3.5,1.57,3.5,3.5c0.02,1.93-1.54,3.51-3.47,3.53c-0.01,0-0.02,0-0.03,0V13.55z"/>
</g>
</svg>
