<?xml version="1.0" encoding="utf-8"?>
<!-- Generator: Adobe Illustrator 23.0.1, SVG Export Plug-In . SVG Version: 6.00 Build 0)  -->
<svg version="1.1" id="Layer_1" xmlns="http://www.w3.org/2000/svg" xmlns:xlink="http://www.w3.org/1999/xlink" x="0px" y="0px"
	 viewBox="0 0 232.5 293.87" style="enable-background:new 0 0 232.5 293.87;" xml:space="preserve">
<style type="text/css">
	.st0{fill:#154C5E;}
	.st1{fill:#B7625E;}
	.st2{fill:#ECECE6;}
	.st3{opacity:0.27;fill:#F1A899;}
	.st4{fill:none;}
	.st5{fill:#F1A899;}
	.st6{fill-rule:evenodd;clip-rule:evenodd;fill:#154C5E;}
	.st7{opacity:0.41;fill:#F1A899;}
	.st8{fill:#F4CD87;}
	.st9{fill:none;stroke:#154C5E;stroke-miterlimit:10;}
	.st10{opacity:0.24;fill:#B7625E;}
</style>
<g>
	<path class="st0" d="M136.51,37.52c-0.16,0.02-0.33,0.06-0.48,0.09c-0.16,0.03-0.31,0.05-0.47,0.05c-0.04,0-0.08,0-0.12,0
		c-0.04,0-0.08,0-0.12,0c-0.08,0-0.16,0-0.23-0.01c-0.08-0.01-0.16-0.01-0.23-0.02c-0.08-0.01-0.16-0.02-0.23-0.03
		c-0.15-0.02-0.3-0.05-0.45-0.09c-0.15-0.04-0.28-0.09-0.44-0.15c-0.15-0.06-0.33-0.12-0.5-0.16c-0.18-0.04-0.35-0.08-0.53-0.1
		c-0.09-0.01-0.17-0.02-0.26-0.03c-0.09-0.01-0.17-0.01-0.26-0.02c-0.09-0.01-0.18-0.01-0.27-0.01c-0.04,0-0.09,0-0.14,0
		c-0.05,0-0.09,0-0.14,0.01c-0.18,0.01-0.37,0.04-0.55,0.07c-0.18,0.03-0.32,0.06-0.46,0.08c-0.14,0.02-0.27,0.02-0.41,0.02l-0.05,0
		l-0.05,0l-0.11,0l-0.22-0.02c-0.07-0.01-0.14-0.02-0.21-0.03l-0.1-0.02l-0.05-0.01l-0.05-0.01c-0.13-0.03-0.25-0.06-0.38-0.1
		c-0.03-0.01-0.06-0.02-0.1-0.03l-0.1-0.04l-0.11-0.04c-0.04-0.01-0.08-0.03-0.13-0.04c-0.17-0.06-0.38-0.12-0.57-0.16
		c-0.05-0.01-0.1-0.02-0.15-0.03c-0.05-0.01-0.1-0.02-0.15-0.02l-0.14-0.02l-0.07-0.01l-0.07-0.01c-0.09-0.01-0.19-0.02-0.28-0.02
		L127,36.59c-0.05,0-0.1,0-0.14,0c-0.19,0-0.4,0.01-0.6,0.03c-0.21,0.02-0.41,0.07-0.57,0.1c-0.16,0.03-0.27,0.04-0.39,0.05
		c-0.11,0-0.23,0-0.36,0c-0.03,0-0.06,0-0.1-0.01l-0.1-0.01c-0.07,0-0.13-0.02-0.2-0.02l-0.05-0.01l-0.05-0.01l-0.09-0.02
		c-0.03-0.01-0.06-0.01-0.09-0.02c-0.03-0.01-0.06-0.01-0.08-0.02c-0.11-0.03-0.2-0.06-0.32-0.11l-0.1-0.04
		c-0.03-0.01-0.08-0.03-0.12-0.04c-0.04-0.01-0.09-0.03-0.14-0.05c-0.02-0.01-0.05-0.02-0.07-0.02l-0.08-0.02
		c-0.12-0.03-0.24-0.05-0.36-0.08l0.05-0.05c0.05-0.04,0.08-0.08,0.24-0.1l0.15-0.02l0.08-0.01l0.04-0.01l0.05-0.01
		c0.03-0.01,0.06-0.01,0.09-0.02l0.1-0.02c0.06-0.01,0.13-0.04,0.19-0.06c0.06-0.02,0.12-0.04,0.18-0.07
		c0.03-0.01,0.06-0.02,0.09-0.04l0.08-0.04c0.11-0.05,0.2-0.11,0.29-0.17c0.18-0.12,0.36-0.26,0.53-0.44
		c0.04-0.05,0.09-0.09,0.12-0.14l0.06-0.07c0.02-0.02,0.03-0.05,0.05-0.07l0.03-0.04c0.01-0.01,0.02-0.02,0.02-0.04l0.04-0.07
		c0.01-0.01,0.01-0.02,0.02-0.03l0.02-0.03l0.03-0.06c0.08-0.15,0.11-0.23,0.17-0.32c0.06-0.09,0.14-0.17,0.24-0.26
		c0.1-0.08,0.21-0.15,0.31-0.21c0.1-0.05,0.21-0.09,0.37-0.12c0.09-0.01,0.18-0.03,0.28-0.05c0.02-0.01,0.05-0.01,0.07-0.02
		l0.07-0.02c0.05-0.01,0.1-0.03,0.14-0.05c0.19-0.07,0.35-0.17,0.5-0.27c0.15-0.11,0.29-0.23,0.42-0.37
		c0.03-0.04,0.06-0.07,0.09-0.11l0.04-0.06c0.01-0.02,0.03-0.04,0.04-0.06c0.05-0.08,0.09-0.16,0.13-0.23
		c0.08-0.15,0.16-0.29,0.26-0.41c0.1-0.12,0.23-0.23,0.36-0.33c-0.16,0.04-0.32,0.1-0.47,0.18c-0.04,0.02-0.08,0.04-0.11,0.07
		l-0.05,0.04c-0.02,0.01-0.03,0.03-0.05,0.04c-0.07,0.05-0.13,0.11-0.2,0.17c-0.12,0.11-0.24,0.2-0.37,0.26
		c-0.13,0.06-0.27,0.11-0.41,0.15c-0.15,0.03-0.29,0.05-0.42,0.05c-0.13,0-0.25-0.03-0.42-0.06l-0.07-0.01
		c-0.02,0-0.04-0.01-0.07-0.01l-0.07-0.01c-0.02,0-0.05-0.01-0.08-0.01c-0.03,0-0.05,0-0.08-0.01l-0.08,0c-0.06,0-0.11,0-0.17,0
		c-0.22,0.01-0.42,0.06-0.62,0.11c-0.19,0.06-0.39,0.13-0.59,0.26c-0.05,0.03-0.1,0.06-0.14,0.1l-0.07,0.05
		c-0.02,0.02-0.04,0.04-0.07,0.05c-0.02,0.02-0.04,0.04-0.06,0.05l-0.06,0.05l-0.1,0.09c-0.12,0.11-0.2,0.14-0.28,0.17
		c-0.08,0.03-0.18,0.05-0.3,0.07c-0.12,0.02-0.22,0.02-0.29,0c-0.08-0.02-0.12-0.04-0.29-0.08L123,33.56l-0.01,0
		c0.01-0.01,0.02-0.02,0.03-0.03l0.1-0.11l0.05-0.06l0.05-0.06c0.06-0.07,0.12-0.15,0.18-0.22l0.09-0.11
		c0.03-0.04,0.06-0.08,0.09-0.12c0.11-0.16,0.23-0.34,0.33-0.52c0.1-0.19,0.19-0.38,0.25-0.53c0.06-0.15,0.1-0.26,0.15-0.37
		c0.05-0.11,0.11-0.21,0.18-0.33c0.02-0.03,0.03-0.06,0.05-0.08l0.06-0.08c0.04-0.06,0.08-0.11,0.12-0.17l0.03-0.04l0.03-0.04
		l0.06-0.08c0.02-0.03,0.04-0.05,0.06-0.07c0.02-0.02,0.04-0.05,0.06-0.07c0.09-0.09,0.17-0.17,0.28-0.26
		c0.03-0.02,0.06-0.05,0.09-0.07l0.1-0.07l0.11-0.08c0.04-0.03,0.07-0.06,0.11-0.09c0.15-0.12,0.3-0.26,0.43-0.39l0.05-0.05
		l0.05-0.05l0.09-0.1c0.06-0.07,0.11-0.14,0.17-0.21c0.05-0.07,0.11-0.14,0.16-0.22l0.08-0.11l0.04-0.06l0.04-0.06
		c0.1-0.15,0.2-0.33,0.28-0.5c0.08-0.17,0.14-0.33,0.2-0.47c0.06-0.14,0.11-0.26,0.18-0.39c0.02-0.03,0.03-0.06,0.05-0.09
		c0.02-0.03,0.04-0.06,0.06-0.09c0.04-0.06,0.08-0.12,0.12-0.18c0.04-0.06,0.09-0.12,0.13-0.18l0.07-0.09
		c0.02-0.03,0.05-0.06,0.07-0.09c0.09-0.12,0.19-0.22,0.3-0.32c0.11-0.1,0.22-0.19,0.35-0.29c0.13-0.1,0.27-0.2,0.4-0.32
		c0.13-0.12,0.25-0.24,0.36-0.37c0.06-0.06,0.11-0.13,0.16-0.2c0.05-0.06,0.1-0.13,0.15-0.2c0.05-0.07,0.1-0.14,0.14-0.21
		c0.02-0.03,0.05-0.07,0.07-0.11c0.02-0.04,0.05-0.07,0.07-0.11c0.09-0.15,0.16-0.3,0.22-0.46c0.06-0.15,0.12-0.31,0.19-0.45
		c0.13-0.29,0.31-0.56,0.51-0.82c-0.25,0.21-0.48,0.44-0.68,0.7c-0.1,0.13-0.19,0.27-0.28,0.4c-0.09,0.13-0.19,0.25-0.29,0.37
		c-0.03,0.03-0.05,0.06-0.08,0.08c-0.03,0.03-0.05,0.06-0.08,0.08c-0.06,0.05-0.11,0.11-0.17,0.16c-0.06,0.05-0.12,0.1-0.18,0.15
		c-0.06,0.05-0.12,0.1-0.18,0.14c-0.12,0.09-0.25,0.17-0.38,0.25c-0.13,0.07-0.27,0.14-0.42,0.2c-0.15,0.07-0.31,0.15-0.47,0.24
		c-0.16,0.09-0.31,0.19-0.45,0.3c-0.07,0.05-0.14,0.11-0.21,0.16c-0.07,0.05-0.13,0.11-0.2,0.17c-0.07,0.06-0.13,0.12-0.19,0.18
		c-0.03,0.03-0.06,0.06-0.09,0.1c-0.03,0.03-0.06,0.07-0.09,0.1c-0.12,0.14-0.24,0.29-0.34,0.44c-0.1,0.15-0.18,0.27-0.27,0.38
		c-0.09,0.11-0.17,0.21-0.27,0.3l-0.04,0.04l-0.04,0.04l-0.08,0.07l-0.17,0.14c-0.06,0.04-0.11,0.09-0.17,0.13l-0.09,0.06
		l-0.04,0.03l-0.04,0.03c-0.11,0.08-0.22,0.14-0.34,0.19c-0.03,0.01-0.06,0.03-0.09,0.04l-0.1,0.05l-0.11,0.05
		c-0.04,0.02-0.08,0.04-0.12,0.06c-0.17,0.08-0.35,0.18-0.52,0.29c-0.04,0.03-0.08,0.06-0.12,0.08c-0.04,0.03-0.08,0.06-0.12,0.09
		l-0.11,0.09l-0.06,0.04l-0.05,0.04c-0.07,0.06-0.14,0.12-0.21,0.18l-0.1,0.09c-0.03,0.03-0.07,0.07-0.1,0.1
		c-0.14,0.13-0.28,0.28-0.4,0.45c-0.13,0.16-0.25,0.34-0.34,0.47c-0.09,0.14-0.16,0.22-0.24,0.31c-0.08,0.08-0.16,0.16-0.26,0.25
		c-0.02,0.02-0.05,0.04-0.07,0.06l-0.08,0.06c-0.05,0.04-0.1,0.08-0.16,0.12l-0.04,0.03l-0.04,0.03L121,31.38
		c-0.03,0.02-0.05,0.03-0.08,0.05c-0.02,0.02-0.05,0.03-0.07,0.04c-0.1,0.06-0.19,0.09-0.31,0.15l-0.1,0.04
		c-0.03,0.01-0.08,0.03-0.12,0.05c-0.04,0.02-0.09,0.04-0.13,0.06c-0.02,0.01-0.04,0.02-0.07,0.03l-0.07,0.04
		c-0.11,0.06-0.2,0.13-0.31,0.2l0-0.07c0-0.06,0-0.11,0.1-0.24l0.09-0.12l0.05-0.07l0.03-0.04l0.03-0.04
		c0.02-0.03,0.04-0.05,0.05-0.08l0.05-0.08c0.04-0.06,0.06-0.11,0.09-0.17c0.03-0.06,0.05-0.12,0.08-0.17
		c0.01-0.03,0.02-0.06,0.03-0.09l0.03-0.08c0.04-0.11,0.06-0.22,0.08-0.33c0.04-0.21,0.07-0.44,0.06-0.69c0-0.06,0-0.12-0.01-0.19
		l-0.01-0.09c0-0.03-0.01-0.06-0.02-0.09l-0.01-0.04c0-0.01-0.01-0.03-0.01-0.04l-0.02-0.08c0-0.01-0.01-0.03-0.01-0.04l-0.01-0.03
		l-0.02-0.07c-0.05-0.16-0.09-0.24-0.11-0.35c-0.02-0.1-0.02-0.22-0.01-0.36c0.02-0.13,0.04-0.25,0.07-0.36
		c0.03-0.11,0.08-0.21,0.18-0.34c0.05-0.07,0.11-0.14,0.16-0.23c0.01-0.02,0.03-0.04,0.04-0.06l0.04-0.07
		c0.03-0.04,0.05-0.09,0.07-0.14c0.08-0.18,0.13-0.37,0.16-0.55c0.03-0.18,0.05-0.37,0.03-0.56c0-0.05-0.01-0.09-0.01-0.14
		l-0.01-0.07c0-0.02-0.01-0.05-0.01-0.07c-0.02-0.09-0.05-0.18-0.07-0.26c-0.05-0.16-0.1-0.31-0.11-0.48
		c-0.02-0.16,0-0.32,0.02-0.49c-0.08,0.14-0.16,0.29-0.2,0.46c-0.01,0.04-0.02,0.08-0.03,0.13l-0.01,0.06
		c0,0.02-0.01,0.04-0.01,0.06c-0.01,0.09-0.02,0.17-0.02,0.26c-0.01,0.17-0.03,0.31-0.07,0.45c-0.04,0.14-0.11,0.27-0.19,0.39
		c-0.08,0.13-0.17,0.24-0.26,0.33c-0.1,0.09-0.2,0.16-0.34,0.25l-0.06,0.04c-0.02,0.01-0.04,0.03-0.06,0.04l-0.06,0.04
		c-0.02,0.01-0.04,0.03-0.06,0.05c-0.02,0.02-0.04,0.03-0.06,0.05l-0.06,0.06c-0.04,0.04-0.08,0.08-0.11,0.12
		c-0.15,0.17-0.26,0.34-0.36,0.52c-0.09,0.18-0.18,0.37-0.23,0.59c-0.01,0.06-0.03,0.11-0.03,0.17l-0.01,0.09
		c0,0.03-0.01,0.06-0.01,0.08c0,0.03-0.01,0.06-0.01,0.08l0,0.08l-0.01,0.14c-0.01,0.17-0.04,0.24-0.08,0.32
		c-0.04,0.08-0.09,0.16-0.16,0.26c-0.07,0.09-0.14,0.17-0.2,0.21c-0.07,0.04-0.12,0.06-0.26,0.15l-0.06,0.04l-0.01,0.01
		c0-0.01,0-0.03,0-0.04l-0.01-0.15l0-0.07l-0.01-0.07c-0.01-0.1-0.02-0.19-0.03-0.29l-0.02-0.14c-0.01-0.05-0.02-0.1-0.02-0.15
		c-0.03-0.19-0.08-0.4-0.14-0.6c-0.06-0.2-0.14-0.4-0.2-0.55c-0.07-0.15-0.11-0.26-0.16-0.37c-0.04-0.11-0.08-0.23-0.1-0.36
		c-0.01-0.03-0.02-0.06-0.02-0.1l-0.02-0.1c-0.01-0.07-0.02-0.14-0.03-0.21l-0.01-0.05l0-0.05l-0.01-0.1c0-0.03,0-0.06-0.01-0.1
		c0-0.03,0-0.06,0-0.09c-0.01-0.13,0-0.24,0.02-0.38c0-0.03,0.01-0.07,0.01-0.11l0.02-0.12l0.02-0.13c0.01-0.04,0.01-0.09,0.02-0.14
		c0.02-0.19,0.03-0.39,0.02-0.58l0-0.07l0-0.07l-0.01-0.14c-0.01-0.09-0.02-0.18-0.03-0.27c-0.01-0.09-0.02-0.18-0.04-0.27
		l-0.02-0.14L117,24.05l-0.02-0.07c-0.04-0.18-0.09-0.37-0.16-0.55c-0.06-0.18-0.14-0.34-0.19-0.48c-0.06-0.14-0.11-0.26-0.15-0.4
		c-0.01-0.03-0.02-0.07-0.03-0.1c-0.01-0.03-0.02-0.07-0.03-0.1c-0.01-0.07-0.03-0.14-0.04-0.22c-0.01-0.07-0.03-0.15-0.03-0.22
		l-0.01-0.11c0-0.04-0.01-0.07-0.01-0.11c-0.01-0.15-0.02-0.29-0.01-0.44c0-0.14,0.02-0.29,0.04-0.45c0.02-0.16,0.05-0.34,0.06-0.51
		c0.01-0.18,0.01-0.35-0.01-0.52c0-0.09-0.01-0.17-0.02-0.25c-0.01-0.08-0.02-0.17-0.03-0.25c-0.01-0.08-0.03-0.17-0.04-0.25
		c-0.01-0.04-0.02-0.08-0.03-0.12c-0.01-0.04-0.02-0.08-0.03-0.12c-0.04-0.16-0.1-0.33-0.17-0.48c-0.06-0.16-0.13-0.3-0.19-0.45
		c-0.11-0.3-0.18-0.62-0.23-0.94c-0.03,0.32-0.03,0.65,0.02,0.98c0.02,0.16,0.06,0.33,0.09,0.48c0.03,0.16,0.05,0.31,0.05,0.46
		c0,0.04,0,0.08,0,0.12c0,0.04,0,0.08,0,0.12c0,0.08,0,0.15-0.01,0.23c-0.01,0.08-0.01,0.16-0.02,0.23
		c-0.01,0.08-0.02,0.16-0.03,0.23c-0.02,0.15-0.05,0.3-0.09,0.44c-0.04,0.14-0.09,0.28-0.15,0.44c-0.06,0.15-0.12,0.32-0.16,0.5
		c-0.04,0.17-0.08,0.35-0.1,0.53c-0.01,0.09-0.02,0.17-0.03,0.26c-0.01,0.09-0.01,0.17-0.02,0.26c-0.01,0.09-0.01,0.18-0.01,0.26
		c0,0.04,0,0.09,0,0.14c0,0.05,0,0.09,0.01,0.14c0.01,0.18,0.04,0.37,0.07,0.55c0.03,0.17,0.06,0.32,0.08,0.46
		c0.02,0.14,0.02,0.27,0.02,0.41l0,0.05l0,0.05l0,0.11l-0.02,0.22c-0.01,0.07-0.02,0.14-0.03,0.21l-0.02,0.1l-0.01,0.05l-0.01,0.05
		c-0.03,0.13-0.06,0.25-0.1,0.38c-0.01,0.03-0.02,0.06-0.03,0.1l-0.04,0.1l-0.04,0.11c-0.01,0.04-0.03,0.08-0.04,0.13
		c-0.06,0.17-0.12,0.38-0.16,0.57c-0.01,0.05-0.02,0.1-0.03,0.15c-0.01,0.05-0.02,0.1-0.02,0.14l-0.02,0.14l-0.01,0.07l-0.01,0.07
		c-0.01,0.09-0.02,0.18-0.02,0.28l-0.01,0.14c0,0.05,0,0.1,0,0.14c0,0.19,0.01,0.39,0.03,0.6c0.02,0.2,0.07,0.41,0.1,0.57
		c0.03,0.16,0.05,0.27,0.05,0.39c0,0.11,0,0.23-0.01,0.36c0,0.03,0,0.06-0.01,0.1l-0.01,0.1c0,0.07-0.02,0.13-0.02,0.2l-0.01,0.05
		l-0.01,0.05l-0.02,0.09c-0.01,0.03-0.01,0.06-0.02,0.09c-0.01,0.03-0.01,0.06-0.02,0.08c-0.03,0.11-0.07,0.2-0.11,0.32l-0.04,0.1
		c-0.01,0.03-0.03,0.08-0.04,0.12c-0.01,0.04-0.03,0.09-0.05,0.14c-0.01,0.02-0.02,0.05-0.02,0.07l-0.02,0.08
		c-0.03,0.12-0.05,0.24-0.08,0.36l-0.05-0.05c-0.04-0.04-0.08-0.08-0.1-0.24l-0.02-0.15l-0.01-0.08l-0.01-0.04l-0.01-0.05
		c-0.01-0.03-0.01-0.06-0.02-0.09l-0.02-0.1c-0.01-0.06-0.04-0.13-0.06-0.19c-0.02-0.06-0.04-0.12-0.07-0.18
		c-0.01-0.03-0.02-0.06-0.04-0.08l-0.04-0.08c-0.05-0.11-0.11-0.2-0.17-0.29c-0.12-0.18-0.26-0.36-0.45-0.53
		c-0.05-0.04-0.09-0.08-0.14-0.12l-0.07-0.06c-0.02-0.02-0.05-0.03-0.07-0.05l-0.04-0.03c-0.01-0.01-0.02-0.02-0.04-0.02l-0.07-0.04
		c-0.01-0.01-0.02-0.01-0.03-0.02l-0.03-0.02l-0.06-0.03c-0.15-0.08-0.23-0.11-0.32-0.17c-0.09-0.06-0.17-0.14-0.26-0.24
		c-0.08-0.1-0.15-0.2-0.21-0.31c-0.05-0.1-0.09-0.21-0.12-0.37c-0.01-0.08-0.03-0.18-0.05-0.28c-0.01-0.02-0.01-0.05-0.02-0.07
		l-0.02-0.07c-0.01-0.05-0.03-0.1-0.05-0.14c-0.07-0.19-0.17-0.35-0.27-0.5c-0.11-0.15-0.23-0.29-0.37-0.42
		c-0.04-0.03-0.07-0.06-0.11-0.09l-0.06-0.04c-0.02-0.01-0.04-0.03-0.06-0.04c-0.08-0.05-0.16-0.09-0.24-0.13
		c-0.15-0.08-0.29-0.15-0.42-0.26c-0.12-0.1-0.23-0.23-0.33-0.36c0.04,0.16,0.1,0.32,0.18,0.47c0.02,0.04,0.04,0.08,0.07,0.11
		l0.04,0.05c0.01,0.02,0.03,0.03,0.04,0.05c0.05,0.07,0.11,0.13,0.17,0.2c0.11,0.12,0.2,0.24,0.26,0.37
		c0.06,0.13,0.11,0.27,0.15,0.41c0.03,0.15,0.05,0.29,0.05,0.42c0,0.13-0.03,0.25-0.07,0.42l-0.01,0.07c0,0.02-0.01,0.04-0.01,0.07
		l-0.01,0.07c0,0.02-0.01,0.05-0.01,0.08c0,0.03,0,0.05-0.01,0.08l0,0.08c0,0.06,0,0.11,0,0.16c0.01,0.22,0.06,0.42,0.11,0.61
		c0.06,0.19,0.14,0.39,0.26,0.58c0.03,0.05,0.06,0.1,0.1,0.14l0.05,0.07c0.02,0.02,0.04,0.04,0.05,0.07
		c0.02,0.02,0.04,0.04,0.05,0.06l0.05,0.06l0.09,0.1c0.11,0.12,0.14,0.19,0.17,0.28c0.03,0.08,0.05,0.18,0.07,0.29
		c0.02,0.12,0.02,0.22,0,0.29c-0.02,0.08-0.04,0.12-0.08,0.29l-0.01,0.07l0,0.01c-0.01-0.01-0.02-0.02-0.03-0.03l-0.11-0.1
		l-0.06-0.05l-0.06-0.05c-0.07-0.06-0.15-0.12-0.23-0.18l-0.11-0.09c-0.04-0.03-0.08-0.06-0.12-0.09c-0.16-0.11-0.34-0.23-0.53-0.33
		c-0.19-0.1-0.38-0.19-0.54-0.25c-0.15-0.06-0.26-0.1-0.37-0.15c-0.11-0.05-0.22-0.11-0.33-0.18c-0.03-0.02-0.06-0.03-0.08-0.05
		l-0.08-0.06c-0.06-0.04-0.11-0.08-0.17-0.12l-0.04-0.03l-0.04-0.03l-0.08-0.06c-0.03-0.02-0.05-0.04-0.07-0.06
		c-0.02-0.02-0.05-0.04-0.07-0.06c-0.09-0.09-0.17-0.17-0.26-0.28c-0.02-0.03-0.05-0.06-0.07-0.09l-0.07-0.1l-0.08-0.11
		c-0.03-0.04-0.06-0.07-0.09-0.11c-0.12-0.15-0.26-0.3-0.39-0.43l-0.05-0.05l-0.05-0.05l-0.1-0.09c-0.07-0.06-0.14-0.11-0.21-0.17
		c-0.07-0.05-0.14-0.11-0.22-0.16l-0.11-0.08l-0.06-0.04l-0.06-0.04c-0.16-0.1-0.33-0.2-0.5-0.28c-0.17-0.08-0.34-0.14-0.47-0.2
		c-0.14-0.06-0.26-0.11-0.39-0.18c-0.03-0.02-0.06-0.03-0.09-0.05c-0.03-0.02-0.06-0.04-0.09-0.06c-0.06-0.04-0.12-0.08-0.18-0.12
		c-0.06-0.04-0.12-0.09-0.18-0.13l-0.09-0.07c-0.03-0.02-0.06-0.05-0.09-0.07c-0.12-0.09-0.22-0.19-0.32-0.3
		c-0.1-0.11-0.19-0.22-0.29-0.35c-0.1-0.13-0.2-0.27-0.32-0.4c-0.12-0.13-0.24-0.25-0.37-0.36c-0.06-0.06-0.13-0.11-0.2-0.16
		c-0.06-0.05-0.13-0.1-0.2-0.15c-0.07-0.05-0.14-0.1-0.21-0.14c-0.03-0.02-0.07-0.05-0.11-0.07c-0.04-0.02-0.07-0.05-0.11-0.07
		c-0.15-0.09-0.3-0.16-0.46-0.22c-0.16-0.06-0.31-0.12-0.45-0.19c-0.29-0.13-0.57-0.31-0.82-0.5c0.21,0.25,0.44,0.48,0.71,0.68
		c0.13,0.1,0.27,0.19,0.4,0.28c0.13,0.09,0.25,0.19,0.37,0.29c0.03,0.03,0.06,0.05,0.08,0.08c0.03,0.03,0.06,0.05,0.08,0.08
		c0.05,0.06,0.11,0.11,0.16,0.17c0.05,0.06,0.1,0.12,0.15,0.18c0.05,0.06,0.1,0.12,0.14,0.18c0.09,0.12,0.17,0.25,0.25,0.38
		c0.07,0.13,0.14,0.27,0.2,0.42c0.07,0.15,0.15,0.31,0.24,0.47c0.09,0.16,0.19,0.31,0.3,0.44c0.05,0.07,0.11,0.14,0.16,0.2
		c0.05,0.07,0.11,0.13,0.17,0.2c0.06,0.07,0.12,0.13,0.18,0.19c0.03,0.03,0.07,0.06,0.1,0.09c0.03,0.03,0.07,0.06,0.1,0.09
		c0.14,0.12,0.29,0.24,0.44,0.34c0.15,0.1,0.27,0.18,0.38,0.27c0.11,0.09,0.21,0.17,0.3,0.27l0.04,0.04l0.04,0.04l0.07,0.08
		l0.14,0.16c0.04,0.06,0.09,0.11,0.13,0.17l0.06,0.08l0.03,0.04l0.03,0.04c0.08,0.11,0.14,0.22,0.19,0.34
		c0.01,0.03,0.03,0.06,0.04,0.09l0.05,0.1l0.05,0.11c0.02,0.04,0.04,0.08,0.06,0.12c0.08,0.17,0.18,0.35,0.29,0.51
		c0.03,0.04,0.06,0.08,0.08,0.12c0.03,0.04,0.06,0.08,0.09,0.12l0.09,0.11l0.04,0.06l0.04,0.05c0.06,0.07,0.12,0.14,0.18,0.21
		l0.09,0.1c0.03,0.03,0.07,0.07,0.1,0.1c0.13,0.14,0.28,0.27,0.45,0.4c0.16,0.13,0.34,0.24,0.47,0.33c0.14,0.09,0.22,0.16,0.31,0.24
		c0.08,0.08,0.16,0.16,0.25,0.25c0.02,0.02,0.04,0.05,0.06,0.07l0.06,0.08c0.04,0.05,0.08,0.1,0.12,0.16l0.03,0.04l0.03,0.04
		l0.05,0.08c0.02,0.03,0.03,0.05,0.05,0.07c0.02,0.02,0.03,0.05,0.04,0.07c0.06,0.1,0.1,0.19,0.15,0.31l0.04,0.1
		c0.01,0.03,0.03,0.08,0.05,0.11c0.02,0.04,0.04,0.08,0.06,0.13c0.01,0.02,0.02,0.04,0.03,0.07l0.04,0.07
		c0.06,0.11,0.13,0.2,0.2,0.31l-0.07,0c-0.06,0-0.11,0-0.24-0.1l-0.12-0.09l-0.07-0.05l-0.04-0.03l-0.04-0.03
		c-0.03-0.02-0.05-0.04-0.08-0.05l-0.08-0.05c-0.06-0.04-0.11-0.06-0.17-0.09c-0.06-0.03-0.12-0.05-0.17-0.08
		c-0.03-0.01-0.06-0.02-0.09-0.03l-0.08-0.03c-0.11-0.04-0.22-0.06-0.33-0.08c-0.21-0.04-0.44-0.07-0.69-0.06
		c-0.06,0-0.12,0-0.19,0.01l-0.09,0.01c-0.03,0-0.06,0.01-0.09,0.02l-0.04,0.01c-0.01,0-0.03,0.01-0.04,0.01l-0.08,0.02
		c-0.01,0-0.03,0.01-0.04,0.01l-0.03,0.01l-0.07,0.02c-0.16,0.05-0.24,0.09-0.35,0.11c-0.1,0.02-0.22,0.02-0.36,0.01
		c-0.13-0.02-0.25-0.04-0.36-0.07c-0.11-0.03-0.21-0.08-0.35-0.18c-0.07-0.05-0.14-0.11-0.23-0.16c-0.02-0.01-0.04-0.03-0.06-0.04
		l-0.07-0.04c-0.04-0.03-0.09-0.05-0.14-0.07c-0.18-0.08-0.37-0.13-0.55-0.16c-0.18-0.03-0.37-0.05-0.56-0.03
		c-0.05,0-0.09,0.01-0.14,0.01l-0.07,0.01c-0.02,0-0.05,0.01-0.07,0.01c-0.09,0.02-0.18,0.05-0.26,0.07
		c-0.16,0.05-0.32,0.1-0.48,0.11c-0.16,0.02-0.33,0-0.49-0.02c0.14,0.08,0.3,0.15,0.46,0.2c0.04,0.01,0.08,0.02,0.13,0.03l0.06,0.01
		c0.02,0,0.04,0.01,0.07,0.01c0.09,0.01,0.17,0.02,0.26,0.02c0.17,0.01,0.31,0.03,0.45,0.07c0.14,0.04,0.27,0.11,0.39,0.19
		c0.13,0.08,0.24,0.17,0.33,0.26c0.09,0.1,0.16,0.2,0.25,0.34l0.04,0.06c0.01,0.02,0.03,0.04,0.04,0.06l0.04,0.06
		c0.01,0.02,0.03,0.04,0.05,0.06c0.02,0.02,0.03,0.04,0.05,0.06l0.06,0.06c0.04,0.04,0.08,0.08,0.12,0.11
		c0.17,0.15,0.34,0.26,0.52,0.35c0.18,0.09,0.37,0.18,0.6,0.23c0.06,0.01,0.11,0.03,0.17,0.03l0.09,0.01c0.03,0,0.06,0.01,0.08,0.01
		c0.03,0,0.06,0.01,0.08,0.01l0.08,0l0.14,0.01c0.17,0.01,0.24,0.04,0.32,0.08c0.08,0.04,0.16,0.09,0.26,0.16
		c0.09,0.07,0.17,0.14,0.21,0.2c0.04,0.07,0.06,0.12,0.15,0.26l0.04,0.06l0.01,0.01c-0.01,0-0.03,0-0.04,0l-0.15,0.01l-0.07,0
		l-0.07,0.01c-0.1,0.01-0.19,0.02-0.29,0.03l-0.14,0.02c-0.05,0.01-0.1,0.02-0.15,0.02c-0.19,0.03-0.4,0.08-0.6,0.14
		c-0.2,0.06-0.4,0.14-0.55,0.2c-0.15,0.07-0.26,0.11-0.37,0.15c-0.11,0.04-0.23,0.08-0.36,0.1c-0.03,0.01-0.06,0.02-0.1,0.02
		l-0.1,0.02c-0.07,0.01-0.14,0.02-0.21,0.03l-0.05,0.01l-0.05,0l-0.1,0.01c-0.03,0-0.06,0-0.1,0.01c-0.03,0-0.06,0-0.1,0
		c-0.13,0.01-0.24,0-0.38-0.02c-0.03,0-0.07-0.01-0.11-0.01l-0.12-0.02l-0.13-0.02c-0.04-0.01-0.09-0.01-0.14-0.02
		c-0.19-0.02-0.39-0.03-0.58-0.02l-0.07,0l-0.07,0l-0.14,0.01c-0.09,0.01-0.18,0.02-0.27,0.03c-0.09,0.01-0.18,0.02-0.27,0.04
		l-0.14,0.02l-0.07,0.01l-0.07,0.02c-0.18,0.04-0.37,0.09-0.55,0.15c-0.18,0.06-0.34,0.14-0.48,0.19c-0.14,0.06-0.26,0.11-0.4,0.15
		c-0.03,0.01-0.07,0.02-0.1,0.03c-0.03,0.01-0.07,0.02-0.11,0.03c-0.07,0.01-0.14,0.03-0.22,0.04c-0.07,0.01-0.15,0.03-0.22,0.03
		l-0.11,0.01c-0.04,0-0.07,0.01-0.11,0.01c-0.15,0.01-0.29,0.02-0.44,0.01c-0.15,0-0.29-0.02-0.45-0.04
		c-0.16-0.02-0.34-0.05-0.51-0.06c-0.18-0.01-0.35-0.01-0.52,0.01c-0.09,0-0.17,0.01-0.25,0.02c-0.08,0.01-0.17,0.02-0.25,0.03
		c-0.08,0.01-0.17,0.03-0.25,0.04c-0.04,0.01-0.08,0.02-0.12,0.03c-0.04,0.01-0.08,0.02-0.12,0.03c-0.17,0.04-0.33,0.1-0.48,0.16
		c-0.16,0.06-0.3,0.13-0.45,0.19c-0.3,0.11-0.62,0.18-0.94,0.22c0.32,0.03,0.65,0.03,0.98-0.02c0.16-0.02,0.33-0.06,0.48-0.09
		c0.16-0.03,0.31-0.05,0.47-0.05c0.04,0,0.08,0,0.12,0c0.04,0,0.08,0,0.12,0c0.08,0,0.16,0,0.23,0.01c0.08,0.01,0.16,0.01,0.23,0.02
		c0.08,0.01,0.16,0.02,0.23,0.03c0.15,0.02,0.3,0.05,0.45,0.09c0.15,0.04,0.28,0.09,0.44,0.15c0.15,0.06,0.33,0.12,0.5,0.16
		c0.18,0.04,0.35,0.08,0.53,0.1c0.09,0.01,0.17,0.02,0.26,0.03c0.09,0.01,0.17,0.01,0.26,0.02c0.09,0.01,0.18,0.01,0.27,0.01
		c0.04,0,0.09,0,0.14,0c0.05,0,0.09,0,0.14-0.01c0.18-0.01,0.37-0.04,0.55-0.07c0.18-0.03,0.32-0.06,0.46-0.08
		c0.14-0.02,0.27-0.02,0.41-0.02l0.05,0l0.05,0l0.11,0l0.22,0.02c0.07,0.01,0.14,0.02,0.21,0.03l0.1,0.02l0.05,0.01l0.05,0.01
		c0.13,0.03,0.25,0.06,0.38,0.1c0.03,0.01,0.06,0.02,0.1,0.03l0.1,0.04l0.11,0.04c0.04,0.01,0.08,0.03,0.13,0.04
		c0.17,0.06,0.38,0.12,0.57,0.16c0.05,0.01,0.1,0.02,0.15,0.03c0.05,0.01,0.1,0.02,0.15,0.02l0.14,0.02l0.07,0.01l0.07,0.01
		c0.09,0.01,0.19,0.02,0.28,0.02l0.14,0.01c0.05,0,0.1,0,0.14,0c0.19,0,0.4-0.01,0.6-0.03c0.21-0.02,0.41-0.07,0.57-0.1
		c0.16-0.03,0.27-0.04,0.39-0.05c0.11,0,0.23,0,0.36,0.01c0.03,0,0.06,0,0.1,0.01l0.1,0.01c0.07,0,0.13,0.02,0.2,0.02l0.05,0.01
		l0.05,0.01l0.09,0.02c0.03,0.01,0.06,0.01,0.09,0.02c0.03,0.01,0.06,0.01,0.08,0.02c0.11,0.03,0.2,0.06,0.32,0.11l0.1,0.04
		c0.03,0.01,0.08,0.03,0.12,0.04c0.04,0.01,0.09,0.03,0.14,0.05c0.02,0.01,0.05,0.02,0.07,0.02l0.08,0.02
		c0.12,0.03,0.24,0.05,0.36,0.08l-0.05,0.05c-0.05,0.04-0.08,0.08-0.24,0.1l-0.15,0.02l-0.08,0.01l-0.04,0.01l-0.05,0.01
		c-0.03,0.01-0.06,0.01-0.09,0.02l-0.1,0.02c-0.06,0.01-0.13,0.03-0.19,0.06c-0.06,0.02-0.12,0.04-0.18,0.07
		c-0.03,0.01-0.06,0.02-0.09,0.04l-0.08,0.04c-0.11,0.05-0.2,0.11-0.29,0.17c-0.18,0.12-0.36,0.26-0.53,0.44
		c-0.04,0.05-0.09,0.09-0.12,0.14l-0.06,0.07c-0.02,0.02-0.03,0.05-0.05,0.07l-0.03,0.04c-0.01,0.01-0.02,0.02-0.02,0.04l-0.04,0.07
		c-0.01,0.01-0.01,0.02-0.02,0.03l-0.02,0.03l-0.03,0.06c-0.08,0.15-0.11,0.23-0.17,0.32c-0.06,0.09-0.14,0.17-0.24,0.26
		c-0.1,0.08-0.21,0.15-0.31,0.21c-0.1,0.05-0.21,0.09-0.37,0.12c-0.09,0.01-0.18,0.03-0.28,0.05c-0.02,0.01-0.05,0.01-0.07,0.02
		l-0.07,0.02c-0.05,0.01-0.1,0.03-0.14,0.05c-0.19,0.07-0.35,0.17-0.5,0.27c-0.15,0.11-0.29,0.23-0.42,0.37
		c-0.03,0.04-0.06,0.07-0.09,0.11l-0.04,0.06c-0.01,0.02-0.03,0.04-0.04,0.06c-0.05,0.08-0.09,0.16-0.13,0.23
		c-0.08,0.15-0.16,0.29-0.26,0.41c-0.1,0.12-0.23,0.23-0.36,0.33c0.16-0.04,0.32-0.1,0.47-0.18c0.04-0.02,0.08-0.04,0.11-0.07
		l0.05-0.04c0.02-0.01,0.03-0.03,0.05-0.04c0.07-0.05,0.13-0.11,0.2-0.17c0.12-0.11,0.24-0.2,0.37-0.26
		c0.13-0.06,0.27-0.11,0.41-0.15c0.15-0.03,0.29-0.05,0.42-0.05c0.13,0,0.25,0.03,0.42,0.06l0.07,0.01c0.02,0,0.04,0.01,0.07,0.01
		l0.07,0.01c0.02,0,0.05,0.01,0.08,0.01c0.03,0,0.05,0,0.08,0.01l0.08,0c0.06,0,0.11,0,0.17,0c0.22-0.01,0.42-0.06,0.62-0.11
		c0.19-0.06,0.39-0.13,0.59-0.26c0.05-0.03,0.1-0.06,0.14-0.1l0.07-0.05c0.02-0.02,0.04-0.04,0.07-0.05
		c0.02-0.02,0.04-0.04,0.06-0.05l0.06-0.05l0.1-0.09c0.12-0.11,0.2-0.14,0.28-0.17c0.08-0.03,0.18-0.05,0.3-0.07
		c0.12-0.02,0.22-0.02,0.29,0c0.08,0.02,0.12,0.04,0.29,0.08l0.07,0.01l0.01,0c-0.01,0.01-0.02,0.02-0.03,0.03l-0.1,0.11l-0.05,0.06
		l-0.05,0.06c-0.06,0.07-0.12,0.15-0.18,0.22l-0.09,0.11c-0.03,0.04-0.06,0.08-0.09,0.12c-0.11,0.16-0.23,0.34-0.33,0.52
		c-0.1,0.19-0.19,0.38-0.25,0.53c-0.06,0.15-0.1,0.26-0.15,0.37c-0.05,0.11-0.11,0.21-0.18,0.33c-0.02,0.03-0.03,0.06-0.05,0.08
		l-0.06,0.08c-0.04,0.06-0.08,0.11-0.12,0.17l-0.03,0.04l-0.03,0.04l-0.06,0.08c-0.02,0.03-0.04,0.05-0.06,0.07
		c-0.02,0.02-0.04,0.05-0.06,0.07c-0.09,0.09-0.17,0.17-0.28,0.26c-0.03,0.02-0.06,0.05-0.09,0.07l-0.1,0.07l-0.11,0.08
		c-0.04,0.03-0.07,0.06-0.11,0.09c-0.15,0.12-0.3,0.26-0.43,0.39l-0.05,0.05l-0.05,0.05l-0.09,0.1c-0.06,0.07-0.11,0.14-0.17,0.21
		c-0.05,0.07-0.11,0.14-0.16,0.22l-0.08,0.11l-0.04,0.06l-0.04,0.06c-0.1,0.15-0.2,0.33-0.28,0.5c-0.08,0.17-0.14,0.33-0.2,0.47
		c-0.06,0.14-0.11,0.26-0.18,0.39c-0.02,0.03-0.03,0.06-0.05,0.09c-0.02,0.03-0.04,0.06-0.06,0.09c-0.04,0.06-0.08,0.12-0.12,0.18
		c-0.04,0.06-0.09,0.12-0.13,0.18l-0.07,0.09c-0.02,0.03-0.05,0.06-0.07,0.09c-0.09,0.12-0.19,0.22-0.3,0.32
		c-0.11,0.1-0.22,0.19-0.35,0.29c-0.13,0.1-0.27,0.2-0.4,0.32c-0.13,0.12-0.25,0.24-0.36,0.37c-0.06,0.06-0.11,0.13-0.16,0.2
		c-0.05,0.06-0.1,0.13-0.15,0.2c-0.05,0.07-0.1,0.14-0.14,0.21c-0.02,0.03-0.05,0.07-0.07,0.11c-0.02,0.04-0.05,0.07-0.07,0.11
		c-0.09,0.15-0.16,0.3-0.22,0.46c-0.06,0.15-0.12,0.31-0.19,0.45c-0.13,0.29-0.31,0.56-0.51,0.82c0.25-0.21,0.48-0.44,0.68-0.7
		c0.1-0.13,0.19-0.27,0.28-0.4c0.09-0.13,0.19-0.25,0.29-0.37c0.03-0.03,0.05-0.06,0.08-0.08c0.03-0.03,0.05-0.06,0.08-0.08
		c0.06-0.05,0.11-0.11,0.17-0.16c0.06-0.05,0.12-0.1,0.18-0.15c0.06-0.05,0.12-0.1,0.18-0.14c0.12-0.09,0.25-0.17,0.38-0.25
		c0.13-0.07,0.27-0.14,0.42-0.2c0.15-0.07,0.31-0.15,0.47-0.24c0.16-0.09,0.31-0.19,0.45-0.3c0.07-0.05,0.14-0.11,0.21-0.16
		c0.07-0.05,0.13-0.11,0.2-0.17c0.07-0.06,0.13-0.12,0.19-0.18c0.03-0.03,0.06-0.06,0.09-0.1c0.03-0.03,0.06-0.07,0.09-0.1
		c0.12-0.14,0.24-0.29,0.34-0.44c0.1-0.15,0.18-0.27,0.27-0.38c0.09-0.11,0.17-0.21,0.27-0.3l0.04-0.04l0.04-0.04l0.08-0.07
		l0.17-0.14c0.06-0.04,0.11-0.09,0.17-0.13l0.09-0.06l0.04-0.03l0.04-0.03c0.11-0.08,0.22-0.14,0.34-0.19
		c0.03-0.01,0.06-0.03,0.09-0.04l0.1-0.05l0.11-0.05c0.04-0.02,0.08-0.04,0.12-0.06c0.17-0.08,0.35-0.18,0.52-0.29
		c0.04-0.03,0.08-0.06,0.12-0.08c0.04-0.03,0.08-0.06,0.12-0.09l0.11-0.09l0.06-0.04l0.05-0.04c0.07-0.06,0.14-0.12,0.21-0.18
		l0.1-0.09c0.03-0.03,0.07-0.07,0.1-0.1c0.14-0.13,0.28-0.28,0.4-0.45c0.13-0.16,0.25-0.34,0.34-0.47c0.09-0.14,0.16-0.22,0.24-0.31
		c0.08-0.08,0.16-0.16,0.26-0.25c0.02-0.02,0.05-0.04,0.07-0.06l0.08-0.06c0.05-0.04,0.1-0.08,0.16-0.12l0.04-0.03l0.04-0.03
		l0.08-0.05c0.03-0.02,0.05-0.03,0.08-0.05c0.02-0.02,0.05-0.03,0.07-0.04c0.1-0.06,0.19-0.09,0.31-0.15l0.1-0.04
		c0.03-0.01,0.08-0.03,0.12-0.05c0.04-0.02,0.09-0.04,0.13-0.06c0.02-0.01,0.04-0.02,0.07-0.03l0.07-0.04
		c0.11-0.06,0.2-0.13,0.31-0.2l0,0.07c0,0.06,0,0.11-0.1,0.24l-0.09,0.12l-0.05,0.07l-0.03,0.04l-0.03,0.04
		c-0.02,0.03-0.04,0.05-0.05,0.08l-0.05,0.08c-0.04,0.06-0.06,0.11-0.09,0.17c-0.03,0.06-0.05,0.12-0.08,0.17
		c-0.01,0.03-0.02,0.06-0.03,0.09l-0.03,0.08c-0.04,0.11-0.06,0.22-0.08,0.33c-0.04,0.21-0.07,0.44-0.06,0.69
		c0,0.06,0,0.12,0.01,0.19l0.01,0.09c0,0.03,0.01,0.06,0.02,0.09l0.01,0.04c0,0.01,0.01,0.03,0.01,0.04l0.02,0.08
		c0,0.01,0.01,0.03,0.01,0.04l0.01,0.03l0.02,0.07c0.05,0.16,0.09,0.24,0.11,0.35c0.02,0.1,0.02,0.22,0.01,0.35
		c-0.02,0.13-0.04,0.25-0.07,0.36c-0.03,0.11-0.08,0.21-0.18,0.34c-0.05,0.07-0.11,0.14-0.16,0.23c-0.01,0.02-0.03,0.04-0.04,0.06
		l-0.04,0.07c-0.03,0.04-0.05,0.09-0.07,0.14c-0.08,0.18-0.13,0.37-0.16,0.55c-0.03,0.18-0.05,0.37-0.03,0.56
		c0,0.05,0.01,0.09,0.01,0.14l0.01,0.07c0,0.02,0.01,0.05,0.01,0.07c0.02,0.09,0.05,0.18,0.07,0.26c0.05,0.16,0.1,0.31,0.11,0.48
		c0.02,0.16,0,0.32-0.02,0.49c0.08-0.14,0.16-0.29,0.2-0.46c0.01-0.04,0.02-0.08,0.03-0.13l0.01-0.06c0-0.02,0.01-0.04,0.01-0.06
		c0.01-0.09,0.02-0.17,0.02-0.26c0.01-0.17,0.03-0.31,0.07-0.45c0.04-0.14,0.11-0.27,0.19-0.39c0.08-0.13,0.17-0.24,0.26-0.33
		c0.1-0.09,0.2-0.16,0.34-0.25l0.06-0.04c0.02-0.01,0.04-0.03,0.06-0.04l0.06-0.04c0.02-0.01,0.04-0.03,0.06-0.05
		c0.02-0.02,0.04-0.03,0.06-0.05l0.06-0.06c0.04-0.04,0.08-0.08,0.11-0.12c0.15-0.17,0.26-0.34,0.36-0.52
		c0.09-0.18,0.18-0.37,0.23-0.59c0.01-0.06,0.03-0.11,0.03-0.17l0.01-0.09c0-0.03,0.01-0.06,0.01-0.08c0-0.03,0.01-0.06,0.01-0.08
		l0-0.08l0.01-0.14c0.01-0.17,0.04-0.24,0.08-0.32c0.04-0.08,0.09-0.16,0.16-0.26c0.07-0.09,0.14-0.17,0.2-0.21
		c0.07-0.04,0.12-0.06,0.26-0.15l0.06-0.04l0.01-0.01c0,0.01,0,0.03,0,0.04l0.01,0.15l0,0.07l0.01,0.07
		c0.01,0.1,0.02,0.19,0.03,0.29l0.02,0.14c0.01,0.05,0.02,0.1,0.02,0.15c0.03,0.19,0.08,0.4,0.14,0.6c0.06,0.2,0.14,0.4,0.2,0.55
		c0.07,0.15,0.11,0.26,0.16,0.37c0.04,0.11,0.08,0.23,0.1,0.36c0.01,0.03,0.02,0.06,0.02,0.1l0.02,0.1
		c0.01,0.07,0.02,0.14,0.03,0.21l0.01,0.05l0.01,0.05l0.01,0.1c0,0.03,0,0.06,0.01,0.1c0,0.03,0,0.06,0,0.09
		c0.01,0.13,0,0.24-0.02,0.38c0,0.03-0.01,0.07-0.01,0.11l-0.02,0.12l-0.02,0.13c-0.01,0.04-0.01,0.09-0.02,0.14
		c-0.02,0.19-0.03,0.39-0.02,0.58l0,0.07l0,0.07l0.01,0.14c0.01,0.09,0.02,0.18,0.03,0.27c0.01,0.09,0.02,0.18,0.04,0.27l0.02,0.14
		l0.01,0.07l0.02,0.07c0.04,0.18,0.09,0.37,0.16,0.55c0.06,0.18,0.14,0.34,0.19,0.48c0.06,0.14,0.11,0.26,0.15,0.4
		c0.01,0.03,0.02,0.07,0.03,0.1c0.01,0.03,0.02,0.07,0.03,0.1c0.01,0.07,0.03,0.14,0.04,0.22c0.01,0.07,0.03,0.15,0.03,0.22
		l0.01,0.11c0,0.04,0.01,0.07,0.01,0.11c0.01,0.15,0.02,0.29,0.01,0.44c0,0.14-0.02,0.29-0.04,0.45c-0.02,0.16-0.05,0.34-0.06,0.51
		c-0.01,0.18-0.01,0.35,0.01,0.52c0,0.09,0.01,0.17,0.02,0.25c0.01,0.08,0.02,0.17,0.03,0.25c0.01,0.08,0.03,0.17,0.04,0.25
		c0.01,0.04,0.02,0.08,0.03,0.12c0.01,0.04,0.02,0.08,0.03,0.12c0.04,0.16,0.1,0.33,0.17,0.48c0.06,0.16,0.13,0.3,0.19,0.45
		c0.11,0.3,0.18,0.62,0.23,0.94c0.03-0.32,0.03-0.65-0.02-0.98c-0.02-0.16-0.06-0.33-0.09-0.48c-0.03-0.16-0.05-0.31-0.05-0.46
		c0-0.04,0-0.08,0-0.12c0-0.04,0-0.08,0-0.12c0-0.08,0-0.15,0.01-0.23c0.01-0.08,0.01-0.16,0.02-0.23c0.01-0.08,0.02-0.16,0.03-0.23
		c0.02-0.15,0.05-0.3,0.09-0.44c0.04-0.14,0.09-0.28,0.15-0.44c0.06-0.15,0.12-0.32,0.16-0.5c0.04-0.17,0.08-0.35,0.1-0.53
		c0.01-0.09,0.02-0.17,0.03-0.26c0.01-0.09,0.01-0.17,0.02-0.26c0.01-0.09,0.01-0.18,0.01-0.26c0-0.04,0-0.09,0-0.14
		c0-0.05,0-0.09-0.01-0.14c-0.01-0.18-0.04-0.37-0.07-0.55c-0.03-0.17-0.06-0.32-0.08-0.46c-0.02-0.14-0.02-0.27-0.02-0.41l0-0.05
		l0-0.05l0-0.11l0.02-0.22c0.01-0.07,0.02-0.14,0.03-0.21l0.02-0.1l0.01-0.05l0.01-0.05c0.03-0.13,0.06-0.25,0.1-0.38
		c0.01-0.03,0.02-0.06,0.03-0.1l0.04-0.1l0.04-0.11c0.01-0.04,0.03-0.08,0.04-0.13c0.06-0.17,0.12-0.38,0.16-0.57
		c0.01-0.05,0.02-0.1,0.03-0.15c0.01-0.05,0.02-0.1,0.02-0.14l0.02-0.14l0.01-0.07l0.01-0.07c0.01-0.09,0.02-0.18,0.02-0.28
		l0.01-0.14c0-0.05,0-0.1,0-0.14c0-0.19-0.01-0.39-0.03-0.6c-0.02-0.2-0.07-0.41-0.1-0.57c-0.03-0.16-0.04-0.27-0.05-0.39
		c0-0.11,0-0.23,0.01-0.36c0-0.03,0-0.06,0.01-0.1l0.01-0.1c0-0.07,0.02-0.13,0.02-0.2l0.01-0.05l0.01-0.05l0.02-0.09
		c0.01-0.03,0.01-0.06,0.02-0.09c0.01-0.03,0.01-0.06,0.02-0.08c0.03-0.11,0.07-0.2,0.11-0.32l0.04-0.1
		c0.01-0.03,0.03-0.08,0.04-0.12c0.01-0.04,0.03-0.09,0.05-0.14c0.01-0.02,0.02-0.05,0.02-0.07l0.02-0.08
		c0.03-0.12,0.05-0.24,0.08-0.36l0.05,0.05c0.04,0.04,0.08,0.08,0.1,0.24l0.02,0.15l0.01,0.08l0.01,0.04l0.01,0.05
		c0.01,0.03,0.01,0.06,0.02,0.09l0.02,0.1c0.01,0.06,0.04,0.13,0.06,0.19c0.02,0.06,0.04,0.12,0.07,0.18
		c0.01,0.03,0.02,0.06,0.04,0.08l0.04,0.08c0.05,0.11,0.11,0.2,0.17,0.29c0.12,0.18,0.26,0.36,0.45,0.53
		c0.05,0.04,0.09,0.08,0.14,0.12l0.07,0.06c0.02,0.02,0.05,0.03,0.07,0.05l0.04,0.03c0.01,0.01,0.02,0.02,0.04,0.02l0.07,0.04
		c0.01,0.01,0.02,0.01,0.03,0.02l0.03,0.02l0.06,0.03c0.15,0.08,0.23,0.11,0.32,0.17c0.09,0.06,0.17,0.14,0.26,0.24
		c0.08,0.1,0.15,0.2,0.21,0.31c0.05,0.1,0.09,0.21,0.12,0.37c0.01,0.08,0.03,0.18,0.05,0.28c0.01,0.02,0.01,0.05,0.02,0.07
		l0.02,0.07c0.01,0.05,0.03,0.1,0.05,0.14c0.07,0.19,0.17,0.35,0.27,0.5c0.11,0.15,0.23,0.29,0.37,0.42
		c0.04,0.03,0.07,0.06,0.11,0.09l0.06,0.04c0.02,0.01,0.04,0.03,0.06,0.04c0.08,0.05,0.16,0.09,0.24,0.13
		c0.15,0.08,0.29,0.15,0.42,0.26c0.12,0.1,0.23,0.23,0.33,0.36c-0.04-0.16-0.1-0.32-0.18-0.47c-0.02-0.04-0.04-0.08-0.07-0.11
		l-0.04-0.05c-0.01-0.02-0.03-0.03-0.04-0.05c-0.05-0.07-0.11-0.13-0.17-0.2c-0.11-0.12-0.2-0.24-0.26-0.37
		c-0.06-0.13-0.11-0.27-0.15-0.41c-0.03-0.15-0.05-0.29-0.05-0.42c0-0.13,0.03-0.25,0.07-0.42l0.01-0.07c0-0.02,0.01-0.04,0.01-0.07
		l0.01-0.07c0-0.02,0.01-0.05,0.01-0.08c0-0.03,0-0.05,0.01-0.08l0-0.08c0-0.06,0-0.11,0-0.16c-0.01-0.22-0.06-0.42-0.11-0.61
		c-0.06-0.19-0.14-0.39-0.26-0.58c-0.03-0.05-0.06-0.1-0.1-0.14l-0.05-0.07c-0.02-0.02-0.04-0.04-0.05-0.07
		c-0.02-0.02-0.04-0.04-0.05-0.06l-0.05-0.06l-0.09-0.1c-0.11-0.12-0.14-0.19-0.17-0.28c-0.03-0.08-0.05-0.18-0.07-0.29
		c-0.02-0.12-0.02-0.22,0-0.29c0.02-0.08,0.04-0.12,0.08-0.29l0.01-0.07l0-0.01c0.01,0.01,0.02,0.02,0.03,0.03l0.11,0.1l0.06,0.05
		l0.06,0.05c0.07,0.06,0.15,0.12,0.23,0.18l0.11,0.09c0.04,0.03,0.08,0.06,0.12,0.09c0.16,0.11,0.34,0.23,0.53,0.33
		c0.19,0.1,0.38,0.19,0.54,0.25c0.15,0.06,0.26,0.1,0.37,0.15c0.11,0.05,0.22,0.11,0.33,0.18c0.03,0.02,0.06,0.03,0.08,0.05
		l0.08,0.06c0.06,0.04,0.11,0.08,0.17,0.12l0.04,0.03l0.04,0.03l0.08,0.06c0.03,0.02,0.05,0.04,0.07,0.06
		c0.02,0.02,0.05,0.04,0.07,0.06c0.09,0.09,0.17,0.17,0.26,0.28c0.02,0.03,0.05,0.06,0.07,0.09l0.07,0.1l0.08,0.11
		c0.03,0.04,0.06,0.07,0.09,0.11c0.12,0.15,0.26,0.3,0.39,0.43l0.05,0.05l0.05,0.05l0.1,0.09c0.07,0.06,0.14,0.11,0.21,0.17
		c0.07,0.05,0.14,0.11,0.22,0.16l0.11,0.08l0.06,0.04l0.06,0.04c0.16,0.1,0.33,0.2,0.5,0.28c0.17,0.08,0.34,0.14,0.47,0.2
		c0.14,0.06,0.26,0.11,0.39,0.18c0.03,0.02,0.06,0.03,0.09,0.05c0.03,0.02,0.06,0.04,0.09,0.06c0.06,0.04,0.12,0.08,0.18,0.12
		c0.06,0.04,0.12,0.09,0.18,0.13l0.09,0.07c0.03,0.02,0.06,0.05,0.09,0.07c0.12,0.09,0.22,0.19,0.32,0.3
		c0.1,0.11,0.19,0.22,0.29,0.35c0.1,0.13,0.2,0.27,0.32,0.4c0.12,0.13,0.24,0.25,0.37,0.36c0.06,0.06,0.13,0.11,0.2,0.16
		c0.06,0.05,0.13,0.1,0.2,0.15c0.07,0.05,0.14,0.1,0.21,0.14c0.03,0.02,0.07,0.05,0.11,0.07c0.04,0.02,0.07,0.05,0.11,0.07
		c0.15,0.09,0.3,0.16,0.46,0.22c0.16,0.06,0.31,0.12,0.45,0.19c0.29,0.13,0.57,0.31,0.82,0.5c-0.21-0.25-0.44-0.48-0.71-0.68
		c-0.13-0.1-0.27-0.19-0.4-0.28c-0.13-0.09-0.25-0.19-0.37-0.29c-0.03-0.03-0.06-0.05-0.08-0.08c-0.03-0.03-0.06-0.05-0.08-0.08
		c-0.05-0.06-0.11-0.11-0.16-0.17c-0.05-0.06-0.1-0.12-0.15-0.18c-0.05-0.06-0.1-0.12-0.14-0.18c-0.09-0.12-0.17-0.25-0.25-0.38
		c-0.07-0.13-0.14-0.27-0.2-0.42c-0.07-0.15-0.15-0.31-0.24-0.47c-0.09-0.16-0.19-0.31-0.3-0.44c-0.05-0.07-0.11-0.14-0.16-0.2
		c-0.05-0.07-0.11-0.13-0.17-0.2c-0.06-0.07-0.12-0.13-0.18-0.19c-0.03-0.03-0.07-0.06-0.1-0.09c-0.03-0.03-0.07-0.06-0.1-0.09
		c-0.14-0.12-0.29-0.24-0.44-0.34c-0.15-0.1-0.27-0.18-0.38-0.27c-0.11-0.09-0.21-0.17-0.3-0.27l-0.04-0.04l-0.04-0.04l-0.07-0.08
		L126.46,47c-0.04-0.06-0.09-0.11-0.13-0.17l-0.06-0.08l-0.03-0.04l-0.03-0.04c-0.08-0.11-0.14-0.22-0.19-0.34
		c-0.01-0.03-0.03-0.06-0.04-0.09l-0.05-0.1l-0.05-0.11c-0.02-0.04-0.04-0.08-0.06-0.12c-0.08-0.17-0.18-0.35-0.29-0.51
		c-0.03-0.04-0.06-0.08-0.08-0.12c-0.03-0.04-0.06-0.08-0.09-0.12l-0.09-0.11l-0.04-0.06l-0.04-0.05c-0.06-0.07-0.12-0.14-0.18-0.21
		l-0.09-0.1c-0.03-0.03-0.07-0.07-0.1-0.1c-0.13-0.14-0.28-0.27-0.45-0.4c-0.16-0.13-0.34-0.24-0.47-0.33
		c-0.14-0.09-0.22-0.16-0.31-0.24c-0.08-0.08-0.16-0.16-0.25-0.25c-0.02-0.02-0.04-0.05-0.06-0.07l-0.06-0.08
		c-0.04-0.05-0.08-0.1-0.12-0.16l-0.03-0.04l-0.03-0.04l-0.05-0.08c-0.02-0.03-0.03-0.05-0.05-0.07c-0.02-0.02-0.03-0.05-0.04-0.07
		c-0.06-0.1-0.1-0.19-0.15-0.31l-0.04-0.1c-0.01-0.03-0.03-0.08-0.05-0.11c-0.02-0.04-0.04-0.08-0.06-0.13
		c-0.01-0.02-0.02-0.04-0.03-0.07l-0.04-0.07c-0.06-0.1-0.13-0.2-0.2-0.31l0.07,0c0.06,0,0.11,0,0.24,0.1l0.12,0.09l0.07,0.05
		l0.04,0.03l0.04,0.03c0.03,0.02,0.05,0.04,0.08,0.05l0.08,0.05c0.06,0.04,0.11,0.06,0.17,0.09c0.06,0.03,0.12,0.05,0.17,0.08
		c0.03,0.01,0.06,0.02,0.09,0.03l0.08,0.03c0.11,0.04,0.22,0.06,0.33,0.08c0.21,0.04,0.44,0.07,0.69,0.06c0.06,0,0.12,0,0.19-0.01
		l0.09-0.01c0.03,0,0.06-0.01,0.09-0.02l0.04-0.01c0.01,0,0.03-0.01,0.04-0.01l0.08-0.02c0.01,0,0.03-0.01,0.04-0.01l0.03-0.01
		l0.07-0.02c0.16-0.05,0.24-0.09,0.35-0.11c0.1-0.02,0.22-0.02,0.36-0.01c0.13,0.02,0.25,0.04,0.36,0.07
		c0.11,0.03,0.21,0.08,0.35,0.18c0.07,0.05,0.14,0.11,0.23,0.16c0.02,0.01,0.04,0.03,0.06,0.04l0.07,0.04
		c0.04,0.03,0.09,0.05,0.14,0.07c0.18,0.08,0.37,0.13,0.55,0.16c0.18,0.03,0.37,0.05,0.56,0.03c0.05,0,0.09-0.01,0.14-0.01
		l0.07-0.01c0.02,0,0.05-0.01,0.07-0.01c0.09-0.02,0.18-0.05,0.26-0.07c0.16-0.05,0.32-0.1,0.48-0.11c0.16-0.02,0.33,0,0.49,0.02
		c-0.14-0.08-0.3-0.15-0.46-0.2c-0.04-0.01-0.08-0.02-0.13-0.03l-0.06-0.01c-0.02,0-0.04-0.01-0.07-0.01
		c-0.09-0.01-0.17-0.02-0.26-0.02c-0.17-0.01-0.31-0.03-0.45-0.07c-0.14-0.04-0.27-0.11-0.39-0.19c-0.13-0.08-0.24-0.17-0.33-0.26
		c-0.09-0.1-0.16-0.2-0.25-0.34l-0.04-0.06c-0.01-0.02-0.03-0.04-0.04-0.06l-0.05-0.06c-0.01-0.02-0.03-0.04-0.05-0.06
		c-0.02-0.02-0.03-0.04-0.05-0.06l-0.06-0.06c-0.04-0.04-0.08-0.08-0.12-0.11c-0.17-0.15-0.34-0.26-0.52-0.35
		c-0.18-0.09-0.37-0.18-0.6-0.23c-0.06-0.01-0.11-0.03-0.17-0.03l-0.09-0.01c-0.03,0-0.06-0.01-0.08-0.01
		c-0.03,0-0.06-0.01-0.08-0.01l-0.08,0l-0.14-0.01c-0.17-0.01-0.24-0.04-0.32-0.08c-0.08-0.04-0.16-0.09-0.26-0.16
		c-0.09-0.07-0.17-0.14-0.21-0.2c-0.04-0.07-0.06-0.12-0.15-0.26l-0.04-0.06l-0.01-0.01c0.01,0,0.03,0,0.04,0l0.15-0.01l0.07,0
		l0.07-0.01c0.1-0.01,0.19-0.02,0.29-0.03l0.14-0.02c0.05-0.01,0.1-0.02,0.15-0.02c0.19-0.03,0.4-0.08,0.6-0.14
		c0.2-0.06,0.4-0.14,0.55-0.2c0.15-0.07,0.26-0.11,0.37-0.15c0.11-0.04,0.23-0.08,0.36-0.1c0.03-0.01,0.06-0.02,0.1-0.02l0.1-0.02
		c0.07-0.01,0.14-0.02,0.21-0.03l0.05-0.01l0.05-0.01l0.1-0.01c0.03,0,0.06,0,0.1-0.01c0.03,0,0.06,0,0.1,0
		c0.13-0.01,0.24,0,0.38,0.02c0.03,0,0.07,0.01,0.11,0.01l0.12,0.02l0.13,0.02c0.04,0.01,0.09,0.01,0.14,0.02
		c0.19,0.02,0.39,0.03,0.58,0.02l0.07,0l0.07,0l0.14-0.01c0.09-0.01,0.18-0.02,0.27-0.03c0.09-0.01,0.18-0.02,0.27-0.04l0.14-0.02
		l0.07-0.01l0.07-0.02c0.18-0.04,0.37-0.09,0.55-0.15c0.18-0.06,0.34-0.14,0.48-0.19c0.14-0.06,0.26-0.11,0.4-0.15
		c0.03-0.01,0.07-0.02,0.1-0.03c0.03-0.01,0.07-0.02,0.11-0.03c0.07-0.01,0.14-0.03,0.22-0.04c0.07-0.01,0.15-0.03,0.22-0.03
		l0.11-0.01c0.04,0,0.07-0.01,0.11-0.01c0.15-0.01,0.29-0.02,0.44-0.01c0.15,0,0.29,0.02,0.45,0.04c0.16,0.02,0.34,0.05,0.51,0.06
		c0.18,0.01,0.35,0.01,0.52-0.01c0.09,0,0.17-0.01,0.25-0.02c0.08-0.01,0.17-0.02,0.25-0.03c0.08-0.01,0.17-0.03,0.25-0.04
		c0.04-0.01,0.08-0.02,0.12-0.03c0.04-0.01,0.08-0.02,0.12-0.03c0.17-0.04,0.33-0.1,0.48-0.16c0.16-0.06,0.3-0.13,0.45-0.19
		c0.3-0.11,0.62-0.18,0.94-0.22C137.17,37.47,136.84,37.47,136.51,37.52z"/>
	<g>
		<path class="st0" d="M19.56,124.14c0,1.61-0.13,3.16-0.13,4.71c0.07,2.49,0.13,4.91,0.2,7.33c0,0.07,0,0.13,0,0.2
			c0,0.54,0.27,0.87,0.74,0.87c0.94,0.07,1.88,0.13,2.82,0.2c1.28,0,2.55,0,3.83,0c1.88,0,3.77,0.07,5.58,0.27
			c1.55,0.13,3.03,0.13,4.5,0.2c0.34,0.07,0.61,0.07,0.87,0.07c0.61,0.07,1.08,0.61,1.14,1.14c0.13,1.01,0,2.02-0.47,2.96
			c-0.13,0.4-0.54,0.6-0.94,0.74c-0.2,0.07-0.4,0.13-0.61,0.13c-1.01,0.07-2.02,0.13-3.03,0.07c-3.43-0.13-6.92,0-10.35,0.07
			c-0.54,0-1.14,0.07-1.68,0.13c-1.88,0.4-3.7,0.2-5.58,0.2c-0.07,0-0.13,0-0.2-0.07c-1.88-0.27-2.29-0.94-2.76-2.55
			c-0.07-0.2-0.07-0.4-0.07-0.67c0-2.42-0.07-4.84-0.07-7.26c0-3.36,0.07-6.79,0.07-10.15c0-0.87,0-1.68,0.2-2.55
			c0.13-0.47,0.13-1.01,0.13-1.48c0.07-3.83,0.07-7.6,0.13-11.43c0-1.28,0-2.55,0.2-3.83c0.13-1.01,0.07-2.02,0.07-3.03
			c0.07-0.54,0-1.14,0.07-1.68c0-1.01,0.47-1.61,1.48-1.95c0.67-0.2,1.34-0.34,2.08-0.27c0.87,0,1.61,0.67,1.68,1.61
			c0,0.27,0.07,0.6,0.07,0.87c-0.07,2.49-0.07,4.98-0.13,7.53c0,0.4-0.07,0.87,0,1.28c0.27,3.23,0.07,6.45,0.13,9.34
			C19.56,119.7,19.56,121.92,19.56,124.14z"/>
		<path class="st0" d="M79.61,141.89c0,0.34,0,0.67-0.07,1.01c0,0.34-0.34,0.67-0.61,0.74c-0.07,0-0.13,0.07-0.2,0.07
			c-1.41-0.07-2.76-0.13-4.1-0.2c-0.27,0-0.54-0.2-0.61-0.47c-0.07-0.4-0.2-0.81-0.2-1.21c-0.13-3.02-0.2-5.98-0.34-8.94
			c0-0.27,0-0.54-0.07-0.81c-0.27-1.34-0.2-2.62-0.2-3.97c-0.07-2.62-0.13-5.24-0.2-7.87c-0.07-0.47-0.07-1.01,0-1.48
			c0.2-1.68,0.13-3.29-0.07-4.98c-0.13-1.34-0.13-2.76-0.07-4.1c0.07-1.08,0.13-2.08-0.07-3.16c0-0.47-0.07-0.94,0-1.41
			c0.27-1.34,0.13-2.62,0.13-3.97c0-0.87,0.07-1.81,0.13-2.69c0-0.54,0.34-0.87,0.81-1.08c0.74-0.4,1.55-0.4,2.35-0.4
			c1.34-0.07,1.88,0.27,1.95,1.81c0.07,0.67,0.07,1.34,0.07,2.02c0,2.55,0.4,4.98,0.67,7.46c0.07,0.74,0.13,1.55,0.13,2.29
			c0,1.88,0.13,3.76,0.4,5.58c0,0.27,0,0.54,0.07,0.81c0.13,3.36,0.34,6.66,0.34,10.02c-0.07,1.88-0.2,3.83-0.27,5.58
			C79.61,135.77,79.61,138.86,79.61,141.89z"/>
		<g>
			<path class="st0" d="M135.86,133.16c0,1.01,0.07,2.02,0.13,3.02c0,2.15,0,4.3,0,6.39c0,0.4-0.07,0.74-0.13,1.14
				c0,0.2-0.34,0.47-0.54,0.54c-0.13,0.07-0.27,0.13-0.4,0.13c-1.41,0-2.76,0-4.1,0c-0.47,0-0.81-0.34-0.94-0.81
				c-0.13-0.4-0.2-0.81-0.2-1.28c-0.07-1.48-0.07-2.89,0-4.37c0-1.41,0-2.82-0.13-4.17c-0.07-1.08-0.07-2.08-0.07-3.09
				c0.07-2.49-0.2-4.98-0.2-7.46c0-0.4-0.07-0.74-0.07-1.14c-0.07-3.5-0.07-6.99-0.13-10.55c-0.07-2.62-0.27-5.24-0.4-7.87
				c-0.07-0.4-0.34-0.67-0.74-0.67c-1.95-0.07-3.83-0.4-5.78-0.34c-1.21,0-2.42-0.07-3.63-0.13c-0.61-0.07-0.87-0.47-0.94-1.08
				c0-0.2,0-0.4,0-0.67c0.07-0.94,0.13-1.88,0.2-2.82c0.07-0.67,0.47-1.08,1.08-1.28c0.27-0.13,0.54-0.2,0.81-0.2
				c1.68,0,3.29,0,4.98-0.07c0.07,0,0.13,0.07,0.2,0.07c4.03-0.07,8,0.27,12.03,0.4c0.34,0,0.74,0,1.08,0
				c2.69,0.07,5.45,0.07,8.14,0.07c0.81,0,1.61,0.07,2.35,0.34c0.67,0.2,1.14,0.67,1.28,1.34c0.07,0.94,0.13,1.95,0.13,2.89
				c0,0.47-0.34,0.81-0.81,0.94c-0.27,0.13-0.67,0.2-1.01,0.13c-1.34,0-2.69,0.2-4.1,0.34c-1.88,0.2-3.83,0.34-5.78,0.27
				c-0.61-0.07-1.28,0.07-1.88,0.13c-0.4,0-0.61,0.34-0.61,0.81c0.34,4.1,0.13,8.2,0.2,12.3c0,2.35,0,4.71,0,7.06
				C135.86,126.7,135.86,129.93,135.86,133.16z"/>
		</g>
		<g>
			<path class="st0" d="M175.91,109.23c0.13-0.47,0.27-0.94,0.47-1.41c0.74-1.68,1.61-3.36,2.76-4.84c0.67-0.81,1.55-1.48,2.42-2.08
				c0.81-0.67,1.68-1.28,2.62-1.88c1.61-0.94,3.16-1.88,4.98-2.49c0.4-0.13,0.81-0.27,1.21-0.47c0.61-0.27,1.21-0.4,1.82-0.54
				c2.49-0.47,4.98-0.54,7.46,0.13c0.4,0.13,0.81,0.27,1.28,0.34c1.55,0.27,3.03,0.81,4.3,1.81c0.27,0.2,0.61,0.34,0.94,0.47
				c0.81,0.34,1.61,0.61,2.42,0.94c1.41,0.67,2.76,1.48,3.83,2.69c0.27,0.34,0.61,0.61,0.87,0.94c1.14,1.21,2.08,2.49,2.76,4.1
				c0.67,1.68,1.34,3.43,1.95,5.18c1.01,3.09,1.34,6.19,1.01,9.34c-0.27,2.49-0.81,4.98-1.41,7.4c-0.74,3.23-2.49,5.92-4.5,8.47
				c-0.27,0.34-0.61,0.6-0.94,0.87c-1.82,1.48-3.9,2.62-6.18,3.23c-1.01,0.27-1.88,0.67-2.89,0.81c-3.23,0.54-6.45,0.54-9.61,0
				c-1.01-0.13-2.02-0.27-2.96-0.54c-0.61-0.2-1.21-0.27-1.61-0.54c-1.08-0.67-2.15-1.14-3.23-1.75c-1.82-0.94-3.36-2.22-4.91-3.5
				c-1.55-1.34-2.69-2.96-3.43-4.84c-0.61-1.75-1.08-3.56-1.48-5.38c-0.67-2.69-0.74-5.38-0.74-6.79
				C175.03,114.74,175.23,111.98,175.91,109.23z M181.96,124.49c0,0.87,0.13,1.68,0.54,2.49c0.47,1.01,1.01,2.02,1.82,2.89
				c1.28,1.48,2.76,2.69,4.44,3.63c0.54,0.34,1.08,0.67,1.68,1.01c1.14,0.54,2.22,1.28,3.56,1.28c0.27,0,0.47,0.07,0.67,0.07
				c2.35,0.54,4.71,0.4,6.99-0.2c0.34-0.13,0.67-0.27,1.01-0.34c1.08-0.13,2.08-0.6,3.03-1.01c1.34-0.61,2.29-1.48,3.09-2.62
				c0.87-1.14,1.61-2.35,2.22-3.63c0.94-2.15,1.55-4.3,1.75-6.59c0.34-2.89,0-5.71-0.67-8.54c-0.34-1.61-1.14-3.09-1.95-4.5
				c-0.27-0.54-0.67-0.94-1.21-1.21c-1.21-0.81-2.35-1.55-3.56-2.35c-1.14-0.67-2.35-1.14-3.56-1.41c-2.15-0.47-4.24-0.87-6.39-1.14
				c-0.27,0-0.54-0.07-0.81,0c-1.75,0.2-3.43,0.47-5.04,1.08c-0.94,0.4-1.75,0.87-2.49,1.68c-1.41,1.68-2.69,3.5-3.63,5.51
				c-0.81,1.68-1.28,3.5-1.61,5.31c-0.07,0.34-0.07,0.74-0.07,1.08c0.27,1.41,0.13,2.89,0.2,4.37
				C181.96,122.34,181.89,123.41,181.96,124.49z"/>
		</g>
		<g>
			<path class="st0" d="M65.97,205.59c0.87,2.08,1.68,4.1,2.49,6.18c0.27,0.61,0.34,1.28,0.47,1.88c0.13,0.61-0.34,1.14-0.94,1.21
				c-0.2,0-0.4,0-0.61,0c-1.55-0.13-3.03-0.2-4.5-0.34c-0.4-0.07-0.67-0.27-0.81-0.6c-0.81-1.61-1.55-3.29-2.15-4.98
				c-0.34-1.01-0.74-2.02-1.28-2.96c-1.01-1.68-1.68-3.43-2.49-5.24c-0.54-1.28-1.14-2.62-1.68-3.9c-0.07-0.13-0.2-0.2-0.34-0.34
				c-0.67-0.27-1.41-0.13-2.08-0.13c-2.69,0.13-5.31,0.2-8-0.07c-0.27,0-0.54,0.27-0.54,0.54c-0.07,1.68-0.13,3.29-0.2,4.98
				c0,1.68-0.07,3.43-0.07,5.11c0,1.28,0,2.62-0.27,3.9c-0.13,0.6-0.07,1.28-0.07,1.88c0,0.47,0,0.87-0.07,1.34
				c0,0.4-0.4,0.81-0.81,0.81c-1.82,0-3.56-0.07-5.38-0.13c-0.13,0-0.34-0.27-0.4-0.4c-0.07-0.27-0.07-0.6-0.07-0.87
				c0-1.75,0-3.56,0-5.38c0-0.54-0.07-1.14-0.07-1.68c0-0.74,0.07-1.48,0.07-2.15c0.07-1.21,0.13-2.42,0.2-3.7
				c0.07-2.02-0.07-4.1,0.13-6.19c0.07-0.27,0-0.61,0-0.87c-0.2-3.63-0.13-7.33,0.2-10.96c0.07-1.28,0.07-2.55,0.13-3.9
				c0.13-2.82,0.27-5.71,0.4-8.54c0.07-0.94,0.54-1.48,1.21-1.95c0.2-0.13,0.4-0.13,0.61-0.13c0.94,0,1.88,0,2.82,0.07
				c1.41,0.07,2.82,0.27,4.24,0.34c0.94,0.07,1.88,0.07,2.82,0.07c3.23-0.07,6.45-0.13,9.68-0.2c1.14,0,2.29,0.2,3.36,0.6
				c0.34,0.13,0.67,0.27,1.01,0.4c2.49,0.74,4.1,2.55,5.24,4.77c0.67,1.48,1.14,2.96,1.48,4.5c0.07,0.4,0.13,0.87,0.07,1.28
				c-0.07,2.08-0.13,4.17-0.2,6.25c-0.07,2.02-0.81,3.77-1.95,5.38c-0.67,0.94-1.34,1.81-2.15,2.69c-0.74,0.74-1.61,1.41-2.69,1.75
				c-0.27,0.07-0.47,0.27-0.94,0.47C63.28,199.6,64.62,202.56,65.97,205.59z M46.07,190.66c1.48,0,3.03,0.07,4.5,0.13
				c1.34,0,2.69,0,4.1,0c2.22,0.07,4.24-0.47,5.92-2.08c0-0.07,0.07-0.13,0.13-0.13c1.55-1.08,2.15-2.69,2.35-4.44
				c0.13-1.55,0-3.16-0.4-4.71c-0.2-0.74-0.54-1.48-1.01-2.08c-0.4-0.54-0.87-1.01-1.48-1.21c-1.61-0.6-3.23-1.21-4.97-1.34
				c-1.95-0.2-3.83-0.07-5.78-0.13c-1.88-0.07-3.76,0.2-5.58,0.27c-0.27,0.07-0.61,0.34-0.61,0.61c0,0.6,0,1.28,0,1.88
				c0,1.08,0.07,2.15,0.07,3.23c0,2.42-0.07,4.91-0.07,7.33c0,0.74,0.07,1.41,0.07,2.22C44.32,190.59,45.19,190.66,46.07,190.66z"/>
		</g>
		<g>
			<path class="st0" d="M142.21,214.19c-0.34-0.54-0.61-1.14-0.87-1.75c-0.54-1.61-1.21-3.16-2.02-4.71
				c-0.74-1.55-1.48-3.09-2.02-4.77c-0.13-0.54-0.47-1.01-0.67-1.55c-0.13-0.27-0.4-0.4-0.74-0.4c-2.08,0.07-4.17-0.07-6.19,0.34
				c-0.54,0.07-1.01,0.13-1.55,0.13c-3.16,0-6.39,0-9.61-0.07c-0.61,0-1.01,0.27-1.21,0.74c-0.54,1.41-1.21,2.76-1.95,4.03
				c-0.13,0.2-0.27,0.4-0.27,0.61c-0.74,2.35-2.08,4.44-3.03,6.66c0,0.07-0.07,0.13-0.07,0.2c-0.4,0.94-1.08,1.48-2.08,1.61
				c-0.47,0.07-0.87,0.13-1.28,0.13c-0.87,0.07-1.41-0.54-1.61-1.21c-0.2-0.67-0.2-1.41,0.07-2.08c0-0.07,0.07-0.13,0.07-0.2
				c1.28-2.42,1.95-5.11,2.82-7.66c0.87-2.29,1.82-4.5,2.76-6.72c1.14-2.62,2.29-5.24,3.5-7.87c1.34-3.03,2.62-6.05,3.83-9.14
				c0.61-1.61,1.34-3.16,2.02-4.71c0.74-1.88,1.55-3.7,2.35-5.58c0.07-0.27,0.2-0.54,0.34-0.74c0.61-1.28,1.82-1.82,3.16-1.34
				c0.27,0.07,0.54,0.27,0.74,0.47c0.27,0.34,0.47,0.67,0.67,1.08c0.67,1.75,1.55,3.36,2.15,5.18c0.13,0.47,0.4,0.94,0.61,1.34
				c0.67,1.34,1.28,2.76,1.75,4.17c0.67,1.75,1.48,3.43,2.15,5.11c0.54,1.14,1.01,2.29,1.48,3.36c0.81,1.95,1.88,3.7,2.89,5.51
				c0.81,1.28,1.41,2.69,1.88,4.1c0.61,1.81,1.34,3.63,2.02,5.45c0.61,1.75,1.21,3.5,1.88,5.24c0.2,0.6,0.4,1.21,0.67,1.81
				c0.47,0.94,0.81,2.02,1.01,3.03c0.13,0.67-0.2,1.34-0.87,1.55c-0.2,0.07-0.4,0.13-0.61,0.13c-0.34,0.07-0.74,0.07-1.08,0.13
				C143.89,215.94,142.94,215.27,142.21,214.19z M128.22,194.76c1.41,0,2.82,0,4.3,0c0.13,0,0.27-0.07,0.4-0.07
				c0.27,0,0.54-0.34,0.4-0.54c-0.47-1.08-0.94-2.15-1.41-3.16c-0.61-1.28-1.21-2.55-1.82-3.9c-0.61-1.48-1.14-3.09-1.68-4.64
				c-0.4-1.08-0.74-2.15-1.34-3.09c0-0.07-0.07-0.2-0.13-0.13c-0.13,0-0.27,0.07-0.34,0.13c-0.13,0.2-0.2,0.4-0.34,0.6
				c-1.14,3.09-2.49,6.19-3.56,9.41c-0.47,1.34-1.01,2.62-1.55,3.97c-0.13,0.34-0.2,0.67-0.34,1.01c0,0.13,0.2,0.47,0.34,0.47
				c0.2,0.07,0.47,0.13,0.61,0.07c1.75-0.4,3.43-0.27,5.18-0.2c0.4,0.07,0.81,0,1.28,0V194.76z"/>
		</g>
		<g>
			<path class="st0" d="M187.75,192.16c0.07-2.89-0.13-6.12,0.13-9.34c0.07-0.4,0-0.87,0-1.28c-0.07-2.55-0.07-5.04-0.13-7.53
				c0-0.27,0.07-0.6,0.07-0.87c0.07-0.94,0.81-1.61,1.68-1.61c0.74-0.07,1.41,0.07,2.08,0.27c1.01,0.34,1.48,0.94,1.48,1.95
				c0.07,0.54,0,1.14,0.07,1.68c0,1.01-0.07,2.02,0.07,3.03c0.2,1.28,0.2,2.55,0.2,3.83c0.07,3.83,0.07,7.6,0.13,11.43
				c0,0.47,0,1.01,0.13,1.48c0.2,0.87,0.2,1.68,0.2,2.55c0,3.36,0.07,6.79,0.07,10.15c0,2.42-0.07,4.84-0.07,7.26
				c0,0.27,0,0.47-0.07,0.67c-0.47,1.61-0.87,2.29-2.76,2.55c-0.07,0.07-0.13,0.07-0.2,0.07c-1.88,0-3.7,0.2-5.58-0.2
				c-0.54-0.07-1.14-0.13-1.68-0.13c-3.43-0.07-6.92-0.2-10.35-0.07c-1.01,0.07-2.02,0-3.03-0.07c-0.2,0-0.4-0.07-0.61-0.13
				c-0.4-0.13-0.81-0.34-0.94-0.74c-0.47-0.94-0.61-1.95-0.47-2.96c0.07-0.54,0.54-1.08,1.14-1.14c0.27,0,0.54,0,0.87-0.07
				c1.48-0.07,2.96-0.07,4.5-0.2c1.82-0.2,3.7-0.27,5.58-0.27c1.28,0,2.55,0,3.83,0c0.94-0.07,1.88-0.13,2.82-0.2
				c0.47,0,0.74-0.34,0.74-0.87c0-0.07,0-0.13,0-0.2c0.07-2.42,0.13-4.84,0.2-7.33c0-1.55-0.13-3.09-0.13-4.71
				C187.75,196.93,187.75,194.72,187.75,192.16z"/>
		</g>
	</g>
	<path class="st0" d="M127.49,253.71c-3.37-5.79-9.95-8.56-16.19-7.38c2.08,1.14,3.89,2.85,5.18,5.05
		c3.77,6.47,1.57,14.8-4.92,18.59c-2.88,1.68-6.11,2.19-9.15,1.67c4.76,5.53,12.94,7.05,19.49,3.22
		C129.27,270.54,131.78,261.08,127.49,253.71z"/>
</g>
</svg>
