<?xml version="1.0" encoding="utf-8"?>
<!-- Generator: Adobe Illustrator 23.0.1, SVG Export Plug-In . SVG Version: 6.00 Build 0)  -->
<svg version="1.1" id="Layer_1" xmlns="http://www.w3.org/2000/svg" xmlns:xlink="http://www.w3.org/1999/xlink" x="0px" y="0px"
	 viewBox="0 0 24 24" style="enable-background:new 0 0 24 24;" xml:space="preserve">
<style type="text/css">
	.st0{fill:#154C5E;}
	.st1{fill:#B7625E;}
	.st2{fill:#ECECE6;}
	.st3{opacity:0.27;fill:#F1A899;}
	.st4{fill:none;}
	.st5{fill:#F1A899;}
	.st6{fill-rule:evenodd;clip-rule:evenodd;fill:#154C5E;}
	.st7{opacity:0.41;fill:#F1A899;}
	.st8{fill:#F4CD87;}
	.st9{fill:none;stroke:#154C5E;stroke-miterlimit:10;}
	.st10{opacity:0.24;fill:#B7625E;}
</style>
<g>
	<circle class="st2" cx="12" cy="12" r="11.66"/>
	<g>
		<path class="st0" d="M13.25,9.34h-1.48l-0.01-0.07c-0.12-1.36-1.34-2.43-2.77-2.43c-1.54,0-2.79,1.2-2.79,2.66
			s1.25,2.66,2.79,2.66c0.01,0,0.03,0,0.04,0l0.11,0l0.01,0.07l0.73,5.94h4.49l1.09-8.84h-1.84l1.25-3.19h2.94V5.83h-3.18
			L13.25,9.34z M8.8,9.34l0.31,2.5l-0.12,0c-1.35,0-2.45-1.05-2.45-2.35s1.1-2.35,2.45-2.35c1.25,0,2.3,0.9,2.43,2.1l0.01,0.09H8.8z
			 M9.18,9.66h2.25l-0.01,0.09c-0.11,1-0.87,1.81-1.89,2.04L9.44,11.8L9.18,9.66z M9.48,12.12l0.07-0.01
			c1.19-0.24,2.1-1.21,2.21-2.38l0.01-0.07h1.36l-1.44,3.69H9.63L9.48,12.12z M9.67,13.66h1.88l-1.44,3.66L9.67,13.66z M14.07,17.85
			h-3.79l1.64-4.19h2.66L14.07,17.85z M15.07,9.66l-0.45,3.69h-2.58l1.44-3.69H15.07z"/>
	</g>
</g>
</svg>
