<?xml version="1.0" encoding="utf-8"?>
<!-- Generator: Adobe Illustrator 23.0.1, SVG Export Plug-In . SVG Version: 6.00 Build 0)  -->
<svg version="1.1" id="Layer_1" xmlns="http://www.w3.org/2000/svg" xmlns:xlink="http://www.w3.org/1999/xlink" x="0px" y="0px"
	 viewBox="0 0 174 50" style="enable-background:new 0 0 174 50;" xml:space="preserve">
<style type="text/css">
	.st0{fill:#001D30;}
	.st1{fill:#C48300;}
</style>
<path class="st0" d="M81.3,22.5c0,2.8-0.3,5.1-1,6.9c-1,2.7-2.6,4.8-4.8,6.3c-2.1,1.4-4.7,2.1-7.6,2.1c-4.8,0-8.5-1.6-11-4.9
	C55,30.5,54,27.5,54,24.1c0-3.8,1.1-7,3.4-9.6c2.6-2.9,6.2-4.4,10.8-4.4c3.1,0,5.7,0.8,7.8,2.4c1.5,1.1,2.8,2.8,3.9,5l-6.4,2.6
	c-0.5-1.2-1.2-2.1-1.9-2.7c-1-0.8-2.3-1.3-3.7-1.3c-2.9,0-5,1.5-6.1,4.5c-0.4,1.1-0.7,2.3-0.7,3.4c0,2.5,0.8,4.5,2.4,6.2
	c1.2,1.2,2.7,1.8,4.6,1.8c1.7,0,3.1-0.5,4.1-1.5c0.7-0.7,1.1-1.6,1.3-2.9h-5.6v-5.2H81.3L81.3,22.5z"/>
<path class="st0" d="M101.8,19.5c0,2.4-0.6,4.3-1.7,5.8c-1.4,2-3.8,3-7.2,3h-4.2V37H82V10.9h10.8c3.1,0,5.4,0.9,7,2.7
	C101.2,15.2,101.8,17.1,101.8,19.5L101.8,19.5z M94.8,19.6c0-1-0.3-1.8-0.9-2.4c-0.6-0.6-1.5-0.9-2.9-0.9h-2.3v6.6H91
	c1.5,0,2.5-0.3,3-1C94.6,21.4,94.8,20.6,94.8,19.6L94.8,19.6z"/>
<polygon class="st0" points="109.4,37 102.6,37 102.6,10.9 109.4,10.9 109.4,37 "/>
<path class="st1" d="M29.6,2.8L48,13.4c0.1,0,0.1,0.1,0.1,0.2v21.3c0,0.1,0,0.2-0.1,0.2L29.6,45.7c-0.1,0-0.2,0-0.2,0L25,43.2
	c-0.1,0-0.1-0.1-0.1-0.2v-5.7c0-0.1,0-0.2,0.1-0.2c0.1,0,0.2,0,0.2,0l4.1,2.4c0.1,0,0.2,0,0.2,0l13-7.5c0.1,0,0.1-0.1,0.1-0.2v-15
	c0-0.1,0-0.2-0.1-0.2L29.6,9c-0.1,0-0.2,0-0.2,0l-13,7.5c-0.1,0-0.1,0.1-0.1,0.2l0,21c0,0.1,0,0.2-0.1,0.2c-0.1,0-0.2,0-0.2,0
	l-5-2.9c-0.1,0-0.1-0.1-0.1-0.2V13.6c0-0.1,0-0.2,0.1-0.2L29.4,2.8C29.5,2.7,29.5,2.7,29.6,2.8L29.6,2.8z"/>
<path class="st1" d="M29.6,10.8l5.7,3.3l5.7,3.3c0.1,0,0.1,0.1,0.1,0.2v13.3c0,0.1,0,0.2-0.1,0.2l-11.5,6.6c-0.1,0-0.2,0-0.2,0
	L25,35.2c-0.1,0-0.1-0.1-0.1-0.2v-6c0-0.1,0-0.2,0.1-0.2c0.1,0,0.2,0,0.2,0l4.1,2.4c0.1,0,0.2,0,0.2,0l5.8-3.4
	c0.1,0,0.1-0.1,0.1-0.2v-6.7c0-0.1,0-0.2-0.1-0.2l-5.8-3.4c-0.1,0-0.2,0-0.2,0l-5.8,3.4c-0.1,0-0.1,0.1-0.1,0.2l0,27.1
	c0,0.1,0,0.2-0.1,0.2c-0.1,0-0.2,0-0.2,0l-5.2-3.1c-0.1,0-0.1-0.1-0.1-0.2V17.6c0-0.1,0-0.2,0.1-0.2l5.7-3.3l5.7-3.3
	C29.5,10.7,29.5,10.7,29.6,10.8L29.6,10.8z"/>
<path class="st1" d="M9.5,20.3l0,6.1c0,0.1,0,0.2-0.1,0.2c-0.1,0-0.2,0-0.2,0L4,23.7c-0.1,0-0.1-0.1-0.1-0.2l0-6.1
	c0-0.1,0-0.2,0.1-0.2c0.1,0,0.2,0,0.2,0l5.2,2.9C9.5,20.1,9.5,20.2,9.5,20.3L9.5,20.3z"/>
<path class="st0" d="M120.1,13.4c0,0.6-0.1,1.1-0.2,1.5c-0.2,0.6-0.5,1-1,1.3c-0.5,0.3-1,0.4-1.6,0.4c-1,0-1.8-0.3-2.3-1
	c-0.4-0.5-0.6-1.1-0.6-1.9c0-0.8,0.2-1.5,0.7-2c0.5-0.6,1.3-0.9,2.3-0.9c0.6,0,1.2,0.2,1.6,0.5c0.3,0.2,0.6,0.6,0.8,1l-1.3,0.5
	c-0.1-0.3-0.2-0.4-0.4-0.6c-0.2-0.2-0.5-0.3-0.8-0.3c-0.6,0-1,0.3-1.3,1c-0.1,0.2-0.1,0.5-0.1,0.7c0,0.5,0.2,0.9,0.5,1.3
	c0.2,0.3,0.6,0.4,1,0.4c0.4,0,0.6-0.1,0.9-0.3c0.1-0.1,0.2-0.3,0.3-0.6h-1.2v-1.1H120.1L120.1,13.4z"/>
<path class="st0" d="M125.1,16.4h-1.8l-1.4-2.1v2.1h-1.4V11h2.2c0.6,0,1.1,0.2,1.4,0.6c0.3,0.3,0.4,0.7,0.4,1.1
	c0,0.5-0.1,0.9-0.4,1.2c-0.2,0.2-0.4,0.3-0.8,0.4L125.1,16.4L125.1,16.4z M123.1,12.7c0-0.2-0.1-0.4-0.2-0.5
	c-0.1-0.1-0.3-0.2-0.6-0.2h-0.3v1.4h0.3c0.3,0,0.5-0.1,0.6-0.2C123,13.1,123.1,12.9,123.1,12.7L123.1,12.7z"/>
<path class="st0" d="M130,14.1c0,0.3,0,0.6-0.1,0.8c-0.1,0.4-0.3,0.7-0.6,1c-0.4,0.4-1,0.6-1.8,0.6c-0.8,0-1.3-0.2-1.8-0.6
	c-0.2-0.2-0.4-0.5-0.5-0.8c-0.1-0.2-0.1-0.6-0.1-1V11h1.4v3c0,0.2,0,0.4,0,0.5c0,0.4,0.2,0.6,0.5,0.8c0.1,0.1,0.3,0.1,0.4,0.1
	c0.3,0,0.6-0.1,0.8-0.4c0.1-0.2,0.2-0.5,0.2-1v-3h1.4V14.1L130,14.1z"/>
<path class="st0" d="M134.8,12.8c0,0.5-0.1,0.9-0.3,1.2c-0.3,0.4-0.8,0.6-1.5,0.6H132v1.8h-1.4V11h2.3c0.6,0,1.1,0.2,1.5,0.6
	C134.6,11.9,134.8,12.3,134.8,12.8L134.8,12.8z M133.3,12.8c0-0.2-0.1-0.4-0.2-0.5c-0.1-0.1-0.3-0.2-0.6-0.2H132v1.4h0.5
	c0.3,0,0.5-0.1,0.6-0.2C133.2,13.2,133.3,13,133.3,12.8L133.3,12.8z"/>
<path class="st0" d="M140.9,13.7c0,0.7-0.2,1.4-0.7,2c-0.6,0.6-1.3,1-2.3,1c-1,0-1.7-0.3-2.3-1c-0.5-0.6-0.7-1.2-0.7-2
	c0-0.3,0.1-0.7,0.2-1c0.1-0.4,0.3-0.7,0.5-0.9c0.6-0.6,1.3-1,2.3-1c1,0,1.7,0.3,2.3,1C140.6,12.3,140.9,13,140.9,13.7L140.9,13.7z
	 M139.4,13.7c0-0.4-0.1-0.7-0.4-1c-0.3-0.4-0.7-0.5-1.2-0.5c-0.3,0-0.6,0.1-0.9,0.3c-0.3,0.2-0.5,0.4-0.6,0.7
	c-0.1,0.2-0.1,0.4-0.1,0.5c0,0.4,0.1,0.7,0.4,1c0.3,0.4,0.7,0.5,1.2,0.5c0.5,0,0.9-0.2,1.2-0.5C139.3,14.4,139.4,14.1,139.4,13.7
	L139.4,13.7z"/>
<path class="st0" d="M118.8,20.4c0,0.5-0.1,0.9-0.3,1.2c-0.3,0.4-0.8,0.6-1.5,0.6H116V24h-1.4v-5.5h2.3c0.6,0,1.1,0.2,1.5,0.6
	C118.6,19.5,118.8,19.9,118.8,20.4L118.8,20.4z M117.3,20.4c0-0.2-0.1-0.4-0.2-0.5c-0.1-0.1-0.3-0.2-0.6-0.2H116v1.4h0.5
	c0.3,0,0.5-0.1,0.6-0.2C117.3,20.8,117.3,20.6,117.3,20.4L117.3,20.4z"/>
<path class="st0" d="M123.6,24h-1.8l-1.4-2.1V24h-1.4v-5.5h2.2c0.6,0,1.1,0.2,1.4,0.6c0.3,0.3,0.4,0.7,0.4,1.1
	c0,0.5-0.1,0.9-0.4,1.2c-0.2,0.2-0.4,0.3-0.8,0.4L123.6,24L123.6,24z M121.6,20.3c0-0.2-0.1-0.4-0.2-0.5c-0.1-0.1-0.3-0.2-0.6-0.2
	h-0.3V21h0.3c0.3,0,0.5-0.1,0.6-0.2C121.5,20.7,121.6,20.5,121.6,20.3L121.6,20.3z"/>
<path class="st0" d="M129.5,21.3c0,0.7-0.2,1.4-0.7,2c-0.6,0.6-1.3,1-2.3,1c-1,0-1.7-0.3-2.3-1c-0.5-0.6-0.7-1.2-0.7-2
	c0-0.3,0.1-0.7,0.2-1c0.1-0.4,0.3-0.7,0.5-0.9c0.6-0.6,1.3-1,2.3-1c1,0,1.7,0.3,2.3,1C129.3,19.9,129.5,20.6,129.5,21.3L129.5,21.3z
	 M128.1,21.3c0-0.4-0.1-0.7-0.4-1c-0.3-0.4-0.7-0.5-1.2-0.5c-0.3,0-0.6,0.1-0.9,0.3c-0.3,0.2-0.5,0.4-0.6,0.7
	c-0.1,0.2-0.1,0.4-0.1,0.5c0,0.4,0.1,0.7,0.4,1c0.3,0.4,0.7,0.5,1.2,0.5c0.5,0,0.9-0.2,1.2-0.5C127.9,22,128.1,21.7,128.1,21.3
	L128.1,21.3z"/>
<path class="st0" d="M133.7,22.2c0,0.9-0.4,1.5-1.2,1.8c-0.3,0.1-0.6,0.1-0.9,0.1c-0.7,0-1.3-0.2-1.9-0.6l0.6-1.1
	c0.4,0.4,0.8,0.6,1.3,0.6c0.2,0,0.3,0,0.5-0.1c0.1-0.1,0.2-0.2,0.2-0.4c0-0.2-0.1-0.3-0.2-0.4c-0.1-0.1-0.3-0.2-0.6-0.2
	c-0.4-0.1-0.6-0.2-0.7-0.2c-0.1-0.1-0.3-0.1-0.4-0.2c-0.3-0.2-0.4-0.6-0.4-1.1c0-0.5,0.2-0.9,0.5-1.3c0.4-0.4,0.8-0.6,1.4-0.6
	c0.6,0,1.2,0.1,1.7,0.4l-0.6,1.1c-0.3-0.2-0.6-0.4-0.9-0.4c-0.2,0-0.3,0-0.4,0.1c-0.1,0.1-0.2,0.2-0.2,0.4c0,0.1,0.1,0.3,0.3,0.4
	c0.1,0,0.3,0.1,0.7,0.3c0.5,0.1,0.9,0.4,1.1,0.6C133.6,21.6,133.7,21.9,133.7,22.2L133.7,22.2z"/>
<path class="st0" d="M138.9,21.7c0,0.3,0,0.6-0.1,0.8c-0.1,0.4-0.3,0.7-0.6,1c-0.4,0.4-1,0.6-1.8,0.6c-0.8,0-1.3-0.2-1.8-0.6
	c-0.2-0.2-0.4-0.5-0.5-0.8c-0.1-0.2-0.1-0.6-0.1-1v-3.2h1.4v3c0,0.2,0,0.4,0,0.5c0,0.4,0.2,0.6,0.5,0.8c0.1,0.1,0.3,0.1,0.4,0.1
	c0.3,0,0.6-0.1,0.8-0.4c0.1-0.2,0.2-0.5,0.2-1v-3h1.4V21.7L138.9,21.7z"/>
<path class="st0" d="M144.1,24h-1.8l-1.4-2.1V24h-1.4v-5.5h2.2c0.6,0,1.1,0.2,1.4,0.6c0.3,0.3,0.4,0.7,0.4,1.1
	c0,0.5-0.1,0.9-0.4,1.2c-0.2,0.2-0.4,0.3-0.8,0.4L144.1,24L144.1,24z M142.1,20.3c0-0.2-0.1-0.4-0.2-0.5c-0.1-0.1-0.3-0.2-0.6-0.2
	H141V21h0.3c0.3,0,0.5-0.1,0.6-0.2C142.1,20.7,142.1,20.5,142.1,20.3L142.1,20.3z"/>
<polygon class="st0" points="116,31.6 114.6,31.6 114.6,26.2 116,26.2 116,31.6 "/>
<polygon class="st0" points="122.2,31.6 120.8,31.6 118.1,28.3 118.1,31.6 116.7,31.6 116.7,26.2 118.1,26.2 120.8,29.5 120.8,26.2 
	122.2,26.2 122.2,31.6 "/>
<polygon class="st0" points="129.4,31.6 128,31.6 127.6,28.5 126.3,31.6 125.7,31.6 124.5,28.5 124,31.6 122.6,31.6 123.5,26.2 
	124.9,26.2 126,29.1 127.2,26.2 128.6,26.2 129.4,31.6 "/>
<path class="st0" d="M135.7,28.9c0,0.7-0.2,1.4-0.7,2c-0.6,0.6-1.3,1-2.3,1c-1,0-1.7-0.3-2.3-1c-0.5-0.6-0.7-1.2-0.7-2
	c0-0.3,0.1-0.7,0.2-1c0.1-0.4,0.3-0.7,0.5-0.9c0.6-0.6,1.3-1,2.3-1c1,0,1.7,0.3,2.3,1C135.4,27.5,135.7,28.2,135.7,28.9L135.7,28.9z
	 M134.2,28.9c0-0.4-0.1-0.7-0.4-1c-0.3-0.4-0.7-0.5-1.2-0.5c-0.3,0-0.6,0.1-0.9,0.3c-0.3,0.2-0.5,0.4-0.6,0.7
	c-0.1,0.2-0.1,0.4-0.1,0.5c0,0.4,0.1,0.7,0.4,1c0.3,0.4,0.7,0.5,1.2,0.5c0.5,0,0.9-0.2,1.2-0.5C134.1,29.6,134.2,29.3,134.2,28.9
	L134.2,28.9z"/>
<path class="st0" d="M140.2,30.1c0,0.4-0.1,0.7-0.3,1c-0.3,0.4-0.8,0.6-1.5,0.6h-2.3v-5.5h2.1c1,0,1.5,0.5,1.5,1.4
	c0,0.3-0.1,0.5-0.2,0.7c-0.1,0.2-0.2,0.3-0.4,0.4c0.4,0.1,0.7,0.3,0.9,0.5C140.2,29.5,140.2,29.8,140.2,30.1L140.2,30.1z
	 M138.4,27.8c0-0.2-0.1-0.4-0.3-0.5c-0.1,0-0.2,0-0.3,0h-0.3v1.1h0.3c0.2,0,0.4-0.1,0.5-0.2C138.4,28,138.4,27.9,138.4,27.8
	L138.4,27.8z M138.8,30c0-0.3-0.2-0.5-0.5-0.6c-0.1,0-0.3,0-0.5,0h-0.3v1.1h0.3c0.4,0,0.6,0,0.8-0.1C138.7,30.3,138.8,30.2,138.8,30
	L138.8,30z"/>
<polygon class="st0" points="142.1,31.6 140.7,31.6 140.7,26.2 142.1,26.2 142.1,31.6 "/>
<polygon class="st0" points="145.9,31.6 142.8,31.6 142.8,26.2 144.2,26.2 144.2,30.4 145.9,30.4 145.9,31.6 "/>
<polygon class="st0" points="147.6,31.6 146.1,31.6 146.1,26.2 147.6,26.2 147.6,31.6 "/>
<path class="st0" d="M153.4,31.6h-1.5l-0.4-1h-2l-0.4,1h-1.5l2.1-5.5h1.6L153.4,31.6L153.4,31.6z M151.2,29.6l-0.6-1.7l-0.6,1.7
	H151.2L151.2,29.6z"/>
<path class="st0" d="M158.1,31.6h-1.8l-1.4-2.1v2.1h-1.4v-5.5h2.2c0.6,0,1.1,0.2,1.4,0.6c0.3,0.3,0.4,0.7,0.4,1.1
	c0,0.5-0.1,0.9-0.4,1.2c-0.2,0.2-0.4,0.3-0.8,0.4L158.1,31.6L158.1,31.6z M156.1,27.9c0-0.2-0.1-0.4-0.2-0.5
	c-0.1-0.1-0.3-0.2-0.6-0.2H155v1.4h0.3c0.3,0,0.5-0.1,0.6-0.2C156,28.3,156.1,28.1,156.1,27.9L156.1,27.9z"/>
<polygon class="st0" points="159.6,31.6 158.2,31.6 158.2,26.2 159.6,26.2 159.6,31.6 "/>
<path class="st0" d="M166.1,28.9c0,0.7-0.2,1.4-0.7,2c-0.6,0.6-1.3,1-2.3,1c-1,0-1.7-0.3-2.3-1c-0.5-0.6-0.7-1.2-0.7-2
	c0-0.3,0.1-0.7,0.2-1c0.1-0.4,0.3-0.7,0.5-0.9c0.6-0.6,1.3-1,2.3-1c1,0,1.7,0.3,2.3,1C165.9,27.5,166.1,28.2,166.1,28.9L166.1,28.9z
	 M164.6,28.9c0-0.4-0.1-0.7-0.4-1c-0.3-0.4-0.7-0.5-1.2-0.5c-0.3,0-0.6,0.1-0.9,0.3c-0.3,0.2-0.5,0.4-0.6,0.7
	c-0.1,0.2-0.1,0.4-0.1,0.5c0,0.4,0.1,0.7,0.4,1c0.3,0.4,0.7,0.5,1.2,0.5c0.5,0,0.9-0.2,1.2-0.5C164.5,29.6,164.6,29.3,164.6,28.9
	L164.6,28.9z"/>
<path class="st0" d="M116.5,37l-0.9-2.5h-0.3l-0.9,2.5h0.4l0.2-0.5h1l0.2,0.5H116.5L116.5,37z M115.9,36.2h-0.8l0.4-1.1L115.9,36.2
	L115.9,36.2z"/>
<path class="st0" d="M160.9,36v-0.4H160V36h0.5v0.1c0,0.2,0,0.3-0.1,0.4c-0.1,0.1-0.2,0.2-0.4,0.2c-0.1,0-0.3-0.1-0.4-0.1
	c-0.1-0.1-0.1-0.3-0.1-0.8c0-0.5,0-0.6,0.1-0.8c0.1-0.1,0.2-0.2,0.4-0.2c0.3,0,0.5,0.2,0.5,0.4h0.4c-0.1-0.4-0.4-0.8-0.9-0.8
	c-0.3,0-0.5,0.1-0.6,0.3c-0.2,0.2-0.2,0.5-0.2,1s0,0.7,0.2,1c0.2,0.2,0.4,0.3,0.6,0.3c0.3,0,0.5-0.1,0.7-0.3
	C160.9,36.5,160.9,36.3,160.9,36L160.9,36z"/>
<path class="st0" d="M163.5,37l-0.6-1.1c0.3-0.1,0.5-0.3,0.5-0.7c0-0.4-0.3-0.7-0.8-0.7h-1V37h0.4v-1h0.5l0.5,1H163.5L163.5,37z
	 M163.1,35.2c0,0.2-0.2,0.4-0.4,0.4h-0.6v-0.8h0.6C162.9,34.8,163.1,35,163.1,35.2L163.1,35.2z"/>
<path class="st0" d="M165.9,35.7c0-0.5,0-0.7-0.2-1c-0.2-0.2-0.4-0.3-0.7-0.3c-0.3,0-0.5,0.1-0.6,0.3c-0.2,0.2-0.2,0.5-0.2,1
	s0,0.7,0.2,1c0.2,0.2,0.4,0.3,0.6,0.3c0.3,0,0.5-0.1,0.7-0.3C165.9,36.5,165.9,36.2,165.9,35.7L165.9,35.7z M165.5,35.7
	c0,0.5,0,0.6-0.1,0.8c-0.1,0.1-0.2,0.2-0.4,0.2c-0.1,0-0.3-0.1-0.4-0.2c-0.1-0.1-0.1-0.3-0.1-0.8c0-0.5,0-0.6,0.1-0.8
	c0.1-0.1,0.2-0.2,0.4-0.2c0.1,0,0.3,0.1,0.4,0.2C165.5,35.1,165.5,35.2,165.5,35.7L165.5,35.7z"/>
<path class="st0" d="M168.4,36.1v-1.6h-0.4v1.6c0,0.3-0.2,0.5-0.5,0.5c-0.3,0-0.5-0.2-0.5-0.5v-1.6h-0.4v1.6c0,0.5,0.4,0.9,0.9,0.9
	S168.4,36.6,168.4,36.1L168.4,36.1z"/>
<path class="st0" d="M171,35.3c0-0.4-0.3-0.7-0.8-0.7h-0.9V37h0.4v-1h0.6C170.7,36,171,35.7,171,35.3L171,35.3z M170.6,35.3
	c0,0.3-0.2,0.4-0.4,0.4h-0.5v-0.8h0.5C170.4,34.8,170.6,35,170.6,35.3L170.6,35.3z"/>
<path class="st0" d="M119.7,35.3c0-0.4-0.3-0.7-0.8-0.7H118V37h0.4v-1h0.6C119.4,36,119.7,35.7,119.7,35.3L119.7,35.3z M119.3,35.3
	c0,0.3-0.2,0.4-0.4,0.4h-0.5v-0.8h0.5C119.1,34.8,119.3,35,119.3,35.3L119.3,35.3z"/>
<path class="st0" d="M122.2,37l-0.6-1.1c0.3-0.1,0.5-0.3,0.5-0.7c0-0.4-0.3-0.7-0.8-0.7h-1V37h0.4v-1h0.5l0.5,1H122.2L122.2,37z
	 M121.7,35.2c0,0.2-0.2,0.4-0.4,0.4h-0.6v-0.8h0.6C121.5,34.8,121.7,35,121.7,35.2L121.7,35.2z"/>
<path class="st0" d="M124.6,35.7c0-0.5,0-0.7-0.2-1c-0.2-0.2-0.4-0.3-0.7-0.3c-0.3,0-0.5,0.1-0.6,0.3c-0.2,0.2-0.2,0.5-0.2,1
	s0,0.7,0.2,1c0.2,0.2,0.4,0.3,0.6,0.3c0.3,0,0.5-0.1,0.7-0.3C124.6,36.5,124.6,36.2,124.6,35.7L124.6,35.7z M124.2,35.7
	c0,0.5,0,0.6-0.1,0.8c-0.1,0.1-0.2,0.2-0.4,0.2c-0.1,0-0.3-0.1-0.4-0.2c-0.1-0.1-0.1-0.3-0.1-0.8c0-0.5,0-0.6,0.1-0.8
	c0.1-0.1,0.2-0.2,0.4-0.2c0.1,0,0.3,0.1,0.4,0.2C124.2,35.1,124.2,35.2,124.2,35.7L124.2,35.7z"/>
<path class="st0" d="M126.4,36.2v-1.7H126v1.7c0,0.3-0.2,0.5-0.4,0.5c-0.2,0-0.3-0.1-0.4-0.1l-0.2,0.2c0.2,0.2,0.3,0.2,0.6,0.2
	C126,37,126.4,36.7,126.4,36.2L126.4,36.2z"/>
<polygon class="st0" points="128.8,37 128.8,36.6 127.6,36.6 127.6,35.9 128.6,35.9 128.6,35.6 127.6,35.6 127.6,34.8 128.8,34.8 
	128.8,34.5 127.2,34.5 127.2,37 128.8,37 "/>
<path class="st0" d="M131.2,36.2h-0.4c-0.1,0.2-0.2,0.4-0.5,0.4c-0.1,0-0.3-0.1-0.4-0.1c-0.1-0.1-0.1-0.3-0.1-0.8
	c0-0.5,0-0.6,0.1-0.8c0.1-0.1,0.2-0.1,0.4-0.1c0.3,0,0.4,0.2,0.5,0.4h0.4c-0.1-0.5-0.4-0.8-0.9-0.8c-0.3,0-0.5,0.1-0.6,0.3
	c-0.2,0.2-0.2,0.5-0.2,1s0,0.7,0.2,1c0.2,0.2,0.4,0.3,0.6,0.3C130.8,37,131.1,36.7,131.2,36.2L131.2,36.2z"/>
<polygon class="st0" points="133.4,34.8 133.4,34.5 131.7,34.5 131.7,34.8 132.4,34.8 132.4,37 132.7,37 132.7,34.8 133.4,34.8 "/>
<path class="st0" d="M136.7,35.7c0-0.4,0-0.7-0.2-1c-0.2-0.2-0.4-0.2-0.7-0.2h-0.9V37h0.9c0.3,0,0.5-0.1,0.7-0.2
	C136.7,36.5,136.7,36.1,136.7,35.7L136.7,35.7z M136.2,35.7c0,0.4,0,0.6-0.1,0.7c-0.1,0.1-0.2,0.2-0.4,0.2h-0.4v-1.6h0.4
	c0.2,0,0.3,0.1,0.4,0.2C136.2,35.2,136.2,35.4,136.2,35.7L136.2,35.7z"/>
<polygon class="st0" points="139,37 139,36.5 137.9,36.5 137.9,35.9 138.8,35.9 138.8,35.5 137.9,35.5 137.9,34.9 139,34.9 
	139,34.5 137.4,34.5 137.4,37 139,37 "/>
<polygon class="st0" points="141.4,34.5 140.9,34.5 140.4,36.1 139.9,34.5 139.4,34.5 140.2,37 140.6,37 141.4,34.5 "/>
<polygon class="st0" points="143.6,37 143.6,36.5 142.4,36.5 142.4,35.9 143.4,35.9 143.4,35.5 142.4,35.5 142.4,34.9 143.6,34.9 
	143.6,34.5 141.9,34.5 141.9,37 143.6,37 "/>
<polygon class="st0" points="145.9,37 145.9,36.5 144.8,36.5 144.8,34.5 144.3,34.5 144.3,37 145.9,37 "/>
<path class="st0" d="M148.1,35.7c0-0.4,0-0.7-0.2-1c-0.2-0.2-0.4-0.3-0.7-0.3c-0.3,0-0.5,0.1-0.7,0.3c-0.2,0.2-0.2,0.6-0.2,1
	c0,0.4,0,0.7,0.2,1c0.2,0.2,0.4,0.3,0.7,0.3c0.3,0,0.5-0.1,0.7-0.3C148.1,36.5,148.1,36.2,148.1,35.7L148.1,35.7z M147.7,35.7
	c0,0.5,0,0.6-0.1,0.7c-0.1,0.1-0.2,0.1-0.3,0.1c-0.1,0-0.2-0.1-0.3-0.1c-0.1-0.1-0.1-0.2-0.1-0.7s0-0.6,0.1-0.7
	c0.1-0.1,0.2-0.1,0.3-0.1c0.1,0,0.2,0.1,0.3,0.1C147.6,35.1,147.7,35.3,147.7,35.7L147.7,35.7z"/>
<path class="st0" d="M150.6,35.3c0-0.4-0.3-0.8-0.8-0.8h-1V37h0.5V36h0.5C150.3,36,150.6,35.7,150.6,35.3L150.6,35.3z M150.1,35.3
	c0,0.2-0.1,0.3-0.4,0.3h-0.5v-0.7h0.5C150,34.9,150.1,35.1,150.1,35.3L150.1,35.3z"/>
<polygon class="st0" points="152.9,37 152.9,36.5 151.7,36.5 151.7,35.9 152.7,35.9 152.7,35.5 151.7,35.5 151.7,34.9 152.9,34.9 
	152.9,34.5 151.3,34.5 151.3,37 152.9,37 "/>
<path class="st0" d="M155.5,37l-0.6-1.1c0.2-0.1,0.5-0.3,0.5-0.6c0-0.4-0.3-0.8-0.8-0.8h-1V37h0.5v-1h0.3l0.5,1H155.5L155.5,37z
	 M154.9,35.3c0,0.2-0.1,0.3-0.4,0.3h-0.5v-0.7h0.5C154.7,34.9,154.9,35.1,154.9,35.3L154.9,35.3z"/>
<path class="st0" d="M157.7,36.2c0-0.2-0.1-0.4-0.2-0.5c-0.1-0.1-0.2-0.2-0.5-0.2l-0.3,0c-0.1,0-0.2-0.1-0.2-0.1
	c-0.1,0-0.1-0.1-0.1-0.2c0-0.2,0.1-0.3,0.4-0.3c0.2,0,0.4,0,0.5,0.2l0.3-0.3c-0.2-0.2-0.5-0.3-0.8-0.3c-0.5,0-0.9,0.3-0.9,0.7
	c0,0.2,0.1,0.4,0.2,0.5c0.1,0.1,0.3,0.2,0.5,0.2l0.3,0c0.1,0,0.2,0,0.2,0.1c0.1,0,0.1,0.1,0.1,0.2c0,0.2-0.2,0.3-0.4,0.3
	c-0.2,0-0.4-0.1-0.6-0.2l-0.3,0.3c0.2,0.2,0.5,0.3,0.9,0.3C157.3,37,157.7,36.7,157.7,36.2L157.7,36.2z"/>
</svg>
