<?xml version="1.0" encoding="utf-8"?>
<!-- Generator: Adobe Illustrator 23.0.1, SVG Export Plug-In . SVG Version: 6.00 Build 0)  -->
<svg version="1.1" id="Layer_1" xmlns="http://www.w3.org/2000/svg" xmlns:xlink="http://www.w3.org/1999/xlink" x="0px" y="0px"
	 viewBox="0 0 24 24" style="enable-background:new 0 0 24 24;" xml:space="preserve">
<style type="text/css">
	.st0{fill:#154C5E;}
	.st1{fill:#B7625E;}
	.st2{fill:#ECECE6;}
	.st3{opacity:0.27;fill:#F1A899;}
	.st4{fill:none;}
	.st5{fill:#F1A899;}
	.st6{fill-rule:evenodd;clip-rule:evenodd;fill:#154C5E;}
	.st7{opacity:0.41;fill:#F1A899;}
	.st8{fill:#F4CD87;}
	.st9{fill:none;stroke:#154C5E;stroke-miterlimit:10;}
	.st10{opacity:0.24;fill:#B7625E;}
</style>
<g>
	<circle class="st2" cx="12" cy="12" r="11.66"/>
	<g>
		<g>
			<path class="st0" d="M12,17.62L6.48,12L12,6.38L17.52,12L12,17.62z M12.14,5.95c-0.08-0.08-0.2-0.08-0.28,0l-5.8,5.91
				c-0.08,0.08-0.08,0.21,0,0.29l5.8,5.91c0.08,0.08,0.2,0.08,0.28,0l5.8-5.91c0.08-0.08,0.08-0.21,0-0.29L12.14,5.95z"/>
			<path class="st0" d="M13,10.98c0,0.56-0.45,1.02-1,1.02h-1V9.96h1C12.55,9.96,13,10.42,13,10.98 M11,9.56h-0.4v5.3H11v-2.44h1
				c0.77,0,1.4-0.64,1.4-1.43c0-0.79-0.63-1.43-1.4-1.43H11z"/>
		</g>
	</g>
</g>
</svg>
