<?xml version="1.0" encoding="utf-8"?>
<!-- Generator: Adobe Illustrator 23.0.1, SVG Export Plug-In . SVG Version: 6.00 Build 0)  -->
<svg version="1.1" id="Layer_1" xmlns="http://www.w3.org/2000/svg" xmlns:xlink="http://www.w3.org/1999/xlink" x="0px" y="0px"
	 viewBox="0 0 174 50" style="enable-background:new 0 0 174 50;" xml:space="preserve">
<style type="text/css">
	.st0{fill:#154C5E;}
	.st1{fill:#B7625E;}
	.st2{fill:#ECECE6;}
	.st3{opacity:0.27;fill:#F1A899;}
	.st4{fill:none;}
	.st5{fill:#F1A899;}
	.st6{fill-rule:evenodd;clip-rule:evenodd;fill:#154C5E;}
	.st7{opacity:0.41;fill:#F1A899;}
	.st8{fill:#F4CD87;}
	.st9{fill:none;stroke:#154C5E;stroke-miterlimit:10;}
	.st10{opacity:0.24;fill:#B7625E;}
</style>
<g>
	<g>
		<path class="st1" d="M77.56,22.1c0,2.73-0.31,4.95-0.92,6.68c-0.94,2.62-2.48,4.63-4.63,6.04c-2.07,1.35-4.53,2.03-7.36,2.03
			c-4.61,0-8.15-1.57-10.63-4.71c-1.87-2.38-2.8-5.22-2.8-8.53c0-3.66,1.09-6.73,3.28-9.22c2.48-2.84,5.94-4.25,10.38-4.25
			c2.97,0,5.48,0.76,7.54,2.28c1.47,1.08,2.73,2.67,3.77,4.78l-6.19,2.53c-0.53-1.15-1.14-2.01-1.84-2.59
			c-1.01-0.81-2.21-1.22-3.6-1.22c-2.84,0-4.82,1.46-5.93,4.38c-0.42,1.08-0.63,2.18-0.63,3.33c0,2.38,0.75,4.36,2.27,5.95
			c1.12,1.18,2.62,1.77,4.48,1.77c1.66,0,2.98-0.48,3.95-1.45c0.64-0.63,1.06-1.57,1.26-2.82h-5.39V22.1H77.56L77.56,22.1z"/>
		<path class="st1" d="M97.33,19.19c0,2.27-0.53,4.15-1.6,5.64c-1.39,1.93-3.69,2.89-6.91,2.89h-4.09v8.34h-6.53V10.89h10.4
			c2.96,0,5.21,0.87,6.74,2.6C96.67,14.98,97.33,16.88,97.33,19.19L97.33,19.19z M90.54,19.26c0-0.95-0.28-1.71-0.82-2.28
			c-0.55-0.57-1.48-0.85-2.79-0.85h-2.19v6.34h2.18c1.41,0,2.39-0.31,2.92-0.94C90.3,20.98,90.54,20.22,90.54,19.26L90.54,19.26z"/>
		<polygon class="st1" points="104.6,36.06 98.07,36.06 98.07,10.89 104.6,10.89 104.6,36.06 		"/>
		<path class="st1" d="M27.66,3.03l17.76,10.25c0.07,0.04,0.12,0.11,0.12,0.2V34c0,0.08-0.04,0.16-0.12,0.2L27.66,44.45
			c-0.07,0.04-0.16,0.04-0.23,0l-4.2-2.42c-0.07-0.04-0.12-0.11-0.12-0.2v-5.51c0-0.08,0.04-0.16,0.12-0.2
			c0.07-0.04,0.16-0.04,0.23,0l3.97,2.29c0.07,0.04,0.16,0.04,0.23,0l12.53-7.23c0.07-0.04,0.12-0.11,0.12-0.2V16.51
			c0-0.08-0.04-0.16-0.12-0.2L27.66,9.07c-0.07-0.04-0.16-0.04-0.23,0L14.9,16.31c-0.07,0.04-0.12,0.11-0.12,0.2l0.01,20.25
			c0,0.08-0.04,0.16-0.12,0.2c-0.07,0.04-0.16,0.04-0.23,0l-4.78-2.76c-0.07-0.04-0.12-0.11-0.12-0.2V13.49
			c0-0.08,0.04-0.16,0.12-0.2L27.43,3.03C27.5,2.99,27.58,2.99,27.66,3.03L27.66,3.03z"/>
		<path class="st1" d="M27.66,10.73l5.55,3.2l5.55,3.2c0.07,0.04,0.12,0.11,0.12,0.2v12.81c0,0.08-0.04,0.16-0.12,0.2l-11.09,6.4
			c-0.07,0.04-0.16,0.04-0.23,0l-4.2-2.42c-0.07-0.04-0.12-0.11-0.12-0.2v-5.8c0-0.08,0.04-0.16,0.12-0.2
			c0.07-0.04,0.16-0.04,0.23,0l3.97,2.29c0.07,0.04,0.16,0.04,0.23,0l5.61-3.24c0.07-0.04,0.12-0.11,0.12-0.2V20.5
			c0-0.08-0.04-0.16-0.12-0.2l-5.61-3.24c-0.07-0.04-0.16-0.04-0.23,0l-5.61,3.24c-0.07,0.04-0.12,0.11-0.12,0.2l0,26.14
			c0,0.09-0.04,0.16-0.12,0.2c-0.07,0.04-0.16,0.04-0.23,0l-5.02-2.99c-0.07-0.04-0.11-0.11-0.11-0.2V17.34
			c0-0.08,0.04-0.16,0.12-0.2l5.55-3.2l5.55-3.2C27.5,10.69,27.58,10.69,27.66,10.73L27.66,10.73z"/>
		<path class="st1" d="M8.3,19.92l0,5.86c0,0.08-0.04,0.16-0.11,0.2c-0.07,0.04-0.15,0.04-0.23,0L2.92,23.2
			C2.84,23.16,2.8,23.09,2.8,23l0-5.86c0-0.08,0.04-0.16,0.11-0.2c0.07-0.04,0.15-0.04,0.23,0l5.03,2.78
			C8.26,19.76,8.3,19.84,8.3,19.92L8.3,19.92z"/>
		<path class="st1" d="M45.26,37.39v-0.56h0.37c0.19,0,0.39,0.04,0.39,0.26c0,0.28-0.21,0.29-0.44,0.29H45.26L45.26,37.39z
			 M45.26,37.62h0.31l0.47,0.78h0.3l-0.51-0.79c0.26-0.03,0.47-0.17,0.47-0.49c0-0.35-0.21-0.51-0.63-0.51h-0.68v1.8h0.27V37.62
			L45.26,37.62z M45.59,39.06c0.85,0,1.57-0.66,1.57-1.56c0-0.89-0.72-1.55-1.57-1.55c-0.86,0-1.58,0.66-1.58,1.55
			C44.01,38.4,44.74,39.06,45.59,39.06L45.59,39.06z M44.32,37.5c0-0.74,0.56-1.29,1.27-1.29c0.7,0,1.26,0.56,1.26,1.29
			c0,0.75-0.56,1.3-1.26,1.3C44.88,38.8,44.32,38.25,44.32,37.5L44.32,37.5z"/>
		<path class="st1" d="M114.95,13.29c0,0.57-0.06,1.04-0.19,1.4c-0.2,0.55-0.52,0.97-0.97,1.27c-0.43,0.28-0.95,0.43-1.55,0.43
			c-0.97,0-1.71-0.33-2.23-0.99c-0.39-0.5-0.59-1.1-0.59-1.79c0-0.77,0.23-1.41,0.69-1.94c0.52-0.6,1.25-0.89,2.18-0.89
			c0.62,0,1.15,0.16,1.58,0.48c0.31,0.23,0.57,0.56,0.79,1l-1.3,0.53c-0.11-0.24-0.24-0.42-0.39-0.54
			c-0.21-0.17-0.46-0.26-0.75-0.26c-0.6,0-1.01,0.31-1.24,0.92c-0.09,0.23-0.13,0.46-0.13,0.7c0,0.5,0.16,0.92,0.48,1.25
			c0.23,0.25,0.55,0.37,0.94,0.37c0.35,0,0.63-0.1,0.83-0.3c0.13-0.13,0.22-0.33,0.26-0.59h-1.13v-1.04H114.95L114.95,13.29z"/>
		<path class="st1" d="M119.73,16.22h-1.7l-1.31-2.02v2.02h-1.37v-5.28h2.13c0.62,0,1.08,0.19,1.38,0.56
			c0.24,0.3,0.36,0.66,0.36,1.06c0,0.47-0.14,0.84-0.42,1.12c-0.18,0.18-0.42,0.3-0.73,0.37L119.73,16.22L119.73,16.22z
			 M117.8,12.65c0-0.19-0.07-0.35-0.21-0.48c-0.13-0.12-0.34-0.18-0.62-0.18h-0.26v1.32h0.26c0.29,0,0.5-0.06,0.62-0.18
			C117.73,13,117.8,12.83,117.8,12.65L117.8,12.65z"/>
		<path class="st1" d="M124.44,13.99c0,0.32-0.03,0.59-0.08,0.81c-0.08,0.35-0.27,0.67-0.57,0.95c-0.43,0.41-1,0.61-1.71,0.61
			c-0.73,0-1.3-0.21-1.71-0.62c-0.22-0.22-0.36-0.49-0.44-0.82c-0.06-0.23-0.08-0.54-0.08-0.94v-3.04h1.37v2.85
			c0,0.23,0,0.4,0.01,0.51c0.03,0.36,0.19,0.61,0.49,0.75c0.12,0.06,0.26,0.09,0.41,0.09c0.34,0,0.59-0.12,0.76-0.35
			c0.13-0.17,0.19-0.51,0.19-1v-2.85h1.37V13.99L124.44,13.99z"/>
		<path class="st1" d="M129.1,12.68c0,0.48-0.11,0.87-0.34,1.18c-0.29,0.41-0.77,0.61-1.45,0.61h-0.86v1.75h-1.37v-5.28h2.18
			c0.62,0,1.09,0.18,1.41,0.54C128.96,11.8,129.1,12.2,129.1,12.68L129.1,12.68z M127.67,12.7c0-0.2-0.06-0.36-0.17-0.48
			c-0.11-0.12-0.31-0.18-0.59-0.18h-0.46v1.33h0.46c0.3,0,0.5-0.07,0.61-0.2C127.62,13.06,127.67,12.9,127.67,12.7L127.67,12.7z"/>
		<path class="st1" d="M134.97,13.6c0,0.72-0.24,1.35-0.72,1.89c-0.54,0.62-1.28,0.92-2.21,0.92c-0.93,0-1.66-0.31-2.2-0.92
			c-0.48-0.54-0.72-1.17-0.72-1.89c0-0.33,0.06-0.66,0.19-1.01c0.13-0.34,0.3-0.64,0.52-0.88c0.54-0.62,1.28-0.92,2.21-0.92
			c0.93,0,1.66,0.31,2.21,0.92C134.73,12.25,134.97,12.88,134.97,13.6L134.97,13.6z M133.54,13.6c0-0.37-0.12-0.69-0.36-0.97
			c-0.3-0.35-0.68-0.52-1.14-0.52c-0.32,0-0.6,0.09-0.86,0.27c-0.25,0.18-0.44,0.41-0.55,0.71c-0.06,0.17-0.09,0.34-0.09,0.51
			c0,0.36,0.12,0.68,0.36,0.96c0.29,0.35,0.67,0.52,1.14,0.52c0.46,0,0.84-0.17,1.14-0.52C133.42,14.29,133.54,13.96,133.54,13.6
			L133.54,13.6z"/>
		<path class="st1" d="M113.67,20.01c0,0.48-0.11,0.87-0.34,1.18c-0.29,0.41-0.77,0.61-1.45,0.61h-0.86v1.75h-1.37v-5.28h2.18
			c0.62,0,1.09,0.18,1.41,0.54C113.54,19.12,113.67,19.52,113.67,20.01L113.67,20.01z M112.25,20.02c0-0.2-0.06-0.36-0.17-0.48
			c-0.11-0.12-0.31-0.18-0.59-0.18h-0.46v1.33h0.46c0.3,0,0.5-0.07,0.61-0.2C112.2,20.38,112.25,20.22,112.25,20.02L112.25,20.02z"
			/>
		<path class="st1" d="M118.31,23.55h-1.7l-1.31-2.02v2.02h-1.37v-5.28h2.13c0.62,0,1.08,0.19,1.38,0.56
			c0.24,0.3,0.36,0.66,0.36,1.06c0,0.47-0.14,0.84-0.42,1.12c-0.18,0.18-0.42,0.3-0.73,0.37L118.31,23.55L118.31,23.55z
			 M116.39,19.97c0-0.19-0.07-0.35-0.21-0.48c-0.13-0.12-0.34-0.18-0.62-0.18h-0.26v1.32h0.26c0.29,0,0.5-0.06,0.62-0.18
			C116.32,20.32,116.39,20.16,116.39,19.97L116.39,19.97z"/>
		<path class="st1" d="M124.04,20.92c0,0.72-0.24,1.35-0.72,1.89c-0.54,0.62-1.28,0.92-2.21,0.92c-0.93,0-1.66-0.31-2.2-0.92
			c-0.48-0.54-0.72-1.17-0.72-1.89c0-0.33,0.06-0.66,0.19-1.01c0.13-0.34,0.3-0.64,0.52-0.88c0.54-0.62,1.28-0.92,2.21-0.92
			c0.93,0,1.66,0.31,2.21,0.92C123.8,19.57,124.04,20.2,124.04,20.92L124.04,20.92z M122.61,20.92c0-0.37-0.12-0.69-0.36-0.97
			c-0.3-0.35-0.68-0.52-1.14-0.52c-0.32,0-0.6,0.09-0.86,0.27c-0.25,0.18-0.44,0.41-0.55,0.71c-0.06,0.17-0.09,0.34-0.09,0.51
			c0,0.36,0.12,0.68,0.36,0.96c0.29,0.35,0.67,0.52,1.14,0.52c0.46,0,0.84-0.17,1.14-0.52C122.49,21.61,122.61,21.29,122.61,20.92
			L122.61,20.92z"/>
		<path class="st1" d="M128.09,21.8c0,0.89-0.39,1.48-1.17,1.75c-0.27,0.1-0.57,0.14-0.88,0.14c-0.66,0-1.27-0.2-1.83-0.6l0.59-1.1
			c0.41,0.37,0.81,0.56,1.21,0.56c0.18,0,0.33-0.04,0.45-0.13c0.14-0.09,0.22-0.23,0.22-0.4c0-0.16-0.08-0.29-0.24-0.39
			c-0.12-0.08-0.32-0.16-0.6-0.24c-0.34-0.1-0.55-0.17-0.64-0.21c-0.14-0.06-0.26-0.13-0.36-0.21c-0.28-0.23-0.42-0.58-0.42-1.05
			c0-0.49,0.15-0.89,0.44-1.22c0.34-0.38,0.79-0.57,1.36-0.57c0.57,0,1.13,0.14,1.67,0.43l-0.55,1.07c-0.3-0.24-0.6-0.36-0.91-0.36
			c-0.15,0-0.28,0.04-0.39,0.11c-0.13,0.09-0.2,0.2-0.2,0.34c0,0.14,0.09,0.26,0.26,0.36c0.08,0.05,0.31,0.13,0.7,0.24
			c0.48,0.14,0.83,0.34,1.04,0.6C128,21.17,128.09,21.45,128.09,21.8L128.09,21.8z"/>
		<path class="st1" d="M133.09,21.31c0,0.32-0.03,0.59-0.08,0.81c-0.08,0.35-0.27,0.67-0.57,0.95c-0.43,0.41-1,0.61-1.71,0.61
			c-0.73,0-1.3-0.21-1.71-0.62c-0.22-0.22-0.36-0.49-0.44-0.82c-0.06-0.23-0.08-0.54-0.08-0.94v-3.04h1.37v2.85
			c0,0.23,0,0.4,0.01,0.51c0.03,0.36,0.19,0.61,0.49,0.75c0.12,0.06,0.26,0.09,0.41,0.09c0.34,0,0.59-0.12,0.76-0.35
			c0.13-0.17,0.19-0.51,0.19-1v-2.85h1.37V21.31L133.09,21.31z"/>
		<path class="st1" d="M138.11,23.55h-1.7l-1.31-2.02v2.02h-1.37v-5.28h2.13c0.62,0,1.08,0.19,1.38,0.56
			c0.24,0.3,0.36,0.66,0.36,1.06c0,0.47-0.14,0.84-0.42,1.12c-0.18,0.18-0.42,0.3-0.73,0.37L138.11,23.55L138.11,23.55z
			 M136.19,19.97c0-0.19-0.07-0.35-0.21-0.48c-0.13-0.12-0.34-0.18-0.62-0.18h-0.26v1.32h0.26c0.29,0,0.5-0.06,0.62-0.18
			C136.12,20.32,136.19,20.16,136.19,19.97L136.19,19.97z"/>
		<polygon class="st1" points="111.03,30.87 109.66,30.87 109.66,25.59 111.03,25.59 111.03,30.87 		"/>
		<polygon class="st1" points="116.94,30.87 115.57,30.87 113.04,27.64 113.04,30.87 111.67,30.87 111.67,25.59 113.04,25.59 
			115.57,28.82 115.57,25.59 116.94,25.59 116.94,30.87 		"/>
		<polygon class="st1" points="123.95,30.87 122.58,30.87 122.19,27.83 120.92,30.87 120.38,30.87 119.16,27.83 118.71,30.87 
			117.34,30.87 118.24,25.59 119.6,25.59 120.66,28.41 121.79,25.59 123.16,25.59 123.95,30.87 		"/>
		<path class="st1" d="M129.96,28.25c0,0.72-0.24,1.35-0.72,1.89c-0.54,0.62-1.28,0.92-2.21,0.92c-0.93,0-1.66-0.31-2.2-0.92
			c-0.48-0.54-0.72-1.17-0.72-1.89c0-0.33,0.06-0.66,0.19-1.01c0.13-0.34,0.3-0.64,0.52-0.88c0.54-0.62,1.28-0.92,2.21-0.92
			c0.93,0,1.66,0.31,2.21,0.92C129.72,26.9,129.96,27.53,129.96,28.25L129.96,28.25z M128.54,28.25c0-0.37-0.12-0.69-0.36-0.97
			c-0.3-0.35-0.68-0.52-1.14-0.52c-0.32,0-0.6,0.09-0.86,0.27c-0.25,0.18-0.44,0.41-0.55,0.71c-0.06,0.17-0.09,0.34-0.09,0.51
			c0,0.36,0.12,0.68,0.36,0.96c0.29,0.35,0.67,0.52,1.14,0.52c0.46,0,0.84-0.17,1.14-0.52C128.42,28.93,128.54,28.61,128.54,28.25
			L128.54,28.25z"/>
		<path class="st1" d="M134.37,29.37c0,0.39-0.11,0.72-0.34,0.96c-0.32,0.36-0.82,0.54-1.48,0.54h-2.19v-5.28h2.03
			c0.99,0,1.49,0.46,1.49,1.38c0,0.28-0.05,0.51-0.16,0.69c-0.09,0.16-0.23,0.29-0.42,0.4c0.42,0.09,0.7,0.26,0.85,0.51
			C134.3,28.8,134.37,29.07,134.37,29.37L134.37,29.37z M132.61,27.15c0-0.24-0.11-0.4-0.32-0.48c-0.08-0.03-0.18-0.04-0.31-0.04
			h-0.25v1.04h0.25c0.23,0,0.4-0.06,0.51-0.17C132.57,27.4,132.61,27.29,132.61,27.15L132.61,27.15z M133,29.28
			c0-0.31-0.16-0.49-0.47-0.54c-0.1-0.02-0.27-0.02-0.51-0.02h-0.28v1.11h0.3c0.35,0,0.59-0.04,0.73-0.12
			C132.92,29.61,133,29.47,133,29.28L133,29.28z"/>
		<polygon class="st1" points="136.16,30.87 134.79,30.87 134.79,25.59 136.16,25.59 136.16,30.87 		"/>
		<polygon class="st1" points="139.82,30.87 136.8,30.87 136.8,25.59 138.17,25.59 138.17,29.73 139.82,29.73 139.82,30.87 		"/>
		<polygon class="st1" points="141.43,30.87 140.06,30.87 140.06,25.59 141.43,25.59 141.43,30.87 		"/>
		<path class="st1" d="M147.08,30.87h-1.46l-0.34-0.92h-1.89l-0.36,0.92h-1.45l2.03-5.28h1.5L147.08,30.87L147.08,30.87z
			 M144.91,28.91l-0.57-1.69l-0.58,1.69H144.91L144.91,28.91z"/>
		<path class="st1" d="M151.6,30.87h-1.7l-1.31-2.02v2.02h-1.37v-5.28h2.13c0.62,0,1.08,0.19,1.38,0.56
			c0.24,0.3,0.36,0.66,0.36,1.06c0,0.47-0.14,0.84-0.42,1.12c-0.18,0.18-0.42,0.3-0.73,0.37L151.6,30.87L151.6,30.87z M149.68,27.29
			c0-0.19-0.07-0.35-0.21-0.48c-0.13-0.12-0.34-0.18-0.62-0.18h-0.26v1.32h0.26c0.29,0,0.5-0.06,0.62-0.18
			C149.61,27.64,149.68,27.48,149.68,27.29L149.68,27.29z"/>
		<polygon class="st1" points="153.09,30.87 151.72,30.87 151.72,25.59 153.09,25.59 153.09,30.87 		"/>
		<path class="st1" d="M159.34,28.25c0,0.72-0.24,1.35-0.72,1.89c-0.54,0.62-1.28,0.92-2.21,0.92c-0.93,0-1.66-0.31-2.2-0.92
			c-0.48-0.54-0.72-1.17-0.72-1.89c0-0.33,0.06-0.66,0.19-1.01c0.13-0.34,0.3-0.64,0.52-0.88c0.54-0.62,1.28-0.92,2.21-0.92
			c0.93,0,1.66,0.31,2.21,0.92C159.1,26.9,159.34,27.53,159.34,28.25L159.34,28.25z M157.91,28.25c0-0.37-0.12-0.69-0.36-0.97
			c-0.3-0.35-0.68-0.52-1.14-0.52c-0.32,0-0.6,0.09-0.86,0.27c-0.25,0.18-0.44,0.41-0.55,0.71c-0.06,0.17-0.09,0.34-0.09,0.51
			c0,0.36,0.12,0.68,0.36,0.96c0.29,0.35,0.67,0.52,1.14,0.52c0.46,0,0.84-0.17,1.14-0.52C157.79,28.93,157.91,28.61,157.91,28.25
			L157.91,28.25z"/>
		<path class="st1" d="M111.5,36.02l-0.87-2.38h-0.29l-0.87,2.38h0.38l0.16-0.48h0.94l0.16,0.48H111.5L111.5,36.02z M110.85,35.24
			h-0.73l0.37-1.06L110.85,35.24L110.85,35.24z"/>
		<path class="st1" d="M154.33,35.1v-0.36h-0.87v0.31h0.51v0.13c0,0.15-0.03,0.27-0.12,0.37c-0.09,0.11-0.23,0.17-0.39,0.17
			c-0.14,0-0.27-0.05-0.35-0.14c-0.12-0.13-0.14-0.26-0.14-0.74c0-0.48,0.03-0.61,0.14-0.74c0.08-0.09,0.21-0.15,0.35-0.15
			c0.27,0,0.44,0.15,0.5,0.41h0.36c-0.07-0.41-0.36-0.74-0.87-0.74c-0.25,0-0.46,0.09-0.63,0.25c-0.23,0.23-0.23,0.5-0.23,0.96
			c0,0.46,0,0.72,0.23,0.96c0.16,0.16,0.38,0.25,0.63,0.25c0.25,0,0.47-0.08,0.66-0.27C154.27,35.6,154.33,35.41,154.33,35.1
			L154.33,35.1z"/>
		<path class="st1" d="M156.82,36.02l-0.55-1.05c0.27-0.07,0.47-0.29,0.47-0.63c0-0.4-0.29-0.7-0.74-0.7h-0.92v2.38h0.36v-1h0.45
			l0.5,1H156.82L156.82,36.02z M156.39,34.34c0,0.23-0.16,0.37-0.4,0.37h-0.54v-0.75h0.54C156.22,33.97,156.39,34.11,156.39,34.34
			L156.39,34.34z"/>
		<path class="st1" d="M159.13,34.83c0-0.46,0.01-0.72-0.23-0.96c-0.16-0.16-0.37-0.25-0.63-0.25c-0.25,0-0.46,0.09-0.63,0.25
			c-0.23,0.23-0.23,0.5-0.23,0.96c0,0.46,0,0.72,0.23,0.96c0.16,0.16,0.37,0.25,0.63,0.25c0.25,0,0.46-0.09,0.63-0.25
			C159.14,35.55,159.13,35.29,159.13,34.83L159.13,34.83z M158.77,34.83c0,0.48-0.02,0.61-0.14,0.74c-0.08,0.09-0.21,0.15-0.35,0.15
			c-0.14,0-0.27-0.06-0.35-0.15c-0.12-0.13-0.14-0.26-0.14-0.74c0-0.48,0.02-0.61,0.14-0.74c0.08-0.09,0.21-0.15,0.35-0.15
			c0.14,0,0.27,0.06,0.35,0.15C158.74,34.22,158.77,34.35,158.77,34.83L158.77,34.83z"/>
		<path class="st1" d="M161.56,35.22v-1.58h-0.36v1.56c0,0.32-0.2,0.51-0.5,0.51c-0.3,0-0.49-0.2-0.49-0.51v-1.56h-0.36v1.58
			c0,0.49,0.37,0.82,0.85,0.82C161.19,36.04,161.56,35.71,161.56,35.22L161.56,35.22z"/>
		<path class="st1" d="M164.04,34.36c0-0.41-0.3-0.72-0.76-0.72h-0.9v2.38h0.36v-0.94h0.54C163.74,35.09,164.04,34.78,164.04,34.36
			L164.04,34.36z M163.68,34.36c0,0.25-0.17,0.39-0.42,0.39h-0.52v-0.79h0.52C163.51,33.97,163.68,34.11,163.68,34.36L163.68,34.36z
			"/>
		<path class="st1" d="M114.53,34.36c0-0.41-0.3-0.72-0.76-0.72h-0.9v2.38h0.36v-0.94h0.54C114.24,35.09,114.53,34.78,114.53,34.36
			L114.53,34.36z M114.17,34.36c0,0.25-0.17,0.39-0.42,0.39h-0.52v-0.79h0.52C114,33.97,114.17,34.11,114.17,34.36L114.17,34.36z"/>
		<path class="st1" d="M116.94,36.02l-0.55-1.05c0.27-0.07,0.47-0.29,0.47-0.63c0-0.4-0.29-0.7-0.74-0.7h-0.92v2.38h0.36v-1h0.45
			l0.5,1H116.94L116.94,36.02z M116.5,34.34c0,0.23-0.16,0.37-0.4,0.37h-0.54v-0.75h0.54C116.34,33.97,116.5,34.11,116.5,34.34
			L116.5,34.34z"/>
		<path class="st1" d="M119.24,34.83c0-0.46,0.01-0.72-0.23-0.96c-0.16-0.16-0.37-0.25-0.63-0.25c-0.25,0-0.46,0.09-0.63,0.25
			c-0.23,0.23-0.23,0.5-0.23,0.96c0,0.46,0,0.72,0.23,0.96c0.16,0.16,0.37,0.25,0.63,0.25c0.25,0,0.46-0.09,0.63-0.25
			C119.25,35.55,119.24,35.29,119.24,34.83L119.24,34.83z M118.88,34.83c0,0.48-0.02,0.61-0.14,0.74c-0.08,0.09-0.21,0.15-0.35,0.15
			c-0.14,0-0.27-0.06-0.35-0.15c-0.12-0.13-0.14-0.26-0.14-0.74c0-0.48,0.02-0.61,0.14-0.74c0.08-0.09,0.21-0.15,0.35-0.15
			c0.14,0,0.27,0.06,0.35,0.15C118.86,34.22,118.88,34.35,118.88,34.83L118.88,34.83z"/>
		<path class="st1" d="M121,35.27v-1.63h-0.36v1.6c0,0.31-0.16,0.47-0.43,0.47c-0.17,0-0.25-0.06-0.34-0.14l-0.24,0.24
			c0.16,0.16,0.33,0.23,0.58,0.23C120.64,36.04,121,35.77,121,35.27L121,35.27z"/>
		<polygon class="st1" points="123.33,36.02 123.33,35.7 122.17,35.7 122.17,34.98 123.16,34.98 123.16,34.66 122.17,34.66 
			122.17,33.97 123.33,33.97 123.33,33.64 121.81,33.64 121.81,36.02 123.33,36.02 		"/>
		<path class="st1" d="M125.67,35.31h-0.36c-0.06,0.24-0.22,0.41-0.49,0.41c-0.14,0-0.27-0.05-0.35-0.14
			c-0.12-0.13-0.14-0.26-0.14-0.74c0-0.48,0.03-0.61,0.14-0.74c0.08-0.09,0.21-0.14,0.35-0.14c0.26,0,0.42,0.17,0.48,0.41h0.37
			c-0.08-0.47-0.41-0.73-0.85-0.73c-0.25,0-0.46,0.09-0.63,0.25c-0.23,0.23-0.23,0.5-0.23,0.96c0,0.46,0,0.72,0.23,0.96
			c0.16,0.16,0.38,0.25,0.63,0.25C125.26,36.04,125.59,35.79,125.67,35.31L125.67,35.31z"/>
		<polygon class="st1" points="127.78,33.97 127.78,33.64 126.1,33.64 126.1,33.97 126.76,33.97 126.76,36.02 127.12,36.02 
			127.12,33.97 127.78,33.97 		"/>
		<path class="st1" d="M130.91,34.82c0-0.36,0.03-0.69-0.24-0.95c-0.16-0.16-0.38-0.23-0.63-0.23h-0.86v2.38h0.86
			c0.25,0,0.47-0.07,0.63-0.23C130.94,35.53,130.91,35.18,130.91,34.82L130.91,34.82z M130.45,34.82c0,0.36-0.01,0.53-0.1,0.64
			c-0.08,0.1-0.19,0.15-0.35,0.15h-0.35v-1.55H130c0.16,0,0.27,0.05,0.35,0.15C130.43,34.31,130.45,34.46,130.45,34.82L130.45,34.82
			z"/>
		<polygon class="st1" points="133.18,36.02 133.18,35.61 132.07,35.61 132.07,35.03 133.01,35.03 133.01,34.62 132.07,34.62 
			132.07,34.06 133.18,34.06 133.18,33.64 131.61,33.64 131.61,36.02 133.18,36.02 		"/>
		<polygon class="st1" points="135.5,33.64 135.02,33.64 134.54,35.19 134.06,33.64 133.58,33.64 134.37,36.02 134.72,36.02 
			135.5,33.64 		"/>
		<polygon class="st1" points="137.58,36.02 137.58,35.61 136.48,35.61 136.48,35.03 137.42,35.03 137.42,34.62 136.48,34.62 
			136.48,34.06 137.58,34.06 137.58,33.64 136.01,33.64 136.01,36.02 137.58,36.02 		"/>
		<polygon class="st1" points="139.8,36.02 139.8,35.61 138.72,35.61 138.72,33.64 138.25,33.64 138.25,36.02 139.8,36.02 		"/>
		<path class="st1" d="M141.99,34.83c0-0.41,0-0.71-0.24-0.95c-0.17-0.17-0.37-0.26-0.64-0.26c-0.27,0-0.48,0.09-0.65,0.26
			c-0.24,0.24-0.23,0.54-0.23,0.95s-0.01,0.71,0.23,0.95c0.17,0.17,0.37,0.26,0.65,0.26c0.27,0,0.48-0.09,0.64-0.26
			C141.99,35.54,141.99,35.24,141.99,34.83L141.99,34.83z M141.52,34.83c0,0.46-0.03,0.57-0.12,0.67c-0.07,0.08-0.17,0.13-0.3,0.13
			c-0.13,0-0.23-0.05-0.3-0.13c-0.09-0.1-0.11-0.21-0.11-0.67c0-0.46,0.02-0.57,0.11-0.67c0.07-0.08,0.17-0.13,0.3-0.13
			c0.13,0,0.23,0.05,0.3,0.13C141.5,34.26,141.52,34.37,141.52,34.83L141.52,34.83z"/>
		<path class="st1" d="M144.39,34.38c0-0.4-0.29-0.74-0.79-0.74h-0.92v2.38h0.46v-0.9h0.46C144.1,35.13,144.39,34.79,144.39,34.38
			L144.39,34.38z M143.93,34.38c0,0.19-0.13,0.32-0.34,0.32h-0.43v-0.65h0.43C143.79,34.06,143.93,34.19,143.93,34.38L143.93,34.38z
			"/>
		<polygon class="st1" points="146.57,36.02 146.57,35.61 145.47,35.61 145.47,35.03 146.41,35.03 146.41,34.62 145.47,34.62 
			145.47,34.06 146.57,34.06 146.57,33.64 145,33.64 145,36.02 146.57,36.02 		"/>
		<path class="st1" d="M149.05,36.02L148.51,35c0.23-0.08,0.43-0.29,0.43-0.63c0-0.4-0.29-0.73-0.77-0.73h-0.93v2.38h0.47v-0.95
			h0.33l0.47,0.95H149.05L149.05,36.02z M148.48,34.37c0,0.18-0.13,0.31-0.34,0.31h-0.44v-0.63h0.44
			C148.35,34.06,148.48,34.19,148.48,34.37L148.48,34.37z"/>
		<path class="st1" d="M151.19,35.32c0-0.21-0.06-0.38-0.18-0.5c-0.1-0.09-0.24-0.15-0.45-0.18l-0.28-0.04
			c-0.1-0.01-0.17-0.05-0.22-0.09c-0.05-0.05-0.07-0.11-0.07-0.17c0-0.16,0.12-0.3,0.37-0.3c0.16,0,0.34,0.02,0.49,0.16l0.29-0.29
			c-0.2-0.2-0.44-0.28-0.77-0.28c-0.52,0-0.83,0.3-0.83,0.72c0,0.2,0.06,0.35,0.17,0.47c0.11,0.1,0.26,0.17,0.46,0.2l0.29,0.04
			c0.11,0.02,0.16,0.04,0.21,0.08c0.05,0.05,0.07,0.12,0.07,0.2c0,0.19-0.15,0.29-0.42,0.29c-0.22,0-0.42-0.05-0.58-0.2l-0.3,0.3
			c0.23,0.24,0.51,0.31,0.87,0.31C150.8,36.04,151.19,35.78,151.19,35.32L151.19,35.32z"/>
	</g>
</g>
</svg>
