<?xml version="1.0" encoding="utf-8"?>
<!-- Generator: Adobe Illustrator 23.0.1, SVG Export Plug-In . SVG Version: 6.00 Build 0)  -->
<svg version="1.1" id="Layer_1" xmlns="http://www.w3.org/2000/svg" xmlns:xlink="http://www.w3.org/1999/xlink" x="0px" y="0px"
	 viewBox="0 0 209.99 41.06" style="enable-background:new 0 0 209.99 41.06;" xml:space="preserve">
<style type="text/css">
	.st0{fill:#F1A899;}
	.st1{fill:#ECECE6;}
	.st2{fill:#154C5E;}
	.st3{fill:none;}
	.st4{fill:url(#SVGID_1_);}
	.st5{fill:url(#SVGID_2_);}
	.st6{fill:url(#SVGID_3_);}
	.st7{fill:url(#SVGID_4_);}
	.st8{fill-rule:evenodd;clip-rule:evenodd;fill:#ECECE6;}
	.st9{font-family:'Optima-Bold';}
	.st10{font-size:14.3537px;}
</style>
<path class="st0" d="M29.37,41.06h180.62V0H0v11.69C0,27.91,13.15,41.06,29.37,41.06z"/>
<g>
	<path class="st8" d="M30.11,19.21c0.05,0.19,0.03,0.14,0.19,0.22c0.3,0.16,0.63,0.27,0.96,0.52c0.25,0.22,0.71,0.82,0.79,1.15h0.14
		c0.08-0.36,0.46-0.82,0.74-1.09c0.33-0.27,0.82-0.46,1.2-0.68c-0.14-0.16-0.36-0.22-0.57-0.33c-0.57-0.3-1.23-0.9-1.37-1.5
		c-0.36,0.11-0.25,0.55-0.85,1.07C31.12,18.75,30.44,19.19,30.11,19.21z"/>
	<path class="st8" d="M170.87,19.21c0.05,0.19,0.03,0.14,0.19,0.22c0.3,0.16,0.63,0.27,0.96,0.52c0.25,0.22,0.71,0.82,0.79,1.15
		h0.14c0.08-0.36,0.46-0.82,0.74-1.09c0.33-0.27,0.82-0.46,1.2-0.68c-0.14-0.16-0.35-0.22-0.57-0.33c-0.57-0.3-1.23-0.9-1.37-1.5
		c-0.36,0.11-0.25,0.55-0.85,1.07C171.88,18.75,171.2,19.19,170.87,19.21z"/>
	<text transform="matrix(1 0 0 1 47.918 25.1797)" class="st1 st9 st10">Chicxulub Puerto </text>
</g>
</svg>
