<?xml version="1.0" encoding="utf-8"?>
<!-- Generator: Adobe Illustrator 23.0.1, SVG Export Plug-In . SVG Version: 6.00 Build 0)  -->
<svg version="1.1" id="Layer_1" xmlns="http://www.w3.org/2000/svg" xmlns:xlink="http://www.w3.org/1999/xlink" x="0px" y="0px"
	 viewBox="0 0 24 24" style="enable-background:new 0 0 24 24;" xml:space="preserve">
<style type="text/css">
	.st0{fill:#154C5E;}
	.st1{fill:#B7625E;}
	.st2{fill:#ECECE6;}
	.st3{opacity:0.27;fill:#F1A899;}
	.st4{fill:none;}
	.st5{fill:#F1A899;}
	.st6{fill-rule:evenodd;clip-rule:evenodd;fill:#154C5E;}
	.st7{opacity:0.41;fill:#F1A899;}
	.st8{fill:#F4CD87;}
	.st9{fill:none;stroke:#154C5E;stroke-miterlimit:10;}
	.st10{opacity:0.24;fill:#B7625E;}
</style>
<g>
	<circle class="st2" cx="12" cy="12" r="11.66"/>
	<g>
		<g>
			<g>
				<path class="st0" d="M7.18,6.6V17.4c0,0.07,0.06,0.13,0.13,0.13h4.72h4.67c0.07,0,0.13-0.06,0.13-0.13V6.6
					c0-0.07-0.06-0.13-0.13-0.13h-4.67H7.3C7.24,6.48,7.18,6.53,7.18,6.6z M12.15,6.73h4.41v10.54h-4.41V6.73z M7.43,6.73h4.47
					v10.54H7.43V6.73z"/>
				<path class="st0" d="M10.82,10.86c-0.07,0-0.13,0.06-0.13,0.13v1.35c0,0.07,0.06,0.13,0.13,0.13s0.13-0.06,0.13-0.13v-1.35
					C10.95,10.92,10.89,10.86,10.82,10.86z"/>
				<path class="st0" d="M13.18,10.86c-0.07,0-0.13,0.06-0.13,0.13v1.35c0,0.07,0.06,0.13,0.13,0.13c0.07,0,0.13-0.06,0.13-0.13
					v-1.35C13.31,10.92,13.25,10.86,13.18,10.86z"/>
			</g>
		</g>
	</g>
</g>
</svg>
