<?xml version="1.0" encoding="utf-8"?>
<!-- Generator: Adobe Illustrator 23.0.1, SVG Export Plug-In . SVG Version: 6.00 Build 0)  -->
<svg version="1.1" id="Layer_1" xmlns="http://www.w3.org/2000/svg" xmlns:xlink="http://www.w3.org/1999/xlink" x="0px" y="0px"
	 viewBox="0 0 101.5 18.63" style="enable-background:new 0 0 101.5 18.63;" xml:space="preserve">
<style type="text/css">
	.st0{fill:#154C5E;}
	.st1{fill:#B7625E;}
	.st2{fill:#ECECE6;}
	.st3{opacity:0.27;fill:#F1A899;}
	.st4{fill:none;}
	.st5{fill:#F1A899;}
	.st6{fill-rule:evenodd;clip-rule:evenodd;fill:#154C5E;}
	.st7{opacity:0.41;fill:#F1A899;}
	.st8{fill:#F4CD87;}
	.st9{fill:none;stroke:#154C5E;stroke-miterlimit:10;}
	.st10{opacity:0.24;fill:#B7625E;}
</style>
<g>
	<path class="st5" d="M92.18,18.63H9.31C4.17,18.63,0,14.46,0,9.31v0C0,4.17,4.17,0,9.31,0l82.87,0c5.14,0,9.31,4.17,9.31,9.31v0
		C101.5,14.46,97.33,18.63,92.18,18.63z"/>
	<g>
		<path class="st2" d="M33.57,6.51c-0.8,0-1.44,0.26-1.9,0.77S30.97,8.5,30.97,9.4c0,0.92,0.22,1.63,0.65,2.13
			c0.44,0.51,1.06,0.76,1.87,0.76c0.54,0,1.03-0.07,1.48-0.21v0.4c-0.42,0.15-0.95,0.22-1.59,0.22c-0.9,0-1.61-0.29-2.13-0.87
			s-0.78-1.4-0.78-2.44c0-0.65,0.12-1.23,0.37-1.73c0.25-0.5,0.6-0.88,1.07-1.15c0.46-0.27,1-0.41,1.62-0.41
			c0.63,0,1.19,0.12,1.68,0.35l-0.18,0.4C34.58,6.63,34.08,6.51,33.57,6.51z"/>
		<path class="st2" d="M42.8,9.41c0,1.02-0.25,1.82-0.76,2.42c-0.51,0.59-1.21,0.89-2.11,0.89c-0.89,0-1.59-0.3-2.1-0.89
			c-0.51-0.59-0.76-1.4-0.76-2.43c0-1.02,0.26-1.83,0.77-2.41c0.51-0.59,1.22-0.88,2.11-0.88c0.9,0,1.6,0.29,2.1,0.89
			C42.55,7.58,42.8,8.38,42.8,9.41z M37.55,9.41c0,0.92,0.21,1.63,0.61,2.13c0.41,0.5,1,0.75,1.77,0.75c0.77,0,1.36-0.25,1.77-0.75
			c0.41-0.5,0.61-1.21,0.61-2.14c0-0.93-0.2-1.63-0.61-2.13c-0.41-0.49-1-0.74-1.76-0.74c-0.76,0-1.35,0.25-1.77,0.75
			C37.76,7.78,37.55,8.49,37.55,9.41z"/>
		<path class="st2" d="M46.94,12.62h-0.45v-6H44.4V6.2h4.62v0.42h-2.09V12.62z"/>
		<path class="st2" d="M50.97,12.62V6.2h0.45v6.42H50.97z"/>
		<path class="st2" d="M58.14,12.62h-4.46v-0.33l3.76-5.66h-3.59V6.2h4.19v0.33l-3.77,5.66h3.87V12.62z"/>
		<path class="st2" d="M63.49,10.36h-2.61l-0.9,2.27h-0.5l2.58-6.45h0.29l2.53,6.45h-0.51L63.49,10.36z M61.04,9.96h2.3l-0.87-2.31
			c-0.07-0.18-0.16-0.43-0.26-0.76c-0.08,0.28-0.17,0.54-0.26,0.76L61.04,9.96z"/>
		<path class="st2" d="M67.23,9.82v2.8h-0.45V6.2h1.53c0.8,0,1.38,0.15,1.77,0.44c0.38,0.29,0.57,0.74,0.57,1.33
			c0,0.43-0.11,0.79-0.34,1.09c-0.23,0.3-0.57,0.51-1.03,0.64l1.74,2.92h-0.54l-1.66-2.8H67.23z M67.23,9.43h1.23
			c0.54,0,0.96-0.12,1.26-0.36c0.3-0.24,0.45-0.6,0.45-1.07c0-0.49-0.15-0.84-0.44-1.07c-0.29-0.22-0.77-0.33-1.43-0.33h-1.06V9.43z
			"/>
	</g>
</g>
</svg>
