<?xml version="1.0" encoding="utf-8"?>
<!-- Generator: Adobe Illustrator 23.0.1, SVG Export Plug-In . SVG Version: 6.00 Build 0)  -->
<svg version="1.1" id="Layer_1" xmlns="http://www.w3.org/2000/svg" xmlns:xlink="http://www.w3.org/1999/xlink" x="0px" y="0px"
	 viewBox="0 0 25 25" style="enable-background:new 0 0 25 25;" xml:space="preserve">
<style type="text/css">
	.st0{fill:#154C5E;}
	.st1{fill:#B7625E;}
	.st2{fill:#ECECE6;}
	.st3{opacity:0.27;fill:#F1A899;}
	.st4{fill:none;}
	.st5{fill:#F1A899;}
	.st6{fill-rule:evenodd;clip-rule:evenodd;fill:#154C5E;}
	.st7{opacity:0.41;fill:#F1A899;}
	.st8{fill:#F4CD87;}
	.st9{fill:none;stroke:#154C5E;stroke-miterlimit:10;}
	.st10{opacity:0.24;fill:#B7625E;}
</style>
<path class="st1" d="M21.45,8.79c-0.04-0.96-0.2-1.61-0.42-2.19c-0.23-0.59-0.54-1.09-1.04-1.59c-0.5-0.5-1-0.81-1.6-1.04
	c-0.57-0.22-1.23-0.37-2.19-0.42C15.25,3.51,14.95,3.5,12.5,3.5S9.75,3.51,8.79,3.55C7.83,3.59,7.17,3.75,6.6,3.97
	c-0.59,0.23-1.1,0.54-1.6,1.04c-0.5,0.5-0.81,1-1.04,1.59C3.75,7.17,3.59,7.83,3.55,8.79C3.51,9.75,3.5,10.05,3.5,12.5
	c0,2.45,0.01,2.75,0.05,3.71c0.04,0.96,0.2,1.61,0.42,2.19c0.23,0.59,0.54,1.09,1.04,1.59c0.5,0.5,1,0.81,1.6,1.04
	c0.57,0.22,1.23,0.37,2.19,0.42c0.96,0.04,1.27,0.05,3.71,0.05s2.75-0.01,3.71-0.05c0.96-0.04,1.61-0.2,2.19-0.42
	c0.59-0.23,1.1-0.54,1.6-1.04c0.5-0.5,0.81-1,1.04-1.59c0.22-0.57,0.37-1.23,0.42-2.19c0.04-0.96,0.05-1.27,0.05-3.71
	C21.5,10.05,21.49,9.75,21.45,8.79z M19.83,16.14c-0.04,0.88-0.19,1.35-0.31,1.67c-0.16,0.42-0.36,0.72-0.67,1.04
	s-0.62,0.51-1.04,0.67c-0.32,0.12-0.79,0.27-1.67,0.31c-0.63,0.03-0.98,0.04-1.84,0.05v-5.61h1.78l0.19-2.13h-1.96c0,0,0-0.8,0-1.22
	c0-0.5,0.1-0.7,0.59-0.7c0.39,0,1.38,0,1.38,0V8c0,0-1.45,0-1.76,0c-1.89,0-2.75,0.83-2.75,2.43c0,1.39,0,1.7,0,1.7h-1.32v2.16h1.32
	v5.59c-1.72,0-2.05-0.01-2.89-0.05c-0.88-0.04-1.35-0.19-1.67-0.31c-0.42-0.16-0.72-0.36-1.04-0.67s-0.51-0.62-0.67-1.04
	c-0.12-0.32-0.27-0.79-0.31-1.67c-0.04-0.95-0.05-1.23-0.05-3.64c0-2.4,0.01-2.69,0.05-3.64c0.04-0.88,0.19-1.35,0.31-1.67
	c0.16-0.42,0.36-0.72,0.67-1.04s0.62-0.51,1.04-0.67c0.32-0.12,0.79-0.27,1.67-0.31c0.95-0.04,1.23-0.05,3.64-0.05
	s2.69,0.01,3.64,0.05c0.88,0.04,1.35,0.19,1.67,0.31c0.42,0.16,0.72,0.36,1.04,0.67s0.51,0.62,0.67,1.04
	c0.12,0.32,0.27,0.79,0.31,1.67c0.04,0.95,0.05,1.23,0.05,3.64C19.88,14.9,19.87,15.19,19.83,16.14z"/>
</svg>
