<?xml version="1.0" encoding="utf-8"?>
<!-- Generator: Adobe Illustrator 23.0.1, SVG Export Plug-In . SVG Version: 6.00 Build 0)  -->
<svg version="1.1" id="Layer_1" xmlns="http://www.w3.org/2000/svg" xmlns:xlink="http://www.w3.org/1999/xlink" x="0px" y="0px"
	 viewBox="0 0 254.25 103.08" style="enable-background:new 0 0 254.25 103.08;" xml:space="preserve">
<style type="text/css">
	.st0{fill:#154C5E;}
	.st1{fill:#B7625E;}
	.st2{fill:#ECECE6;}
	.st3{opacity:0.27;fill:#F1A899;}
	.st4{fill:none;}
	.st5{fill:#F1A899;}
	.st6{fill-rule:evenodd;clip-rule:evenodd;fill:#154C5E;}
	.st7{opacity:0.41;fill:#F1A899;}
	.st8{fill:#F4CD87;}
	.st9{fill:none;stroke:#154C5E;stroke-miterlimit:10;}
	.st10{opacity:0.24;fill:#B7625E;}
</style>
<g>
	<g>
		<g>
			<g>
				<g>
					<g>
						<g>
							<path class="st0" d="M127.32,19.7c0.04,0,0.09,0.01,0.13,0.01l0.07,0.01l0.03,0l0.03,0.01c0.09,0.01,0.19,0.04,0.28,0.06
								l0.03,0.01c0.01,0,0.02,0.01,0.03,0.01c0.02,0.01,0.04,0.01,0.06,0.02c0.02,0.01,0.04,0.01,0.05,0.02l0.04,0.02
								c0.05,0.02,0.09,0.04,0.14,0.05c0.01,0,0.02,0.01,0.04,0.01c0.01,0,0.02,0.01,0.04,0.01l0.04,0.01l0.02,0l0.02,0
								c0.03,0,0.06,0.01,0.09,0.01l0.04,0c0.01,0,0.03,0,0.04,0c0.06,0,0.11,0,0.16,0c0.05,0,0.1-0.01,0.17-0.02
								c0.07-0.01,0.16-0.03,0.25-0.04c0.09-0.01,0.18-0.02,0.26-0.01c0.02,0,0.04,0,0.06,0l0.06,0c0.04,0,0.08,0.01,0.12,0.01
								l0.03,0l0.03,0l0.06,0.01c0.02,0,0.04,0.01,0.06,0.01c0.02,0,0.04,0.01,0.06,0.01c0.09,0.02,0.17,0.04,0.25,0.07
								c0.02,0.01,0.04,0.01,0.05,0.02l0.05,0.02l0.05,0.02c0.01,0.01,0.03,0.01,0.04,0.02c0.05,0.02,0.11,0.03,0.17,0.05l0.02,0
								l0.02,0l0.05,0.01c0.03,0,0.06,0.01,0.09,0.01l0.09,0.01l0.05,0l0.02,0l0.02,0c0.06,0,0.12,0,0.18-0.01
								c0.06-0.01,0.12-0.02,0.2-0.03c0.08-0.01,0.16-0.03,0.24-0.03c0.02,0,0.04,0,0.06,0c0.02,0,0.04,0,0.06,0
								c0.04,0,0.08,0,0.12,0c0.04,0,0.08,0,0.11,0.01c0.04,0,0.08,0.01,0.11,0.01c0.08,0.01,0.15,0.02,0.23,0.04
								c0.08,0.02,0.15,0.05,0.22,0.07c0.07,0.03,0.13,0.05,0.19,0.07c0.06,0.02,0.13,0.03,0.19,0.04c0.03,0.01,0.07,0.01,0.1,0.01
								c0.03,0,0.07,0.01,0.1,0.01c0.03,0,0.07,0,0.1,0c0.02,0,0.03,0,0.05,0c0.02,0,0.03,0,0.05,0c0.07,0,0.13-0.01,0.2-0.02
								c0.07-0.01,0.14-0.03,0.21-0.04c0.14-0.02,0.29-0.02,0.43-0.01c-0.14,0.02-0.28,0.05-0.41,0.1c-0.07,0.02-0.13,0.05-0.2,0.08
								c-0.07,0.03-0.14,0.05-0.21,0.07c-0.02,0.01-0.04,0.01-0.05,0.01c-0.02,0-0.04,0.01-0.05,0.01
								c-0.04,0.01-0.07,0.01-0.11,0.02c-0.04,0.01-0.07,0.01-0.11,0.01c-0.04,0-0.07,0.01-0.11,0.01c-0.07,0.01-0.15,0.01-0.23,0
								c-0.08,0-0.15-0.01-0.22-0.02c-0.07-0.01-0.13-0.02-0.2-0.02c-0.06,0-0.13,0-0.19,0.01c-0.02,0-0.03,0-0.05,0l-0.05,0.01
								c-0.03,0-0.07,0.01-0.1,0.01c-0.03,0-0.06,0.01-0.1,0.02c-0.02,0-0.03,0.01-0.05,0.01c-0.02,0-0.03,0.01-0.05,0.01
								c-0.06,0.02-0.11,0.04-0.18,0.06c-0.06,0.03-0.13,0.06-0.21,0.08c-0.08,0.03-0.16,0.05-0.24,0.07l-0.03,0.01l-0.03,0.01
								l-0.06,0.01c-0.04,0.01-0.08,0.01-0.12,0.02c-0.04,0-0.08,0.01-0.12,0.01l-0.06,0l-0.03,0l-0.03,0c-0.08,0-0.17,0-0.25-0.01
								c-0.02,0-0.04,0-0.06-0.01l-0.06-0.01l-0.05-0.01c-0.02,0-0.03,0-0.05-0.01c-0.06-0.01-0.11-0.01-0.17-0.01
								c-0.01,0-0.03,0-0.04,0c-0.01,0-0.03,0-0.04,0l-0.04,0l-0.02,0l-0.02,0c-0.03,0-0.06,0.01-0.09,0.01l-0.04,0.01
								c-0.01,0-0.03,0.01-0.04,0.01c-0.06,0.01-0.11,0.03-0.16,0.05c-0.05,0.02-0.1,0.04-0.16,0.07c-0.07,0.03-0.15,0.06-0.24,0.09
								c-0.09,0.03-0.18,0.05-0.26,0.06c-0.02,0-0.04,0.01-0.06,0.01l-0.06,0.01c-0.04,0.01-0.08,0.01-0.13,0.01l-0.03,0l-0.03,0
								l-0.07,0c-0.02,0-0.05,0-0.07,0c-0.02,0-0.05,0-0.07,0c-0.09,0-0.19-0.01-0.28-0.03l-0.06-0.01c-0.02,0-0.03,0-0.05-0.01
								c-0.02,0-0.03,0-0.04,0c-0.01,0-0.01,0-0.02,0l-0.02,0l-0.02,0l-0.02,0c-0.01,0-0.02,0-0.03,0l-0.03,0l-0.04,0l-0.02,0
								l-0.02,0l-0.04,0l-0.08,0.01L127.32,19.7z"/>
						</g>
						<g>
							<path class="st0" d="M122.2,21.38c-0.04,0-0.09-0.01-0.13-0.01L122,21.36l-0.03,0l-0.03-0.01c-0.09-0.01-0.19-0.04-0.28-0.06
								l-0.03-0.01c-0.01,0-0.02-0.01-0.03-0.01c-0.02-0.01-0.04-0.01-0.06-0.02c-0.02-0.01-0.04-0.01-0.05-0.02l-0.04-0.02
								c-0.05-0.02-0.09-0.04-0.14-0.05c-0.01,0-0.02-0.01-0.04-0.01c-0.01,0-0.02-0.01-0.04-0.01l-0.04-0.01l-0.02,0l-0.02,0
								c-0.03,0-0.06-0.01-0.09-0.01l-0.04,0c-0.01,0-0.03,0-0.04,0c-0.06,0-0.11,0-0.16,0c-0.05,0-0.1,0.01-0.17,0.02
								c-0.07,0.01-0.16,0.03-0.25,0.04c-0.09,0.01-0.18,0.02-0.26,0.01c-0.02,0-0.04,0-0.06,0l-0.06,0c-0.04,0-0.08-0.01-0.12-0.01
								l-0.03,0l-0.03,0l-0.06-0.01c-0.02,0-0.04-0.01-0.06-0.01c-0.02,0-0.04-0.01-0.06-0.01c-0.09-0.02-0.17-0.04-0.25-0.07
								c-0.02-0.01-0.04-0.01-0.05-0.02l-0.05-0.02l-0.05-0.02c-0.01-0.01-0.03-0.01-0.04-0.02c-0.05-0.02-0.11-0.03-0.17-0.05
								l-0.02,0l-0.02,0l-0.05-0.01c-0.03,0-0.06-0.01-0.09-0.01l-0.09-0.01l-0.05,0l-0.02,0l-0.02,0c-0.06,0-0.12,0-0.18,0.01
								c-0.06,0.01-0.12,0.02-0.2,0.03c-0.08,0.01-0.16,0.03-0.24,0.03c-0.02,0-0.04,0-0.06,0c-0.02,0-0.04,0-0.06,0
								c-0.04,0-0.08,0-0.12,0c-0.04,0-0.08,0-0.11-0.01c-0.04,0-0.08-0.01-0.11-0.01c-0.08-0.01-0.15-0.02-0.23-0.04
								c-0.08-0.02-0.15-0.05-0.22-0.07c-0.07-0.03-0.13-0.05-0.19-0.07c-0.06-0.02-0.13-0.03-0.19-0.04
								c-0.03-0.01-0.07-0.01-0.1-0.01c-0.03,0-0.07-0.01-0.1-0.01c-0.03,0-0.07,0-0.1,0c-0.02,0-0.03,0-0.05,0
								c-0.02,0-0.03,0-0.05,0c-0.07,0-0.13,0.01-0.2,0.02c-0.07,0.01-0.14,0.03-0.21,0.04c-0.14,0.02-0.29,0.02-0.43,0.01
								c0.14-0.02,0.28-0.05,0.41-0.1c0.07-0.02,0.13-0.05,0.2-0.08c0.07-0.03,0.14-0.05,0.21-0.07c0.02-0.01,0.04-0.01,0.05-0.01
								c0.02,0,0.04-0.01,0.05-0.01c0.04-0.01,0.07-0.01,0.11-0.02c0.04-0.01,0.07-0.01,0.11-0.01c0.04,0,0.07-0.01,0.11-0.01
								c0.07-0.01,0.15-0.01,0.23,0c0.08,0,0.15,0.01,0.22,0.02c0.07,0.01,0.13,0.02,0.2,0.02c0.06,0,0.13,0,0.19-0.01
								c0.02,0,0.03,0,0.05,0l0.05-0.01c0.03,0,0.07-0.01,0.1-0.01c0.03,0,0.06-0.01,0.1-0.02c0.02,0,0.03-0.01,0.05-0.01
								c0.02,0,0.03-0.01,0.05-0.01c0.06-0.02,0.11-0.04,0.18-0.06c0.06-0.03,0.13-0.06,0.21-0.08c0.08-0.03,0.16-0.05,0.24-0.07
								l0.03-0.01l0.03-0.01l0.06-0.01c0.04-0.01,0.08-0.01,0.12-0.02c0.04,0,0.08-0.01,0.12-0.01l0.06,0l0.03,0l0.03,0
								c0.08,0,0.17,0,0.25,0.01c0.02,0,0.04,0,0.06,0.01l0.06,0.01l0.05,0.01c0.02,0,0.03,0,0.05,0.01
								c0.06,0.01,0.11,0.01,0.17,0.01c0.01,0,0.03,0,0.04,0c0.01,0,0.03,0,0.04,0l0.04,0l0.02,0l0.02,0c0.03,0,0.06-0.01,0.09-0.01
								l0.04-0.01c0.02,0,0.03-0.01,0.04-0.01c0.06-0.01,0.11-0.03,0.16-0.05c0.05-0.02,0.1-0.04,0.16-0.07
								c0.07-0.03,0.15-0.06,0.24-0.09c0.09-0.03,0.18-0.05,0.26-0.06c0.02,0,0.04-0.01,0.06-0.01l0.06-0.01
								c0.04-0.01,0.08-0.01,0.13-0.01l0.03,0l0.03,0l0.07,0c0.02,0,0.05,0,0.07,0c0.02,0,0.05,0,0.07,0c0.09,0,0.19,0.01,0.28,0.03
								l0.06,0.01c0.02,0,0.03,0,0.05,0.01c0.02,0,0.03,0,0.04,0c0.01,0,0.01,0,0.02,0l0.02,0l0.02,0l0.02,0c0.01,0,0.02,0,0.03,0
								l0.03,0l0.04,0l0.02,0l0.02,0l0.04,0l0.08-0.01L122.2,21.38z"/>
						</g>
					</g>
					<g>
						<g>
							<path class="st0" d="M125.6,23.09c0,0.04-0.01,0.09-0.01,0.13l-0.01,0.07l0,0.03l-0.01,0.03c-0.01,0.09-0.04,0.19-0.06,0.28
								l-0.01,0.03c0,0.01-0.01,0.02-0.01,0.03c-0.01,0.02-0.01,0.04-0.02,0.06c-0.01,0.02-0.01,0.04-0.02,0.05l-0.02,0.04
								c-0.02,0.05-0.04,0.09-0.05,0.14c0,0.01-0.01,0.02-0.01,0.04c0,0.01-0.01,0.02-0.01,0.04l-0.01,0.04l0,0.02l0,0.02
								c0,0.03-0.01,0.06-0.01,0.09l0,0.04c0,0.01,0,0.03,0,0.04c0,0.06,0,0.11,0,0.16c0,0.05,0.01,0.1,0.02,0.17
								c0.01,0.07,0.03,0.16,0.04,0.25c0.01,0.09,0.02,0.18,0.01,0.26c0,0.02,0,0.04,0,0.06l0,0.06c0,0.04-0.01,0.08-0.01,0.12
								l0,0.03l0,0.03l-0.01,0.06c0,0.02-0.01,0.04-0.01,0.06c0,0.02-0.01,0.04-0.01,0.06c-0.02,0.09-0.04,0.17-0.07,0.25
								c-0.01,0.02-0.01,0.04-0.02,0.05l-0.02,0.05l-0.02,0.05c-0.01,0.01-0.01,0.03-0.02,0.04c-0.02,0.05-0.03,0.11-0.05,0.17
								l0,0.02l0,0.02l-0.01,0.05c0,0.03-0.01,0.06-0.01,0.09l-0.01,0.09l0,0.05l0,0.02l0,0.02c0,0.06,0,0.12,0.01,0.18
								c0.01,0.06,0.02,0.12,0.03,0.2c0.01,0.08,0.03,0.16,0.03,0.24c0,0.02,0,0.04,0,0.06c0,0.02,0,0.04,0,0.06
								c0,0.04,0,0.08,0,0.12c0,0.04,0,0.08-0.01,0.11c0,0.04-0.01,0.08-0.01,0.11c-0.01,0.08-0.02,0.15-0.04,0.23
								c-0.02,0.08-0.05,0.15-0.07,0.22c-0.03,0.07-0.05,0.13-0.07,0.19c-0.02,0.06-0.03,0.13-0.04,0.19
								c-0.01,0.03-0.01,0.07-0.01,0.1c0,0.03-0.01,0.07-0.01,0.1c0,0.03,0,0.07,0,0.1c0,0.02,0,0.03,0,0.05c0,0.02,0,0.03,0,0.05
								c0,0.07,0.01,0.13,0.02,0.2c0.01,0.07,0.03,0.14,0.04,0.21c0.02,0.14,0.02,0.29,0.01,0.43c-0.02-0.14-0.05-0.28-0.1-0.41
								c-0.02-0.07-0.05-0.13-0.08-0.2c-0.03-0.07-0.05-0.14-0.07-0.21c-0.01-0.02-0.01-0.04-0.01-0.05c0-0.02-0.01-0.04-0.01-0.05
								c-0.01-0.04-0.01-0.07-0.02-0.11c-0.01-0.04-0.01-0.07-0.01-0.11c0-0.04-0.01-0.07-0.01-0.11c-0.01-0.07-0.01-0.15,0-0.23
								c0-0.08,0.01-0.15,0.02-0.22c0.01-0.07,0.02-0.13,0.02-0.2c0-0.06,0-0.13-0.01-0.19c0-0.02,0-0.03,0-0.05l-0.01-0.05
								c0-0.03-0.01-0.06-0.01-0.1c0-0.03-0.01-0.06-0.02-0.09c0-0.02-0.01-0.03-0.01-0.05c0-0.02-0.01-0.03-0.01-0.04
								c-0.02-0.06-0.04-0.11-0.06-0.17c-0.03-0.06-0.06-0.13-0.08-0.21c-0.03-0.08-0.05-0.16-0.07-0.24l-0.01-0.03l-0.01-0.03
								l-0.01-0.06c-0.01-0.04-0.01-0.08-0.02-0.12c0-0.04-0.01-0.08-0.01-0.12l0-0.06l0-0.03l0-0.03c0-0.08,0-0.17,0.01-0.25
								c0-0.02,0-0.04,0.01-0.06l0.01-0.06l0.01-0.05c0-0.02,0-0.03,0.01-0.05c0.01-0.06,0.01-0.11,0.01-0.17c0-0.01,0-0.03,0-0.04
								c0-0.01,0-0.03,0-0.04l0-0.04l0-0.02l0-0.02c0-0.03-0.01-0.06-0.01-0.09l-0.01-0.04c0-0.01-0.01-0.03-0.01-0.04
								c-0.01-0.06-0.03-0.11-0.05-0.16c-0.02-0.05-0.04-0.09-0.07-0.16c-0.03-0.07-0.06-0.15-0.09-0.24
								c-0.03-0.09-0.05-0.18-0.06-0.26c0-0.02-0.01-0.04-0.01-0.06l-0.01-0.06c-0.01-0.04-0.01-0.08-0.01-0.12l0-0.03l0-0.03
								l0-0.07c0-0.02,0-0.05,0-0.07c0-0.02,0-0.05,0-0.07c0-0.09,0.01-0.19,0.03-0.28l0.01-0.06c0-0.02,0-0.03,0.01-0.05
								c0-0.02,0-0.03,0-0.04c0-0.01,0-0.01,0-0.02l0-0.02l0-0.02l0-0.02c0-0.01,0-0.02,0-0.03l0-0.03l0-0.04l0-0.02l0-0.02l0-0.04
								l-0.01-0.08L125.6,23.09z"/>
						</g>
						<g>
							<path class="st0" d="M123.92,17.99c0-0.04,0.01-0.09,0.01-0.13l0.01-0.07l0-0.03l0.01-0.03c0.01-0.09,0.04-0.19,0.06-0.28
								l0.01-0.03c0-0.01,0.01-0.02,0.01-0.03c0.01-0.02,0.01-0.04,0.02-0.06c0.01-0.02,0.01-0.04,0.02-0.05l0.02-0.04
								c0.02-0.05,0.04-0.09,0.05-0.14c0-0.01,0.01-0.02,0.01-0.04c0-0.01,0.01-0.02,0.01-0.04l0.01-0.04l0-0.02l0-0.02
								c0-0.03,0.01-0.06,0.01-0.09l0-0.04c0-0.01,0-0.03,0-0.04c0-0.06,0-0.11,0-0.16c0-0.05-0.01-0.1-0.02-0.17
								c-0.01-0.07-0.03-0.16-0.04-0.25c-0.01-0.09-0.02-0.18-0.01-0.26c0-0.02,0-0.04,0-0.06l0-0.06c0-0.04,0.01-0.08,0.01-0.12
								l0-0.03l0-0.03l0.01-0.06c0-0.02,0.01-0.04,0.01-0.06c0-0.02,0.01-0.04,0.01-0.06c0.02-0.09,0.04-0.17,0.07-0.25
								c0.01-0.02,0.01-0.04,0.02-0.05l0.02-0.05l0.02-0.05c0.01-0.01,0.01-0.03,0.02-0.04c0.02-0.05,0.03-0.11,0.05-0.17l0-0.02
								l0-0.02l0.01-0.05c0-0.03,0.01-0.06,0.01-0.09l0.01-0.09l0-0.05l0-0.02l0-0.02c0-0.06,0-0.12-0.01-0.18
								c-0.01-0.06-0.02-0.12-0.03-0.2c-0.01-0.08-0.03-0.16-0.03-0.24c0-0.02,0-0.04,0-0.06c0-0.02,0-0.04,0-0.06
								c0-0.04,0-0.08,0-0.12c0-0.04,0-0.08,0.01-0.11c0-0.04,0.01-0.08,0.01-0.11c0.01-0.08,0.02-0.15,0.04-0.23
								c0.02-0.08,0.05-0.15,0.07-0.22c0.03-0.07,0.05-0.13,0.07-0.19c0.02-0.06,0.03-0.13,0.04-0.19c0.01-0.03,0.01-0.07,0.01-0.1
								c0-0.03,0.01-0.07,0.01-0.1c0-0.03,0-0.07,0-0.1c0-0.02,0-0.03,0-0.05c0-0.02,0-0.03,0-0.05c0-0.07-0.01-0.13-0.02-0.2
								c-0.01-0.07-0.03-0.14-0.04-0.21c-0.02-0.14-0.02-0.29-0.01-0.43c0.02,0.14,0.05,0.28,0.1,0.41c0.02,0.07,0.05,0.13,0.08,0.2
								c0.03,0.07,0.05,0.14,0.07,0.21c0.01,0.02,0.01,0.04,0.01,0.05c0,0.02,0.01,0.04,0.01,0.05c0.01,0.04,0.01,0.07,0.02,0.11
								c0.01,0.04,0.01,0.07,0.01,0.11c0,0.04,0.01,0.07,0.01,0.11c0.01,0.07,0.01,0.15,0,0.23c0,0.08-0.01,0.15-0.02,0.22
								c-0.01,0.07-0.02,0.13-0.02,0.2c0,0.06,0,0.13,0.01,0.19c0,0.02,0,0.03,0,0.05l0.01,0.05c0,0.03,0.01,0.06,0.01,0.1
								c0,0.03,0.01,0.06,0.02,0.09c0,0.02,0.01,0.03,0.01,0.05c0,0.02,0.01,0.03,0.01,0.04c0.02,0.06,0.04,0.11,0.06,0.17
								c0.03,0.06,0.06,0.13,0.08,0.21c0.03,0.08,0.05,0.16,0.07,0.24l0.01,0.03l0.01,0.03l0.01,0.06c0.01,0.04,0.01,0.08,0.02,0.12
								c0,0.04,0.01,0.08,0.01,0.12l0,0.06l0,0.03l0,0.03c0,0.08,0,0.17-0.01,0.25c0,0.02,0,0.04-0.01,0.06l-0.01,0.06l-0.01,0.05
								c0,0.02,0,0.03-0.01,0.05c-0.01,0.06-0.01,0.11-0.01,0.17c0,0.01,0,0.03,0,0.04c0,0.01,0,0.03,0,0.04l0,0.04l0,0.02l0,0.02
								c0,0.03,0.01,0.06,0.01,0.09l0.01,0.04c0,0.01,0.01,0.03,0.01,0.04c0.01,0.06,0.03,0.11,0.05,0.16
								c0.02,0.05,0.04,0.09,0.07,0.16c0.03,0.07,0.06,0.15,0.09,0.24c0.03,0.09,0.05,0.18,0.06,0.26c0,0.02,0.01,0.04,0.01,0.06
								l0.01,0.06c0.01,0.04,0.01,0.08,0.01,0.12l0,0.03l0,0.03l0,0.07c0,0.02,0,0.05,0,0.07c0,0.02,0,0.05,0,0.07
								c0,0.09-0.01,0.19-0.03,0.28l-0.01,0.06c0,0.02,0,0.03-0.01,0.05c0,0.02,0,0.03,0,0.04c0,0.01,0,0.01,0,0.02l0,0.02l0,0.02
								l0,0.02c0,0.01,0,0.02,0,0.03l0,0.03l0,0.04l0,0.02l0,0.02l0,0.04l0.01,0.08L123.92,17.99z"/>
						</g>
					</g>
				</g>
				<g>
					<g>
						<g>
							<path class="st0" d="M127.16,21.75c0.03,0.03,0.06,0.07,0.08,0.1l0.04,0.05l0.02,0.03l0.02,0.03
								c0.06,0.07,0.11,0.16,0.16,0.24l0.02,0.03c0.01,0.01,0.01,0.02,0.02,0.03c0.01,0.02,0.02,0.04,0.03,0.06
								c0.01,0.02,0.02,0.04,0.02,0.05l0.02,0.04c0.02,0.05,0.04,0.09,0.07,0.13c0.01,0.01,0.01,0.02,0.02,0.03
								c0.01,0.01,0.01,0.02,0.02,0.03l0.02,0.03l0.01,0.02l0.01,0.02c0.02,0.02,0.04,0.05,0.05,0.07l0.03,0.03
								c0.01,0.01,0.02,0.02,0.03,0.03c0.04,0.04,0.07,0.08,0.11,0.11c0.04,0.03,0.08,0.06,0.14,0.1c0.06,0.04,0.14,0.09,0.21,0.15
								c0.07,0.06,0.14,0.12,0.2,0.18c0.01,0.02,0.03,0.03,0.04,0.05l0.04,0.05c0.03,0.03,0.05,0.06,0.08,0.09l0.02,0.02l0.02,0.02
								l0.04,0.05c0.01,0.02,0.03,0.03,0.04,0.05c0.01,0.02,0.02,0.03,0.04,0.05c0.05,0.07,0.09,0.15,0.13,0.22
								c0.01,0.02,0.02,0.04,0.02,0.05l0.02,0.05l0.02,0.04c0.01,0.01,0.01,0.03,0.02,0.04c0.03,0.05,0.05,0.1,0.09,0.15l0.01,0.02
								l0.01,0.02l0.03,0.04c0.02,0.02,0.04,0.05,0.06,0.07l0.06,0.07l0.03,0.03l0.02,0.02l0.02,0.02c0.04,0.04,0.08,0.08,0.13,0.12
								c0.05,0.04,0.1,0.07,0.17,0.12c0.06,0.04,0.13,0.09,0.19,0.15c0.02,0.01,0.03,0.03,0.04,0.04c0.01,0.01,0.03,0.03,0.04,0.04
								c0.03,0.03,0.06,0.06,0.08,0.08c0.03,0.03,0.05,0.06,0.07,0.09c0.02,0.03,0.05,0.06,0.07,0.09c0.05,0.06,0.09,0.13,0.13,0.19
								c0.04,0.07,0.07,0.14,0.1,0.2c0.03,0.07,0.06,0.12,0.09,0.18c0.03,0.06,0.07,0.11,0.11,0.17c0.02,0.03,0.04,0.05,0.06,0.08
								c0.02,0.03,0.04,0.05,0.07,0.08c0.02,0.03,0.05,0.05,0.07,0.08c0.01,0.01,0.02,0.02,0.04,0.04c0.01,0.01,0.02,0.02,0.04,0.03
								c0.05,0.05,0.1,0.09,0.16,0.13c0.06,0.04,0.12,0.08,0.18,0.12c0.12,0.09,0.22,0.19,0.31,0.3c-0.11-0.09-0.23-0.16-0.36-0.22
								c-0.06-0.03-0.13-0.05-0.2-0.08c-0.07-0.03-0.14-0.06-0.2-0.1c-0.02-0.01-0.03-0.02-0.05-0.03
								c-0.02-0.01-0.03-0.02-0.05-0.03c-0.03-0.02-0.06-0.04-0.09-0.06c-0.03-0.02-0.06-0.04-0.09-0.07
								c-0.03-0.02-0.06-0.05-0.09-0.07c-0.06-0.05-0.11-0.1-0.16-0.16c-0.05-0.06-0.1-0.12-0.14-0.18
								c-0.04-0.06-0.08-0.11-0.13-0.15c-0.04-0.05-0.09-0.09-0.14-0.13c-0.01-0.01-0.02-0.02-0.04-0.03l-0.04-0.03
								c-0.03-0.02-0.05-0.04-0.08-0.06c-0.03-0.02-0.05-0.04-0.08-0.05c-0.01-0.01-0.03-0.02-0.04-0.02
								c-0.01-0.01-0.03-0.02-0.04-0.02c-0.05-0.03-0.11-0.05-0.17-0.08c-0.06-0.02-0.13-0.05-0.21-0.09
								c-0.07-0.04-0.15-0.08-0.22-0.12l-0.03-0.02l-0.02-0.02l-0.05-0.03c-0.03-0.02-0.06-0.05-0.09-0.07
								c-0.03-0.02-0.06-0.05-0.09-0.07l-0.05-0.04l-0.02-0.02l-0.02-0.02c-0.06-0.06-0.12-0.12-0.17-0.19
								c-0.01-0.02-0.03-0.03-0.04-0.05l-0.04-0.05l-0.03-0.04c-0.01-0.01-0.02-0.03-0.03-0.04c-0.04-0.05-0.07-0.09-0.11-0.12
								c-0.01-0.01-0.02-0.02-0.03-0.03c-0.01-0.01-0.02-0.02-0.03-0.03L128,24.26l-0.02-0.01l-0.02-0.01
								c-0.02-0.02-0.05-0.04-0.07-0.05l-0.04-0.03c-0.01-0.01-0.02-0.02-0.04-0.02c-0.05-0.03-0.1-0.06-0.14-0.08
								c-0.05-0.02-0.09-0.04-0.16-0.07c-0.07-0.03-0.15-0.06-0.23-0.11c-0.08-0.04-0.16-0.09-0.23-0.14
								c-0.02-0.01-0.04-0.03-0.05-0.04l-0.05-0.04c-0.03-0.02-0.07-0.05-0.1-0.08l-0.02-0.02l-0.02-0.02l-0.05-0.04
								c-0.02-0.01-0.03-0.03-0.05-0.05c-0.02-0.02-0.03-0.03-0.05-0.05c-0.06-0.07-0.13-0.15-0.18-0.21l-0.04-0.05
								c-0.01-0.02-0.02-0.03-0.03-0.04c-0.01-0.01-0.02-0.02-0.03-0.03c0-0.01-0.01-0.01-0.01-0.02l-0.01-0.01l-0.01-0.01
								L126.33,23c-0.01-0.01-0.02-0.02-0.02-0.02l-0.03-0.02l-0.03-0.02l-0.01-0.01l-0.02-0.01l-0.03-0.02l-0.07-0.05L127.16,21.75
								z"/>
						</g>
						<g>
							<path class="st0" d="M122.36,19.33c-0.03-0.03-0.06-0.07-0.08-0.1l-0.04-0.05l-0.02-0.03l-0.02-0.03
								c-0.06-0.07-0.11-0.16-0.16-0.24l-0.02-0.03c-0.01-0.01-0.01-0.02-0.02-0.03c-0.01-0.02-0.02-0.04-0.03-0.06
								c-0.01-0.02-0.02-0.04-0.02-0.05l-0.02-0.04c-0.02-0.05-0.04-0.09-0.07-0.13c-0.01-0.01-0.01-0.02-0.02-0.03
								c-0.01-0.01-0.01-0.02-0.02-0.03l-0.02-0.03l-0.01-0.02l-0.01-0.02c-0.02-0.02-0.04-0.05-0.05-0.07l-0.03-0.03
								c-0.01-0.01-0.02-0.02-0.03-0.03c-0.04-0.04-0.07-0.08-0.11-0.11c-0.04-0.03-0.08-0.06-0.14-0.1
								c-0.06-0.04-0.14-0.09-0.21-0.15c-0.07-0.06-0.14-0.12-0.2-0.18c-0.01-0.02-0.03-0.03-0.04-0.05l-0.04-0.05
								c-0.03-0.03-0.05-0.06-0.08-0.09l-0.02-0.02l-0.02-0.02l-0.04-0.05c-0.01-0.02-0.03-0.03-0.04-0.05
								c-0.01-0.02-0.02-0.03-0.04-0.05c-0.05-0.07-0.09-0.15-0.13-0.22c-0.01-0.02-0.02-0.04-0.02-0.05l-0.02-0.05l-0.02-0.04
								c-0.01-0.01-0.01-0.03-0.02-0.04c-0.03-0.05-0.05-0.1-0.09-0.15l-0.01-0.02l-0.01-0.02l-0.03-0.04
								c-0.02-0.02-0.04-0.05-0.06-0.07l-0.06-0.07l-0.03-0.03l-0.02-0.02l-0.02-0.02c-0.04-0.04-0.08-0.08-0.13-0.12
								c-0.05-0.04-0.1-0.07-0.17-0.12c-0.06-0.04-0.13-0.09-0.19-0.15c-0.02-0.01-0.03-0.03-0.04-0.04
								c-0.01-0.01-0.03-0.03-0.04-0.04c-0.03-0.03-0.06-0.06-0.08-0.08c-0.03-0.03-0.05-0.06-0.07-0.09
								c-0.02-0.03-0.05-0.06-0.07-0.09c-0.05-0.06-0.09-0.13-0.13-0.19c-0.04-0.07-0.07-0.14-0.1-0.2
								c-0.03-0.07-0.06-0.12-0.09-0.18c-0.03-0.06-0.07-0.11-0.11-0.17c-0.02-0.03-0.04-0.05-0.06-0.08
								c-0.02-0.03-0.04-0.05-0.07-0.08c-0.02-0.03-0.05-0.05-0.07-0.08c-0.01-0.01-0.02-0.02-0.04-0.04
								c-0.01-0.01-0.02-0.02-0.04-0.03c-0.05-0.05-0.1-0.09-0.16-0.13c-0.06-0.04-0.12-0.08-0.18-0.12
								c-0.12-0.09-0.22-0.19-0.31-0.3c0.11,0.09,0.23,0.16,0.36,0.22c0.06,0.03,0.13,0.05,0.2,0.08c0.07,0.03,0.14,0.06,0.2,0.1
								c0.02,0.01,0.03,0.02,0.05,0.03c0.02,0.01,0.03,0.02,0.05,0.03c0.03,0.02,0.06,0.04,0.09,0.06c0.03,0.02,0.06,0.04,0.09,0.07
								c0.03,0.02,0.06,0.05,0.09,0.07c0.06,0.05,0.11,0.1,0.16,0.16c0.05,0.06,0.1,0.12,0.14,0.18c0.04,0.06,0.08,0.11,0.13,0.15
								c0.04,0.05,0.09,0.09,0.14,0.13c0.01,0.01,0.02,0.02,0.04,0.03l0.04,0.03c0.03,0.02,0.05,0.04,0.08,0.06
								c0.03,0.02,0.05,0.04,0.08,0.05c0.01,0.01,0.03,0.02,0.04,0.02c0.01,0.01,0.03,0.02,0.04,0.02c0.05,0.03,0.11,0.05,0.17,0.08
								c0.06,0.02,0.13,0.05,0.21,0.09c0.07,0.04,0.15,0.08,0.22,0.12l0.03,0.02l0.02,0.02l0.05,0.03c0.03,0.02,0.06,0.05,0.09,0.07
								c0.03,0.02,0.06,0.05,0.09,0.07l0.05,0.04l0.02,0.02l0.02,0.02c0.06,0.06,0.12,0.12,0.17,0.19c0.01,0.02,0.03,0.03,0.04,0.05
								l0.04,0.05l0.03,0.04c0.01,0.01,0.02,0.03,0.03,0.04c0.04,0.05,0.07,0.09,0.11,0.12c0.01,0.01,0.02,0.02,0.03,0.03
								c0.01,0.01,0.02,0.02,0.03,0.03l0.03,0.03l0.02,0.01l0.02,0.01c0.02,0.02,0.05,0.04,0.07,0.05l0.04,0.03
								c0.01,0.01,0.02,0.02,0.04,0.02c0.05,0.03,0.1,0.06,0.14,0.08c0.05,0.02,0.09,0.04,0.16,0.07c0.07,0.03,0.15,0.06,0.23,0.11
								c0.08,0.04,0.16,0.09,0.23,0.14c0.02,0.01,0.04,0.03,0.05,0.04l0.05,0.04c0.03,0.02,0.07,0.05,0.1,0.08l0.02,0.02l0.02,0.02
								l0.05,0.04c0.02,0.01,0.03,0.03,0.05,0.05c0.02,0.02,0.03,0.03,0.05,0.05c0.06,0.07,0.13,0.15,0.18,0.21l0.04,0.05
								c0.01,0.02,0.02,0.03,0.03,0.04c0.01,0.01,0.02,0.02,0.03,0.03c0,0.01,0.01,0.01,0.01,0.02l0.01,0.01l0.01,0.01l0.01,0.01
								c0.01,0.01,0.02,0.02,0.02,0.02l0.03,0.02l0.03,0.02l0.01,0.01l0.02,0.01l0.03,0.02l0.07,0.05L122.36,19.33z"/>
						</g>
					</g>
					<g>
						<g>
							<path class="st0" d="M123.54,22.94c-0.03,0.03-0.07,0.06-0.1,0.08l-0.05,0.04l-0.03,0.02l-0.03,0.02
								c-0.07,0.05-0.16,0.11-0.24,0.15l-0.03,0.02c-0.01,0.01-0.02,0.01-0.03,0.02c-0.02,0.01-0.04,0.02-0.06,0.03
								c-0.02,0.01-0.04,0.02-0.05,0.02l-0.04,0.02c-0.05,0.02-0.09,0.04-0.14,0.07c-0.01,0.01-0.02,0.01-0.03,0.02
								c-0.01,0.01-0.02,0.01-0.03,0.02l-0.03,0.02l-0.02,0.01l-0.02,0.01c-0.02,0.02-0.05,0.03-0.07,0.05l-0.03,0.03
								c-0.01,0.01-0.02,0.02-0.03,0.03c-0.04,0.04-0.08,0.07-0.11,0.11c-0.03,0.04-0.06,0.08-0.1,0.13
								c-0.04,0.06-0.09,0.14-0.15,0.21c-0.06,0.07-0.12,0.14-0.18,0.19c-0.02,0.01-0.03,0.03-0.05,0.04l-0.05,0.04
								c-0.03,0.03-0.06,0.05-0.09,0.08l-0.02,0.02l-0.02,0.02l-0.05,0.04c-0.02,0.01-0.03,0.03-0.05,0.04
								c-0.02,0.01-0.03,0.02-0.05,0.04c-0.07,0.05-0.15,0.09-0.23,0.13c-0.02,0.01-0.04,0.02-0.05,0.02l-0.05,0.02l-0.04,0.02
								c-0.01,0.01-0.03,0.01-0.04,0.02c-0.05,0.03-0.1,0.05-0.15,0.08l-0.02,0.01l-0.02,0.01l-0.04,0.03
								c-0.02,0.02-0.05,0.04-0.07,0.06l-0.07,0.06l-0.03,0.03l-0.02,0.02l-0.02,0.02c-0.04,0.04-0.08,0.08-0.12,0.13
								c-0.04,0.05-0.07,0.1-0.12,0.17c-0.04,0.06-0.09,0.13-0.15,0.19c-0.01,0.02-0.03,0.03-0.04,0.04
								c-0.01,0.01-0.03,0.03-0.04,0.04c-0.03,0.03-0.06,0.05-0.08,0.08c-0.03,0.03-0.06,0.05-0.09,0.07
								c-0.03,0.02-0.06,0.05-0.09,0.07c-0.06,0.05-0.13,0.09-0.19,0.13c-0.07,0.04-0.14,0.07-0.21,0.1
								c-0.07,0.03-0.12,0.06-0.18,0.09c-0.06,0.03-0.11,0.07-0.17,0.11c-0.03,0.02-0.05,0.04-0.08,0.06
								c-0.03,0.02-0.05,0.04-0.08,0.07c-0.03,0.02-0.05,0.05-0.08,0.07c-0.01,0.01-0.02,0.02-0.04,0.04
								c-0.01,0.01-0.02,0.02-0.04,0.04c-0.05,0.05-0.09,0.1-0.13,0.16c-0.04,0.06-0.08,0.12-0.12,0.18
								c-0.09,0.12-0.19,0.22-0.3,0.31c0.09-0.11,0.16-0.23,0.22-0.36c0.03-0.06,0.05-0.13,0.08-0.2c0.03-0.07,0.06-0.14,0.1-0.2
								c0.01-0.02,0.02-0.03,0.03-0.05c0.01-0.02,0.02-0.03,0.03-0.05c0.02-0.03,0.04-0.06,0.06-0.09c0.02-0.03,0.04-0.06,0.07-0.09
								c0.02-0.03,0.05-0.06,0.07-0.09c0.05-0.06,0.1-0.11,0.16-0.16c0.06-0.05,0.12-0.1,0.18-0.14c0.06-0.04,0.11-0.08,0.15-0.13
								c0.05-0.04,0.09-0.09,0.13-0.14c0.01-0.01,0.02-0.02,0.03-0.04l0.03-0.04c0.02-0.03,0.04-0.05,0.06-0.08
								c0.02-0.03,0.04-0.05,0.05-0.08c0.01-0.01,0.02-0.03,0.02-0.04c0.01-0.01,0.02-0.03,0.02-0.04c0.03-0.05,0.05-0.11,0.08-0.17
								c0.02-0.06,0.05-0.13,0.09-0.21c0.04-0.07,0.08-0.15,0.12-0.22l0.02-0.03l0.02-0.02l0.03-0.05c0.02-0.03,0.05-0.06,0.07-0.09
								c0.02-0.03,0.05-0.06,0.07-0.09l0.04-0.05l0.02-0.02l0.02-0.02c0.06-0.06,0.12-0.12,0.19-0.17c0.02-0.01,0.03-0.03,0.05-0.04
								l0.05-0.04l0.04-0.03c0.01-0.01,0.03-0.02,0.04-0.03c0.05-0.04,0.09-0.07,0.12-0.11c0.01-0.01,0.02-0.02,0.03-0.03
								c0.01-0.01,0.02-0.02,0.03-0.03l0.03-0.03l0.01-0.02l0.01-0.02c0.02-0.02,0.04-0.05,0.05-0.07l0.03-0.04
								c0.01-0.01,0.02-0.02,0.02-0.04c0.03-0.05,0.06-0.1,0.08-0.14c0.02-0.05,0.04-0.09,0.07-0.16c0.03-0.07,0.06-0.15,0.11-0.23
								c0.04-0.08,0.09-0.16,0.14-0.23c0.01-0.02,0.03-0.04,0.04-0.05l0.04-0.05c0.03-0.03,0.05-0.07,0.08-0.1l0.02-0.02l0.02-0.02
								l0.04-0.05c0.01-0.02,0.03-0.03,0.05-0.05c0.02-0.02,0.03-0.03,0.05-0.05c0.07-0.06,0.15-0.13,0.21-0.18l0.05-0.04
								c0.02-0.01,0.03-0.02,0.04-0.03c0.01-0.01,0.02-0.02,0.03-0.03c0.01,0,0.01-0.01,0.02-0.01l0.01-0.01l0.01-0.01l0.01-0.01
								c0.01-0.01,0.02-0.02,0.02-0.02l0.02-0.03l0.02-0.03l0.01-0.01l0.01-0.02l0.02-0.03l0.05-0.07L123.54,22.94z"/>
						</g>
						<g>
							<path class="st0" d="M125.97,18.15c0.03-0.03,0.07-0.06,0.1-0.08l0.05-0.04l0.03-0.02l0.03-0.02
								c0.07-0.05,0.16-0.11,0.24-0.15l0.03-0.02c0.01-0.01,0.02-0.01,0.03-0.02c0.02-0.01,0.04-0.02,0.06-0.03
								c0.02-0.01,0.04-0.02,0.05-0.02l0.04-0.02c0.05-0.02,0.09-0.04,0.14-0.07c0.01-0.01,0.02-0.01,0.03-0.02
								c0.01-0.01,0.02-0.01,0.03-0.02l0.03-0.02l0.02-0.01l0.02-0.01c0.02-0.02,0.05-0.03,0.07-0.05l0.03-0.03
								c0.01-0.01,0.02-0.02,0.03-0.03c0.04-0.04,0.08-0.07,0.11-0.11c0.03-0.04,0.06-0.08,0.1-0.13c0.04-0.06,0.09-0.14,0.15-0.21
								c0.06-0.07,0.12-0.14,0.18-0.19c0.02-0.01,0.03-0.03,0.05-0.04l0.05-0.04c0.03-0.03,0.06-0.05,0.09-0.08l0.02-0.02l0.02-0.02
								l0.05-0.04c0.02-0.01,0.03-0.03,0.05-0.04c0.02-0.01,0.03-0.02,0.05-0.04c0.07-0.05,0.15-0.09,0.23-0.13
								c0.02-0.01,0.04-0.02,0.05-0.02l0.05-0.02l0.04-0.02c0.01-0.01,0.03-0.01,0.04-0.02c0.05-0.03,0.1-0.05,0.15-0.08l0.02-0.01
								l0.02-0.01l0.04-0.03c0.02-0.02,0.05-0.04,0.07-0.06l0.07-0.06l0.03-0.03l0.02-0.02l0.02-0.02c0.04-0.04,0.08-0.08,0.12-0.13
								c0.04-0.05,0.07-0.1,0.12-0.17c0.04-0.06,0.09-0.13,0.15-0.19c0.01-0.02,0.03-0.03,0.04-0.04c0.01-0.01,0.03-0.03,0.04-0.04
								c0.03-0.03,0.06-0.05,0.08-0.08c0.03-0.03,0.06-0.05,0.09-0.07c0.03-0.02,0.06-0.05,0.09-0.07c0.06-0.05,0.13-0.09,0.19-0.13
								c0.07-0.04,0.14-0.07,0.21-0.1c0.07-0.03,0.12-0.06,0.18-0.09c0.06-0.03,0.11-0.07,0.17-0.11c0.03-0.02,0.05-0.04,0.08-0.06
								c0.03-0.02,0.05-0.04,0.08-0.07c0.03-0.02,0.05-0.05,0.08-0.07c0.01-0.01,0.02-0.02,0.04-0.04c0.01-0.01,0.02-0.02,0.04-0.04
								c0.05-0.05,0.09-0.1,0.13-0.16c0.04-0.06,0.08-0.12,0.12-0.18c0.09-0.12,0.19-0.22,0.3-0.31c-0.09,0.11-0.16,0.23-0.22,0.36
								c-0.03,0.06-0.05,0.13-0.08,0.2c-0.03,0.07-0.06,0.14-0.1,0.2c-0.01,0.02-0.02,0.03-0.03,0.05
								c-0.01,0.02-0.02,0.03-0.03,0.05c-0.02,0.03-0.04,0.06-0.06,0.09c-0.02,0.03-0.04,0.06-0.07,0.09
								c-0.02,0.03-0.05,0.06-0.07,0.09c-0.05,0.06-0.1,0.11-0.16,0.16c-0.06,0.05-0.12,0.1-0.18,0.14
								c-0.06,0.04-0.11,0.08-0.15,0.13c-0.05,0.04-0.09,0.09-0.13,0.14c-0.01,0.01-0.02,0.02-0.03,0.04l-0.03,0.04
								c-0.02,0.03-0.04,0.05-0.06,0.08c-0.02,0.03-0.04,0.05-0.05,0.08c-0.01,0.01-0.02,0.03-0.02,0.04
								c-0.01,0.01-0.02,0.03-0.02,0.04c-0.03,0.05-0.05,0.11-0.08,0.17c-0.02,0.06-0.05,0.13-0.09,0.21
								c-0.04,0.07-0.08,0.15-0.12,0.22l-0.02,0.03l-0.02,0.02l-0.03,0.05c-0.02,0.03-0.05,0.06-0.07,0.09
								c-0.02,0.03-0.05,0.06-0.07,0.09l-0.04,0.05l-0.02,0.02l-0.02,0.02c-0.06,0.06-0.12,0.12-0.19,0.17
								c-0.02,0.01-0.03,0.03-0.05,0.04l-0.05,0.04l-0.04,0.03c-0.01,0.01-0.03,0.02-0.04,0.03c-0.05,0.04-0.09,0.07-0.12,0.11
								c-0.01,0.01-0.02,0.02-0.03,0.03c-0.01,0.01-0.02,0.02-0.03,0.03l-0.03,0.03l-0.01,0.02l-0.01,0.02
								c-0.02,0.02-0.04,0.05-0.05,0.07l-0.03,0.04c-0.01,0.01-0.02,0.02-0.02,0.04c-0.03,0.05-0.06,0.1-0.08,0.14
								c-0.02,0.05-0.04,0.09-0.07,0.16c-0.03,0.07-0.06,0.15-0.11,0.23c-0.04,0.08-0.09,0.16-0.14,0.23
								c-0.01,0.02-0.03,0.04-0.04,0.05l-0.04,0.05c-0.03,0.03-0.05,0.07-0.08,0.1l-0.02,0.02l-0.02,0.02l-0.04,0.05
								c-0.01,0.02-0.03,0.03-0.05,0.05c-0.02,0.02-0.03,0.03-0.05,0.05c-0.07,0.06-0.15,0.13-0.21,0.18l-0.05,0.04
								c-0.02,0.01-0.03,0.02-0.04,0.03c-0.01,0.01-0.02,0.02-0.03,0.03c-0.01,0-0.01,0.01-0.02,0.01l-0.01,0.01l-0.01,0.01
								l-0.01,0.01c-0.01,0.01-0.02,0.02-0.02,0.02l-0.02,0.03l-0.02,0.03l-0.01,0.01l-0.01,0.02l-0.02,0.03l-0.05,0.07
								L125.97,18.15z"/>
						</g>
					</g>
				</g>
			</g>
			<g>
				<g>
					<g>
						<g>
							<path class="st0" d="M127.76,20.83c0.05,0.03,0.09,0.05,0.14,0.08l0.03,0.02c0.01,0.01,0.02,0.02,0.04,0.03
								c0.02,0.02,0.05,0.03,0.07,0.05c0.02,0.02,0.05,0.04,0.07,0.06l0.03,0.03c0.01,0.01,0.02,0.02,0.03,0.03l0.01,0.02
								c0,0.01,0.01,0.01,0.01,0.02l0.02,0.03c0,0,0.01,0.01,0.01,0.01l0.01,0.01l0.02,0.03c0.04,0.06,0.05,0.08,0.07,0.11
								c0.02,0.03,0.05,0.06,0.09,0.09c0.04,0.03,0.08,0.05,0.11,0.07c0.03,0.02,0.07,0.03,0.14,0.03l0.06,0l0.03,0
								c0.01,0,0.02,0,0.04,0c0.01,0,0.02,0,0.04,0l0.04,0.01c0.03,0,0.05,0.01,0.07,0.01c0.1,0.02,0.18,0.06,0.26,0.1
								c0.08,0.04,0.15,0.09,0.23,0.15c0.02,0.02,0.04,0.03,0.05,0.05l0.02,0.03c0.01,0.01,0.02,0.02,0.02,0.03
								c0.01,0.01,0.02,0.02,0.02,0.03l0.02,0.03c0.01,0.01,0.01,0.02,0.02,0.03l0.02,0.02c0.04,0.06,0.07,0.11,0.11,0.15
								c0.04,0.04,0.09,0.08,0.14,0.11c0.06,0.03,0.11,0.06,0.17,0.08c0.06,0.02,0.12,0.03,0.2,0.03c0.04,0,0.07,0,0.11,0.01
								c0.01,0,0.02,0,0.03,0l0.03,0.01c0.02,0,0.04,0.01,0.06,0.01c0.07,0.02,0.14,0.05,0.2,0.09c-0.07-0.01-0.14-0.01-0.21-0.01
								c-0.07,0.01-0.14,0.03-0.21,0.05c-0.04,0.01-0.07,0.02-0.11,0.03c-0.01,0-0.02,0-0.03,0.01l-0.03,0c-0.02,0-0.04,0-0.06,0.01
								c-0.08,0.01-0.16,0-0.24-0.01c-0.08-0.01-0.16-0.03-0.24-0.07c-0.02-0.01-0.04-0.02-0.06-0.03l-0.03-0.02
								c-0.01-0.01-0.02-0.01-0.03-0.02c-0.04-0.02-0.07-0.05-0.1-0.07c-0.06-0.04-0.1-0.06-0.15-0.08
								c-0.05-0.01-0.1-0.02-0.16-0.03c-0.06,0-0.11,0-0.16,0.01c-0.05,0.01-0.08,0.03-0.15,0.05l-0.03,0.01l-0.01,0
								c0,0-0.01,0-0.02,0l-0.03,0.01c-0.01,0-0.01,0-0.02,0l-0.02,0c-0.01,0-0.03,0-0.04,0.01l-0.04,0c-0.03,0-0.05,0-0.08,0.01
								c-0.11,0-0.21-0.01-0.3-0.03c-0.05-0.01-0.09-0.02-0.14-0.04l-0.04-0.01c-0.01,0-0.03-0.01-0.04-0.01
								c-0.03-0.01-0.05-0.02-0.08-0.03c-0.03-0.01-0.05-0.03-0.08-0.04l-0.04-0.02c-0.01-0.01-0.02-0.02-0.03-0.02l-0.02-0.01
								l-0.02-0.01l-0.03-0.02l-0.05-0.04c-0.06-0.04-0.08-0.04-0.11-0.04l-0.1,0L127.76,20.83z"/>
						</g>
						<g>
							<path class="st0" d="M121.76,20.26c-0.05-0.03-0.09-0.05-0.14-0.08l-0.03-0.02c-0.01-0.01-0.02-0.02-0.04-0.03
								c-0.02-0.02-0.05-0.03-0.07-0.05c-0.02-0.02-0.05-0.04-0.07-0.06l-0.03-0.03c-0.01-0.01-0.02-0.02-0.03-0.03l-0.01-0.02
								c0-0.01-0.01-0.01-0.01-0.02l-0.02-0.03c0,0-0.01-0.01-0.01-0.01l-0.01-0.01l-0.02-0.03c-0.04-0.06-0.05-0.08-0.07-0.11
								c-0.02-0.03-0.05-0.06-0.09-0.09c-0.04-0.03-0.08-0.05-0.11-0.07c-0.03-0.02-0.07-0.03-0.14-0.03l-0.06,0l-0.03,0
								c-0.01,0-0.02,0-0.04,0c-0.01,0-0.02,0-0.04,0l-0.04-0.01c-0.03,0-0.05-0.01-0.07-0.01c-0.1-0.02-0.18-0.06-0.26-0.1
								c-0.08-0.04-0.15-0.09-0.23-0.15c-0.02-0.02-0.04-0.03-0.05-0.05L120,19.17c-0.01-0.01-0.02-0.02-0.02-0.03
								c-0.01-0.01-0.02-0.02-0.02-0.03l-0.02-0.03c-0.01-0.01-0.01-0.02-0.02-0.03l-0.02-0.02c-0.04-0.06-0.07-0.11-0.11-0.15
								c-0.04-0.04-0.09-0.08-0.14-0.11c-0.06-0.03-0.11-0.06-0.17-0.08c-0.06-0.02-0.12-0.03-0.2-0.03c-0.04,0-0.07,0-0.11-0.01
								c-0.01,0-0.02,0-0.03,0l-0.03-0.01c-0.02,0-0.04-0.01-0.06-0.01c-0.07-0.02-0.14-0.05-0.2-0.09
								c0.07,0.01,0.14,0.01,0.21,0.01c0.07-0.01,0.14-0.03,0.21-0.05c0.04-0.01,0.07-0.02,0.11-0.03c0.01,0,0.02,0,0.03-0.01
								l0.03,0c0.02,0,0.04,0,0.06-0.01c0.08-0.01,0.16,0,0.24,0.01c0.08,0.01,0.16,0.03,0.24,0.07c0.02,0.01,0.04,0.02,0.06,0.03
								l0.03,0.02c0.01,0.01,0.02,0.01,0.03,0.02c0.04,0.02,0.07,0.05,0.1,0.07c0.06,0.04,0.1,0.06,0.15,0.08
								c0.05,0.01,0.1,0.02,0.16,0.03c0.06,0,0.11,0,0.16-0.01c0.05-0.01,0.08-0.03,0.15-0.05l0.03-0.01l0.01,0c0,0,0.01,0,0.02,0
								l0.03-0.01c0.01,0,0.01,0,0.02,0l0.02,0c0.01,0,0.03,0,0.04-0.01l0.04,0c0.03,0,0.05,0,0.08-0.01c0.11,0,0.21,0.01,0.3,0.03
								c0.05,0.01,0.09,0.02,0.14,0.04l0.04,0.01c0.01,0,0.03,0.01,0.04,0.01c0.03,0.01,0.05,0.02,0.08,0.03
								c0.03,0.01,0.05,0.03,0.08,0.04l0.04,0.02c0.01,0.01,0.02,0.02,0.03,0.02l0.02,0.01l0.02,0.01l0.03,0.02l0.05,0.04
								c0.06,0.04,0.08,0.04,0.11,0.04l0.1,0L121.76,20.26z"/>
						</g>
					</g>
					<g>
						<g>
							<path class="st0" d="M124.47,23.53c-0.03,0.05-0.05,0.09-0.08,0.14l-0.02,0.03c-0.01,0.01-0.02,0.02-0.03,0.04
								c-0.02,0.02-0.03,0.05-0.05,0.07c-0.02,0.02-0.04,0.05-0.06,0.07l-0.03,0.03c-0.01,0.01-0.02,0.02-0.03,0.03l-0.02,0.01
								c-0.01,0-0.01,0.01-0.02,0.01l-0.03,0.02c0,0-0.01,0.01-0.01,0.01l-0.01,0.01l-0.03,0.02c-0.06,0.04-0.08,0.05-0.11,0.07
								c-0.03,0.02-0.06,0.05-0.09,0.09c-0.03,0.04-0.05,0.08-0.07,0.11c-0.02,0.03-0.03,0.07-0.03,0.14l0,0.06l0,0.03
								c0,0.01,0,0.02,0,0.04c0,0.01,0,0.02,0,0.04l-0.01,0.04c0,0.03-0.01,0.05-0.01,0.07c-0.02,0.1-0.06,0.18-0.1,0.26
								c-0.04,0.08-0.09,0.15-0.16,0.22c-0.02,0.02-0.03,0.04-0.05,0.05l-0.03,0.02c-0.01,0.01-0.02,0.02-0.03,0.02
								c-0.01,0.01-0.02,0.02-0.03,0.02l-0.03,0.02c-0.01,0.01-0.02,0.01-0.03,0.02l-0.02,0.02c-0.06,0.04-0.11,0.07-0.15,0.11
								c-0.04,0.04-0.08,0.09-0.11,0.14c-0.03,0.06-0.06,0.11-0.08,0.17c-0.02,0.06-0.03,0.12-0.03,0.2c0,0.04,0,0.07-0.01,0.11
								c0,0.01,0,0.02,0,0.03l-0.01,0.03c0,0.02-0.01,0.04-0.01,0.06c-0.02,0.07-0.05,0.14-0.09,0.2c0.01-0.07,0.01-0.14,0.01-0.21
								c-0.01-0.07-0.03-0.14-0.05-0.21c-0.01-0.04-0.02-0.07-0.03-0.11c0-0.01,0-0.02-0.01-0.03l0-0.03c0-0.02,0-0.04-0.01-0.06
								c-0.01-0.08,0-0.16,0.01-0.24c0.01-0.08,0.03-0.16,0.07-0.24c0.01-0.02,0.02-0.04,0.03-0.06l0.02-0.03
								c0.01-0.01,0.01-0.02,0.02-0.03c0.02-0.04,0.05-0.07,0.07-0.1c0.04-0.06,0.06-0.1,0.08-0.15c0.02-0.05,0.02-0.1,0.03-0.16
								c0.01-0.06,0-0.11-0.01-0.16c-0.01-0.05-0.03-0.08-0.05-0.15l-0.01-0.03l0-0.01c0,0,0-0.01,0-0.02l-0.01-0.03
								c0-0.01,0-0.01,0-0.02l0-0.02c0-0.01,0-0.03-0.01-0.04l0-0.04c0-0.03,0-0.05-0.01-0.08c0-0.11,0.01-0.21,0.03-0.3
								c0.01-0.05,0.02-0.09,0.04-0.14l0.01-0.04c0-0.01,0.01-0.03,0.01-0.04c0.01-0.03,0.02-0.05,0.03-0.08
								c0.01-0.03,0.03-0.05,0.04-0.08l0.02-0.04c0.01-0.01,0.02-0.02,0.02-0.03l0.01-0.02l0.01-0.02l0.02-0.03l0.04-0.05
								c0.04-0.06,0.04-0.08,0.04-0.11l0-0.1L124.47,23.53z"/>
						</g>
						<g>
							<path class="st0" d="M125.05,17.55c0.03-0.05,0.05-0.09,0.08-0.14l0.02-0.03c0.01-0.01,0.02-0.02,0.03-0.04
								c0.02-0.02,0.03-0.05,0.05-0.07c0.02-0.02,0.04-0.05,0.06-0.07l0.03-0.03c0.01-0.01,0.02-0.02,0.03-0.03l0.02-0.01
								c0.01,0,0.01-0.01,0.02-0.01l0.03-0.02c0,0,0.01-0.01,0.01-0.01l0.01-0.01l0.03-0.02c0.06-0.04,0.08-0.05,0.11-0.07
								c0.03-0.02,0.06-0.05,0.09-0.09c0.03-0.04,0.05-0.08,0.07-0.11c0.02-0.03,0.03-0.07,0.03-0.14l0-0.06l0-0.03
								c0-0.01,0-0.02,0-0.04c0-0.01,0-0.02,0-0.04l0.01-0.04c0-0.03,0.01-0.05,0.01-0.07c0.02-0.1,0.06-0.18,0.1-0.26
								c0.04-0.08,0.09-0.15,0.16-0.22c0.02-0.02,0.03-0.04,0.05-0.05l0.03-0.02c0.01-0.01,0.02-0.02,0.03-0.02
								c0.01-0.01,0.02-0.02,0.03-0.02l0.03-0.02c0.01-0.01,0.02-0.01,0.03-0.02l0.02-0.02c0.06-0.04,0.11-0.07,0.15-0.11
								c0.04-0.04,0.08-0.09,0.11-0.14c0.03-0.06,0.06-0.11,0.08-0.17c0.02-0.06,0.03-0.12,0.03-0.2c0-0.04,0-0.07,0.01-0.11
								c0-0.01,0-0.02,0-0.03l0.01-0.03c0-0.02,0.01-0.04,0.01-0.06c0.02-0.07,0.05-0.14,0.09-0.2c-0.01,0.07-0.01,0.14-0.01,0.21
								c0.01,0.07,0.03,0.14,0.05,0.21c0.01,0.04,0.02,0.07,0.03,0.11c0,0.01,0,0.02,0.01,0.03l0,0.03c0,0.02,0,0.04,0.01,0.06
								c0.01,0.08,0,0.16-0.01,0.24c-0.01,0.08-0.03,0.16-0.07,0.24c-0.01,0.02-0.02,0.04-0.03,0.06l-0.02,0.03
								c-0.01,0.01-0.01,0.02-0.02,0.03c-0.02,0.04-0.05,0.07-0.07,0.1c-0.04,0.06-0.06,0.1-0.08,0.15
								c-0.02,0.05-0.02,0.1-0.03,0.16c0,0.06,0,0.11,0.01,0.16c0.01,0.05,0.03,0.08,0.05,0.15l0.01,0.03l0,0.01c0,0,0,0.01,0,0.02
								l0.01,0.03c0,0.01,0,0.01,0,0.02l0,0.02c0,0.01,0,0.03,0.01,0.04l0,0.04c0,0.03,0,0.05,0.01,0.08c0,0.11-0.01,0.21-0.03,0.3
								c-0.01,0.05-0.02,0.09-0.04,0.14l-0.01,0.04c0,0.01-0.01,0.03-0.01,0.04c-0.01,0.03-0.02,0.05-0.03,0.08
								c-0.01,0.03-0.03,0.05-0.04,0.08l-0.02,0.04c-0.01,0.01-0.02,0.02-0.02,0.03l-0.01,0.02l-0.01,0.02l-0.02,0.03l-0.04,0.05
								c-0.04,0.06-0.04,0.08-0.04,0.11l0,0.1L125.05,17.55z"/>
						</g>
					</g>
				</g>
				<g>
					<g>
						<g>
							<path class="st0" d="M126.68,22.86c0.01,0.05,0.03,0.1,0.04,0.15l0.01,0.04c0,0.01,0.01,0.03,0.01,0.04
								c0,0.03,0.01,0.06,0.01,0.09c0,0.03,0.01,0.06,0.01,0.09l0,0.05c0,0.01,0,0.03,0,0.04l0,0.02c0,0.01,0,0.01,0,0.02l0,0.04
								c0,0.01,0,0.01,0,0.02l0,0.02l-0.01,0.03c-0.01,0.07-0.03,0.09-0.03,0.13c-0.01,0.03-0.01,0.08,0,0.13
								c0.01,0.05,0.02,0.09,0.03,0.13c0.01,0.04,0.03,0.07,0.07,0.12l0.04,0.05l0.02,0.03c0.01,0.01,0.02,0.02,0.02,0.03
								c0.01,0.01,0.02,0.02,0.02,0.03l0.02,0.03c0.02,0.02,0.03,0.04,0.04,0.06c0.05,0.09,0.09,0.17,0.11,0.26
								c0.02,0.08,0.04,0.17,0.05,0.27c0,0.02,0,0.05,0,0.07l0,0.04c0,0.01,0,0.02,0,0.03c0,0.01,0,0.02,0,0.03l0,0.03
								c0,0.01,0,0.02-0.01,0.03l-0.01,0.03c-0.01,0.07-0.03,0.13-0.03,0.18c0,0.06,0.01,0.12,0.02,0.18
								c0.02,0.06,0.04,0.12,0.06,0.18c0.03,0.06,0.07,0.11,0.12,0.16c0.02,0.03,0.05,0.06,0.07,0.09c0.01,0.01,0.01,0.01,0.02,0.02
								l0.02,0.02c0.01,0.02,0.02,0.03,0.03,0.05c0.04,0.07,0.06,0.14,0.08,0.2c-0.04-0.06-0.09-0.11-0.15-0.16
								c-0.05-0.05-0.12-0.08-0.18-0.11c-0.03-0.02-0.07-0.04-0.1-0.06c-0.01-0.01-0.02-0.01-0.03-0.02l-0.03-0.02
								c-0.02-0.01-0.03-0.03-0.05-0.04c-0.06-0.05-0.12-0.12-0.16-0.18c-0.05-0.07-0.09-0.14-0.12-0.22
								c-0.01-0.02-0.02-0.04-0.02-0.06l-0.01-0.03c0-0.01,0-0.02-0.01-0.03c-0.01-0.04-0.02-0.08-0.02-0.12
								c-0.01-0.07-0.03-0.12-0.05-0.16c-0.02-0.04-0.05-0.09-0.09-0.13c-0.04-0.04-0.08-0.08-0.11-0.11
								c-0.04-0.03-0.07-0.04-0.14-0.07l-0.03-0.01l-0.01-0.01c0,0-0.01-0.01-0.01-0.01l-0.03-0.02c0,0-0.01-0.01-0.02-0.01
								l-0.02-0.01c-0.01-0.01-0.02-0.01-0.03-0.02l-0.03-0.03c-0.02-0.02-0.04-0.04-0.06-0.05c-0.08-0.07-0.14-0.15-0.19-0.23
								c-0.03-0.04-0.05-0.08-0.07-0.13l-0.02-0.03c-0.01-0.01-0.01-0.02-0.02-0.04c-0.01-0.03-0.02-0.05-0.03-0.08
								c-0.01-0.03-0.02-0.05-0.02-0.08l-0.01-0.04c0-0.01-0.01-0.03-0.01-0.04l0-0.02l0-0.02l-0.01-0.04l-0.01-0.06
								c-0.01-0.07-0.03-0.09-0.05-0.11l-0.07-0.08L126.68,22.86z"/>
						</g>
						<g>
							<path class="st0" d="M122.84,18.22c-0.01-0.05-0.03-0.1-0.04-0.15l-0.01-0.04c0-0.01-0.01-0.03-0.01-0.04
								c0-0.03-0.01-0.06-0.01-0.09c0-0.03-0.01-0.06-0.01-0.09l0-0.05c0-0.01,0-0.03,0-0.04l0-0.02c0-0.01,0-0.01,0-0.02l0-0.04
								c0-0.01,0-0.01,0-0.02l0-0.02l0.01-0.03c0.01-0.07,0.03-0.09,0.03-0.13c0.01-0.03,0.01-0.08,0-0.13
								c-0.01-0.05-0.02-0.09-0.03-0.13c-0.01-0.04-0.03-0.07-0.07-0.12l-0.04-0.05L122.65,17c-0.01-0.01-0.02-0.02-0.02-0.03
								c-0.01-0.01-0.02-0.02-0.02-0.03l-0.02-0.03c-0.02-0.02-0.03-0.04-0.04-0.06c-0.05-0.09-0.09-0.17-0.11-0.26
								c-0.02-0.08-0.04-0.17-0.05-0.27c0-0.02,0-0.05,0-0.07l0-0.04c0-0.01,0-0.02,0-0.03c0-0.01,0-0.02,0-0.03l0-0.03
								c0-0.01,0-0.02,0.01-0.03l0.01-0.03c0.01-0.07,0.03-0.13,0.03-0.18c0-0.06-0.01-0.12-0.02-0.18
								c-0.02-0.06-0.04-0.12-0.06-0.18c-0.03-0.06-0.07-0.11-0.12-0.16c-0.02-0.03-0.05-0.06-0.07-0.09
								c-0.01-0.01-0.01-0.01-0.02-0.02l-0.02-0.02c-0.01-0.02-0.02-0.03-0.03-0.05c-0.04-0.07-0.06-0.14-0.08-0.2
								c0.04,0.06,0.09,0.11,0.15,0.16c0.05,0.05,0.12,0.08,0.18,0.11c0.03,0.02,0.07,0.04,0.1,0.06c0.01,0.01,0.02,0.01,0.03,0.02
								l0.03,0.02c0.02,0.01,0.03,0.03,0.05,0.04c0.06,0.05,0.12,0.12,0.16,0.18c0.05,0.07,0.09,0.14,0.12,0.22
								c0.01,0.02,0.02,0.04,0.02,0.06l0.01,0.03c0,0.01,0,0.02,0.01,0.03c0.01,0.04,0.02,0.08,0.02,0.12
								c0.01,0.07,0.03,0.12,0.05,0.16c0.02,0.04,0.05,0.09,0.09,0.13c0.04,0.04,0.08,0.08,0.11,0.11c0.04,0.03,0.07,0.04,0.14,0.07
								l0.03,0.01l0.01,0.01c0,0,0.01,0.01,0.01,0.01l0.03,0.02c0,0,0.01,0.01,0.02,0.01l0.02,0.01c0.01,0.01,0.02,0.01,0.03,0.02
								l0.03,0.03c0.02,0.02,0.04,0.04,0.06,0.05c0.08,0.07,0.14,0.15,0.19,0.23c0.03,0.04,0.05,0.08,0.07,0.13l0.02,0.03
								c0.01,0.01,0.01,0.02,0.02,0.04c0.01,0.03,0.02,0.05,0.03,0.08c0.01,0.03,0.02,0.05,0.02,0.08l0.01,0.04
								c0,0.01,0.01,0.03,0.01,0.04l0,0.02l0,0.02l0.01,0.04l0.01,0.06c0.01,0.07,0.03,0.09,0.05,0.11l0.07,0.08L122.84,18.22z"/>
						</g>
					</g>
					<g>
						<g>
							<path class="st0" d="M122.43,22.46c-0.05,0.01-0.1,0.03-0.15,0.04l-0.04,0.01c-0.01,0-0.03,0-0.04,0.01
								c-0.03,0-0.06,0.01-0.09,0.01c-0.03,0-0.06,0.01-0.09,0.01l-0.05,0c-0.01,0-0.03,0-0.04,0l-0.02,0c-0.01,0-0.01,0-0.02,0
								l-0.04,0c-0.01,0-0.01,0-0.02,0l-0.02,0l-0.03-0.01c-0.07-0.01-0.09-0.03-0.13-0.03c-0.03-0.01-0.08-0.01-0.13,0
								c-0.05,0.01-0.09,0.02-0.13,0.03c-0.04,0.01-0.07,0.03-0.12,0.07l-0.05,0.04l-0.03,0.02c-0.01,0.01-0.02,0.02-0.03,0.02
								c-0.01,0.01-0.02,0.02-0.03,0.02l-0.03,0.02c-0.02,0.02-0.04,0.03-0.06,0.04c-0.09,0.05-0.17,0.09-0.26,0.11
								c-0.08,0.02-0.17,0.04-0.27,0.05c-0.02,0-0.05,0-0.07,0l-0.04,0c-0.01,0-0.02,0-0.03,0c-0.01,0-0.02,0-0.03,0l-0.03,0
								c-0.01,0-0.02,0-0.03-0.01l-0.03-0.01c-0.07-0.01-0.13-0.03-0.18-0.03c-0.06,0-0.12,0.01-0.18,0.02
								c-0.06,0.02-0.12,0.04-0.18,0.06c-0.06,0.03-0.11,0.07-0.16,0.12c-0.03,0.02-0.06,0.05-0.09,0.07
								c-0.01,0.01-0.02,0.01-0.02,0.02l-0.02,0.02c-0.02,0.01-0.03,0.02-0.05,0.03c-0.07,0.04-0.14,0.06-0.21,0.08
								c0.06-0.04,0.11-0.09,0.16-0.15c0.05-0.05,0.08-0.11,0.11-0.18c0.02-0.03,0.04-0.07,0.06-0.1c0.01-0.01,0.01-0.02,0.02-0.03
								l0.02-0.03c0.01-0.02,0.03-0.03,0.04-0.05c0.05-0.06,0.12-0.11,0.18-0.16c0.07-0.05,0.14-0.09,0.22-0.12
								c0.02-0.01,0.04-0.02,0.06-0.02l0.03-0.01c0.01,0,0.02,0,0.03-0.01c0.04-0.01,0.08-0.02,0.12-0.02
								c0.07-0.01,0.12-0.03,0.16-0.05c0.04-0.02,0.09-0.05,0.13-0.09c0.04-0.04,0.08-0.08,0.11-0.11c0.03-0.04,0.04-0.07,0.07-0.14
								l0.01-0.03l0.01-0.01c0,0,0.01-0.01,0.01-0.01l0.02-0.03c0,0,0.01-0.01,0.01-0.02l0.01-0.02c0.01-0.01,0.01-0.02,0.02-0.03
								l0.03-0.03c0.02-0.02,0.04-0.04,0.05-0.06c0.08-0.08,0.16-0.14,0.23-0.19c0.04-0.03,0.08-0.05,0.13-0.07l0.03-0.02
								c0.01-0.01,0.02-0.01,0.04-0.02c0.03-0.01,0.05-0.02,0.08-0.03c0.03-0.01,0.05-0.02,0.08-0.02l0.04-0.01
								c0.01,0,0.03-0.01,0.04-0.01l0.02,0l0.02,0l0.04-0.01l0.06-0.01c0.07-0.01,0.09-0.03,0.11-0.05l0.08-0.07L122.43,22.46z"/>
						</g>
						<g>
							<path class="st0" d="M127.09,18.63c0.05-0.01,0.1-0.03,0.15-0.04l0.04-0.01c0.01,0,0.03,0,0.04-0.01
								c0.03,0,0.06-0.01,0.09-0.01c0.03,0,0.06-0.01,0.09-0.01l0.05,0c0.01,0,0.03,0,0.04,0l0.02,0c0.01,0,0.01,0,0.02,0l0.04,0
								c0.01,0,0.01,0,0.02,0l0.02,0l0.03,0.01c0.07,0.01,0.09,0.03,0.13,0.03c0.03,0.01,0.08,0.01,0.13,0
								c0.05-0.01,0.09-0.02,0.13-0.03c0.04-0.01,0.07-0.03,0.12-0.07l0.05-0.04l0.03-0.02c0.01-0.01,0.02-0.02,0.03-0.02
								c0.01-0.01,0.02-0.02,0.03-0.02l0.03-0.02c0.02-0.02,0.04-0.03,0.06-0.04c0.09-0.05,0.17-0.09,0.26-0.11
								c0.08-0.02,0.17-0.04,0.27-0.05c0.02,0,0.05,0,0.07,0l0.04,0c0.01,0,0.02,0,0.03,0c0.01,0,0.02,0,0.03,0l0.03,0
								c0.01,0,0.02,0,0.03,0.01l0.03,0.01c0.07,0.01,0.13,0.03,0.18,0.03c0.06,0,0.12-0.01,0.18-0.02
								c0.06-0.02,0.12-0.04,0.18-0.06c0.06-0.03,0.11-0.07,0.16-0.12c0.03-0.02,0.06-0.05,0.09-0.07c0.01-0.01,0.02-0.01,0.02-0.02
								l0.02-0.02c0.02-0.01,0.03-0.02,0.05-0.03c0.07-0.04,0.14-0.06,0.21-0.08c-0.06,0.04-0.11,0.09-0.16,0.15
								c-0.05,0.05-0.08,0.11-0.11,0.18c-0.02,0.03-0.04,0.07-0.06,0.1c-0.01,0.01-0.01,0.02-0.02,0.03l-0.02,0.03
								c-0.01,0.02-0.03,0.03-0.04,0.05c-0.05,0.06-0.12,0.11-0.18,0.16c-0.07,0.05-0.14,0.09-0.22,0.12
								c-0.02,0.01-0.04,0.02-0.06,0.02l-0.03,0.01c-0.01,0-0.02,0-0.03,0.01c-0.04,0.01-0.08,0.02-0.12,0.02
								c-0.07,0.01-0.12,0.03-0.16,0.05c-0.04,0.02-0.09,0.05-0.13,0.09c-0.04,0.04-0.08,0.08-0.11,0.11
								c-0.03,0.04-0.04,0.07-0.07,0.14l-0.01,0.03l-0.01,0.01c0,0-0.01,0.01-0.01,0.01l-0.02,0.03c0,0-0.01,0.01-0.01,0.02
								l-0.01,0.02c-0.01,0.01-0.01,0.02-0.02,0.03l-0.03,0.03c-0.02,0.02-0.04,0.04-0.05,0.06c-0.08,0.08-0.16,0.14-0.23,0.19
								c-0.04,0.03-0.08,0.05-0.13,0.07l-0.03,0.02c-0.01,0.01-0.02,0.01-0.04,0.02c-0.03,0.01-0.05,0.02-0.08,0.03
								c-0.03,0.01-0.05,0.02-0.08,0.02l-0.04,0.01c-0.01,0-0.03,0.01-0.04,0.01l-0.02,0l-0.02,0l-0.04,0.01l-0.06,0.01
								c-0.07,0.01-0.09,0.03-0.11,0.05l-0.08,0.07L127.09,18.63z"/>
						</g>
					</g>
				</g>
			</g>
		</g>
		<g>
			
				<ellipse transform="matrix(0.9997 -0.025 0.025 0.9997 -0.4752 3.1299)" class="st0" cx="124.76" cy="20.54" rx="2.99" ry="2.98"/>
		</g>
	</g>
	<g>
		<path class="st0" d="M220.14,75.11c-1.11-1.9-3.27-2.81-5.33-2.43c0.69,0.38,1.28,0.94,1.7,1.66c1.24,2.13,0.52,4.87-1.62,6.11
			c-0.95,0.55-2.01,0.72-3.01,0.55c1.57,1.82,4.26,2.32,6.41,1.06C220.72,80.64,221.55,77.53,220.14,75.11z"/>
	</g>
	<g>
		<g>
			<path class="st0" d="M30.83,53.61c0,0.77-0.06,1.52-0.06,2.26c0.03,1.2,0.06,2.36,0.1,3.52c0,0.03,0,0.06,0,0.1
				c0,0.26,0.13,0.42,0.36,0.42c0.45,0.03,0.9,0.06,1.36,0.1c0.61,0,1.23,0,1.84,0c0.9,0,1.81,0.03,2.68,0.13
				c0.74,0.06,1.45,0.06,2.16,0.1c0.16,0.03,0.29,0.03,0.42,0.03c0.29,0.03,0.52,0.29,0.55,0.55c0.06,0.48,0,0.97-0.23,1.42
				c-0.06,0.19-0.26,0.29-0.45,0.35c-0.1,0.03-0.19,0.06-0.29,0.06c-0.48,0.03-0.97,0.06-1.45,0.03c-1.65-0.06-3.33,0-4.98,0.03
				c-0.26,0-0.55,0.03-0.81,0.06c-0.9,0.19-1.78,0.1-2.68,0.1c-0.03,0-0.06,0-0.1-0.03c-0.9-0.13-1.1-0.45-1.32-1.23
				c-0.03-0.1-0.03-0.19-0.03-0.32c0-1.16-0.03-2.33-0.03-3.49c0-1.62,0.03-3.26,0.03-4.88c0-0.42,0-0.81,0.1-1.23
				c0.06-0.23,0.06-0.48,0.06-0.71c0.03-1.84,0.03-3.65,0.07-5.49c0-0.61,0-1.23,0.1-1.84c0.06-0.48,0.03-0.97,0.03-1.45
				c0.03-0.26,0-0.55,0.03-0.81c0-0.48,0.23-0.78,0.71-0.94c0.32-0.1,0.65-0.16,1-0.13c0.42,0,0.78,0.32,0.81,0.78
				c0,0.13,0.03,0.29,0.03,0.42c-0.03,1.19-0.03,2.39-0.06,3.62c0,0.19-0.03,0.42,0,0.61c0.13,1.55,0.03,3.1,0.06,4.49
				C30.83,51.48,30.83,52.54,30.83,53.61z"/>
			<path class="st0" d="M61.32,62.14c0,0.16,0,0.32-0.03,0.48c0,0.16-0.16,0.32-0.29,0.36c-0.03,0-0.06,0.03-0.1,0.03
				c-0.68-0.03-1.32-0.06-1.97-0.1c-0.13,0-0.26-0.1-0.29-0.23c-0.03-0.19-0.1-0.39-0.1-0.58c-0.06-1.45-0.1-2.87-0.16-4.3
				c0-0.13,0-0.26-0.03-0.39c-0.13-0.65-0.1-1.26-0.1-1.91c-0.03-1.26-0.06-2.52-0.1-3.78c-0.03-0.23-0.03-0.48,0-0.71
				c0.1-0.81,0.06-1.58-0.03-2.39c-0.06-0.65-0.06-1.32-0.03-1.97c0.03-0.52,0.06-1-0.03-1.52c0-0.23-0.03-0.45,0-0.68
				c0.13-0.65,0.06-1.26,0.06-1.91c0-0.42,0.03-0.87,0.06-1.29c0-0.26,0.16-0.42,0.39-0.52c0.36-0.19,0.74-0.19,1.13-0.19
				c0.65-0.03,0.9,0.13,0.94,0.87c0.03,0.32,0.03,0.65,0.03,0.97c0,1.23,0.19,2.39,0.32,3.59c0.03,0.36,0.06,0.74,0.06,1.1
				c0,0.9,0.06,1.81,0.19,2.68c0,0.13,0,0.26,0.03,0.39c0.06,1.61,0.16,3.2,0.16,4.81c-0.03,0.9-0.1,1.84-0.13,2.68
				C61.32,59.2,61.32,60.68,61.32,62.14z"/>
			<path class="st0" d="M88,57.87c0,0.48,0.03,0.97,0.06,1.45c0,1.03,0,2.07,0,3.07c0,0.19-0.03,0.35-0.06,0.55
				c0,0.1-0.16,0.23-0.26,0.26c-0.06,0.03-0.13,0.06-0.19,0.06c-0.68,0-1.32,0-1.97,0c-0.23,0-0.39-0.16-0.45-0.39
				c-0.06-0.19-0.1-0.39-0.1-0.61c-0.03-0.71-0.03-1.39,0-2.1c0-0.68,0-1.36-0.06-2c-0.03-0.52-0.03-1-0.03-1.49
				c0.03-1.2-0.1-2.39-0.1-3.59c0-0.19-0.03-0.35-0.03-0.55c-0.03-1.68-0.03-3.36-0.06-5.07c-0.03-1.26-0.13-2.52-0.19-3.78
				c-0.03-0.19-0.16-0.32-0.36-0.32c-0.94-0.03-1.84-0.19-2.78-0.16c-0.58,0-1.16-0.03-1.74-0.07c-0.29-0.03-0.42-0.23-0.45-0.52
				c0-0.1,0-0.19,0-0.32c0.03-0.45,0.06-0.9,0.1-1.36c0.03-0.32,0.23-0.52,0.52-0.61c0.13-0.06,0.26-0.1,0.39-0.1
				c0.81,0,1.58,0,2.39-0.03c0.03,0,0.06,0.03,0.1,0.03c1.94-0.03,3.84,0.13,5.78,0.19c0.16,0,0.36,0,0.52,0
				c1.29,0.03,2.62,0.03,3.91,0.03c0.39,0,0.78,0.03,1.13,0.16c0.32,0.1,0.55,0.32,0.61,0.65c0.03,0.45,0.06,0.94,0.06,1.39
				c0,0.23-0.16,0.39-0.39,0.45c-0.13,0.07-0.32,0.1-0.48,0.07c-0.65,0-1.29,0.1-1.97,0.16c-0.9,0.1-1.84,0.16-2.78,0.13
				c-0.29-0.03-0.61,0.03-0.9,0.07c-0.19,0-0.29,0.16-0.29,0.39c0.16,1.97,0.07,3.94,0.1,5.91c0,1.13,0,2.26,0,3.39
				C88,54.77,88,56.32,88,57.87z"/>
			<path class="st0" d="M112.91,46.89c0.06-0.23,0.13-0.45,0.23-0.68c0.36-0.81,0.78-1.61,1.32-2.33c0.32-0.39,0.74-0.71,1.16-1
				c0.39-0.32,0.81-0.61,1.26-0.9c0.78-0.45,1.52-0.9,2.39-1.19c0.19-0.07,0.39-0.13,0.58-0.23c0.29-0.13,0.58-0.19,0.87-0.26
				c1.2-0.23,2.39-0.26,3.59,0.06c0.19,0.07,0.39,0.13,0.61,0.16c0.74,0.13,1.45,0.39,2.07,0.87c0.13,0.1,0.29,0.16,0.45,0.23
				c0.39,0.16,0.78,0.29,1.16,0.45c0.68,0.32,1.32,0.71,1.84,1.29c0.13,0.16,0.29,0.29,0.42,0.45c0.55,0.58,1,1.2,1.32,1.97
				c0.32,0.81,0.65,1.65,0.94,2.49c0.48,1.49,0.65,2.97,0.48,4.49c-0.13,1.2-0.39,2.39-0.68,3.55c-0.35,1.55-1.2,2.84-2.16,4.07
				c-0.13,0.16-0.29,0.29-0.45,0.42c-0.87,0.71-1.87,1.26-2.97,1.55c-0.48,0.13-0.9,0.32-1.39,0.39c-1.55,0.26-3.1,0.26-4.62,0
				c-0.48-0.06-0.97-0.13-1.42-0.26c-0.29-0.1-0.58-0.13-0.78-0.26c-0.52-0.32-1.03-0.55-1.55-0.84c-0.87-0.45-1.62-1.07-2.36-1.68
				c-0.74-0.64-1.29-1.42-1.65-2.33c-0.29-0.84-0.52-1.71-0.71-2.58c-0.32-1.29-0.36-2.58-0.36-3.26
				C112.49,49.54,112.59,48.21,112.91,46.89z M115.82,54.22c0,0.42,0.06,0.81,0.26,1.2c0.23,0.48,0.48,0.97,0.87,1.39
				c0.61,0.71,1.32,1.29,2.13,1.74c0.26,0.16,0.52,0.32,0.81,0.49c0.55,0.26,1.07,0.61,1.71,0.61c0.13,0,0.23,0.03,0.32,0.03
				c1.13,0.26,2.26,0.19,3.36-0.1c0.16-0.06,0.32-0.13,0.48-0.16c0.52-0.06,1-0.29,1.45-0.48c0.65-0.29,1.1-0.71,1.49-1.26
				c0.42-0.55,0.78-1.13,1.07-1.75c0.45-1.03,0.74-2.07,0.84-3.17c0.16-1.39,0-2.75-0.32-4.1c-0.16-0.78-0.55-1.49-0.94-2.16
				c-0.13-0.26-0.32-0.45-0.58-0.58c-0.58-0.39-1.13-0.74-1.71-1.13c-0.55-0.32-1.13-0.55-1.71-0.68c-1.03-0.23-2.04-0.42-3.07-0.55
				c-0.13,0-0.26-0.03-0.39,0c-0.84,0.1-1.65,0.23-2.42,0.52c-0.45,0.19-0.84,0.42-1.19,0.81c-0.68,0.81-1.29,1.68-1.75,2.65
				c-0.39,0.81-0.61,1.68-0.78,2.55c-0.03,0.16-0.03,0.36-0.03,0.52c0.13,0.68,0.06,1.39,0.1,2.1
				C115.82,53.19,115.79,53.71,115.82,54.22z"/>
			<path class="st0" d="M165.79,58.45c0.42,1,0.81,1.97,1.2,2.97c0.13,0.29,0.16,0.61,0.23,0.9c0.07,0.29-0.16,0.55-0.45,0.58
				c-0.1,0-0.19,0-0.29,0c-0.74-0.06-1.45-0.1-2.17-0.16c-0.19-0.03-0.32-0.13-0.39-0.29c-0.39-0.78-0.74-1.58-1.03-2.39
				c-0.16-0.48-0.35-0.97-0.61-1.42c-0.48-0.81-0.81-1.65-1.2-2.52c-0.26-0.61-0.55-1.26-0.81-1.87c-0.03-0.06-0.1-0.1-0.16-0.16
				c-0.32-0.13-0.68-0.06-1-0.06c-1.29,0.06-2.55,0.1-3.84-0.03c-0.13,0-0.26,0.13-0.26,0.26c-0.03,0.81-0.06,1.58-0.1,2.39
				c0,0.81-0.03,1.65-0.03,2.46c0,0.61,0,1.26-0.13,1.87c-0.06,0.29-0.03,0.61-0.03,0.91c0,0.23,0,0.42-0.03,0.64
				c0,0.19-0.19,0.39-0.39,0.39c-0.87,0-1.71-0.03-2.58-0.06c-0.06,0-0.16-0.13-0.19-0.19c-0.03-0.13-0.03-0.29-0.03-0.42
				c0-0.84,0-1.71,0-2.58c0-0.26-0.03-0.55-0.03-0.81c0-0.36,0.03-0.71,0.03-1.03c0.03-0.58,0.06-1.16,0.1-1.78
				c0.03-0.97-0.03-1.97,0.06-2.97c0.03-0.13,0-0.29,0-0.42c-0.1-1.74-0.06-3.52,0.1-5.27c0.03-0.61,0.03-1.23,0.06-1.87
				c0.06-1.36,0.13-2.75,0.19-4.1c0.03-0.45,0.26-0.71,0.58-0.94c0.1-0.07,0.19-0.07,0.29-0.07c0.45,0,0.9,0,1.36,0.03
				c0.68,0.03,1.36,0.13,2.04,0.16c0.45,0.03,0.9,0.03,1.36,0.03c1.55-0.03,3.1-0.06,4.65-0.1c0.55,0,1.1,0.1,1.61,0.29
				c0.16,0.06,0.32,0.13,0.48,0.19c1.2,0.36,1.97,1.23,2.52,2.29c0.32,0.71,0.55,1.42,0.71,2.16c0.03,0.19,0.06,0.42,0.03,0.61
				c-0.03,1-0.06,2-0.1,3c-0.03,0.97-0.39,1.81-0.94,2.58c-0.32,0.45-0.65,0.87-1.03,1.29c-0.35,0.36-0.78,0.68-1.29,0.84
				c-0.13,0.03-0.23,0.13-0.45,0.23C164.5,55.58,165.15,57,165.79,58.45z M156.23,51.28c0.71,0,1.45,0.03,2.16,0.06
				c0.65,0,1.29,0,1.97,0c1.07,0.03,2.04-0.23,2.84-1c0-0.03,0.03-0.06,0.06-0.06c0.74-0.52,1.03-1.29,1.13-2.13
				c0.07-0.74,0-1.52-0.19-2.26c-0.1-0.36-0.26-0.71-0.48-1c-0.19-0.26-0.42-0.48-0.71-0.58c-0.77-0.29-1.55-0.58-2.39-0.65
				c-0.94-0.1-1.84-0.03-2.78-0.06c-0.9-0.03-1.81,0.1-2.68,0.13c-0.13,0.03-0.29,0.16-0.29,0.29c0,0.29,0,0.61,0,0.9
				c0,0.52,0.03,1.03,0.03,1.55c0,1.16-0.03,2.36-0.03,3.52c0,0.36,0.03,0.68,0.03,1.07C155.39,51.25,155.81,51.28,156.23,51.28z"/>
			<path class="st0" d="M202.42,62.59c-0.16-0.26-0.29-0.55-0.42-0.84c-0.26-0.78-0.58-1.52-0.97-2.26
				c-0.35-0.74-0.71-1.49-0.97-2.29c-0.06-0.26-0.23-0.48-0.32-0.74c-0.06-0.13-0.19-0.19-0.35-0.19c-1,0.03-2-0.03-2.97,0.16
				c-0.26,0.03-0.48,0.06-0.74,0.06c-1.52,0-3.07,0-4.62-0.03c-0.29,0-0.48,0.13-0.58,0.35c-0.26,0.68-0.58,1.32-0.94,1.94
				c-0.06,0.1-0.13,0.19-0.13,0.29c-0.36,1.13-1,2.13-1.45,3.2c0,0.03-0.03,0.06-0.03,0.1c-0.19,0.45-0.52,0.71-1,0.78
				c-0.23,0.03-0.42,0.07-0.61,0.07c-0.42,0.03-0.68-0.26-0.78-0.58c-0.1-0.32-0.1-0.68,0.03-1c0-0.03,0.03-0.06,0.03-0.1
				c0.61-1.16,0.94-2.45,1.36-3.68c0.42-1.1,0.87-2.17,1.32-3.23c0.55-1.26,1.1-2.52,1.68-3.78c0.65-1.45,1.26-2.91,1.84-4.39
				c0.29-0.78,0.65-1.52,0.97-2.26c0.36-0.9,0.74-1.78,1.13-2.68c0.03-0.13,0.1-0.26,0.16-0.36c0.29-0.61,0.87-0.87,1.52-0.65
				c0.13,0.03,0.26,0.13,0.36,0.23c0.13,0.16,0.23,0.32,0.32,0.52c0.32,0.84,0.74,1.62,1.03,2.49c0.06,0.23,0.19,0.45,0.29,0.65
				c0.32,0.65,0.61,1.32,0.84,2c0.32,0.84,0.71,1.65,1.03,2.46c0.26,0.55,0.48,1.1,0.71,1.62c0.39,0.94,0.9,1.78,1.39,2.65
				c0.39,0.62,0.68,1.29,0.9,1.97c0.29,0.87,0.65,1.74,0.97,2.62c0.29,0.84,0.58,1.68,0.9,2.52c0.1,0.29,0.19,0.58,0.32,0.87
				c0.23,0.45,0.39,0.97,0.48,1.45c0.06,0.32-0.1,0.65-0.42,0.74c-0.1,0.03-0.19,0.06-0.29,0.06c-0.16,0.03-0.35,0.03-0.52,0.06
				C203.23,63.43,202.78,63.11,202.42,62.59z M195.71,53.25c0.68,0,1.36,0,2.07,0c0.06,0,0.13-0.03,0.19-0.03
				c0.13,0,0.26-0.16,0.19-0.26c-0.23-0.52-0.45-1.03-0.68-1.52c-0.29-0.61-0.58-1.23-0.87-1.87c-0.29-0.71-0.55-1.49-0.81-2.23
				c-0.19-0.52-0.36-1.03-0.65-1.49c0-0.03-0.03-0.1-0.06-0.06c-0.06,0-0.13,0.03-0.16,0.06c-0.06,0.1-0.1,0.19-0.16,0.29
				c-0.55,1.49-1.19,2.97-1.71,4.52c-0.23,0.65-0.48,1.26-0.74,1.91c-0.06,0.16-0.1,0.32-0.16,0.48c0,0.06,0.1,0.23,0.16,0.23
				c0.1,0.03,0.23,0.06,0.29,0.03c0.84-0.19,1.65-0.13,2.49-0.1c0.19,0.03,0.39,0,0.61,0V53.25z"/>
		</g>
		<g>
			<g>
				<path class="st0" d="M223.42,50.22c0.03-1.39-0.06-2.94,0.06-4.49c0.03-0.19,0-0.42,0-0.61c-0.03-1.23-0.03-2.42-0.06-3.62
					c0-0.13,0.03-0.29,0.03-0.42c0.03-0.45,0.39-0.78,0.81-0.78c0.36-0.03,0.68,0.03,1,0.13c0.48,0.16,0.71,0.45,0.71,0.94
					c0.03,0.26,0,0.55,0.03,0.81c0,0.48-0.03,0.97,0.03,1.45c0.1,0.61,0.1,1.23,0.1,1.84c0.03,1.84,0.03,3.65,0.06,5.49
					c0,0.23,0,0.48,0.06,0.71c0.1,0.42,0.1,0.81,0.1,1.23c0,1.62,0.03,3.26,0.03,4.88c0,1.16-0.03,2.33-0.03,3.49
					c0,0.13,0,0.23-0.03,0.32c-0.23,0.78-0.42,1.1-1.32,1.23c-0.03,0.03-0.06,0.03-0.1,0.03c-0.9,0-1.78,0.1-2.68-0.1
					c-0.26-0.03-0.55-0.06-0.81-0.06c-1.65-0.03-3.33-0.1-4.97-0.03c-0.48,0.03-0.97,0-1.45-0.03c-0.1,0-0.19-0.03-0.29-0.06
					c-0.19-0.06-0.39-0.16-0.45-0.36c-0.23-0.45-0.29-0.94-0.23-1.42c0.03-0.26,0.26-0.52,0.55-0.55c0.13,0,0.26,0,0.42-0.03
					c0.71-0.03,1.42-0.03,2.16-0.1c0.87-0.1,1.78-0.13,2.68-0.13c0.61,0,1.23,0,1.84,0c0.45-0.03,0.9-0.06,1.36-0.1
					c0.23,0,0.36-0.16,0.36-0.42c0-0.03,0-0.06,0-0.1c0.03-1.16,0.06-2.33,0.1-3.52c0-0.74-0.06-1.49-0.06-2.26
					C223.42,52.52,223.42,51.45,223.42,50.22z"/>
			</g>
		</g>
	</g>
	<g>
		<path class="st0" d="M54.75,87.86c-0.23-0.36-0.43-0.75-0.81-1.02c-0.04-0.03-0.06-0.12-0.04-0.16c0.06-0.12,0.12-0.22,0.17-0.33
			c0.06-0.09,0.12-0.19,0.16-0.29c0.19-0.6,0.32-1.22,0.25-1.86c-0.04-0.35-0.12-0.68-0.25-0.99c-0.1-0.23-0.2-0.45-0.39-0.62
			c-0.09-0.07-0.15-0.16-0.22-0.25c-0.12-0.13-0.25-0.25-0.39-0.33c-0.22-0.12-0.45-0.18-0.67-0.32c-0.03-0.01-0.09-0.03-0.13-0.03
			c-0.42-0.04-0.83-0.13-1.25-0.1c-0.06,0.01-0.13,0.01-0.19,0c-0.65-0.03-1.29,0-1.94,0.09c-0.16,0.03-0.27,0.12-0.35,0.26
			c-0.06,0.12-0.09,0.23-0.09,0.36c0.03,0.78,0.04,1.57,0.06,2.38c0.04,0.46,0.01,0.94,0.06,1.42c0.06,0.48,0.09,0.96,0.1,1.44
			c0.03,0.61,0.03,1.23,0.03,1.86c0.01,0.27,0,0.55,0,0.83c0,0.33,0.03,0.65,0.07,0.97c0.03,0.13,0.07,0.25,0.1,0.36
			c0.04,0.09,0.13,0.15,0.22,0.15c0.09,0,0.19-0.01,0.28-0.03c0.16-0.01,0.3-0.03,0.46-0.04c0.17-0.01,0.33-0.01,0.51-0.01
			c0.38-0.01,0.74-0.04,1.12-0.04c0.35-0.01,0.71-0.01,1.06-0.04c0.32-0.03,0.65-0.04,0.97-0.09c0.38-0.06,0.71-0.22,0.94-0.54
			c0.17-0.26,0.28-0.57,0.3-0.87c0.03-0.32,0.01-0.65-0.01-0.97c0-0.17-0.01-0.33,0.01-0.51C54.92,88.28,54.88,88.05,54.75,87.86z
			 M50.09,83.78v-0.65c0-0.09,0.07-0.16,0.15-0.16c0.16-0.01,0.3-0.01,0.46-0.03c0.17,0,0.33,0.01,0.51,0.01
			c0.41-0.01,0.77,0.1,1.07,0.35c0.15,0.12,0.29,0.25,0.42,0.38c0.04,0.03,0.07,0.09,0.1,0.15c0.12,0.35,0.2,0.68,0.17,1.04
			c-0.01,0.03-0.01,0.06-0.01,0.1c0.01,0.29-0.13,0.54-0.29,0.76c-0.07,0.12-0.17,0.19-0.3,0.2c-0.22,0.02-0.42,0.09-0.64,0.09
			c-0.13,0-0.25,0.03-0.36,0.06c-0.35,0.06-0.68,0.04-1.01,0c-0.06,0-0.13-0.06-0.13-0.12c-0.01-0.19-0.04-0.38-0.04-0.55
			c-0.03-0.33-0.04-0.65-0.06-0.97c-0.01-0.22,0-0.43,0-0.65H50.09z M53.11,90.02c-0.27,0.2-0.61,0.3-0.94,0.35
			c-0.2,0.01-0.41,0.01-0.61,0.03c-0.39,0.04-0.77-0.07-1.15-0.09c-0.07-0.01-0.13-0.07-0.13-0.16c-0.01-0.22-0.01-0.43-0.01-0.65
			c0-0.42,0-0.84-0.07-1.25c-0.03-0.19-0.02-0.38-0.03-0.55c-0.01-0.29,0.03-0.32,0.3-0.36c0.67-0.1,1.33-0.06,1.97,0.17
			c0.18,0.07,0.32,0.17,0.44,0.32c0.25,0.3,0.43,0.61,0.51,0.99c0.04,0.23,0.04,0.46,0.01,0.7C53.38,89.72,53.28,89.89,53.11,90.02z
			"/>
		<path class="st0" d="M62.92,81.46c-0.19-0.01-0.38-0.04-0.55-0.04c-0.51,0-1.03-0.04-1.54,0.03c-0.07,0.01-0.14,0.01-0.23,0.01
			c-0.49,0-0.99,0-1.48,0.03c-0.45,0.03-0.9,0.04-1.35,0.06c-0.09,0.02-0.17,0.03-0.26,0.06c-0.1,0.03-0.16,0.09-0.17,0.19
			c-0.01,0.18-0.03,0.33-0.04,0.49c-0.04,0.54-0.06,1.06,0.01,1.6c0.01,0.12,0.01,0.25,0.01,0.36c-0.01,1.07-0.01,2.15-0.03,3.22
			v1.19c0,0.23-0.01,0.45,0.01,0.68c0.01,0.29,0.01,0.56,0,0.86c-0.01,0.32-0.03,0.64,0.01,0.96c0.01,0.17,0.12,0.29,0.28,0.33
			c0.25,0.07,0.51,0.14,0.77,0.16c0.62,0.04,1.23,0.07,1.86,0.04c0.54-0.03,1.07-0.03,1.62-0.04c0.32,0,0.64-0.03,0.97-0.04
			c0.07,0,0.15-0.06,0.17-0.13c0.03-0.07,0.07-0.15,0.07-0.22c0.01-0.15,0.01-0.29,0.01-0.45c-0.01-0.26-0.06-0.28-0.29-0.35
			c-0.07-0.03-0.14-0.03-0.22-0.03c-0.25-0.03-0.49-0.04-0.74-0.07c-0.3-0.03-0.6-0.03-0.89,0.01c-0.14,0.01-0.28,0.01-0.42-0.01
			c-0.19-0.04-0.39-0.04-0.6-0.03h-0.78c-0.13,0-0.2-0.07-0.26-0.17c-0.04-0.09-0.06-0.2-0.06-0.3c-0.01-0.17-0.01-0.36-0.03-0.54
			c0-0.61-0.01-1.22,0.03-1.83c0-0.1,0.06-0.16,0.17-0.16c0.33-0.03,0.65-0.07,0.97-0.07c0.45-0.03,0.9-0.03,1.35-0.03
			c0.16,0,0.3-0.04,0.45-0.09c0.07-0.02,0.1-0.07,0.12-0.13c0.06-0.25,0.09-0.51,0.06-0.77c0-0.09-0.09-0.17-0.17-0.17
			c-0.38,0-0.75-0.03-1.12,0.03c-0.16,0.03-0.31,0.03-0.46,0c-0.22-0.04-0.43-0.03-0.64,0c-0.19,0.01-0.38,0.03-0.57,0.04
			c-0.07,0-0.15-0.06-0.15-0.13c0-0.07-0.01-0.16-0.01-0.23v-2.68V83c0.01-0.06,0.04-0.09,0.09-0.1c0.06-0.02,0.13-0.02,0.19-0.02
			h1.02c0.52,0,1.06-0.03,1.58-0.09c0.35-0.04,0.7-0.09,1.06-0.09c0.07,0.01,0.16,0,0.23-0.03c0.06-0.01,0.1-0.06,0.12-0.12
			c0.01-0.04,0.03-0.09,0.03-0.13c-0.01-0.26-0.03-0.52-0.04-0.78C63.08,81.56,63.01,81.47,62.92,81.46z"/>
		<path class="st0" d="M73.95,90.27c-0.15-0.38-0.28-0.75-0.41-1.13c-0.15-0.39-0.3-0.78-0.44-1.18c-0.1-0.3-0.23-0.61-0.41-0.88
			c-0.22-0.39-0.45-0.77-0.62-1.19c-0.1-0.23-0.2-0.48-0.32-0.73c-0.14-0.36-0.32-0.73-0.46-1.1c-0.1-0.31-0.23-0.61-0.38-0.9
			c-0.04-0.09-0.1-0.19-0.13-0.29c-0.13-0.39-0.32-0.74-0.46-1.12c-0.04-0.09-0.09-0.16-0.15-0.23c-0.04-0.04-0.1-0.09-0.16-0.1
			c-0.29-0.1-0.55,0.01-0.68,0.29c-0.03,0.04-0.06,0.1-0.07,0.16c-0.17,0.41-0.35,0.8-0.51,1.2c-0.15,0.33-0.3,0.67-0.44,1.02
			c-0.26,0.67-0.54,1.32-0.83,1.97c-0.26,0.57-0.51,1.13-0.75,1.7c-0.2,0.48-0.41,0.96-0.6,1.45c-0.19,0.55-0.33,1.13-0.61,1.65
			c0,0.01-0.01,0.03-0.01,0.04c-0.06,0.15-0.06,0.3-0.01,0.45c0.04,0.14,0.16,0.28,0.35,0.26c0.09,0,0.17-0.02,0.27-0.03
			c0.22-0.03,0.36-0.15,0.45-0.35c0-0.01,0.01-0.03,0.01-0.04c0.2-0.48,0.49-0.93,0.65-1.44c0-0.04,0.03-0.09,0.06-0.13
			c0.16-0.28,0.31-0.57,0.42-0.87c0.04-0.1,0.13-0.16,0.26-0.16c0.7,0.01,1.39,0.01,2.07,0.01c0.12,0,0.22-0.01,0.33-0.03
			c0.43-0.09,0.88-0.06,1.33-0.07c0.07,0,0.13,0.03,0.16,0.09c0.04,0.12,0.12,0.22,0.14,0.33c0.12,0.36,0.28,0.7,0.44,1.03
			c0.17,0.33,0.32,0.67,0.43,1.01c0.06,0.13,0.12,0.26,0.19,0.38c0.16,0.23,0.36,0.38,0.67,0.35c0.07-0.01,0.16-0.01,0.23-0.03
			c0.04,0,0.09-0.01,0.13-0.03c0.15-0.04,0.22-0.19,0.19-0.33c-0.04-0.22-0.12-0.45-0.22-0.65C74.03,90.53,73.99,90.4,73.95,90.27z
			 M71.09,87.15c-0.03,0-0.06,0.01-0.09,0.01h-0.93v-0.01c-0.1,0-0.19,0.01-0.28,0c-0.38-0.01-0.74-0.04-1.12,0.04
			c-0.03,0.01-0.09,0-0.13-0.01c-0.03,0-0.07-0.07-0.07-0.1c0.03-0.07,0.04-0.15,0.07-0.22c0.12-0.29,0.23-0.57,0.33-0.85
			c0.23-0.7,0.52-1.36,0.77-2.03c0.03-0.04,0.04-0.09,0.07-0.13c0.01-0.01,0.04-0.03,0.07-0.03c0.01-0.01,0.03,0.02,0.03,0.03
			c0.13,0.2,0.2,0.44,0.29,0.67c0.12,0.33,0.23,0.68,0.36,1c0.13,0.29,0.26,0.57,0.39,0.84c0.1,0.22,0.2,0.45,0.3,0.68
			C71.21,87.08,71.15,87.15,71.09,87.15z"/>
		<path class="st0" d="M83.67,89.98c-0.04-0.1-0.12-0.16-0.22-0.16c-0.19-0.03-0.36-0.03-0.54,0.06c-0.2,0.07-0.42,0.13-0.64,0.15
			c-0.35,0.03-0.71,0.06-1.06,0.1c-0.45,0.03-0.88,0.01-1.33-0.07c-0.35-0.06-0.65-0.2-0.93-0.39c-0.07-0.04-0.12-0.1-0.19-0.13
			c-0.28-0.12-0.48-0.33-0.68-0.55c-0.04-0.04-0.09-0.09-0.12-0.14c-0.23-0.41-0.44-0.81-0.51-1.28c-0.03-0.2-0.04-0.41-0.01-0.61
			c0.06-0.35,0.13-0.7,0.28-1.02c0.15-0.35,0.28-0.7,0.49-1c0.2-0.28,0.41-0.55,0.65-0.78c0.28-0.28,0.59-0.51,0.97-0.61
			c0.39-0.1,0.77-0.23,1.16-0.3c0.27-0.04,0.57-0.06,0.84-0.04c0.23,0.01,0.45,0.06,0.68,0.1c0.23,0.03,0.46,0.07,0.68,0.12
			c0.15,0.02,0.25-0.06,0.28-0.2c0.01-0.09,0.03-0.17,0.03-0.28c0.02-0.14,0.02-0.3,0.04-0.45c0.03-0.1-0.01-0.19-0.09-0.26
			c-0.1-0.12-0.23-0.19-0.36-0.28c-0.29-0.2-0.59-0.32-0.96-0.3h-0.46c-0.35-0.01-0.71-0.01-1.06,0.04
			c-0.52,0.1-1.03,0.25-1.51,0.43c-0.64,0.26-1.16,0.65-1.64,1.12c-0.3,0.29-0.54,0.64-0.78,0.99c-0.17,0.26-0.32,0.55-0.45,0.86
			c-0.14,0.36-0.23,0.73-0.31,1.12c-0.07,0.39-0.07,0.8-0.03,1.19c0.04,0.39,0.16,0.75,0.26,1.13c0.1,0.39,0.26,0.75,0.45,1.12
			c0.1,0.17,0.2,0.35,0.35,0.48c0.19,0.18,0.36,0.35,0.55,0.51c0.7,0.58,1.49,0.93,2.41,0.97c0.29,0.03,0.59,0.04,0.89,0.07
			c0.12,0,0.25,0,0.36-0.02c0.16,0,0.32-0.01,0.46-0.03c0.13-0.02,0.25-0.02,0.38-0.04c0.39-0.09,0.78-0.13,1.19-0.17
			c0.13,0,0.28-0.03,0.41-0.07c0.18-0.07,0.28-0.22,0.23-0.41c-0.04-0.26-0.12-0.51-0.12-0.78C83.73,90.08,83.7,90.02,83.67,89.98z"
			/>
		<path class="st0" d="M93.09,86.29v-1.93c0-0.43-0.01-0.88-0.03-1.32c-0.01-0.48-0.03-0.94-0.04-1.42c0-0.06-0.01-0.12-0.03-0.17
			c-0.01-0.12-0.15-0.23-0.26-0.22c-0.2,0.02-0.41,0.03-0.6,0.07c-0.16,0.03-0.25,0.13-0.29,0.26c-0.03,0.1-0.06,0.22-0.06,0.32
			c-0.02,0.16-0.02,0.3,0,0.46c0,0.25,0.01,0.51,0.01,0.77c0,0.1,0,0.19,0.01,0.28c0.04,0.26,0.03,0.52,0.03,0.78
			c0,0.15,0.01,0.31,0.01,0.45v0.83c0,0.04-0.07,0.12-0.13,0.12c-0.04,0.02-0.09,0.03-0.13,0.03c-0.22,0.01-0.44,0.01-0.65,0.01
			c-0.86,0-1.7,0-2.55,0.09c-0.07,0.01-0.15,0.03-0.23,0.01c-0.09,0-0.17-0.03-0.26-0.04c-0.12-0.03-0.16-0.09-0.17-0.19
			c-0.01-0.39-0.03-0.77-0.03-1.15c-0.01-0.51,0-1.02,0-1.51c0-0.14,0-0.27,0.03-0.42c0.06-0.31,0.04-0.61,0.03-0.91
			c0-0.07-0.06-0.13-0.12-0.17c-0.09-0.06-0.17-0.09-0.26-0.09c-0.23,0.03-0.46,0.04-0.7,0.09c-0.15,0.01-0.28,0.17-0.29,0.32
			c-0.01,0.1-0.01,0.22-0.01,0.32c-0.02,0.61-0.03,1.22-0.04,1.83c0,0.04,0.01,0.09,0,0.15c-0.04,0.43-0.03,0.87,0,1.32
			c0.01,0.26,0.03,0.52,0.03,0.77c0,0.14-0.03,0.27-0.04,0.42c-0.02,0.62-0.03,1.25-0.04,1.87c-0.02,0.1-0.02,0.22-0.02,0.32
			c-0.04,0.38-0.07,0.77-0.01,1.15v0.13c-0.01,0.36-0.03,0.74-0.06,1.1c0,0.07,0,0.15,0.01,0.23c0.03,0.16,0.13,0.28,0.31,0.3
			c0.3,0.04,0.61,0.04,0.91,0.02c0.09-0.02,0.16-0.1,0.16-0.2c0.01-0.44,0.06-0.89,0.09-1.32c0.04-0.52,0.13-1.03,0.1-1.55
			c0-0.04,0-0.09,0.01-0.13c0.04-0.29,0.04-0.58,0.04-0.87c0.01-0.12,0.01-0.22,0.01-0.32c0.01-0.06,0.09-0.13,0.13-0.13
			c0.03,0,0.06-0.01,0.09-0.01c0.8-0.03,1.61-0.06,2.41,0c0.36,0.01,0.71,0.04,1.07,0.07c0.07,0,0.13,0.07,0.13,0.15
			c0,0.04,0.02,0.07,0.02,0.1c-0.02,0.54,0,1.06,0.04,1.6c0.03,0.33,0.03,0.67,0.03,1c0.01,0.38,0.03,0.74,0.03,1.1
			c0,0.18,0.03,0.33,0.09,0.49c0.04,0.13,0.13,0.22,0.26,0.23c0.2,0.04,0.41,0.03,0.61,0c0.16-0.03,0.29-0.17,0.32-0.35
			c0.02-0.15,0.03-0.3,0.03-0.45c0-0.41-0.01-0.8,0.03-1.19c0.03-0.26,0.04-0.52,0.04-0.78c-0.01-0.55-0.01-1.1-0.04-1.64
			C93.09,86.99,93.09,86.64,93.09,86.29z"/>
		<path class="st0" d="M108.48,90.27c-0.15-0.38-0.28-0.75-0.41-1.13c-0.15-0.39-0.3-0.78-0.44-1.18c-0.1-0.3-0.23-0.61-0.41-0.88
			c-0.22-0.39-0.45-0.77-0.62-1.19c-0.1-0.23-0.2-0.48-0.32-0.73c-0.14-0.36-0.32-0.73-0.46-1.1c-0.1-0.31-0.23-0.61-0.38-0.9
			c-0.04-0.09-0.1-0.19-0.13-0.29c-0.13-0.39-0.32-0.74-0.46-1.12c-0.04-0.09-0.09-0.16-0.15-0.23c-0.04-0.04-0.1-0.09-0.16-0.1
			c-0.29-0.1-0.55,0.01-0.68,0.29c-0.03,0.04-0.06,0.1-0.07,0.16c-0.17,0.41-0.35,0.8-0.51,1.2c-0.15,0.33-0.3,0.67-0.44,1.02
			c-0.26,0.67-0.54,1.32-0.83,1.97c-0.26,0.57-0.51,1.13-0.75,1.7c-0.2,0.48-0.41,0.96-0.6,1.45c-0.19,0.55-0.33,1.13-0.61,1.65
			c0,0.01-0.01,0.03-0.01,0.04c-0.06,0.15-0.06,0.3-0.01,0.45c0.04,0.14,0.16,0.28,0.35,0.26c0.09,0,0.17-0.02,0.28-0.03
			c0.22-0.03,0.36-0.15,0.45-0.35c0-0.01,0.01-0.03,0.01-0.04c0.2-0.48,0.49-0.93,0.65-1.44c0-0.04,0.03-0.09,0.06-0.13
			c0.16-0.28,0.31-0.57,0.42-0.87c0.04-0.1,0.13-0.16,0.26-0.16c0.7,0.01,1.39,0.01,2.07,0.01c0.12,0,0.22-0.01,0.33-0.03
			c0.43-0.09,0.88-0.06,1.33-0.07c0.07,0,0.13,0.03,0.16,0.09c0.04,0.12,0.12,0.22,0.14,0.33c0.12,0.36,0.28,0.7,0.44,1.03
			c0.17,0.33,0.32,0.67,0.43,1.01c0.06,0.13,0.12,0.26,0.19,0.38c0.16,0.23,0.36,0.38,0.67,0.35c0.07-0.01,0.16-0.01,0.23-0.03
			c0.04,0,0.09-0.01,0.13-0.03c0.15-0.04,0.22-0.19,0.19-0.33c-0.04-0.22-0.12-0.45-0.22-0.65
			C108.56,90.53,108.52,90.4,108.48,90.27z M105.62,87.15c-0.03,0-0.06,0.01-0.09,0.01h-0.93v-0.01c-0.1,0-0.19,0.01-0.28,0
			c-0.38-0.01-0.74-0.04-1.12,0.04c-0.03,0.01-0.09,0-0.13-0.01c-0.03,0-0.07-0.07-0.07-0.1c0.03-0.07,0.04-0.15,0.07-0.22
			c0.12-0.29,0.23-0.57,0.33-0.85c0.23-0.7,0.52-1.36,0.77-2.03c0.03-0.04,0.04-0.09,0.07-0.13c0.01-0.01,0.04-0.03,0.07-0.03
			c0.01-0.01,0.03,0.02,0.03,0.03c0.13,0.2,0.2,0.44,0.29,0.67c0.12,0.33,0.23,0.68,0.36,1c0.13,0.29,0.26,0.57,0.39,0.84
			c0.1,0.22,0.2,0.45,0.3,0.68C105.74,87.08,105.68,87.15,105.62,87.15z"/>
		<path class="st0" d="M116.66,81.69c-0.06-0.04-0.12-0.1-0.19-0.12c-0.35-0.09-0.7-0.17-1.06-0.16c-0.1,0.01-0.2,0.01-0.32-0.01
			c-0.19-0.04-0.39-0.07-0.58-0.1c-0.15-0.03-0.29-0.04-0.42-0.03c-0.3,0.03-0.61,0.07-0.93,0.01c-0.03,0-0.06,0.02-0.09,0.02
			c-0.27,0-0.55,0.01-0.84,0c-0.26-0.02-0.51,0.06-0.75,0.13c-0.09,0.03-0.13,0.09-0.16,0.16c-0.09,0.25-0.1,0.49-0.1,0.74
			c-0.01,0.14,0,0.3-0.01,0.46c-0.03,0.28-0.03,0.55-0.02,0.83c0.09,1.1,0.07,2.19,0.13,3.29c0.04,0.68,0.03,1.36,0.03,2.04
			c0,0.39,0,0.8,0.04,1.2c0.01,0.12,0,0.25,0,0.36c0.01,0.25,0.01,0.49,0.01,0.74c0.02,0.07,0.04,0.15,0.06,0.22
			c0.35,0.12,0.68,0.1,1.03,0.06c0.1,0,0.19-0.06,0.2-0.15c0.06-0.2,0.12-0.39,0.1-0.59c-0.04-0.41-0.04-0.8-0.04-1.2
			c-0.01-0.58-0.01-1.18-0.03-1.76c0-0.07,0.01-0.13,0.01-0.19c0-0.09,0.06-0.13,0.16-0.15c0.04,0,0.09-0.01,0.13-0.01
			c0.32-0.01,0.65-0.01,0.97-0.03c0.32-0.03,0.65-0.06,0.97-0.1c0.26-0.03,0.51-0.1,0.77-0.14c0.41-0.09,0.75-0.26,1.03-0.58
			c0.1-0.12,0.22-0.23,0.32-0.33c0.38-0.35,0.59-0.78,0.7-1.28c0.03-0.13,0.06-0.25,0.09-0.36c0.06-0.16,0.07-0.3,0.07-0.46v-0.42
			c0-0.29-0.07-0.58-0.2-0.84C117.51,82.42,117.13,82.03,116.66,81.69z M116.46,85.09c-0.09,0.28-0.25,0.49-0.46,0.67
			c-0.12,0.1-0.23,0.17-0.36,0.2c-0.13,0.04-0.25,0.09-0.36,0.1c-0.36,0.07-0.71,0.17-1.09,0.22c-0.42,0.04-0.83,0.04-1.25,0.04
			c-0.04,0-0.09-0.01-0.13-0.03c-0.03,0-0.06-0.03-0.07-0.06c-0.01-0.03-0.03-0.09-0.03-0.13c-0.02-0.26-0.03-0.52-0.04-0.78V84.3
			h-0.02v-1.44c0-0.06,0-0.13,0.03-0.19c0-0.03,0.06-0.09,0.09-0.09c0.22-0.02,0.44-0.03,0.64-0.03c0.58,0,1.15,0,1.73,0.01
			c0.15,0,0.3,0.03,0.45,0.06c0.52,0.12,0.83,0.45,0.97,0.96C116.69,84.09,116.64,84.59,116.46,85.09z"/>
		<path class="st0" d="M126.91,90.27c-0.15-0.38-0.28-0.75-0.41-1.13c-0.15-0.39-0.3-0.78-0.44-1.18c-0.1-0.3-0.23-0.61-0.41-0.88
			c-0.22-0.39-0.45-0.77-0.62-1.19c-0.1-0.23-0.2-0.48-0.32-0.73c-0.14-0.36-0.32-0.73-0.46-1.1c-0.1-0.31-0.23-0.61-0.38-0.9
			c-0.04-0.09-0.1-0.19-0.13-0.29c-0.13-0.39-0.32-0.74-0.46-1.12c-0.04-0.09-0.09-0.16-0.15-0.23c-0.04-0.04-0.1-0.09-0.16-0.1
			c-0.29-0.1-0.55,0.01-0.68,0.29c-0.03,0.04-0.06,0.1-0.07,0.16c-0.17,0.41-0.35,0.8-0.51,1.2c-0.15,0.33-0.3,0.67-0.44,1.02
			c-0.26,0.67-0.54,1.32-0.83,1.97c-0.26,0.57-0.51,1.13-0.75,1.7c-0.2,0.48-0.41,0.96-0.6,1.45c-0.19,0.55-0.33,1.13-0.61,1.65
			c0,0.01-0.01,0.03-0.01,0.04c-0.06,0.15-0.06,0.3-0.01,0.45c0.04,0.14,0.16,0.28,0.35,0.26c0.09,0,0.17-0.02,0.28-0.03
			c0.22-0.03,0.36-0.15,0.45-0.35c0-0.01,0.01-0.03,0.01-0.04c0.2-0.48,0.49-0.93,0.65-1.44c0-0.04,0.03-0.09,0.06-0.13
			c0.16-0.28,0.31-0.57,0.42-0.87c0.04-0.1,0.13-0.16,0.26-0.16c0.7,0.01,1.39,0.01,2.07,0.01c0.12,0,0.22-0.01,0.33-0.03
			c0.43-0.09,0.88-0.06,1.33-0.07c0.07,0,0.13,0.03,0.16,0.09c0.04,0.12,0.12,0.22,0.14,0.33c0.12,0.36,0.28,0.7,0.44,1.03
			c0.17,0.33,0.32,0.67,0.43,1.01c0.06,0.13,0.12,0.26,0.19,0.38c0.16,0.23,0.36,0.38,0.67,0.35c0.07-0.01,0.16-0.01,0.23-0.03
			c0.04,0,0.09-0.01,0.13-0.03c0.15-0.04,0.22-0.19,0.19-0.33c-0.04-0.22-0.12-0.45-0.22-0.65C127,90.53,126.95,90.4,126.91,90.27z
			 M124.05,87.15c-0.03,0-0.06,0.01-0.09,0.01h-0.93v-0.01c-0.1,0-0.19,0.01-0.28,0c-0.38-0.01-0.74-0.04-1.12,0.04
			c-0.03,0.01-0.09,0-0.13-0.01c-0.03,0-0.07-0.07-0.07-0.1c0.03-0.07,0.04-0.15,0.07-0.22c0.12-0.29,0.23-0.57,0.33-0.85
			c0.23-0.7,0.52-1.36,0.77-2.03c0.03-0.04,0.04-0.09,0.07-0.13c0.01-0.01,0.04-0.03,0.07-0.03c0.01-0.01,0.03,0.02,0.03,0.03
			c0.13,0.2,0.2,0.44,0.29,0.67c0.12,0.33,0.23,0.68,0.36,1c0.13,0.29,0.26,0.57,0.39,0.84c0.1,0.22,0.2,0.45,0.3,0.68
			C124.17,87.08,124.11,87.15,124.05,87.15z"/>
		<path class="st0" d="M136.55,82.69c-0.25-0.48-0.59-0.87-1.13-1.03c-0.07-0.03-0.15-0.06-0.22-0.09
			c-0.23-0.09-0.48-0.13-0.73-0.13c-0.7,0.01-1.39,0.03-2.09,0.04c-0.2,0-0.41,0-0.61-0.01c-0.3-0.01-0.61-0.06-0.91-0.07
			c-0.2-0.02-0.41-0.02-0.61-0.02c-0.04,0-0.09,0-0.13,0.03c-0.14,0.1-0.25,0.22-0.26,0.42c-0.03,0.61-0.06,1.23-0.09,1.84
			c-0.01,0.29-0.01,0.57-0.03,0.84c-0.07,0.78-0.09,1.58-0.04,2.37c0,0.06,0.01,0.13,0,0.19c-0.04,0.45-0.02,0.9-0.03,1.33
			c-0.01,0.28-0.03,0.54-0.04,0.8c0,0.15-0.01,0.31-0.01,0.46c0,0.12,0.01,0.25,0.01,0.36v1.16c0,0.06,0,0.13,0.02,0.19
			c0.01,0.03,0.06,0.09,0.09,0.09c0.39,0.01,0.77,0.03,1.16,0.03c0.09,0,0.17-0.09,0.17-0.17c0.01-0.1,0.01-0.19,0.01-0.29
			c0-0.13-0.01-0.28,0.02-0.41c0.06-0.28,0.06-0.57,0.06-0.84c0-0.36,0.01-0.74,0.01-1.1c0.01-0.36,0.03-0.71,0.04-1.07
			c0-0.06,0.06-0.12,0.12-0.12c0.58,0.06,1.15,0.04,1.73,0.01c0.14,0,0.3-0.03,0.45,0.03c0.03,0.03,0.06,0.04,0.07,0.07
			c0.12,0.27,0.25,0.57,0.36,0.84c0.17,0.39,0.32,0.77,0.54,1.13c0.12,0.2,0.2,0.42,0.28,0.64c0.13,0.36,0.29,0.73,0.46,1.07
			c0.03,0.07,0.09,0.12,0.17,0.13c0.32,0.03,0.64,0.04,0.97,0.07h0.13c0.13-0.01,0.23-0.13,0.2-0.26c-0.03-0.13-0.04-0.28-0.1-0.41
			c-0.17-0.45-0.35-0.88-0.54-1.33c-0.29-0.65-0.58-1.29-0.88-1.99c0.1-0.04,0.15-0.09,0.2-0.1c0.23-0.07,0.42-0.22,0.58-0.38
			c0.17-0.19,0.32-0.38,0.46-0.58c0.25-0.35,0.41-0.73,0.42-1.16c0.01-0.45,0.03-0.9,0.04-1.35c0.01-0.09,0-0.19-0.01-0.28
			C136.79,83.33,136.69,83.01,136.55,82.69z M134.92,85.83c-0.01,0-0.03,0.02-0.03,0.03c-0.36,0.35-0.8,0.46-1.28,0.45h-0.89
			c-0.32-0.02-0.65-0.03-0.97-0.03c-0.19,0-0.38-0.01-0.6-0.1c0-0.17-0.01-0.32-0.01-0.48c0-0.52,0.01-1.06,0.01-1.58
			c0-0.23-0.01-0.46-0.01-0.7v-0.41c0-0.06,0.07-0.12,0.13-0.13c0.39-0.01,0.8-0.07,1.2-0.06c0.42,0.02,0.83-0.01,1.25,0.03
			c0.38,0.03,0.72,0.16,1.07,0.29c0.13,0.04,0.23,0.14,0.32,0.26c0.1,0.13,0.17,0.29,0.22,0.45c0.09,0.33,0.12,0.68,0.09,1.02
			C135.39,85.25,135.26,85.59,134.92,85.83z"/>
		<path class="st0" d="M145.88,81.49c-0.16-0.06-0.33-0.07-0.51-0.07c-0.58,0-1.18,0-1.76-0.01h-0.23c-0.87-0.03-1.73-0.1-2.6-0.09
			c-0.01,0-0.03-0.01-0.04-0.01c-0.36,0.01-0.71,0.01-1.07,0.01c-0.06,0-0.12,0.01-0.18,0.04c-0.13,0.04-0.22,0.13-0.23,0.28
			c-0.01,0.2-0.03,0.41-0.04,0.61v0.15c0.01,0.13,0.07,0.22,0.2,0.23c0.26,0.02,0.52,0.03,0.78,0.03c0.42-0.01,0.83,0.06,1.25,0.07
			c0.09,0,0.15,0.06,0.16,0.15c0.03,0.57,0.07,1.13,0.09,1.7c0.01,0.77,0.01,1.52,0.03,2.28c0,0.09,0.01,0.16,0.01,0.25
			c0,0.54,0.06,1.07,0.04,1.61c0,0.22,0,0.44,0.01,0.67c0.03,0.29,0.03,0.6,0.03,0.9c-0.02,0.32-0.02,0.62,0,0.94
			c0,0.1,0.01,0.19,0.04,0.28c0.03,0.1,0.1,0.17,0.2,0.17h0.89c0.03,0,0.06-0.02,0.09-0.03c0.04-0.01,0.12-0.07,0.12-0.12
			c0.02-0.09,0.03-0.16,0.03-0.25v-1.38c-0.01-0.22-0.03-0.43-0.03-0.65v-2.09v-1.52c-0.01-0.89,0.03-1.77-0.04-2.65
			c0-0.1,0.04-0.17,0.13-0.17c0.13-0.02,0.28-0.04,0.41-0.03c0.42,0.01,0.84-0.01,1.25-0.06c0.31-0.03,0.6-0.07,0.89-0.07
			c0.07,0.01,0.16,0,0.22-0.03c0.1-0.03,0.17-0.1,0.17-0.2c0-0.2-0.01-0.42-0.03-0.62C146.13,81.63,146.03,81.53,145.88,81.49z"/>
		<path class="st0" d="M155.21,90.27c-0.15-0.38-0.28-0.75-0.41-1.13c-0.15-0.39-0.3-0.78-0.44-1.18c-0.1-0.3-0.23-0.61-0.41-0.88
			c-0.22-0.39-0.45-0.77-0.62-1.19c-0.1-0.23-0.2-0.48-0.32-0.73c-0.15-0.36-0.32-0.73-0.46-1.1c-0.1-0.31-0.23-0.61-0.38-0.9
			c-0.04-0.09-0.1-0.19-0.13-0.29c-0.13-0.39-0.32-0.74-0.46-1.12c-0.04-0.09-0.09-0.16-0.14-0.23c-0.04-0.04-0.1-0.09-0.16-0.1
			c-0.29-0.1-0.55,0.01-0.68,0.29c-0.03,0.04-0.06,0.1-0.07,0.16c-0.17,0.41-0.35,0.8-0.51,1.2c-0.15,0.33-0.3,0.67-0.44,1.02
			c-0.26,0.67-0.54,1.32-0.83,1.97c-0.26,0.57-0.51,1.13-0.75,1.7c-0.2,0.48-0.41,0.96-0.6,1.45c-0.19,0.55-0.33,1.13-0.61,1.65
			c0,0.01-0.01,0.03-0.01,0.04c-0.06,0.15-0.06,0.3-0.01,0.45c0.04,0.14,0.16,0.28,0.35,0.26c0.09,0,0.17-0.02,0.27-0.03
			c0.22-0.03,0.36-0.15,0.45-0.35c0-0.01,0.01-0.03,0.01-0.04c0.2-0.48,0.49-0.93,0.65-1.44c0-0.04,0.03-0.09,0.06-0.13
			c0.16-0.28,0.31-0.57,0.42-0.87c0.04-0.1,0.13-0.16,0.26-0.16c0.7,0.01,1.39,0.01,2.07,0.01c0.12,0,0.22-0.01,0.33-0.03
			c0.43-0.09,0.88-0.06,1.33-0.07c0.07,0,0.13,0.03,0.16,0.09c0.04,0.12,0.12,0.22,0.14,0.33c0.12,0.36,0.28,0.7,0.44,1.03
			c0.17,0.33,0.32,0.67,0.43,1.01c0.06,0.13,0.12,0.26,0.19,0.38c0.16,0.23,0.36,0.38,0.67,0.35c0.07-0.01,0.16-0.01,0.23-0.03
			c0.04,0,0.09-0.01,0.13-0.03c0.15-0.04,0.22-0.19,0.19-0.33c-0.04-0.22-0.12-0.45-0.22-0.65C155.3,90.53,155.26,90.4,155.21,90.27
			z M152.35,87.15c-0.03,0-0.06,0.01-0.09,0.01h-0.93v-0.01c-0.1,0-0.19,0.01-0.28,0c-0.38-0.01-0.74-0.04-1.12,0.04
			c-0.03,0.01-0.09,0-0.13-0.01c-0.03,0-0.07-0.07-0.07-0.1c0.03-0.07,0.04-0.15,0.07-0.22c0.12-0.29,0.23-0.57,0.33-0.85
			c0.23-0.7,0.52-1.36,0.77-2.03c0.03-0.04,0.04-0.09,0.07-0.13c0.01-0.01,0.04-0.03,0.07-0.03c0.01-0.01,0.03,0.02,0.03,0.03
			c0.13,0.2,0.2,0.44,0.29,0.67c0.12,0.33,0.23,0.68,0.36,1c0.13,0.29,0.26,0.57,0.39,0.84c0.1,0.22,0.2,0.45,0.3,0.68
			C152.47,87.08,152.41,87.15,152.35,87.15z"/>
		<path class="st0" d="M168.48,89.66c-0.04-0.51-0.12-1.02-0.12-1.52c0-0.23-0.02-0.46-0.06-0.7c-0.07-0.39-0.1-0.8-0.12-1.21
			c-0.01-0.43-0.06-0.86-0.13-1.29c-0.03-0.19-0.04-0.39-0.04-0.59c-0.03-0.65-0.04-1.31-0.04-1.94c-0.01-0.23-0.06-0.43-0.1-0.65
			c-0.06-0.2-0.36-0.39-0.6-0.35c-0.3,0.04-0.54,0.22-0.7,0.48c-0.35,0.54-0.57,1.13-0.9,1.68c0,0-0.01,0.01-0.01,0.03
			c-0.09,0.29-0.23,0.55-0.36,0.81c-0.25,0.52-0.49,1.06-0.74,1.6c-0.16,0.32-0.32,0.64-0.51,0.94c-0.22,0.35-0.45,0.7-0.58,1.1
			c-0.02,0.04-0.04,0.09-0.06,0.12c-0.02,0.03-0.04,0.06-0.06,0.09c-0.03,0.06-0.07,0.07-0.1,0.06c-0.03-0.02-0.06-0.03-0.07-0.06
			c-0.19-0.38-0.38-0.74-0.51-1.15c-0.04-0.15-0.1-0.29-0.17-0.42c-0.36-0.81-0.76-1.6-1.16-2.38c-0.12-0.23-0.25-0.46-0.33-0.71
			c-0.03-0.1-0.1-0.2-0.15-0.29c-0.07-0.16-0.16-0.3-0.23-0.45c-0.17-0.33-0.33-0.67-0.49-1c-0.06-0.12-0.15-0.22-0.26-0.25
			c-0.25-0.09-0.49-0.09-0.73,0.03c-0.1,0.06-0.16,0.15-0.19,0.26c-0.04,0.23-0.09,0.48-0.13,0.73c-0.04,0.25-0.12,0.48-0.13,0.73
			c-0.04,0.65-0.13,1.29-0.19,1.94c-0.02,0.2-0.04,0.41-0.06,0.6c-0.06,0.48-0.1,0.96-0.16,1.44c-0.01,0.17-0.03,0.33-0.06,0.51
			c-0.03,0.28-0.07,0.55-0.12,0.83c-0.03,0.29-0.07,0.58-0.1,0.87c-0.04,0.28-0.07,0.55-0.1,0.83h0.01v0.51
			c0.02,0.29,0.17,0.46,0.44,0.54c0.12,0.03,0.25,0.04,0.38,0.04c0.12,0,0.23-0.01,0.36-0.04c0.13-0.01,0.2-0.1,0.23-0.25
			c0.04-0.48,0.12-0.96,0.13-1.44c0-0.41,0.06-0.8,0.1-1.2c0.04-0.45,0.1-0.89,0.16-1.34c0-0.09,0.01-0.19,0.03-0.28
			c0.09-0.38,0.12-0.77,0.14-1.15c0.01-0.17,0.01-0.35,0.07-0.51c0.01-0.01,0.01-0.03,0.03-0.03c0.01,0,0.04,0,0.04,0.01
			c0.03,0.03,0.07,0.06,0.1,0.1c0.28,0.42,0.51,0.88,0.75,1.33c0.1,0.2,0.2,0.41,0.26,0.64c0.06,0.28,0.16,0.52,0.29,0.78
			c0.17,0.39,0.35,0.78,0.52,1.19c0.06,0.15,0.13,0.28,0.2,0.41c0.1,0.14,0.17,0.29,0.23,0.45c0.1,0.22,0.2,0.42,0.32,0.62
			c0.1,0.19,0.28,0.27,0.46,0.36c0.07,0.04,0.16,0.01,0.22-0.04c0.04-0.04,0.07-0.09,0.1-0.15c0.13-0.23,0.26-0.46,0.38-0.7
			c0.17-0.36,0.32-0.74,0.51-1.09c0.33-0.62,0.64-1.25,0.91-1.89c0.04-0.07,0.09-0.16,0.13-0.25c0.25-0.49,0.57-0.96,0.77-1.48
			c0.01-0.01,0.01-0.01,0.03-0.03c0.12-0.17,0.2-0.35,0.28-0.54c0.01-0.06,0.09-0.09,0.1-0.06c0.01,0.01,0.04,0.04,0.04,0.06
			c0.03,0.57,0.06,1.12,0.1,1.67c0.01,0.33,0.04,0.65,0.07,0.97c0.06,0.71,0.13,1.42,0.2,2.13c0.03,0.26,0.06,0.52,0.09,0.78
			c0.03,0.25,0.07,0.49,0.1,0.73c0.06,0.41,0.28,0.48,0.54,0.46c0.25,0,0.49-0.03,0.74-0.06c0.06,0,0.13-0.07,0.13-0.16
			c0.01-0.07,0.01-0.14,0-0.23c-0.03-0.35-0.06-0.7-0.1-1.06C168.52,90.02,168.49,89.85,168.48,89.66z"/>
		<path class="st0" d="M176.65,81.46c-0.19-0.01-0.38-0.04-0.55-0.04c-0.51,0-1.03-0.04-1.54,0.03c-0.07,0.01-0.14,0.01-0.23,0.01
			c-0.49,0-0.99,0-1.48,0.03c-0.45,0.03-0.9,0.04-1.35,0.06c-0.09,0.02-0.17,0.03-0.26,0.06c-0.1,0.03-0.16,0.09-0.17,0.19
			c-0.01,0.18-0.03,0.33-0.04,0.49c-0.04,0.54-0.06,1.06,0.01,1.6c0.01,0.12,0.01,0.25,0.01,0.36c-0.01,1.07-0.01,2.15-0.03,3.22
			v1.19c0,0.23-0.01,0.45,0.01,0.68c0.01,0.29,0.01,0.56,0,0.86c-0.01,0.32-0.03,0.64,0.01,0.96c0.01,0.17,0.12,0.29,0.28,0.33
			c0.25,0.07,0.51,0.14,0.77,0.16c0.62,0.04,1.23,0.07,1.86,0.04c0.54-0.03,1.07-0.03,1.62-0.04c0.32,0,0.64-0.03,0.97-0.04
			c0.07,0,0.15-0.06,0.17-0.13c0.03-0.07,0.07-0.15,0.07-0.22c0.01-0.15,0.01-0.29,0.01-0.45c-0.01-0.26-0.06-0.28-0.29-0.35
			c-0.07-0.03-0.14-0.03-0.22-0.03c-0.25-0.03-0.49-0.04-0.74-0.07c-0.31-0.03-0.6-0.03-0.89,0.01c-0.14,0.01-0.28,0.01-0.42-0.01
			c-0.19-0.04-0.39-0.04-0.6-0.03h-0.78c-0.13,0-0.2-0.07-0.26-0.17c-0.04-0.09-0.06-0.2-0.06-0.3c-0.02-0.17-0.02-0.36-0.03-0.54
			c0-0.61-0.01-1.22,0.03-1.83c0-0.1,0.06-0.16,0.17-0.16c0.33-0.03,0.65-0.07,0.97-0.07c0.45-0.03,0.9-0.03,1.35-0.03
			c0.16,0,0.3-0.04,0.45-0.09c0.07-0.02,0.1-0.07,0.12-0.13c0.06-0.25,0.09-0.51,0.06-0.77c0-0.09-0.09-0.17-0.17-0.17
			c-0.38,0-0.75-0.03-1.12,0.03c-0.16,0.03-0.31,0.03-0.46,0c-0.22-0.04-0.43-0.03-0.64,0c-0.19,0.01-0.38,0.03-0.57,0.04
			c-0.07,0-0.15-0.06-0.15-0.13c0-0.07-0.01-0.16-0.01-0.23v-2.68V83c0.01-0.06,0.04-0.09,0.09-0.1c0.06-0.02,0.13-0.02,0.19-0.02
			h1.02c0.52,0,1.06-0.03,1.58-0.09c0.35-0.04,0.7-0.09,1.06-0.09c0.07,0.01,0.16,0,0.23-0.03c0.06-0.01,0.1-0.06,0.12-0.12
			c0.01-0.04,0.03-0.09,0.03-0.13c-0.01-0.26-0.03-0.52-0.04-0.78C176.81,81.56,176.74,81.47,176.65,81.46z"/>
		<path class="st0" d="M187.91,88.38c-0.01-0.52-0.06-1.04-0.03-1.58c0.02-0.52,0.02-1.04-0.01-1.57c-0.01-0.54-0.04-1.06-0.04-1.58
			c0.02-0.59-0.03-1.18-0.07-1.76c-0.03-0.26-0.13-0.45-0.36-0.55c-0.09-0.04-0.17-0.07-0.26-0.07c-0.19,0-0.38,0.03-0.55,0.1
			c-0.19,0.07-0.3,0.22-0.3,0.42c-0.01,0.2,0,0.41,0.02,0.61c0.03,0.35,0.07,0.7,0.09,1.06c0.01,0.61,0,1.23,0,1.86v0.78
			c0,0.12,0,0.22,0.01,0.32c0,0.22,0.02,0.43,0.03,0.65c0,0.27,0,0.57,0.01,0.84c0,0.06-0.03,0.12-0.07,0.1
			c-0.03,0-0.06,0-0.07-0.03c-0.42-0.39-0.83-0.8-1.22-1.2c-0.12-0.1-0.2-0.25-0.29-0.36c-0.25-0.32-0.48-0.65-0.77-0.93
			c-0.09-0.1-0.16-0.19-0.25-0.29c-0.48-0.61-1.02-1.19-1.57-1.76c-0.1-0.1-0.2-0.2-0.29-0.3c-0.41-0.51-0.81-1.02-1.22-1.52
			c-0.12-0.15-0.25-0.22-0.42-0.25c-0.19-0.03-0.38-0.03-0.57,0c-0.19,0.04-0.31,0.15-0.33,0.33c-0.04,0.23-0.07,0.46-0.09,0.68
			c0,0.68-0.06,1.36-0.04,2.05c0,0.22-0.01,0.44,0.01,0.65c0.04,0.51,0.03,1.02,0.01,1.52c-0.03,0.86-0.06,1.71-0.06,2.55
			c0,0.49-0.01,1-0.01,1.49c0,0.15,0.01,0.3,0.06,0.45c0.07,0.26,0.12,0.32,0.38,0.33c0.17,0.03,0.36,0.04,0.55,0.06
			c0.09,0.02,0.19,0.02,0.28,0c0.19-0.03,0.32-0.14,0.36-0.32c0.03-0.12,0.04-0.25,0.06-0.36c0-0.35-0.02-0.68-0.02-1.03
			c0-0.17-0.01-0.33,0-0.51c0.03-0.62,0.03-1.23,0.02-1.86c-0.03-0.99-0.02-1.99-0.03-2.97c0-0.06,0.04-0.12,0.07-0.1
			c0.03,0.01,0.06,0.01,0.09,0.03c0.26,0.26,0.52,0.54,0.77,0.8c0.35,0.36,0.68,0.73,0.99,1.12c0.12,0.13,0.23,0.25,0.35,0.36
			c0.23,0.26,0.48,0.49,0.68,0.77c0.22,0.3,0.46,0.58,0.73,0.84c0.32,0.33,0.65,0.65,0.94,1.02c0.35,0.44,0.73,0.84,1.07,1.29
			c0.2,0.26,0.44,0.52,0.7,0.73c0.16,0.04,0.32,0.03,0.46,0.01c0.14,0,0.35-0.17,0.35-0.38c-0.02-0.45-0.04-0.9-0.07-1.35
			C187.94,89.18,187.91,88.79,187.91,88.38z"/>
		<path class="st0" d="M197.03,81.49c-0.16-0.06-0.33-0.07-0.51-0.07c-0.58,0-1.18,0-1.76-0.01h-0.23c-0.87-0.03-1.73-0.1-2.6-0.09
			c-0.01,0-0.03-0.01-0.04-0.01c-0.36,0.01-0.71,0.01-1.07,0.01c-0.06,0-0.12,0.01-0.18,0.04c-0.13,0.04-0.22,0.13-0.23,0.28
			c-0.01,0.2-0.03,0.41-0.04,0.61v0.15c0.01,0.13,0.07,0.22,0.2,0.23c0.26,0.02,0.52,0.03,0.78,0.03c0.42-0.01,0.83,0.06,1.25,0.07
			c0.09,0,0.15,0.06,0.16,0.15c0.03,0.57,0.07,1.13,0.09,1.7c0.01,0.77,0.01,1.52,0.03,2.28c0,0.09,0.01,0.16,0.01,0.25
			c0,0.54,0.06,1.07,0.04,1.61c0,0.22,0,0.44,0.01,0.67c0.03,0.29,0.03,0.6,0.03,0.9c-0.02,0.32-0.02,0.62,0,0.94
			c0,0.1,0.01,0.19,0.04,0.28c0.03,0.1,0.1,0.17,0.2,0.17h0.89c0.03,0,0.06-0.02,0.09-0.03c0.04-0.01,0.12-0.07,0.12-0.12
			c0.02-0.09,0.03-0.16,0.03-0.25v-1.38c-0.01-0.22-0.03-0.43-0.03-0.65v-2.09v-1.52c-0.01-0.89,0.03-1.77-0.04-2.65
			c0-0.1,0.04-0.17,0.13-0.17c0.13-0.02,0.28-0.04,0.41-0.03c0.42,0.01,0.84-0.01,1.25-0.06c0.31-0.03,0.6-0.07,0.89-0.07
			c0.07,0.01,0.16,0,0.22-0.03c0.1-0.03,0.17-0.1,0.17-0.2c0-0.2-0.01-0.42-0.03-0.62C197.28,81.63,197.17,81.53,197.03,81.49z"/>
		<path class="st0" d="M204.6,81.65c-0.32-0.14-0.64-0.26-0.96-0.42c-0.33-0.14-0.68-0.19-1.04-0.16c-0.54,0.04-1.06,0.16-1.57,0.35
			c-0.16,0.06-0.29,0.15-0.41,0.28c-0.3,0.3-0.55,0.67-0.74,1.06c-0.13,0.25-0.22,0.51-0.23,0.8c0,0.09-0.01,0.17-0.03,0.25
			c-0.06,0.41-0.02,0.78,0.1,1.18c0.14,0.43,0.36,0.81,0.74,1.1c0.07,0.06,0.15,0.13,0.22,0.19c0.39,0.35,0.88,0.62,1.38,0.8
			c0.3,0.12,0.59,0.25,0.88,0.36c0.16,0.07,0.28,0.17,0.39,0.3c0.16,0.22,0.3,0.44,0.42,0.68c0.07,0.14,0.12,0.3,0.16,0.46
			c0.07,0.33-0.03,0.65-0.16,0.96c-0.16,0.35-0.54,0.54-0.91,0.46c-0.19-0.04-0.36-0.07-0.55-0.1c-0.17-0.03-0.35-0.07-0.54-0.13
			c-0.29-0.07-0.58-0.16-0.87-0.25c-0.43-0.12-0.89-0.2-1.31-0.33c-0.09-0.03-0.22,0.02-0.26,0.1c0,0.02-0.01,0.03-0.03,0.04
			c-0.07,0.23-0.16,0.46-0.23,0.71c-0.06,0.14-0.02,0.29,0.06,0.42c0.07,0.12,0.16,0.22,0.29,0.26c0.19,0.07,0.38,0.15,0.58,0.18
			c0.35,0.04,0.68,0.14,1.01,0.26c0.52,0.16,1.04,0.23,1.58,0.26c0.23,0,0.43,0,0.65-0.07c0.16-0.06,0.32-0.1,0.49-0.12
			c0.38-0.04,0.7-0.22,1-0.43c0.3-0.2,0.51-0.48,0.64-0.8c0.12-0.29,0.17-0.61,0.22-0.91c0.04-0.29,0.04-0.61,0-0.9
			c-0.07-0.48-0.29-0.91-0.61-1.28c-0.15-0.19-0.3-0.35-0.43-0.55c-0.09-0.14-0.2-0.26-0.35-0.35c-0.25-0.13-0.49-0.29-0.75-0.41
			c-0.35-0.17-0.73-0.33-1.1-0.48c-0.23-0.1-0.45-0.22-0.64-0.39c-0.28-0.23-0.45-0.54-0.46-0.9c0-0.22,0.03-0.42,0.12-0.62
			c0.12-0.26,0.28-0.51,0.45-0.73c0.17-0.23,0.44-0.36,0.74-0.29c0.1,0.01,0.2,0.01,0.3,0.04c0.52,0.13,1.03,0.27,1.51,0.52
			c0.15,0.07,0.3,0.16,0.45,0.23c0.04,0.02,0.09,0.04,0.13,0.06c0.16,0.07,0.45-0.01,0.49-0.2c0.06-0.22,0.13-0.42,0.19-0.62
			c0.01-0.04,0-0.1,0.01-0.14c0-0.12-0.04-0.2-0.15-0.25C205.2,81.95,204.91,81.79,204.6,81.65z"/>
	</g>
</g>
</svg>
