<?xml version="1.0" encoding="utf-8"?>
<!-- Generator: Adobe Illustrator 24.1.0, SVG Export Plug-In . SVG Version: 6.00 Build 0)  -->
<svg version="1.1" id="Capa_1" xmlns="http://www.w3.org/2000/svg" xmlns:xlink="http://www.w3.org/1999/xlink" x="0px" y="0px"
	 viewBox="0 0 70 110" style="enable-background:new 0 0 70 110;" xml:space="preserve">
<style type="text/css">
	.st0{fill:#00667C;}
	.st1{fill:#EFEFEF;}
	.st2{fill:#036381;}
</style>
<g>
	<g>
		<g>
			<circle class="st1" cx="34.2" cy="39.94" r="19.38"/>
		</g>
		<g>
			<g>
				<g>
					<polygon class="st0" points="27.3,41.16 27.3,41.16 27.3,41.16 					"/>
				</g>
				<g>
					<path class="st0" d="M42.07,40.19c-0.04,0-0.08-0.01-0.11-0.04c-0.03-0.03-0.04-0.07-0.03-0.11c0.59-2.23,0.55-4.49-0.11-6.54
						l-0.08-0.26l-0.24,0.06c-1.54,0.4-3.02,1.23-4.27,2.42c-0.03,0.03-0.07,0.04-0.11,0.03c-0.04-0.01-0.07-0.04-0.08-0.08
						c-0.57-1.69-1.49-3.18-2.66-4.33l-0.18-0.18l-0.18,0.18c-1.18,1.14-2.1,2.64-2.66,4.33c-0.01,0.04-0.04,0.07-0.08,0.08
						c-0.04,0.01-0.08,0-0.11-0.03c-1.25-1.19-2.73-2.02-4.27-2.42l-0.24-0.06l-0.08,0.26c-0.66,2.05-0.7,4.31-0.11,6.54
						c0.01,0.04,0,0.08-0.03,0.11c-0.03,0.03-0.07,0.04-0.11,0.04c-1.52-0.25-2.97-0.11-4.29,0.38l-0.24,0.09l0.06,0.27
						c0.6,2.67,2.34,5.03,4.79,6.46c1.5,0.88,3.16,1.35,4.8,1.35c0.94,0,1.86-0.15,2.73-0.46c0.01,0,0.03-0.01,0.04-0.01
						c0.01,0,0.03,0,0.04,0.01c0.86,0.3,1.78,0.46,2.73,0.46c1.64,0,3.3-0.47,4.8-1.35c2.44-1.43,4.19-3.79,4.79-6.46l0.06-0.27
						l-0.24-0.09C45.04,40.09,43.6,39.94,42.07,40.19z M37.33,36.45c1.14-1.16,2.51-2.01,3.94-2.44C41.3,34,41.33,34,41.36,34.02
						c0.03,0.02,0.05,0.04,0.06,0.07c0.55,1.97,0.51,4.12-0.13,6.21c-0.01,0.04-0.04,0.07-0.08,0.08c-0.86,0.23-1.7,0.58-2.49,1.04
						c-0.34,0.2-0.68,0.42-1,0.67c-0.02,0.02-0.05,0.02-0.07,0.02c-0.02,0-0.04-0.01-0.06-0.02c-0.04-0.02-0.06-0.07-0.05-0.12
						c0.12-0.71,0.18-1.44,0.18-2.17c0-1.1-0.13-2.18-0.4-3.23c0-0.01-0.01-0.02-0.01-0.04C37.3,36.5,37.31,36.47,37.33,36.45z
						 M26.97,34.09c0.01-0.03,0.03-0.06,0.06-0.07c0.03-0.02,0.06-0.02,0.09-0.01c1.43,0.44,2.8,1.28,3.94,2.45
						c0.03,0.03,0.04,0.07,0.03,0.11c-0.27,1.04-0.4,2.13-0.4,3.24c0,0.73,0.06,1.46,0.18,2.17c0.01,0.05-0.01,0.09-0.05,0.12
						c-0.02,0.01-0.04,0.02-0.06,0.02c-0.02,0-0.05-0.01-0.07-0.02c-0.33-0.25-0.67-0.48-1-0.67c-0.79-0.46-1.63-0.81-2.49-1.04
						c-0.04-0.01-0.07-0.04-0.08-0.08C26.47,38.21,26.42,36.06,26.97,34.09z M33.76,47.79c-0.74,0.23-1.52,0.35-2.33,0.35
						c-1.55,0-3.12-0.44-4.54-1.27c-2.17-1.28-3.78-3.35-4.41-5.69c-0.02-0.06,0.02-0.12,0.08-0.14c1.27-0.4,2.7-0.46,4.08-0.16
						l0.28,0.07c0.05,0.01,0.09,0.02,0.14,0.04c0.02,0.01,0.05,0.01,0.07,0.02c0.06,0.02,0.13,0.04,0.2,0.06
						c0.02,0.01,0.03,0.01,0.05,0.02c0.06,0.02,0.14,0.04,0.21,0.06c0.63,0.21,1.24,0.49,1.83,0.83c2.17,1.27,3.78,3.35,4.41,5.69
						C33.85,47.71,33.82,47.77,33.76,47.79z M34.2,46.69c-0.05,0-0.09-0.03-0.11-0.08c-0.51-1.37-1.36-2.65-2.43-3.69
						c-0.02-0.02-0.03-0.03-0.03-0.06c-0.25-0.98-0.37-2.01-0.37-3.06c0-2.98,1.04-5.79,2.86-7.72c0.04-0.05,0.13-0.05,0.17,0
						c1.82,1.92,2.86,4.74,2.86,7.72c0,1.05-0.13,2.08-0.37,3.06c-0.01,0.02-0.02,0.04-0.03,0.06c-1.08,1.04-1.92,2.32-2.43,3.69
						C34.29,46.66,34.25,46.69,34.2,46.69z M41.5,46.86c-1.42,0.83-2.99,1.27-4.54,1.27c-0.8,0-1.59-0.12-2.33-0.35
						c-0.06-0.02-0.09-0.08-0.08-0.14c0.63-2.34,2.24-4.41,4.41-5.69c0.58-0.34,1.2-0.62,1.83-0.83c0.07-0.02,0.15-0.05,0.22-0.07
						c0,0,0.02-0.01,0.03-0.01c0.07-0.02,0.14-0.04,0.2-0.06l0.07-0.02c0.04-0.01,0.09-0.02,0.14-0.04l0.27-0.06
						c1.42-0.3,2.82-0.24,4.1,0.16c0.06,0.02,0.09,0.08,0.08,0.14C45.28,43.52,43.67,45.59,41.5,46.86z"/>
				</g>
			</g>
		</g>
	</g>
	<g>
		<g>
			<path class="st0" d="M10.78,71.99l-0.44-1.45H8.11l-0.44,1.45H6.28l2.15-6.12h1.58l2.16,6.12H10.78z M10.02,69.46
				c-0.41-1.32-0.64-2.06-0.69-2.23c-0.05-0.17-0.09-0.31-0.11-0.41c-0.09,0.36-0.35,1.24-0.79,2.64H10.02z M8.53,65.41V65.3
				c0.48-0.56,0.8-0.97,0.98-1.26h1.43v0.09c-0.14,0.15-0.39,0.36-0.74,0.65c-0.35,0.28-0.62,0.5-0.82,0.64H8.53z"/>
			<path class="st0" d="M15.72,67.24c0.17,0,0.32,0.01,0.43,0.04l-0.1,1.19c-0.1-0.03-0.23-0.04-0.38-0.04
				c-0.41,0-0.72,0.1-0.95,0.31s-0.34,0.5-0.34,0.88v2.37h-1.27v-4.66h0.96l0.19,0.78h0.06c0.15-0.26,0.34-0.47,0.59-0.63
				C15.16,67.32,15.43,67.24,15.72,67.24z"/>
			<path class="st0" d="M19.39,72.08c-0.75,0-1.34-0.21-1.76-0.62c-0.42-0.41-0.63-1-0.63-1.76c0-0.78,0.2-1.38,0.59-1.81
				c0.39-0.43,0.93-0.64,1.62-0.64c0.66,0,1.17,0.19,1.54,0.56c0.37,0.38,0.55,0.89,0.55,1.56v0.62h-3.01
				c0.01,0.36,0.12,0.64,0.32,0.85s0.48,0.3,0.84,0.3c0.28,0,0.55-0.03,0.8-0.09c0.25-0.06,0.51-0.15,0.78-0.28v0.98
				c-0.22,0.11-0.46,0.19-0.71,0.25S19.75,72.08,19.39,72.08z M19.21,68.15c-0.27,0-0.48,0.09-0.63,0.26
				c-0.15,0.17-0.24,0.41-0.26,0.73h1.78c-0.01-0.31-0.09-0.56-0.25-0.73C19.69,68.23,19.48,68.15,19.21,68.15z"/>
			<path class="st0" d="M25.57,71.99l-0.25-0.63h-0.03c-0.21,0.27-0.44,0.46-0.66,0.56s-0.52,0.16-0.89,0.16
				c-0.45,0-0.8-0.13-1.06-0.38c-0.26-0.26-0.39-0.62-0.39-1.09c0-0.49,0.17-0.86,0.52-1.1c0.35-0.23,0.87-0.36,1.57-0.39l0.81-0.03
				v-0.2c0-0.47-0.24-0.71-0.73-0.71c-0.37,0-0.81,0.11-1.31,0.34l-0.42-0.86c0.54-0.28,1.13-0.42,1.79-0.42
				c0.63,0,1.11,0.14,1.44,0.41c0.33,0.27,0.5,0.69,0.5,1.24v3.11H25.57z M25.19,69.83l-0.49,0.02c-0.37,0.01-0.65,0.08-0.83,0.2
				c-0.18,0.12-0.27,0.31-0.27,0.56c0,0.36,0.21,0.54,0.62,0.54c0.3,0,0.53-0.09,0.71-0.25c0.18-0.17,0.26-0.39,0.26-0.68V69.83z"/>
			<path class="st0" d="M32.02,72.08c-0.55,0-0.98-0.21-1.29-0.64c-0.31-0.43-0.47-1.01-0.47-1.77c0-0.76,0.16-1.36,0.48-1.79
				s0.76-0.64,1.32-0.64c0.59,0,1.03,0.23,1.34,0.68h0.04c-0.07-0.35-0.1-0.66-0.1-0.93V65.5h1.28v6.49h-0.98l-0.25-0.6h-0.05
				C33.05,71.85,32.61,72.08,32.02,72.08z M32.47,71.06c0.33,0,0.56-0.09,0.71-0.28c0.15-0.19,0.23-0.51,0.25-0.96v-0.14
				c0-0.5-0.08-0.86-0.23-1.08c-0.15-0.22-0.41-0.33-0.75-0.33c-0.28,0-0.5,0.12-0.66,0.36c-0.16,0.24-0.24,0.59-0.24,1.05
				c0,0.46,0.08,0.8,0.24,1.03C31.95,70.95,32.17,71.06,32.47,71.06z"/>
			<path class="st0" d="M38.34,72.08c-0.75,0-1.34-0.21-1.76-0.62c-0.42-0.41-0.63-1-0.63-1.76c0-0.78,0.2-1.38,0.59-1.81
				c0.39-0.43,0.93-0.64,1.62-0.64c0.66,0,1.17,0.19,1.54,0.56c0.37,0.38,0.55,0.89,0.55,1.56v0.62h-3.01
				c0.01,0.36,0.12,0.64,0.32,0.85c0.2,0.2,0.48,0.3,0.84,0.3c0.28,0,0.55-0.03,0.8-0.09c0.25-0.06,0.51-0.15,0.78-0.28v0.98
				c-0.22,0.11-0.46,0.19-0.71,0.25S38.71,72.08,38.34,72.08z M38.16,68.15c-0.27,0-0.48,0.09-0.63,0.26
				c-0.15,0.17-0.24,0.41-0.26,0.73h1.78c-0.01-0.31-0.09-0.56-0.25-0.73C38.65,68.23,38.43,68.15,38.16,68.15z"/>
			<path class="st0" d="M43.39,67.33h1.39l0.88,2.62c0.08,0.23,0.13,0.5,0.15,0.81h0.02c0.03-0.29,0.09-0.56,0.18-0.81l0.86-2.62
				h1.36l-1.97,5.26c-0.18,0.49-0.44,0.85-0.77,1.09c-0.33,0.24-0.73,0.36-1.17,0.36c-0.22,0-0.44-0.02-0.65-0.07v-1.01
				c0.15,0.04,0.32,0.05,0.5,0.05c0.23,0,0.42-0.07,0.59-0.21c0.17-0.14,0.3-0.34,0.39-0.62l0.08-0.23L43.39,67.33z"/>
			<path class="st0" d="M53.44,69.65c0,0.76-0.2,1.35-0.6,1.78c-0.4,0.43-0.96,0.64-1.67,0.64c-0.45,0-0.84-0.1-1.19-0.29
				c-0.34-0.2-0.6-0.48-0.79-0.84c-0.18-0.37-0.28-0.79-0.28-1.28c0-0.76,0.2-1.35,0.6-1.78c0.4-0.42,0.96-0.63,1.68-0.63
				c0.45,0,0.84,0.1,1.19,0.29c0.34,0.2,0.6,0.47,0.79,0.84C53.35,68.74,53.44,69.16,53.44,69.65z M50.21,69.65
				c0,0.46,0.08,0.81,0.23,1.05c0.15,0.24,0.4,0.35,0.74,0.35c0.34,0,0.58-0.12,0.73-0.35c0.15-0.23,0.22-0.58,0.22-1.05
				c0-0.46-0.07-0.81-0.23-1.04s-0.4-0.35-0.74-0.35c-0.34,0-0.58,0.11-0.73,0.34C50.29,68.84,50.21,69.19,50.21,69.65z"/>
			<path class="st0" d="M58.83,67.33v0.65l-0.73,0.19c0.13,0.21,0.2,0.44,0.2,0.7c0,0.5-0.17,0.89-0.52,1.17
				c-0.35,0.28-0.83,0.42-1.45,0.42l-0.23-0.01l-0.19-0.02c-0.13,0.1-0.2,0.21-0.2,0.33c0,0.18,0.23,0.28,0.7,0.28h0.79
				c0.51,0,0.9,0.11,1.17,0.33c0.27,0.22,0.4,0.54,0.4,0.97c0,0.55-0.23,0.97-0.68,1.27c-0.45,0.3-1.11,0.45-1.96,0.45
				c-0.65,0-1.15-0.11-1.49-0.34c-0.34-0.23-0.52-0.55-0.52-0.95c0-0.28,0.09-0.52,0.26-0.71s0.43-0.32,0.77-0.4
				c-0.13-0.06-0.24-0.15-0.34-0.27c-0.1-0.13-0.15-0.26-0.15-0.4c0-0.18,0.05-0.33,0.15-0.44c0.1-0.12,0.25-0.23,0.45-0.35
				c-0.24-0.11-0.44-0.28-0.58-0.51c-0.14-0.23-0.21-0.51-0.21-0.83c0-0.51,0.17-0.9,0.5-1.18c0.33-0.28,0.8-0.42,1.42-0.42
				c0.13,0,0.29,0.01,0.47,0.04c0.18,0.02,0.29,0.04,0.34,0.05H58.83z M55.23,72.65c0,0.17,0.08,0.31,0.25,0.41
				c0.17,0.1,0.4,0.15,0.71,0.15c0.46,0,0.81-0.06,1.07-0.19c0.26-0.13,0.39-0.3,0.39-0.51c0-0.17-0.08-0.3-0.23-0.36
				c-0.15-0.07-0.39-0.1-0.71-0.1h-0.66c-0.23,0-0.43,0.06-0.59,0.17C55.31,72.33,55.23,72.47,55.23,72.65z M55.69,68.86
				c0,0.25,0.06,0.45,0.17,0.6c0.12,0.15,0.29,0.22,0.53,0.22c0.24,0,0.41-0.07,0.53-0.22c0.11-0.15,0.17-0.35,0.17-0.6
				c0-0.56-0.23-0.84-0.69-0.84C55.93,68.01,55.69,68.29,55.69,68.86z"/>
			<path class="st0" d="M62.84,71.99l-0.25-0.63h-0.03c-0.21,0.27-0.44,0.46-0.66,0.56s-0.52,0.16-0.89,0.16
				c-0.45,0-0.8-0.13-1.06-0.38c-0.26-0.26-0.39-0.62-0.39-1.09c0-0.49,0.17-0.86,0.52-1.1c0.35-0.23,0.87-0.36,1.57-0.39l0.81-0.03
				v-0.2c0-0.47-0.24-0.71-0.73-0.71c-0.37,0-0.81,0.11-1.31,0.34L60,67.65c0.54-0.28,1.13-0.42,1.79-0.42
				c0.63,0,1.11,0.14,1.44,0.41c0.33,0.27,0.5,0.69,0.5,1.24v3.11H62.84z M62.46,69.83l-0.49,0.02c-0.37,0.01-0.65,0.08-0.83,0.2
				c-0.18,0.12-0.27,0.31-0.27,0.56c0,0.36,0.21,0.54,0.62,0.54c0.3,0,0.53-0.09,0.71-0.25c0.18-0.17,0.26-0.39,0.26-0.68V69.83z"/>
			<path class="st0" d="M6.13,78.69h1.39l0.88,2.62c0.08,0.23,0.13,0.5,0.15,0.81h0.02c0.03-0.29,0.09-0.56,0.18-0.81l0.86-2.62
				h1.36l-1.97,5.26c-0.18,0.49-0.44,0.85-0.77,1.09c-0.33,0.24-0.73,0.36-1.17,0.36c-0.22,0-0.44-0.02-0.65-0.07v-1.01
				c0.15,0.04,0.32,0.05,0.5,0.05c0.23,0,0.42-0.07,0.59-0.21c0.17-0.14,0.3-0.34,0.39-0.62l0.08-0.23L6.13,78.69z"/>
			<path class="st0" d="M18.61,83.35h-1.27v-2.72c0-0.34-0.06-0.59-0.17-0.76c-0.11-0.17-0.29-0.25-0.53-0.25
				c-0.33,0-0.56,0.12-0.71,0.36c-0.15,0.24-0.22,0.63-0.22,1.18v2.19h-1.27v-4.66h0.97l0.17,0.6h0.07c0.12-0.21,0.31-0.38,0.54-0.5
				c0.24-0.12,0.51-0.18,0.81-0.18c0.7,0,1.17,0.23,1.42,0.68h0.11c0.13-0.22,0.31-0.39,0.55-0.5c0.24-0.12,0.52-0.18,0.82-0.18
				c0.53,0,0.93,0.14,1.2,0.41c0.27,0.27,0.41,0.71,0.41,1.3v3.04h-1.28v-2.72c0-0.34-0.06-0.59-0.17-0.76
				c-0.11-0.17-0.29-0.25-0.53-0.25c-0.31,0-0.55,0.11-0.7,0.33c-0.15,0.22-0.23,0.58-0.23,1.06V83.35z"/>
			<path class="st0" d="M25.21,83.44c-0.75,0-1.34-0.21-1.76-0.62c-0.42-0.41-0.63-1-0.63-1.76c0-0.78,0.2-1.38,0.59-1.81
				c0.39-0.43,0.93-0.64,1.62-0.64c0.66,0,1.17,0.19,1.54,0.56c0.37,0.38,0.55,0.89,0.55,1.56v0.62h-3.01
				c0.01,0.36,0.12,0.64,0.32,0.85c0.2,0.2,0.48,0.3,0.84,0.3c0.28,0,0.55-0.03,0.8-0.09c0.25-0.06,0.51-0.15,0.78-0.28v0.98
				c-0.22,0.11-0.46,0.19-0.71,0.25S25.58,83.44,25.21,83.44z M25.04,79.51c-0.27,0-0.48,0.09-0.63,0.26
				c-0.15,0.17-0.24,0.41-0.26,0.73h1.78c-0.01-0.31-0.09-0.56-0.25-0.73C25.52,79.59,25.31,79.51,25.04,79.51z"/>
			<path class="st0" d="M29.91,83.44c-0.55,0-0.98-0.21-1.29-0.64c-0.31-0.43-0.47-1.01-0.47-1.77c0-0.76,0.16-1.36,0.48-1.79
				c0.32-0.43,0.76-0.64,1.32-0.64c0.59,0,1.03,0.23,1.34,0.68h0.04c-0.07-0.35-0.1-0.66-0.1-0.93v-1.49h1.28v6.49h-0.98l-0.25-0.6
				h-0.05C30.94,83.21,30.5,83.44,29.91,83.44z M30.36,82.42c0.33,0,0.56-0.09,0.71-0.28c0.15-0.19,0.23-0.51,0.25-0.96v-0.14
				c0-0.5-0.08-0.86-0.23-1.08c-0.15-0.22-0.41-0.33-0.75-0.33c-0.28,0-0.5,0.12-0.66,0.36c-0.16,0.24-0.24,0.59-0.24,1.05
				c0,0.46,0.08,0.8,0.24,1.03C29.83,82.31,30.06,82.42,30.36,82.42z"/>
			<path class="st0" d="M34.07,77.49c0-0.41,0.23-0.62,0.69-0.62c0.46,0,0.69,0.21,0.69,0.62c0,0.2-0.06,0.35-0.17,0.46
				c-0.12,0.11-0.29,0.16-0.52,0.16C34.3,78.11,34.07,77.9,34.07,77.49z M35.39,83.35h-1.27v-4.66h1.27V83.35z"/>
			<path class="st0" d="M38.97,82.42c0.22,0,0.49-0.05,0.8-0.15v0.95c-0.32,0.14-0.71,0.21-1.17,0.21c-0.51,0-0.88-0.13-1.11-0.39
				c-0.23-0.26-0.35-0.64-0.35-1.16v-2.25h-0.61v-0.54l0.7-0.43l0.37-0.98h0.81v0.99h1.3v0.95h-1.3v2.25c0,0.18,0.05,0.31,0.15,0.4
				C38.67,82.38,38.81,82.42,38.97,82.42z"/>
			<path class="st0" d="M43.96,83.35l-0.25-0.63h-0.03c-0.21,0.27-0.44,0.46-0.66,0.56c-0.23,0.1-0.52,0.16-0.89,0.16
				c-0.45,0-0.8-0.13-1.06-0.38c-0.26-0.26-0.39-0.62-0.39-1.09c0-0.49,0.17-0.86,0.52-1.1c0.35-0.23,0.87-0.36,1.57-0.39l0.81-0.03
				v-0.2c0-0.47-0.24-0.71-0.73-0.71c-0.37,0-0.81,0.11-1.31,0.34l-0.42-0.86c0.54-0.28,1.13-0.42,1.79-0.42
				c0.63,0,1.11,0.14,1.44,0.41c0.33,0.27,0.5,0.69,0.5,1.24v3.11H43.96z M43.58,81.19l-0.49,0.02c-0.37,0.01-0.65,0.08-0.83,0.2
				c-0.18,0.12-0.27,0.31-0.27,0.56c0,0.36,0.21,0.54,0.62,0.54c0.3,0,0.53-0.09,0.71-0.25c0.18-0.17,0.26-0.39,0.26-0.68V81.19z"/>
			<path class="st0" d="M48.33,83.44c-1.45,0-2.18-0.8-2.18-2.39c0-0.79,0.2-1.4,0.59-1.82c0.39-0.42,0.96-0.63,1.7-0.63
				c0.54,0,1.02,0.11,1.45,0.32l-0.38,0.98c-0.2-0.08-0.39-0.15-0.56-0.2c-0.17-0.05-0.34-0.08-0.52-0.08
				c-0.66,0-0.99,0.47-0.99,1.41c0,0.91,0.33,1.37,0.99,1.37c0.25,0,0.47-0.03,0.68-0.1c0.21-0.07,0.42-0.17,0.63-0.31v1.09
				c-0.21,0.13-0.41,0.22-0.62,0.27C48.91,83.41,48.65,83.44,48.33,83.44z"/>
			<path class="st0" d="M51.06,77.49c0-0.41,0.23-0.62,0.69-0.62c0.46,0,0.69,0.21,0.69,0.62c0,0.2-0.06,0.35-0.17,0.46
				c-0.12,0.11-0.29,0.16-0.52,0.16C51.29,78.11,51.06,77.9,51.06,77.49z M52.38,83.35h-1.27v-4.66h1.27V83.35z"/>
			<path class="st0" d="M58.24,81.02c0,0.76-0.2,1.35-0.6,1.78s-0.96,0.64-1.67,0.64c-0.45,0-0.84-0.1-1.19-0.29
				c-0.34-0.2-0.6-0.48-0.79-0.84c-0.18-0.37-0.28-0.79-0.28-1.28c0-0.76,0.2-1.35,0.6-1.78c0.4-0.42,0.96-0.63,1.68-0.63
				c0.45,0,0.84,0.1,1.19,0.29c0.34,0.2,0.6,0.47,0.79,0.84C58.14,80.1,58.24,80.53,58.24,81.02z M55.01,81.02
				c0,0.46,0.08,0.81,0.23,1.05c0.15,0.24,0.4,0.35,0.74,0.35c0.34,0,0.58-0.12,0.73-0.35c0.15-0.23,0.22-0.58,0.22-1.05
				c0-0.46-0.07-0.81-0.23-1.04s-0.4-0.35-0.74-0.35c-0.34,0-0.58,0.11-0.73,0.34C55.09,80.2,55.01,80.55,55.01,81.02z M55.28,78.18
				v-0.11c0.48-0.56,0.81-0.97,0.98-1.26h1.43v0.09c-0.15,0.15-0.39,0.36-0.74,0.64c-0.35,0.28-0.62,0.5-0.82,0.64H55.28z"/>
			<path class="st0" d="M63.87,83.35H62.6v-2.72c0-0.34-0.06-0.59-0.18-0.76c-0.12-0.17-0.31-0.25-0.57-0.25
				c-0.36,0-0.61,0.12-0.77,0.36c-0.16,0.24-0.24,0.63-0.24,1.18v2.19h-1.27v-4.66h0.97l0.17,0.6h0.07
				c0.14-0.23,0.34-0.39,0.59-0.51c0.25-0.12,0.53-0.17,0.85-0.17c0.54,0,0.95,0.15,1.23,0.44c0.28,0.29,0.42,0.72,0.42,1.27V83.35z
				"/>
		</g>
	</g>
</g>
</svg>
