<?xml version="1.0" encoding="utf-8"?>
<!-- Generator: Adobe Illustrator 24.1.0, SVG Export Plug-In . SVG Version: 6.00 Build 0)  -->
<svg version="1.1" id="Capa_1" xmlns="http://www.w3.org/2000/svg" xmlns:xlink="http://www.w3.org/1999/xlink" x="0px" y="0px"
	 viewBox="0 0 70 110" style="enable-background:new 0 0 70 110;" xml:space="preserve">
<style type="text/css">
	.st0{fill:#00667C;}
	.st1{fill:#EFEFEF;}
	.st2{fill:#036381;}
</style>
<g>
	<g>
		<path class="st2" d="M22.13,67.38c0,0.65-0.2,1.15-0.61,1.49c-0.41,0.34-0.98,0.52-1.73,0.52h-0.55v2.15h-1.28V65.5h1.93
			c0.73,0,1.29,0.16,1.67,0.47C21.94,66.29,22.13,66.76,22.13,67.38z M19.24,68.34h0.42c0.39,0,0.69-0.08,0.88-0.23
			c0.2-0.16,0.29-0.38,0.29-0.68c0-0.3-0.08-0.52-0.25-0.67c-0.16-0.14-0.42-0.22-0.77-0.22h-0.58V68.34z"/>
		<path class="st2" d="M23.4,65.73c0-0.41,0.23-0.62,0.69-0.62c0.46,0,0.69,0.21,0.69,0.62c0,0.2-0.06,0.35-0.17,0.46
			c-0.11,0.11-0.29,0.16-0.51,0.16C23.63,66.35,23.4,66.14,23.4,65.73z M24.71,71.54h-1.26v-4.62h1.26V71.54z"/>
		<path class="st2" d="M29.54,70.17c0,0.47-0.16,0.83-0.49,1.08c-0.33,0.25-0.82,0.37-1.48,0.37c-0.34,0-0.62-0.02-0.86-0.07
			c-0.24-0.05-0.46-0.11-0.67-0.2v-1.04c0.23,0.11,0.5,0.2,0.79,0.28c0.29,0.07,0.55,0.11,0.77,0.11c0.46,0,0.69-0.13,0.69-0.4
			c0-0.1-0.03-0.18-0.09-0.24c-0.06-0.06-0.17-0.13-0.31-0.21c-0.15-0.08-0.35-0.17-0.6-0.28c-0.36-0.15-0.62-0.29-0.78-0.41
			c-0.17-0.13-0.29-0.27-0.36-0.44c-0.08-0.16-0.11-0.37-0.11-0.61c0-0.41,0.16-0.73,0.48-0.95c0.32-0.22,0.77-0.34,1.35-0.34
			c0.56,0,1.1,0.12,1.62,0.36l-0.38,0.91c-0.23-0.1-0.45-0.18-0.65-0.24c-0.2-0.06-0.41-0.1-0.62-0.1c-0.37,0-0.56,0.1-0.56,0.3
			c0,0.11,0.06,0.21,0.18,0.29c0.12,0.08,0.38,0.21,0.79,0.37c0.36,0.15,0.63,0.28,0.79,0.41c0.17,0.13,0.29,0.27,0.37,0.44
			C29.5,69.74,29.54,69.94,29.54,70.17z"/>
		<path class="st2" d="M32.68,71.63c-1.44,0-2.16-0.79-2.16-2.37c0-0.79,0.2-1.39,0.59-1.8c0.39-0.41,0.95-0.62,1.68-0.62
			c0.53,0,1.01,0.1,1.44,0.31l-0.37,0.98c-0.2-0.08-0.38-0.15-0.55-0.2c-0.17-0.05-0.34-0.08-0.51-0.08c-0.66,0-0.98,0.47-0.98,1.4
			c0,0.9,0.33,1.36,0.98,1.36c0.24,0,0.47-0.03,0.67-0.1c0.21-0.06,0.41-0.17,0.62-0.3v1.08c-0.2,0.13-0.41,0.22-0.62,0.27
			C33.26,71.6,32.99,71.63,32.68,71.63z"/>
		<path class="st2" d="M35.38,65.73c0-0.41,0.23-0.62,0.69-0.62c0.46,0,0.69,0.21,0.69,0.62c0,0.2-0.06,0.35-0.17,0.46
			c-0.11,0.11-0.29,0.16-0.51,0.16C35.61,66.35,35.38,66.14,35.38,65.73z M36.69,71.54h-1.26v-4.62h1.26V71.54z"/>
		<path class="st2" d="M42.56,71.54H41.3v-2.7c0-0.33-0.06-0.58-0.18-0.75c-0.12-0.17-0.31-0.25-0.57-0.25
			c-0.35,0-0.61,0.12-0.76,0.35c-0.16,0.24-0.24,0.63-0.24,1.17v2.17H38.3v-4.62h0.96l0.17,0.59h0.07c0.14-0.22,0.33-0.39,0.58-0.51
			c0.25-0.11,0.53-0.17,0.84-0.17c0.54,0,0.95,0.15,1.22,0.44c0.28,0.29,0.42,0.71,0.42,1.26V71.54z"/>
		<path class="st2" d="M47.07,71.54l-0.24-0.63H46.8c-0.21,0.27-0.43,0.45-0.66,0.56c-0.22,0.1-0.52,0.15-0.88,0.15
			c-0.44,0-0.79-0.13-1.05-0.38c-0.25-0.25-0.38-0.61-0.38-1.08c0-0.49,0.17-0.85,0.51-1.09c0.34-0.23,0.86-0.36,1.55-0.39l0.8-0.02
			v-0.2c0-0.47-0.24-0.7-0.72-0.7c-0.37,0-0.8,0.11-1.3,0.33l-0.42-0.85c0.53-0.28,1.12-0.42,1.77-0.42c0.62,0,1.1,0.14,1.43,0.41
			c0.33,0.27,0.5,0.68,0.5,1.23v3.08H47.07z M46.7,69.4l-0.49,0.02c-0.37,0.01-0.64,0.08-0.82,0.2c-0.18,0.12-0.27,0.31-0.27,0.55
			c0,0.36,0.2,0.53,0.61,0.53c0.29,0,0.53-0.08,0.7-0.25c0.18-0.17,0.26-0.39,0.26-0.67V69.4z"/>
		<path class="st2" d="M52.4,70.17c0,0.47-0.16,0.84-0.49,1.08c-0.33,0.25-0.82,0.37-1.48,0.37c-0.34,0-0.62-0.02-0.86-0.07
			c-0.24-0.05-0.46-0.11-0.67-0.2v-1.04c0.23,0.11,0.5,0.2,0.79,0.28c0.29,0.07,0.55,0.11,0.78,0.11c0.46,0,0.69-0.13,0.69-0.4
			c0-0.1-0.03-0.18-0.09-0.24C51,70,50.9,69.93,50.75,69.85c-0.15-0.08-0.35-0.17-0.6-0.27c-0.36-0.15-0.62-0.29-0.78-0.41
			c-0.17-0.13-0.29-0.27-0.36-0.44c-0.08-0.16-0.11-0.37-0.11-0.61c0-0.41,0.16-0.73,0.48-0.95c0.32-0.22,0.77-0.34,1.35-0.34
			c0.56,0,1.1,0.12,1.62,0.36l-0.38,0.91c-0.23-0.1-0.45-0.18-0.65-0.24c-0.2-0.06-0.41-0.09-0.62-0.09c-0.37,0-0.56,0.1-0.56,0.3
			c0,0.11,0.06,0.21,0.18,0.29c0.12,0.08,0.38,0.21,0.79,0.37c0.36,0.15,0.63,0.28,0.79,0.41c0.17,0.13,0.29,0.27,0.37,0.44
			C52.36,69.74,52.4,69.94,52.4,70.17z"/>
	</g>
	<g>
		
			<ellipse transform="matrix(0.7071 -0.7071 0.7071 0.7071 -17.8201 36.5227)" class="st1" cx="35.18" cy="39.77" rx="19.21" ry="19.21"/>
	</g>
	<g>
		<g>
			<path class="st2" d="M46,46.3c-0.04-0.01-0.1-0.03-0.17,0.01c-0.02,0.01-1.94,0.95-2.59,0.95c-0.32,0-0.81-0.24-1.3-0.47
				c-0.51-0.25-0.99-0.48-1.38-0.5c-0.43-0.02-0.94,0.24-1.49,0.51c-0.45,0.22-0.91,0.46-1.21,0.46c-0.3,0-0.78-0.23-1.23-0.45
				c-0.55-0.27-1.05-0.52-1.45-0.52c-0.4,0-0.9,0.25-1.43,0.5c-0.47,0.23-0.95,0.47-1.25,0.47s-0.78-0.23-1.24-0.46
				c-0.54-0.26-1.04-0.51-1.45-0.51c-0.4,0-0.91,0.25-1.44,0.51c-0.47,0.23-0.94,0.46-1.25,0.46c-0.65,0-2.57-0.94-2.59-0.95
				c-0.05-0.03-0.12-0.03-0.17-0.01c-0.06,0.02-0.12,0.08-0.14,0.15c-0.06,0.14,0,0.32,0.13,0.38c0.21,0.1,2.04,0.99,2.78,0.99
				c0.4,0,0.9-0.25,1.43-0.5c0.47-0.23,0.95-0.47,1.25-0.47c0.28,0,0.7,0.19,1.25,0.46c0.53,0.26,1.04,0.51,1.44,0.51
				c0.41,0,0.91-0.25,1.44-0.51c0.55-0.27,0.96-0.46,1.25-0.46c0.28,0,0.7,0.19,1.25,0.46c0.54,0.26,1.04,0.51,1.44,0.51
				c0.39,0,0.88-0.24,1.4-0.5c0.55-0.28,0.96-0.47,1.25-0.47c0.01,0,0.02,0,0.03,0c0.3,0.02,0.76,0.24,1.21,0.45
				c0.55,0.27,1.07,0.52,1.49,0.52c0.56,0,1.85-0.53,2.78-0.99c0.13-0.06,0.19-0.24,0.13-0.38C46.12,46.37,46.07,46.32,46,46.3z"/>
		</g>
		<g>
			<path class="st2" d="M24.33,43.91L24.33,43.91c0.93,0.46,2.22,0.99,2.78,0.99c0.4,0,0.91-0.25,1.44-0.51
				c0.46-0.23,0.94-0.46,1.25-0.46c0.3,0,0.78,0.24,1.25,0.46c0.54,0.26,1.04,0.51,1.44,0.51c0.4,0,0.91-0.25,1.44-0.51
				c0.47-0.23,0.95-0.46,1.25-0.46c0.3,0,0.78,0.23,1.24,0.46c0.54,0.26,1.04,0.51,1.45,0.51c0.39,0,0.88-0.24,1.4-0.5
				c0.55-0.28,0.96-0.47,1.25-0.47c0.01,0,0.02,0,0.03,0c0.31,0.02,0.79,0.25,1.22,0.46c0.55,0.27,1.07,0.51,1.49,0.51
				c0.56,0,1.85-0.54,2.78-0.99c0.13-0.06,0.18-0.24,0.13-0.38c-0.03-0.07-0.08-0.12-0.15-0.15c-0.04-0.01-0.1-0.02-0.17,0.01
				c-0.02,0.01-1.94,0.95-2.59,0.95c-0.32,0-0.84-0.25-1.3-0.47c-0.51-0.25-1-0.48-1.38-0.5c-0.42-0.02-0.94,0.24-1.49,0.51
				c-0.53,0.27-0.93,0.46-1.21,0.46c-0.31,0-0.78-0.24-1.25-0.46c-0.51-0.25-1.03-0.51-1.44-0.51c-0.41,0-0.91,0.25-1.44,0.51
				c-0.46,0.23-0.94,0.46-1.25,0.46c-0.28,0-0.7-0.19-1.25-0.46c-0.53-0.26-1.04-0.51-1.44-0.51c-0.41,0-0.91,0.25-1.44,0.51
				c-0.47,0.23-0.94,0.46-1.25,0.46c-0.65,0-2.57-0.94-2.59-0.95c-0.07-0.04-0.13-0.02-0.17-0.01c-0.06,0.02-0.12,0.08-0.15,0.15
				C24.14,43.68,24.2,43.85,24.33,43.91z"/>
		</g>
		<g>
			<path class="st2" d="M36.07,41.99c0.14,0,0.25-0.13,0.25-0.28v-2.63h3.99v2.63c0,0.15,0.11,0.28,0.25,0.28
				c0.14,0,0.25-0.13,0.25-0.28v-8.73c0-0.38,0.29-0.69,0.65-0.69c0.36,0,0.65,0.31,0.65,0.69c0,0.16,0.11,0.28,0.25,0.28
				c0.13,0,0.24-0.13,0.24-0.28c0-0.69-0.51-1.25-1.14-1.25c-0.59,0-1.09,0.51-1.13,1.17c-0.01,0.04-0.01,0.06-0.01,0.08v2.63h-3.99
				v-2.63c0-0.38,0.29-0.69,0.65-0.69c0.36,0,0.65,0.31,0.65,0.69c0,0.16,0.11,0.28,0.24,0.28c0.14,0,0.25-0.13,0.25-0.28
				c0-0.69-0.51-1.25-1.14-1.25c-0.59,0-1.09,0.51-1.13,1.17c-0.01,0.04-0.01,0.06-0.01,0.08v8.73
				C35.83,41.87,35.94,41.99,36.07,41.99z M36.32,36.17h3.99v2.35h-3.99V36.17z"/>
		</g>
	</g>
</g>
</svg>
