<svg id="Capa_1" data-name="Capa 1" xmlns="http://www.w3.org/2000/svg" viewBox="0 0 70 110"><defs><style>.cls-1{fill:#efefef;}.cls-2{fill:#036381;}</style></defs><circle class="cls-1" cx="32.95" cy="39.75" r="19.19" transform="translate(-18.46 34.94) rotate(-45)"/><path class="cls-2" d="M28,35.56l.2-.06v-.24A3.15,3.15,0,0,1,31.09,32,3.18,3.18,0,0,1,34,35.41a3.53,3.53,0,0,1-1.18,2.7l-.32.27.33.26a3.6,3.6,0,0,0,2.24.79,3.93,3.93,0,0,0,3.35-2.08,4.54,4.54,0,0,1,.72,2.5,4.61,4.61,0,0,1-.77,2.58l0,.06c-.69,1.74-2.87,2.95-5.3,2.95-3.05,0-5.53-1.84-5.53-4.11a3.66,3.66,0,0,1,1.6-2.89l.31-.23-.27-.28a3,3,0,0,1-.41-.51l-.1-.14h-.31a2.15,2.15,0,0,1-2-1.62A3.48,3.48,0,0,0,28,35.56M28.33,38h.05l.14.18A4.23,4.23,0,0,0,27,41.33C27,44,29.68,46.09,33,46.09c2.66,0,5-1.32,5.8-3.29a5.27,5.27,0,0,0,.87-2.95,5.2,5.2,0,0,0-1.11-3.28l-.27-.33-.19.4a3.45,3.45,0,0,1-3.06,2.14,3,3,0,0,1-1.6-.45,4.3,4.3,0,0,0,1.1-2.92,3.8,3.8,0,0,0-3.49-4A3.71,3.71,0,0,0,27.62,35,3.1,3.1,0,0,1,26,35l-.41-.11.06.48A2.83,2.83,0,0,0,28.33,38"/><path class="cls-2" d="M40.11,47.49l-1-.4a2.44,2.44,0,0,0-1.6,0l-.34.13a2.18,2.18,0,0,1-1.24,0l-.34-.13a2.44,2.44,0,0,0-1.6,0l-.33.13a2.22,2.22,0,0,1-1.25,0L32,47.09a2.47,2.47,0,0,0-1.61,0l-.33.13a2.22,2.22,0,0,1-1.25,0l-.33-.13a2.44,2.44,0,0,0-1.6,0l-1.05.4a.33.33,0,0,0-.19.36.3.3,0,0,0,.28.27,8.8,8.8,0,0,0,1.13-.42,2.05,2.05,0,0,1,1.25,0l.34.13a2.57,2.57,0,0,0,1.6,0l.33-.13a2.05,2.05,0,0,1,1.25,0l.33.13a2.61,2.61,0,0,0,1.61,0l.33-.13a2.05,2.05,0,0,1,1.25,0l.33.13a2.57,2.57,0,0,0,1.6,0l.34-.13a2,2,0,0,1,1.24,0l1,.4.09,0a.3.3,0,0,0,.27-.22.34.34,0,0,0-.18-.41"/><path class="cls-2" d="M30.35,34.28a.32.32,0,0,1,.29.34.3.3,0,1,1-.59,0,.32.32,0,0,1,.3-.34"/><path class="cls-2" d="M19.07,68.12a1.83,1.83,0,0,1-.6,1.48,2.6,2.6,0,0,1-1.72.51h-.54v2.13H14.94v-6h1.91a2.57,2.57,0,0,1,1.66.47A1.71,1.71,0,0,1,19.07,68.12Zm-2.86.95h.42a1.35,1.35,0,0,0,.87-.23.81.81,0,0,0,.29-.67.83.83,0,0,0-.24-.66,1.15,1.15,0,0,0-.76-.21h-.58Z"/><path class="cls-2" d="M20.33,66.48c0-.4.22-.61.67-.61s.68.21.68.61a.58.58,0,0,1-.17.46.74.74,0,0,1-.51.16C20.55,67.1,20.33,66.89,20.33,66.48Zm1.3,5.76H20.38V67.67h1.25Z"/><path class="cls-2" d="M26.4,70.88A1.24,1.24,0,0,1,25.91,72a2.36,2.36,0,0,1-1.46.37,4.16,4.16,0,0,1-.85-.07,3,3,0,0,1-.66-.2V71a4.72,4.72,0,0,0,.78.28,3.39,3.39,0,0,0,.77.11c.45,0,.68-.13.68-.39a.32.32,0,0,0-.09-.24,1.09,1.09,0,0,0-.31-.21,5.92,5.92,0,0,0-.59-.27,4,4,0,0,1-.77-.41,1.11,1.11,0,0,1-.36-.43,1.4,1.4,0,0,1-.12-.6,1.1,1.1,0,0,1,.48-1,2.31,2.31,0,0,1,1.34-.33,3.77,3.77,0,0,1,1.6.36l-.37.9a5.89,5.89,0,0,0-.65-.24,2.05,2.05,0,0,0-.61-.1c-.36,0-.55.1-.55.3a.35.35,0,0,0,.18.29,4.89,4.89,0,0,0,.78.37,3.77,3.77,0,0,1,.79.4,1.25,1.25,0,0,1,.36.44A1.28,1.28,0,0,1,26.4,70.88Z"/><path class="cls-2" d="M29.51,72.32c-1.42,0-2.14-.78-2.14-2.34A2.52,2.52,0,0,1,28,68.2a2.2,2.2,0,0,1,1.67-.62,3.12,3.12,0,0,1,1.42.31l-.37,1a5.21,5.21,0,0,0-.54-.2,1.79,1.79,0,0,0-.51-.07c-.65,0-1,.46-1,1.38s.32,1.34,1,1.34a2.09,2.09,0,0,0,.67-.1,2.29,2.29,0,0,0,.61-.3V72a2,2,0,0,1-.61.27A3.46,3.46,0,0,1,29.51,72.32Z"/><path class="cls-2" d="M32.18,66.48c0-.4.23-.61.68-.61s.68.21.68.61a.62.62,0,0,1-.17.46.74.74,0,0,1-.51.16C32.41,67.1,32.18,66.89,32.18,66.48Zm1.3,5.76H32.23V67.67h1.25Z"/><path class="cls-2" d="M39.29,72.24H38V69.57a1.33,1.33,0,0,0-.17-.74.64.64,0,0,0-.56-.25.83.83,0,0,0-.76.35,2.12,2.12,0,0,0-.23,1.16v2.15H35.07V67.67h1l.17.58h.07a1.32,1.32,0,0,1,.57-.5,2,2,0,0,1,.84-.17,1.6,1.6,0,0,1,1.21.43,1.76,1.76,0,0,1,.41,1.25Z"/><path class="cls-2" d="M43.75,72.24l-.24-.62h0a2,2,0,0,1-.65.55,2.12,2.12,0,0,1-.87.15,1.32,1.32,0,0,1-1.41-1.45,1.21,1.21,0,0,1,.51-1.07,2.88,2.88,0,0,1,1.53-.38l.8,0v-.2q0-.69-.72-.69a3.23,3.23,0,0,0-1.28.33L41,68a3.79,3.79,0,0,1,1.75-.41,2.19,2.19,0,0,1,1.41.4,1.49,1.49,0,0,1,.49,1.22v3Zm-.36-2.12-.49,0a1.56,1.56,0,0,0-.81.19.63.63,0,0,0-.26.55c0,.35.2.53.6.53a1,1,0,0,0,.7-.25.9.9,0,0,0,.26-.66Z"/><path class="cls-2" d="M51.4,66.26l-2.23,6H48l2.23-6Z"/><path class="cls-2" d="M18.3,83H16.86l-1.57-2.52-.53.39V83H13.49V77h1.27v2.74l.5-.71,1.61-2h1.41L16.2,79.62Z"/><path class="cls-2" d="M19.18,77.2c0-.41.22-.61.67-.61s.68.2.68.61a.57.57,0,0,1-.17.45.69.69,0,0,1-.51.16C19.4,77.81,19.18,77.61,19.18,77.2ZM20.48,83H19.23V78.38h1.25Z"/><path class="cls-2" d="M23.51,83a1.48,1.48,0,0,1-1.27-.62,3,3,0,0,1-.46-1.74,2.89,2.89,0,0,1,.47-1.75,1.64,1.64,0,0,1,2.61,0h0a5.27,5.27,0,0,1-.09-.91V76.59h1.25V83h-1l-.24-.59h-.05A1.44,1.44,0,0,1,23.51,83ZM24,82a.83.83,0,0,0,.7-.28,1.56,1.56,0,0,0,.24-.94v-.14a1.86,1.86,0,0,0-.22-1.05.84.84,0,0,0-.74-.32.74.74,0,0,0-.65.35,1.85,1.85,0,0,0-.23,1,1.82,1.82,0,0,0,.23,1A.76.76,0,0,0,24,82Z"/><path class="cls-2" d="M30.83,81.59a1.27,1.27,0,0,1-.49,1.08,2.46,2.46,0,0,1-1.46.36A5.13,5.13,0,0,1,28,83a3.18,3.18,0,0,1-.66-.2v-1a4,4,0,0,0,.78.27,3.39,3.39,0,0,0,.77.11c.45,0,.68-.13.68-.39a.32.32,0,0,0-.09-.24,1.34,1.34,0,0,0-.31-.21c-.15-.08-.35-.17-.59-.27a3.85,3.85,0,0,1-.78-.41,1.31,1.31,0,0,1-.36-.43,1.5,1.5,0,0,1-.11-.6,1.08,1.08,0,0,1,.47-.94,2.27,2.27,0,0,1,1.34-.34,3.81,3.81,0,0,1,1.61.36l-.38.9-.64-.24a2.1,2.1,0,0,0-.61-.09c-.37,0-.55.1-.55.3a.35.35,0,0,0,.18.29,5.17,5.17,0,0,0,.78.36,3.59,3.59,0,0,1,.78.41,1.15,1.15,0,0,1,.37.43A1.31,1.31,0,0,1,30.83,81.59Z"/><path class="cls-2" d="M38.76,78.84a1.82,1.82,0,0,1-.6,1.47,2.54,2.54,0,0,1-1.72.52H35.9V83H34.63V77h1.91a2.54,2.54,0,0,1,1.65.47A1.7,1.7,0,0,1,38.76,78.84Zm-2.86,1h.41a1.42,1.42,0,0,0,.88-.23.83.83,0,0,0,.29-.68.85.85,0,0,0-.24-.66,1.18,1.18,0,0,0-.77-.21H35.9Z"/><path class="cls-2" d="M44.22,80.66a2.42,2.42,0,0,1-.59,1.74A2.13,2.13,0,0,1,42,83a2.34,2.34,0,0,1-1.16-.28,2,2,0,0,1-.77-.83,2.78,2.78,0,0,1-.27-1.26,2.42,2.42,0,0,1,.58-1.74A2.14,2.14,0,0,1,42,78.29a2.29,2.29,0,0,1,1.16.29,1.85,1.85,0,0,1,.77.82A2.78,2.78,0,0,1,44.22,80.66Zm-3.16,0a2,2,0,0,0,.22,1,.93.93,0,0,0,1.45,0,2,2,0,0,0,.22-1,2,2,0,0,0-.22-1,.94.94,0,0,0-1.45,0A1.93,1.93,0,0,0,41.06,80.66Z"/><path class="cls-2" d="M49.69,80.66a2.46,2.46,0,0,1-.59,1.74,2.15,2.15,0,0,1-1.64.63,2.29,2.29,0,0,1-1.16-.28,2,2,0,0,1-.78-.83,2.78,2.78,0,0,1-.27-1.26,2.43,2.43,0,0,1,.59-1.74,2.13,2.13,0,0,1,1.64-.63,2.29,2.29,0,0,1,1.16.29,1.88,1.88,0,0,1,.78.82A2.78,2.78,0,0,1,49.69,80.66Zm-3.17,0a1.88,1.88,0,0,0,.23,1,.92.92,0,0,0,1.44,0,1.92,1.92,0,0,0,.22-1,1.89,1.89,0,0,0-.22-1,.79.79,0,0,0-.72-.34.77.77,0,0,0-.72.34A1.83,1.83,0,0,0,46.52,80.66Z"/><path class="cls-2" d="M52.24,83H51V76.59h1.25Z"/></svg>