<?xml version="1.0" encoding="utf-8"?>
<!-- Generator: Adobe Illustrator 24.1.0, SVG Export Plug-In . SVG Version: 6.00 Build 0)  -->
<svg version="1.1" id="Capa_1" xmlns="http://www.w3.org/2000/svg" xmlns:xlink="http://www.w3.org/1999/xlink" x="0px" y="0px"
	 viewBox="0 0 70 110" style="enable-background:new 0 0 70 110;" xml:space="preserve">
<style type="text/css">
	.st0{fill:#00667C;}
	.st1{fill:#EFEFEF;}
	.st2{fill:#036381;}
</style>
<g>
	<g>
		<g>
			<g>
				<path class="st0" d="M22.47,65.9h1.9c0.87,0,1.49,0.12,1.88,0.37c0.39,0.25,0.59,0.64,0.59,1.17c0,0.36-0.09,0.66-0.26,0.9
					c-0.17,0.23-0.4,0.37-0.68,0.42v0.04c0.39,0.09,0.67,0.25,0.84,0.48s0.26,0.55,0.26,0.94c0,0.56-0.2,0.99-0.6,1.3
					c-0.4,0.31-0.95,0.47-1.64,0.47h-2.28V65.9z M23.76,68.31h0.75c0.35,0,0.6-0.05,0.76-0.16s0.24-0.29,0.24-0.54
					c0-0.23-0.09-0.4-0.26-0.5c-0.17-0.1-0.44-0.15-0.81-0.15h-0.68V68.31z M23.76,69.34v1.59h0.84c0.36,0,0.62-0.07,0.79-0.2
					c0.17-0.14,0.25-0.34,0.25-0.63c0-0.51-0.36-0.76-1.08-0.76H23.76z"/>
				<path class="st0" d="M30.5,72.08c-0.75,0-1.34-0.21-1.76-0.62c-0.42-0.41-0.63-1-0.63-1.76c0-0.78,0.2-1.38,0.59-1.81
					s0.93-0.64,1.62-0.64c0.66,0,1.17,0.19,1.54,0.56c0.37,0.38,0.55,0.89,0.55,1.56v0.62h-3.01c0.01,0.36,0.12,0.64,0.32,0.85
					c0.2,0.2,0.48,0.3,0.84,0.3c0.28,0,0.55-0.03,0.8-0.09c0.25-0.06,0.51-0.15,0.78-0.28v0.98c-0.22,0.11-0.46,0.19-0.71,0.25
					S30.86,72.08,30.5,72.08z M30.32,68.15c-0.27,0-0.48,0.09-0.63,0.26c-0.15,0.17-0.24,0.41-0.26,0.73h1.78
					c-0.01-0.31-0.09-0.56-0.25-0.73C30.8,68.23,30.59,68.15,30.32,68.15z"/>
				<path class="st0" d="M36.68,71.99l-0.25-0.63H36.4c-0.21,0.27-0.44,0.46-0.66,0.56s-0.52,0.16-0.89,0.16
					c-0.45,0-0.8-0.13-1.06-0.38c-0.26-0.26-0.39-0.62-0.39-1.09c0-0.49,0.17-0.86,0.52-1.1c0.35-0.23,0.87-0.36,1.57-0.39
					l0.81-0.03v-0.2c0-0.47-0.24-0.71-0.73-0.71c-0.37,0-0.81,0.11-1.31,0.34l-0.42-0.86c0.54-0.28,1.13-0.42,1.79-0.42
					c0.63,0,1.11,0.14,1.44,0.41c0.33,0.27,0.5,0.69,0.5,1.24v3.11H36.68z M36.3,69.83l-0.49,0.02c-0.37,0.01-0.65,0.08-0.83,0.2
					c-0.18,0.12-0.27,0.31-0.27,0.56c0,0.36,0.21,0.54,0.62,0.54c0.3,0,0.53-0.09,0.71-0.25c0.18-0.17,0.26-0.39,0.26-0.68V69.83z"
					/>
				<path class="st0" d="M41.05,72.08c-1.45,0-2.18-0.8-2.18-2.39c0-0.79,0.2-1.4,0.59-1.82c0.39-0.42,0.96-0.63,1.7-0.63
					c0.54,0,1.02,0.11,1.45,0.32l-0.38,0.98c-0.2-0.08-0.39-0.15-0.56-0.2c-0.17-0.05-0.34-0.08-0.52-0.08
					c-0.66,0-0.99,0.47-0.99,1.41c0,0.91,0.33,1.37,0.99,1.37c0.25,0,0.47-0.03,0.68-0.1c0.21-0.07,0.42-0.17,0.63-0.31v1.09
					c-0.21,0.13-0.41,0.22-0.62,0.27C41.63,72.05,41.37,72.08,41.05,72.08z"/>
				<path class="st0" d="M48.13,71.99h-1.27v-2.72c0-0.67-0.25-1.01-0.75-1.01c-0.36,0-0.61,0.12-0.77,0.36
					c-0.16,0.24-0.24,0.63-0.24,1.18v2.19h-1.27v-6.49h1.27v1.32c0,0.1-0.01,0.35-0.03,0.73l-0.03,0.37h0.07
					c0.28-0.46,0.73-0.68,1.35-0.68c0.55,0,0.96,0.15,1.25,0.44c0.28,0.29,0.43,0.72,0.43,1.27V71.99z"/>
				<path class="st0" d="M19.7,83.36v-6.1h1.29v5.03h2.47v1.07H19.7z"/>
				<path class="st0" d="M28.94,81.02c0,0.76-0.2,1.35-0.6,1.78s-0.96,0.64-1.67,0.64c-0.45,0-0.84-0.1-1.19-0.29
					c-0.34-0.2-0.6-0.48-0.79-0.84s-0.28-0.79-0.28-1.28c0-0.76,0.2-1.35,0.6-1.78c0.4-0.42,0.96-0.63,1.68-0.63
					c0.45,0,0.84,0.1,1.19,0.29c0.34,0.2,0.6,0.47,0.79,0.84C28.85,80.1,28.94,80.53,28.94,81.02z M25.72,81.02
					c0,0.46,0.08,0.81,0.23,1.05c0.15,0.24,0.4,0.35,0.74,0.35c0.34,0,0.58-0.12,0.73-0.35c0.15-0.23,0.22-0.58,0.22-1.05
					c0-0.46-0.07-0.81-0.23-1.04s-0.4-0.35-0.74-0.35c-0.34,0-0.58,0.11-0.73,0.34C25.79,80.21,25.72,80.55,25.72,81.02z"/>
				<path class="st0" d="M33.58,83.36l-0.17-0.6h-0.07c-0.14,0.22-0.33,0.39-0.58,0.5c-0.25,0.12-0.54,0.18-0.85,0.18
					c-0.55,0-0.96-0.15-1.24-0.44c-0.28-0.29-0.42-0.71-0.42-1.27V78.7h1.27v2.72c0,0.34,0.06,0.59,0.18,0.76s0.31,0.25,0.57,0.25
					c0.36,0,0.61-0.12,0.77-0.36c0.16-0.24,0.24-0.63,0.24-1.18V78.7h1.27v4.66H33.58z"/>
				<path class="st0" d="M40.47,83.36H39.2v-2.72c0-0.34-0.06-0.59-0.18-0.76c-0.12-0.17-0.31-0.25-0.57-0.25
					c-0.36,0-0.61,0.12-0.77,0.36c-0.16,0.24-0.24,0.63-0.24,1.18v2.19h-1.27V78.7h0.97l0.17,0.6h0.07
					c0.14-0.23,0.34-0.39,0.59-0.51c0.25-0.12,0.53-0.17,0.85-0.17c0.54,0,0.95,0.15,1.23,0.44c0.28,0.29,0.42,0.72,0.42,1.27V83.36
					z"/>
				<path class="st0" d="M46.12,78.7v0.65l-0.73,0.19c0.13,0.21,0.2,0.44,0.2,0.7c0,0.5-0.17,0.89-0.52,1.17
					c-0.35,0.28-0.83,0.42-1.45,0.42l-0.23-0.01l-0.19-0.02C43.07,81.88,43,82,43,82.12c0,0.18,0.23,0.28,0.7,0.28h0.79
					c0.51,0,0.9,0.11,1.17,0.33c0.27,0.22,0.4,0.54,0.4,0.97c0,0.55-0.23,0.97-0.68,1.27c-0.45,0.3-1.11,0.45-1.96,0.45
					c-0.65,0-1.15-0.11-1.49-0.34c-0.34-0.23-0.52-0.55-0.52-0.95c0-0.28,0.09-0.52,0.26-0.71c0.17-0.19,0.43-0.32,0.77-0.4
					c-0.13-0.06-0.24-0.15-0.34-0.27c-0.1-0.13-0.15-0.26-0.15-0.4c0-0.18,0.05-0.33,0.15-0.44c0.1-0.12,0.25-0.23,0.45-0.35
					c-0.24-0.11-0.44-0.28-0.58-0.51c-0.14-0.23-0.21-0.51-0.21-0.83c0-0.51,0.17-0.9,0.5-1.18c0.33-0.28,0.8-0.42,1.42-0.42
					c0.13,0,0.29,0.01,0.47,0.04c0.18,0.02,0.29,0.04,0.34,0.05H46.12z M42.52,84.02c0,0.17,0.08,0.31,0.25,0.41
					c0.17,0.1,0.4,0.15,0.71,0.15c0.46,0,0.81-0.06,1.07-0.19c0.26-0.13,0.39-0.3,0.39-0.51c0-0.17-0.08-0.3-0.23-0.36
					c-0.15-0.07-0.39-0.1-0.71-0.1h-0.66c-0.23,0-0.43,0.06-0.59,0.17C42.6,83.69,42.52,83.84,42.52,84.02z M42.99,80.22
					c0,0.25,0.06,0.45,0.17,0.6c0.12,0.15,0.29,0.22,0.53,0.22c0.24,0,0.41-0.07,0.53-0.22c0.11-0.15,0.17-0.35,0.17-0.6
					c0-0.56-0.23-0.84-0.69-0.84C43.22,79.38,42.99,79.66,42.99,80.22z"/>
				<path class="st0" d="M49.28,83.44c-0.75,0-1.34-0.21-1.76-0.62c-0.42-0.41-0.63-1-0.63-1.76c0-0.78,0.2-1.38,0.59-1.81
					c0.39-0.43,0.93-0.64,1.62-0.64c0.66,0,1.17,0.19,1.54,0.56c0.37,0.38,0.55,0.89,0.55,1.56v0.62h-3.01
					c0.01,0.36,0.12,0.64,0.32,0.85c0.2,0.2,0.48,0.3,0.84,0.3c0.28,0,0.55-0.03,0.8-0.09c0.25-0.06,0.51-0.15,0.78-0.28v0.98
					c-0.22,0.11-0.46,0.19-0.71,0.25S49.64,83.44,49.28,83.44z M49.1,79.51c-0.27,0-0.48,0.09-0.63,0.26
					c-0.15,0.17-0.24,0.41-0.26,0.73h1.78c-0.01-0.31-0.09-0.56-0.25-0.73C49.59,79.6,49.37,79.51,49.1,79.51z"/>
			</g>
		</g>
	</g>
	<g>
		<g>
			<circle class="st1" cx="35" cy="39.94" r="19.38"/>
		</g>
		<g>
			<g>
				<path class="st0" d="M30.89,32.64c-0.12,0-0.2,0.08-0.2,0.21v13.69h-1.47V32.85c0-0.13-0.08-0.21-0.2-0.21
					c-0.12,0-0.2,0.08-0.2,0.21v5.61h-1.47v-5.71c0-0.13-0.08-0.21-0.2-0.21c-0.12,0-0.19,0.08-0.19,0.21v15.77
					c0,0.13,0.08,0.21,0.19,0.21c0.12,0,0.2-0.08,0.2-0.21v-9.64h1.47v9.77c0,0.13,0.08,0.21,0.2,0.21c0.12,0,0.2-0.08,0.2-0.21
					v-1.68h1.47v1.68c0,0.13,0.08,0.21,0.2,0.21c0.12,0,0.2-0.08,0.2-0.21V32.85C31.08,32.74,31,32.64,30.89,32.64"/>
			</g>
			<g>
				<path class="st0" d="M34.61,32.64c-0.12,0-0.2,0.08-0.2,0.21v10.29h-1.47V32.85c0-0.13-0.08-0.21-0.2-0.21
					c-0.12,0-0.2,0.08-0.2,0.21v15.79c0,0.13,0.08,0.21,0.2,0.21c0.12,0,0.2-0.08,0.2-0.21v-5.08h1.47v5.08
					c0,0.13,0.08,0.21,0.2,0.21c0.12,0,0.2-0.08,0.2-0.21V32.85C34.8,32.74,34.72,32.64,34.61,32.64"/>
			</g>
			<g>
				<path class="st0" d="M38.33,32.64c-0.12,0-0.2,0.08-0.2,0.21v2.98h-1.47v-2.98c0-0.13-0.08-0.21-0.2-0.21
					c-0.12,0-0.2,0.08-0.2,0.21v15.79c0,0.13,0.08,0.21,0.2,0.21c0.12,0,0.2-0.08,0.2-0.21V36.25h1.47v12.39
					c0,0.13,0.08,0.21,0.2,0.21c0.12,0,0.2-0.08,0.2-0.21V32.85C38.52,32.74,38.44,32.64,38.33,32.64"/>
			</g>
			<g>
				<path class="st0" d="M42.05,32.53c-0.12,0-0.2,0.08-0.2,0.21v7.35h-1.47v-7.25c0-0.13-0.08-0.21-0.2-0.21
					c-0.12,0-0.2,0.08-0.2,0.21v15.79c0,0.13,0.08,0.21,0.2,0.21c0.12,0,0.2-0.08,0.2-0.21v-8.13h1.47v8c0,0.13,0.08,0.21,0.2,0.21
					c0.12,0,0.2-0.08,0.2-0.21V32.74C42.24,32.62,42.16,32.53,42.05,32.53"/>
			</g>
			<g>
				<path class="st0" d="M27.85,37.91c0.06,0,0.12,0.06,0.12,0.13c0,0.07-0.05,0.13-0.12,0.13c-0.06,0-0.12-0.06-0.12-0.13
					C27.73,37.96,27.79,37.91,27.85,37.91"/>
			</g>
			<g>
				<path class="st0" d="M28.36,37.91c0.06,0,0.12,0.06,0.12,0.13c0,0.07-0.05,0.13-0.12,0.13c-0.06,0-0.12-0.06-0.12-0.13
					C28.24,37.96,28.3,37.91,28.36,37.91"/>
			</g>
			<g>
				<path class="st0" d="M29.71,45.93c0.06,0,0.12,0.06,0.12,0.13c0,0.07-0.05,0.13-0.12,0.13c-0.06,0-0.12-0.06-0.12-0.13
					C29.59,45.99,29.65,45.93,29.71,45.93"/>
			</g>
			<g>
				<path class="st0" d="M30.22,45.93c0.06,0,0.12,0.06,0.12,0.13c0,0.07-0.05,0.13-0.12,0.13c-0.06,0-0.12-0.06-0.12-0.13
					C30.1,45.99,30.16,45.93,30.22,45.93"/>
			</g>
			<g>
				<path class="st0" d="M33.41,42.51c0.06,0,0.12,0.06,0.12,0.13c0,0.07-0.05,0.13-0.12,0.13s-0.12-0.06-0.12-0.13
					C33.29,42.56,33.35,42.51,33.41,42.51"/>
			</g>
			<g>
				<path class="st0" d="M33.94,42.51c0.06,0,0.12,0.06,0.12,0.13c0,0.07-0.05,0.13-0.12,0.13c-0.06,0-0.12-0.06-0.12-0.13
					C33.82,42.56,33.88,42.51,33.94,42.51"/>
			</g>
			<g>
				<path class="st0" d="M37.13,35.22c0.06,0,0.12,0.06,0.12,0.13c0,0.07-0.05,0.13-0.12,0.13s-0.12-0.06-0.12-0.13
					C37.01,35.28,37.07,35.22,37.13,35.22"/>
			</g>
			<g>
				<path class="st0" d="M37.66,35.22c0.06,0,0.12,0.06,0.12,0.13c0,0.07-0.05,0.13-0.12,0.13c-0.06,0-0.12-0.06-0.12-0.13
					C37.54,35.28,37.6,35.22,37.66,35.22"/>
			</g>
			<g>
				<path class="st0" d="M40.85,39.46c0.06,0,0.12,0.06,0.12,0.13c0,0.07-0.05,0.13-0.12,0.13s-0.12-0.06-0.12-0.13
					C40.73,39.52,40.79,39.46,40.85,39.46"/>
			</g>
			<g>
				<path class="st0" d="M41.38,39.46c0.06,0,0.12,0.06,0.12,0.13c0,0.07-0.05,0.13-0.12,0.13c-0.06,0-0.12-0.06-0.12-0.13
					C41.26,39.52,41.32,39.46,41.38,39.46"/>
			</g>
		</g>
	</g>
</g>
</svg>
