<?xml version="1.0" encoding="utf-8"?>
<!-- Generator: Adobe Illustrator 24.1.0, SVG Export Plug-In . SVG Version: 6.00 Build 0)  -->
<svg version="1.1" id="Capa_1" xmlns="http://www.w3.org/2000/svg" xmlns:xlink="http://www.w3.org/1999/xlink" x="0px" y="0px"
	 viewBox="0 0 70 110" style="enable-background:new 0 0 70 110;" xml:space="preserve">
<style type="text/css">
	.st0{fill:#00667C;}
	.st1{fill:#EFEFEF;}
	.st2{fill:#036381;}
</style>
<g>
	<g>
		<g>
			<g>
				<path class="st0" d="M23.86,68.57h2.42v3.16c-0.39,0.13-0.76,0.22-1.11,0.27c-0.35,0.05-0.7,0.08-1.06,0.08
					c-0.92,0-1.62-0.27-2.11-0.81c-0.49-0.54-0.73-1.32-0.73-2.33c0-0.98,0.28-1.75,0.84-2.3c0.56-0.55,1.34-0.83,2.34-0.83
					c0.63,0,1.23,0.12,1.81,0.38l-0.43,1.03c-0.44-0.22-0.91-0.33-1.39-0.33c-0.56,0-1.01,0.19-1.34,0.56
					c-0.34,0.37-0.5,0.88-0.5,1.51c0,0.66,0.14,1.17,0.41,1.52C23.29,70.82,23.68,71,24.2,71c0.27,0,0.54-0.03,0.82-0.08v-1.27
					h-1.16V68.57z"/>
				<path class="st0" d="M30.88,71.99l-0.25-0.63H30.6c-0.21,0.27-0.44,0.46-0.66,0.56s-0.52,0.16-0.89,0.16
					c-0.45,0-0.8-0.13-1.06-0.38c-0.26-0.26-0.39-0.62-0.39-1.09c0-0.49,0.17-0.86,0.52-1.1c0.35-0.23,0.87-0.36,1.57-0.39
					l0.81-0.03v-0.2c0-0.47-0.24-0.71-0.73-0.71c-0.37,0-0.81,0.11-1.31,0.34l-0.42-0.86c0.54-0.28,1.13-0.42,1.79-0.42
					c0.63,0,1.11,0.14,1.44,0.41c0.33,0.27,0.5,0.69,0.5,1.24v3.11H30.88z M30.5,69.83l-0.49,0.02c-0.37,0.01-0.65,0.08-0.83,0.2
					c-0.18,0.12-0.27,0.31-0.27,0.56c0,0.36,0.21,0.54,0.62,0.54c0.3,0,0.53-0.09,0.71-0.25c0.18-0.17,0.26-0.39,0.26-0.68V69.83z"
					/>
				<path class="st0" d="M37.53,71.99h-1.27v-2.72c0-0.34-0.06-0.59-0.17-0.76c-0.11-0.17-0.29-0.25-0.53-0.25
					c-0.33,0-0.56,0.12-0.71,0.36c-0.15,0.24-0.22,0.63-0.22,1.18v2.19h-1.27v-4.66h0.97l0.17,0.6h0.07
					c0.12-0.21,0.31-0.38,0.54-0.5c0.24-0.12,0.51-0.18,0.81-0.18c0.7,0,1.17,0.23,1.42,0.68h0.11c0.13-0.22,0.31-0.39,0.55-0.5
					c0.24-0.12,0.52-0.18,0.82-0.18c0.53,0,0.93,0.14,1.2,0.41c0.27,0.27,0.41,0.71,0.41,1.3v3.04h-1.28v-2.72
					c0-0.34-0.06-0.59-0.17-0.76c-0.11-0.17-0.29-0.25-0.53-0.25c-0.31,0-0.55,0.11-0.7,0.33c-0.15,0.22-0.23,0.58-0.23,1.06V71.99z
					"/>
				<path class="st0" d="M44.13,72.08c-0.75,0-1.34-0.21-1.76-0.62c-0.42-0.41-0.63-1-0.63-1.76c0-0.78,0.2-1.38,0.59-1.81
					c0.39-0.43,0.93-0.64,1.62-0.64c0.66,0,1.17,0.19,1.54,0.56c0.37,0.38,0.55,0.89,0.55,1.56v0.62h-3.01
					c0.01,0.36,0.12,0.64,0.32,0.85c0.2,0.2,0.48,0.3,0.84,0.3c0.28,0,0.55-0.03,0.8-0.09c0.25-0.06,0.51-0.15,0.78-0.28v0.98
					c-0.22,0.11-0.46,0.19-0.71,0.25S44.5,72.08,44.13,72.08z M43.95,68.15c-0.27,0-0.48,0.09-0.63,0.26
					c-0.15,0.17-0.24,0.41-0.26,0.73h1.78c-0.01-0.31-0.09-0.56-0.25-0.73C44.44,68.23,44.22,68.15,43.95,68.15z"/>
				<path class="st0" d="M50.6,70.61c0,0.48-0.17,0.84-0.5,1.09c-0.33,0.25-0.83,0.38-1.49,0.38c-0.34,0-0.63-0.02-0.87-0.07
					c-0.24-0.05-0.46-0.11-0.67-0.2v-1.05c0.24,0.11,0.5,0.2,0.8,0.28c0.3,0.07,0.56,0.11,0.78,0.11c0.46,0,0.69-0.13,0.69-0.4
					c0-0.1-0.03-0.18-0.09-0.24c-0.06-0.06-0.17-0.13-0.32-0.21c-0.15-0.08-0.35-0.17-0.6-0.28c-0.36-0.15-0.62-0.29-0.79-0.42
					c-0.17-0.13-0.29-0.28-0.37-0.44c-0.08-0.17-0.12-0.37-0.12-0.61c0-0.41,0.16-0.73,0.48-0.96c0.32-0.23,0.78-0.34,1.37-0.34
					c0.56,0,1.11,0.12,1.64,0.37l-0.38,0.92c-0.23-0.1-0.45-0.18-0.65-0.25c-0.2-0.06-0.41-0.1-0.62-0.1c-0.38,0-0.56,0.1-0.56,0.31
					c0,0.11,0.06,0.21,0.18,0.3c0.12,0.08,0.39,0.21,0.79,0.37c0.36,0.15,0.63,0.28,0.8,0.41s0.29,0.28,0.38,0.44
					C50.56,70.18,50.6,70.38,50.6,70.61z"/>
				<path class="st0" d="M25.19,81.02v2.34H23.9v-6.1h1.78c0.83,0,1.44,0.15,1.84,0.45c0.4,0.3,0.6,0.76,0.6,1.37
					c0,0.36-0.1,0.68-0.3,0.96c-0.2,0.28-0.48,0.5-0.84,0.66c0.92,1.37,1.51,2.26,1.79,2.66h-1.43l-1.45-2.34H25.19z M25.19,79.96
					h0.42c0.41,0,0.71-0.07,0.9-0.2c0.2-0.14,0.29-0.35,0.29-0.64c0-0.29-0.1-0.49-0.3-0.62c-0.2-0.12-0.51-0.18-0.92-0.18h-0.39
					V79.96z"/>
				<path class="st0" d="M33.96,81.02c0,0.76-0.2,1.35-0.6,1.78c-0.4,0.43-0.96,0.64-1.67,0.64c-0.45,0-0.84-0.1-1.19-0.29
					c-0.34-0.2-0.6-0.48-0.79-0.84s-0.28-0.79-0.28-1.28c0-0.76,0.2-1.35,0.6-1.78c0.4-0.42,0.96-0.63,1.68-0.63
					c0.45,0,0.84,0.1,1.19,0.29c0.34,0.2,0.6,0.47,0.79,0.84C33.86,80.1,33.96,80.53,33.96,81.02z M30.73,81.02
					c0,0.46,0.08,0.81,0.23,1.05c0.15,0.24,0.4,0.35,0.74,0.35c0.34,0,0.58-0.12,0.73-0.35c0.15-0.23,0.22-0.58,0.22-1.05
					c0-0.46-0.07-0.81-0.23-1.04c-0.15-0.23-0.4-0.35-0.74-0.35c-0.34,0-0.58,0.11-0.73,0.34C30.81,80.2,30.73,80.55,30.73,81.02z"
					/>
				<path class="st0" d="M39.53,81.02c0,0.76-0.2,1.35-0.6,1.78c-0.4,0.43-0.96,0.64-1.67,0.64c-0.45,0-0.84-0.1-1.19-0.29
					c-0.34-0.2-0.6-0.48-0.79-0.84c-0.18-0.37-0.28-0.79-0.28-1.28c0-0.76,0.2-1.35,0.6-1.78c0.4-0.42,0.96-0.63,1.68-0.63
					c0.45,0,0.84,0.1,1.19,0.29c0.34,0.2,0.6,0.47,0.79,0.84C39.43,80.1,39.53,80.53,39.53,81.02z M36.3,81.02
					c0,0.46,0.08,0.81,0.23,1.05c0.15,0.24,0.4,0.35,0.74,0.35c0.34,0,0.58-0.12,0.73-0.35c0.15-0.23,0.22-0.58,0.22-1.05
					c0-0.46-0.07-0.81-0.23-1.04s-0.4-0.35-0.74-0.35c-0.34,0-0.58,0.11-0.73,0.34C36.38,80.2,36.3,80.55,36.3,81.02z"/>
				<path class="st0" d="M45.03,83.35h-1.27v-2.72c0-0.34-0.06-0.59-0.17-0.76c-0.11-0.17-0.29-0.25-0.53-0.25
					c-0.33,0-0.56,0.12-0.71,0.36c-0.15,0.24-0.22,0.63-0.22,1.18v2.19h-1.27v-4.66h0.97l0.17,0.6h0.07
					c0.12-0.21,0.31-0.38,0.54-0.5c0.24-0.12,0.51-0.18,0.81-0.18c0.7,0,1.17,0.23,1.42,0.68h0.11c0.13-0.22,0.31-0.39,0.55-0.5
					c0.24-0.12,0.52-0.18,0.82-0.18c0.53,0,0.93,0.14,1.2,0.41c0.27,0.27,0.41,0.71,0.41,1.3v3.04h-1.28v-2.72
					c0-0.34-0.06-0.59-0.17-0.76c-0.11-0.17-0.29-0.25-0.53-0.25c-0.31,0-0.55,0.11-0.7,0.33c-0.15,0.22-0.23,0.58-0.23,1.06V83.35z
					"/>
			</g>
		</g>
	</g>
	<g>
		<g>
			<circle class="st1" cx="35" cy="39.94" r="19.38"/>
		</g>
		<g>
			<g>
				<path class="st0" d="M33.72,38.5l2.83-2.87l-2.83-2.71l-2.83,2.71L33.72,38.5z M36.06,35.64l-2.34,2.38l-2.34-2.38l2.34-2.25
					L36.06,35.64z"/>
			</g>
			<g>
				<path class="st0" d="M32.43,41.29c-1.48-0.95-2.95-0.58-3.76,0.21c-0.75,0.73-1.25,2.1-0.23,3.57l0,0
					c0.09,0.13,0.21,0.24,0.35,0.33c0.53,0.36,1.16,0.56,1.81,0.56c0,0,0.01,0,0.01,0c0.74,0,1.43-0.27,1.96-0.77
					c0.82-0.78,1.2-2.18,0.21-3.57C32.69,41.49,32.57,41.38,32.43,41.29z M32.31,44.98c-0.39,0.37-0.99,0.68-1.71,0.68
					c-0.49,0-1.04-0.15-1.61-0.51c-0.1-0.07-0.19-0.15-0.26-0.25c-0.94-1.32-0.5-2.54,0.17-3.18c0.46-0.43,1.07-0.67,1.71-0.67h0
					c0.58,0.01,1.14,0.19,1.61,0.51c0.1,0.07,0.19,0.15,0.26,0.25C33.43,43.12,32.98,44.34,32.31,44.98z"/>
			</g>
			<g>
				<path class="st0" d="M43.38,39.41l-0.04,0H37.8l0.04-0.2c0.01-0.05,0.02-0.11,0.02-0.16v-6.51c0-0.37-0.33-0.68-0.72-0.68h-6.85
					c-0.2,0-0.38,0.08-0.52,0.22c-0.12,0.13-0.19,0.29-0.19,0.47v6.52c0,0.05,0.01,0.1,0.02,0.15l0.05,0.21h-2.45
					c-0.4,0-0.72,0.3-0.72,0.68v6.52c0,0.37,0.33,0.68,0.72,0.68h6.85c0.4,0,0.72-0.3,0.72-0.68V40.1c0-0.05-0.01-0.1-0.02-0.15
					l-0.05-0.21h1.17l-0.06,0.21c-0.01,0.04-0.02,0.09-0.02,0.14v6.52c0,0.17,0.07,0.34,0.19,0.46c0.14,0.14,0.32,0.21,0.52,0.21
					h6.85c0.4,0,0.72-0.31,0.72-0.68v-6.53C44.08,39.72,43.77,39.42,43.38,39.41z M34.4,46.61c0,0.2-0.16,0.36-0.37,0.36h-6.85
					c-0.2,0-0.37-0.16-0.37-0.36v-6.52c0-0.2,0.17-0.35,0.37-0.35h6.85c0.2,0,0.36,0.16,0.37,0.35V46.61z M30.29,39.41
					c-0.2,0-0.37-0.16-0.37-0.36v-6.52c0-0.2,0.17-0.36,0.37-0.36h6.85c0.19,0.01,0.37,0.16,0.37,0.35v6.52
					c0,0.2-0.16,0.36-0.37,0.36H30.29z M43.71,46.61c0,0.2-0.16,0.36-0.37,0.36h-6.85c-0.2,0-0.36-0.16-0.36-0.35v-6.52
					c0-0.2,0.16-0.35,0.36-0.35h3.39h0.11h3.36c0.19,0.01,0.36,0.16,0.37,0.35V46.61z"/>
			</g>
			<g>
				<path class="st0" d="M42.79,45.64l-2.86-5.3l-2.88,5.3H42.79z M39.93,41.07l2.3,4.25h-4.6L39.93,41.07z"/>
			</g>
		</g>
	</g>
</g>
</svg>
