<?xml version="1.0" encoding="utf-8"?>
<!-- Generator: Adobe Illustrator 24.1.0, SVG Export Plug-In . SVG Version: 6.00 Build 0)  -->
<svg version="1.1" id="Capa_1" xmlns="http://www.w3.org/2000/svg" xmlns:xlink="http://www.w3.org/1999/xlink" x="0px" y="0px"
	 viewBox="0 0 70 110" style="enable-background:new 0 0 70 110;" xml:space="preserve">
<style type="text/css">
	.st0{fill:#00667C;}
	.st1{fill:#EFEFEF;}
	.st2{fill:#036381;}
</style>
<g>
	<g>
		<g>
			<path class="st0" d="M16.92,68.57h2.42v3.16c-0.39,0.13-0.76,0.22-1.11,0.27c-0.35,0.05-0.7,0.08-1.06,0.08
				c-0.92,0-1.62-0.27-2.11-0.81c-0.49-0.54-0.73-1.32-0.73-2.33c0-0.98,0.28-1.75,0.84-2.3c0.56-0.55,1.34-0.83,2.34-0.83
				c0.63,0,1.23,0.12,1.81,0.38l-0.43,1.03c-0.44-0.22-0.91-0.33-1.39-0.33c-0.56,0-1.01,0.19-1.34,0.56
				c-0.34,0.37-0.5,0.88-0.5,1.51c0,0.66,0.14,1.17,0.41,1.52c0.27,0.35,0.67,0.52,1.18,0.52c0.27,0,0.54-0.03,0.82-0.08v-1.27
				h-1.16V68.57z"/>
			<path class="st0" d="M20.92,66.13c0-0.41,0.23-0.62,0.69-0.62c0.46,0,0.69,0.21,0.69,0.62c0,0.2-0.06,0.35-0.17,0.46
				c-0.12,0.11-0.29,0.16-0.52,0.16C21.15,66.75,20.92,66.54,20.92,66.13z M22.25,71.99h-1.27v-4.66h1.27V71.99z"/>
			<path class="st0" d="M28.04,71.99h-1.27v-2.72c0-0.34-0.06-0.59-0.17-0.76c-0.11-0.17-0.29-0.25-0.53-0.25
				c-0.33,0-0.56,0.12-0.71,0.36c-0.15,0.24-0.22,0.63-0.22,1.18v2.19h-1.27v-4.66h0.97l0.17,0.6h0.07c0.12-0.21,0.31-0.38,0.54-0.5
				c0.24-0.12,0.51-0.18,0.81-0.18c0.7,0,1.17,0.23,1.42,0.68h0.11c0.13-0.22,0.31-0.39,0.55-0.5c0.24-0.12,0.52-0.18,0.82-0.18
				c0.53,0,0.93,0.14,1.2,0.41c0.27,0.27,0.41,0.71,0.41,1.3v3.04h-1.28v-2.72c0-0.34-0.06-0.59-0.17-0.76
				c-0.11-0.17-0.29-0.25-0.53-0.25c-0.31,0-0.55,0.11-0.7,0.33c-0.15,0.22-0.23,0.58-0.23,1.06V71.99z"/>
			<path class="st0" d="M36.83,71.99h-1.27v-2.72c0-0.34-0.06-0.59-0.18-0.76c-0.12-0.17-0.31-0.25-0.57-0.25
				c-0.36,0-0.61,0.12-0.77,0.36c-0.16,0.24-0.24,0.63-0.24,1.18v2.19h-1.27v-4.66h0.97l0.17,0.6h0.07
				c0.14-0.23,0.34-0.39,0.59-0.51c0.25-0.12,0.53-0.17,0.85-0.17c0.54,0,0.95,0.15,1.23,0.44c0.28,0.29,0.42,0.72,0.42,1.27V71.99z
				"/>
			<path class="st0" d="M41.39,71.99l-0.25-0.63h-0.03c-0.21,0.27-0.44,0.46-0.66,0.56s-0.52,0.16-0.89,0.16
				c-0.45,0-0.8-0.13-1.06-0.38c-0.26-0.26-0.39-0.62-0.39-1.09c0-0.49,0.17-0.86,0.52-1.1c0.35-0.23,0.87-0.36,1.57-0.39l0.81-0.03
				v-0.2c0-0.47-0.24-0.71-0.73-0.71c-0.37,0-0.81,0.11-1.31,0.34l-0.42-0.86c0.54-0.28,1.13-0.42,1.79-0.42
				c0.63,0,1.11,0.14,1.44,0.41c0.33,0.27,0.5,0.69,0.5,1.24v3.11H41.39z M41.01,69.83l-0.49,0.02c-0.37,0.01-0.65,0.08-0.83,0.2
				c-0.18,0.12-0.27,0.31-0.27,0.56c0,0.36,0.21,0.54,0.62,0.54c0.3,0,0.53-0.09,0.71-0.25c0.18-0.17,0.26-0.39,0.26-0.68V69.83z"/>
			<path class="st0" d="M45.76,72.08c-1.45,0-2.18-0.8-2.18-2.39c0-0.79,0.2-1.4,0.59-1.82c0.39-0.42,0.96-0.63,1.7-0.63
				c0.54,0,1.02,0.11,1.45,0.32l-0.38,0.98c-0.2-0.08-0.39-0.15-0.56-0.2c-0.17-0.05-0.34-0.08-0.52-0.08
				c-0.66,0-0.99,0.47-0.99,1.41c0,0.91,0.33,1.37,0.99,1.37c0.25,0,0.47-0.03,0.68-0.1c0.21-0.07,0.42-0.17,0.63-0.31v1.09
				c-0.21,0.13-0.41,0.22-0.62,0.27C46.34,72.05,46.08,72.08,45.76,72.08z"/>
			<path class="st0" d="M48.48,66.13c0-0.41,0.23-0.62,0.69-0.62c0.46,0,0.69,0.21,0.69,0.62c0,0.2-0.06,0.35-0.17,0.46
				c-0.12,0.11-0.29,0.16-0.52,0.16C48.71,66.75,48.48,66.54,48.48,66.13z M49.81,71.99h-1.27v-4.66h1.27V71.99z"/>
			<path class="st0" d="M55.66,69.65c0,0.76-0.2,1.35-0.6,1.78c-0.4,0.43-0.96,0.64-1.67,0.64c-0.45,0-0.84-0.1-1.19-0.29
				c-0.34-0.2-0.6-0.48-0.79-0.84c-0.18-0.37-0.28-0.79-0.28-1.28c0-0.76,0.2-1.35,0.6-1.78c0.4-0.42,0.96-0.63,1.68-0.63
				c0.45,0,0.84,0.1,1.19,0.29c0.34,0.2,0.6,0.47,0.79,0.84C55.57,68.74,55.66,69.16,55.66,69.65z M52.44,69.65
				c0,0.46,0.08,0.81,0.23,1.05c0.15,0.24,0.4,0.35,0.74,0.35c0.34,0,0.58-0.12,0.73-0.35c0.15-0.23,0.22-0.58,0.22-1.05
				c0-0.46-0.07-0.81-0.23-1.04c-0.15-0.23-0.4-0.35-0.74-0.35c-0.34,0-0.58,0.11-0.73,0.34C52.52,68.84,52.44,69.19,52.44,69.65z"
				/>
			<path class="st0" d="M18.41,83.36h-3.51v-6.1h3.51v1.06h-2.22v1.34h2.07v1.06h-2.07v1.57h2.22V83.36z"/>
			<path class="st0" d="M21.34,83.44c-0.55,0-0.98-0.21-1.29-0.64c-0.31-0.42-0.47-1.01-0.47-1.77c0-0.76,0.16-1.36,0.48-1.78
				c0.32-0.43,0.75-0.64,1.31-0.64c0.3,0,0.55,0.06,0.77,0.17c0.22,0.11,0.41,0.28,0.58,0.52h0.03l0.11-0.6h1.08v6.71h-1.28v-1.96
				c0-0.17,0.02-0.4,0.05-0.7h-0.05c-0.14,0.23-0.32,0.4-0.54,0.51C21.89,83.38,21.63,83.44,21.34,83.44z M21.79,82.44
				c0.32,0,0.56-0.09,0.71-0.28c0.15-0.18,0.23-0.51,0.25-0.97v-0.15c0-0.5-0.08-0.86-0.23-1.08c-0.15-0.22-0.4-0.33-0.74-0.33
				c-0.6,0-0.9,0.47-0.9,1.41c0,0.47,0.07,0.82,0.22,1.05C21.24,82.33,21.48,82.44,21.79,82.44z"/>
			<path class="st0" d="M28.85,83.36l-0.17-0.6h-0.07c-0.14,0.22-0.33,0.39-0.58,0.5c-0.25,0.12-0.54,0.18-0.85,0.18
				c-0.55,0-0.96-0.15-1.24-0.44c-0.28-0.29-0.42-0.71-0.42-1.27v-3.04h1.27v2.72c0,0.34,0.06,0.59,0.18,0.76s0.31,0.25,0.57,0.25
				c0.36,0,0.61-0.12,0.77-0.36s0.24-0.63,0.24-1.18v-2.19h1.27v4.66H28.85z"/>
			<path class="st0" d="M31.39,77.49c0-0.41,0.23-0.62,0.69-0.62c0.46,0,0.69,0.21,0.69,0.62c0,0.2-0.06,0.35-0.17,0.46
				c-0.12,0.11-0.29,0.16-0.52,0.16C31.62,78.11,31.39,77.9,31.39,77.49z M32.71,83.36h-1.27v-4.66h1.27V83.36z"/>
			<path class="st0" d="M36.89,83.44c-0.55,0-0.98-0.2-1.29-0.6h-0.07c0.04,0.39,0.07,0.61,0.07,0.68v1.89h-1.27v-6.71h1.03
				l0.18,0.6h0.06c0.3-0.46,0.74-0.69,1.32-0.69c0.55,0,0.98,0.21,1.29,0.64c0.31,0.43,0.47,1.02,0.47,1.77
				c0,0.5-0.07,0.93-0.22,1.3c-0.15,0.37-0.35,0.65-0.62,0.84C37.57,83.34,37.25,83.44,36.89,83.44z M36.51,79.62
				c-0.31,0-0.54,0.1-0.69,0.29c-0.14,0.19-0.22,0.51-0.23,0.96v0.14c0,0.5,0.07,0.86,0.22,1.08c0.15,0.22,0.38,0.33,0.71,0.33
				c0.57,0,0.85-0.47,0.85-1.41c0-0.46-0.07-0.8-0.21-1.03C37.03,79.74,36.81,79.62,36.51,79.62z"/>
			<path class="st0" d="M42.98,83.36l-0.25-0.63H42.7c-0.21,0.27-0.44,0.46-0.66,0.56c-0.23,0.1-0.52,0.16-0.89,0.16
				c-0.45,0-0.8-0.13-1.06-0.38c-0.26-0.26-0.39-0.62-0.39-1.09c0-0.49,0.17-0.86,0.52-1.1c0.35-0.23,0.87-0.36,1.57-0.39l0.81-0.03
				v-0.2c0-0.47-0.24-0.71-0.73-0.71c-0.37,0-0.81,0.11-1.31,0.34l-0.42-0.86c0.54-0.28,1.13-0.42,1.79-0.42
				c0.63,0,1.11,0.14,1.44,0.41c0.33,0.27,0.5,0.69,0.5,1.24v3.11H42.98z M42.6,81.2l-0.49,0.02c-0.37,0.01-0.65,0.08-0.83,0.2
				c-0.18,0.12-0.27,0.31-0.27,0.56c0,0.36,0.21,0.54,0.62,0.54c0.3,0,0.53-0.09,0.71-0.25c0.18-0.17,0.26-0.39,0.26-0.68V81.2z"/>
			<path class="st0" d="M46.93,83.44c-0.55,0-0.98-0.21-1.29-0.64c-0.31-0.43-0.47-1.01-0.47-1.77c0-0.76,0.16-1.36,0.48-1.79
				c0.32-0.43,0.76-0.64,1.32-0.64c0.59,0,1.03,0.23,1.34,0.68h0.04c-0.07-0.35-0.1-0.66-0.1-0.93v-1.49h1.28v6.49h-0.98l-0.25-0.6
				h-0.05C47.96,83.21,47.52,83.44,46.93,83.44z M47.38,82.43c0.33,0,0.56-0.09,0.71-0.28c0.15-0.19,0.23-0.51,0.25-0.96v-0.14
				c0-0.5-0.08-0.86-0.23-1.08c-0.15-0.22-0.41-0.33-0.75-0.33c-0.28,0-0.5,0.12-0.66,0.36c-0.16,0.24-0.24,0.59-0.24,1.05
				c0,0.46,0.08,0.8,0.24,1.03C46.86,82.31,47.08,82.43,47.38,82.43z"/>
			<path class="st0" d="M55.38,81.02c0,0.76-0.2,1.35-0.6,1.78c-0.4,0.43-0.96,0.64-1.67,0.64c-0.45,0-0.84-0.1-1.19-0.29
				c-0.34-0.2-0.6-0.48-0.79-0.84c-0.18-0.37-0.28-0.79-0.28-1.28c0-0.76,0.2-1.35,0.6-1.78c0.4-0.42,0.96-0.63,1.68-0.63
				c0.45,0,0.84,0.1,1.19,0.29c0.34,0.2,0.6,0.47,0.79,0.84C55.29,80.1,55.38,80.53,55.38,81.02z M52.15,81.02
				c0,0.46,0.08,0.81,0.23,1.05c0.15,0.24,0.4,0.35,0.74,0.35c0.34,0,0.58-0.12,0.73-0.35c0.15-0.23,0.22-0.58,0.22-1.05
				c0-0.46-0.07-0.81-0.23-1.04s-0.4-0.35-0.74-0.35c-0.34,0-0.58,0.11-0.73,0.34C52.23,80.2,52.15,80.55,52.15,81.02z"/>
		</g>
	</g>
	<g>
		<g>
			<circle class="st1" cx="34.29" cy="39.94" r="19.38"/>
		</g>
		<g>
			<g>
				<g>
					<path class="st0" d="M44.14,36.85L44.14,36.85c-0.27,0-0.49,0.04-0.73,0.12l-0.34,0.12v-1.03c0-0.76-0.62-1.37-1.37-1.37h-1.62
						c-0.76,0-1.37,0.62-1.37,1.37v2.41h-6.99v-2.41c0-0.76-0.62-1.37-1.37-1.37h-1.62c-0.76,0-1.37,0.62-1.37,1.37v1.04l-0.34-0.13
						c-0.23-0.09-0.5-0.12-0.72-0.13c-0.92,0-1.64,0.57-1.64,1.29v4.51c0,0.73,0.75,1.28,1.67,1.29c0.24,0,0.47-0.04,0.7-0.12
						l0.34-0.12v0.5c0,0.76,0.62,1.37,1.37,1.37h1.62c0.76,0,1.37-0.62,1.37-1.37v-2.41h6.99v2.41c0,0.76,0.62,1.37,1.37,1.37h1.62
						c0.76,0,1.37-0.62,1.37-1.37v-0.51l0.34,0.13c0.23,0.09,0.48,0.13,0.72,0.13c0.92,0,1.64-0.57,1.64-1.29v-4.51
						C45.78,37.42,45.06,36.85,44.14,36.85z M27.35,42.64c0,0.38-0.49,0.71-1.06,0.71s-1.06-0.32-1.06-0.71v-4.49
						c0-0.38,0.49-0.71,1.06-0.71s1.06,0.32,1.06,0.71V42.64z M31.14,44.18c0,0.44-0.36,0.79-0.79,0.79h-1.62
						c-0.44,0-0.79-0.36-0.79-0.79v-8.11c0-0.44,0.36-0.79,0.79-0.79h1.62c0.44,0,0.79,0.36,0.79,0.79V44.18z M38.7,41.18h-6.98
						v-2.12h6.99L38.7,41.18z M42.5,44.18c0,0.44-0.36,0.79-0.79,0.79h-1.62c-0.44,0-0.79-0.36-0.79-0.79v-8.11
						c0-0.44,0.36-0.79,0.79-0.79h1.62c0.44,0,0.79,0.36,0.79,0.79V44.18z M45.2,42.64c0,0.38-0.49,0.71-1.06,0.71
						s-1.06-0.32-1.06-0.71v-4.49c0-0.38,0.49-0.71,1.06-0.71s1.06,0.32,1.06,0.71V42.64z"/>
				</g>
			</g>
		</g>
	</g>
</g>
</svg>
