<?xml version="1.0" encoding="utf-8"?>
<!-- Generator: Adobe Illustrator 24.1.0, SVG Export Plug-In . SVG Version: 6.00 Build 0)  -->
<svg version="1.1" id="Capa_1" xmlns="http://www.w3.org/2000/svg" xmlns:xlink="http://www.w3.org/1999/xlink" x="0px" y="0px"
	 viewBox="0 0 70 110" style="enable-background:new 0 0 70 110;" xml:space="preserve">
<style type="text/css">
	.st0{fill:#00667C;}
	.st1{fill:#EFEFEF;}
	.st2{fill:#036381;}
</style>
<g>
	<g>
		<g>
			<circle class="st1" cx="33.69" cy="39.94" r="19.38"/>
		</g>
		<g>
			<g>
				<g>
					<path class="st0" d="M33.69,49.28l-9.18-9.34l9.18-9.34l9.18,9.34L33.69,49.28z M33.93,29.88c-0.13-0.13-0.34-0.13-0.47,0
						l-9.65,9.82c-0.13,0.13-0.13,0.35,0,0.48L33.46,50c0.13,0.13,0.34,0.13,0.47,0l9.65-9.82c0.13-0.13,0.13-0.35,0-0.48
						L33.93,29.88z"/>
				</g>
				<g>
					<path class="st0" d="M35.35,38.25c0,0.94-0.74,1.69-1.66,1.69h-1.66v-3.39h1.66C34.61,36.56,35.35,37.31,35.35,38.25
						 M32.03,35.88h-0.67v8.81h0.67v-4.06h1.66c1.29,0,2.33-1.06,2.33-2.37s-1.04-2.37-2.33-2.37H32.03z"/>
				</g>
			</g>
		</g>
	</g>
	<g>
		<g>
			<path class="st0" d="M17.83,67.8c0,0.66-0.2,1.16-0.61,1.51c-0.41,0.35-0.99,0.52-1.75,0.52h-0.55v2.17h-1.29v-6.1h1.95
				c0.74,0,1.3,0.16,1.69,0.48C17.64,66.69,17.83,67.17,17.83,67.8z M14.92,68.76h0.43c0.4,0,0.7-0.08,0.89-0.24
				c0.2-0.16,0.3-0.39,0.3-0.69c0-0.3-0.08-0.53-0.25-0.67c-0.17-0.15-0.43-0.22-0.78-0.22h-0.59V68.76z"/>
			<path class="st0" d="M22.13,71.99l-0.25-0.63h-0.03c-0.21,0.27-0.44,0.46-0.66,0.56s-0.52,0.16-0.89,0.16
				c-0.45,0-0.8-0.13-1.06-0.38c-0.26-0.26-0.39-0.62-0.39-1.09c0-0.49,0.17-0.86,0.52-1.1c0.35-0.23,0.87-0.36,1.57-0.39l0.81-0.03
				v-0.2c0-0.47-0.24-0.71-0.73-0.71c-0.37,0-0.81,0.11-1.31,0.34l-0.42-0.86c0.54-0.28,1.13-0.42,1.79-0.42
				c0.63,0,1.11,0.14,1.44,0.41c0.33,0.27,0.5,0.69,0.5,1.24v3.11H22.13z M21.75,69.83l-0.49,0.02c-0.37,0.01-0.65,0.08-0.83,0.2
				c-0.18,0.12-0.27,0.31-0.27,0.56c0,0.36,0.21,0.54,0.62,0.54c0.3,0,0.53-0.09,0.71-0.25c0.18-0.17,0.26-0.39,0.26-0.68V69.83z"/>
			<path class="st0" d="M27.21,67.24c0.17,0,0.32,0.01,0.43,0.04l-0.1,1.19c-0.1-0.03-0.23-0.04-0.38-0.04
				c-0.41,0-0.72,0.1-0.95,0.31s-0.34,0.5-0.34,0.88v2.37h-1.27v-4.66h0.96l0.19,0.78h0.06c0.15-0.26,0.34-0.47,0.59-0.63
				C26.65,67.32,26.92,67.24,27.21,67.24z"/>
			<path class="st0" d="M29.99,69.46l0.55-0.71l1.31-1.42h1.43l-1.85,2.02l1.96,2.64h-1.47l-1.34-1.89l-0.55,0.44v1.45h-1.27V65.5
				h1.27v2.89l-0.07,1.06H29.99z"/>
			<path class="st0" d="M34.29,66.12c0-0.41,0.23-0.62,0.69-0.62c0.46,0,0.69,0.21,0.69,0.62c0,0.2-0.06,0.35-0.17,0.46
				c-0.12,0.11-0.29,0.16-0.52,0.16C34.52,66.75,34.29,66.54,34.29,66.12z M35.62,71.99h-1.27v-4.66h1.27V71.99z"/>
			<path class="st0" d="M41.54,71.99h-1.27v-2.72c0-0.34-0.06-0.59-0.18-0.76c-0.12-0.17-0.31-0.25-0.57-0.25
				c-0.36,0-0.61,0.12-0.77,0.36c-0.16,0.24-0.24,0.63-0.24,1.18v2.19h-1.27v-4.66h0.97l0.17,0.6h0.07
				c0.14-0.23,0.34-0.39,0.59-0.51c0.25-0.12,0.53-0.17,0.85-0.17c0.54,0,0.95,0.15,1.23,0.44c0.28,0.29,0.42,0.72,0.42,1.27V71.99z
				"/>
			<path class="st0" d="M47.19,67.33v0.65l-0.73,0.19c0.13,0.21,0.2,0.44,0.2,0.7c0,0.5-0.17,0.89-0.52,1.17
				c-0.35,0.28-0.83,0.42-1.45,0.42l-0.23-0.01l-0.19-0.02c-0.13,0.1-0.2,0.21-0.2,0.33c0,0.18,0.23,0.28,0.7,0.28h0.79
				c0.51,0,0.9,0.11,1.17,0.33c0.27,0.22,0.4,0.54,0.4,0.97c0,0.55-0.23,0.97-0.68,1.27c-0.45,0.3-1.11,0.45-1.96,0.45
				c-0.65,0-1.15-0.11-1.49-0.34c-0.34-0.23-0.52-0.55-0.52-0.95c0-0.28,0.09-0.52,0.26-0.71s0.43-0.32,0.77-0.4
				c-0.13-0.06-0.24-0.15-0.34-0.27c-0.1-0.13-0.15-0.26-0.15-0.4c0-0.18,0.05-0.33,0.15-0.44c0.1-0.12,0.25-0.23,0.45-0.35
				c-0.24-0.11-0.44-0.28-0.58-0.51c-0.14-0.23-0.21-0.51-0.21-0.83c0-0.51,0.17-0.9,0.5-1.18c0.33-0.28,0.8-0.42,1.42-0.42
				c0.13,0,0.29,0.01,0.47,0.04c0.18,0.02,0.29,0.04,0.34,0.05H47.19z M43.59,72.65c0,0.17,0.08,0.31,0.25,0.41
				c0.17,0.1,0.4,0.15,0.71,0.15c0.46,0,0.81-0.06,1.07-0.19c0.26-0.13,0.39-0.3,0.39-0.51c0-0.17-0.08-0.3-0.23-0.36
				c-0.15-0.07-0.39-0.1-0.71-0.1h-0.66c-0.23,0-0.43,0.06-0.59,0.17C43.67,72.33,43.59,72.47,43.59,72.65z M44.05,68.86
				c0,0.25,0.06,0.45,0.17,0.6s0.29,0.22,0.53,0.22c0.24,0,0.41-0.07,0.53-0.22s0.17-0.35,0.17-0.6c0-0.56-0.23-0.84-0.69-0.84
				C44.28,68.01,44.05,68.29,44.05,68.86z"/>
			<path class="st0" d="M56.47,71.99H54.9l-0.48-0.47c-0.53,0.37-1.13,0.56-1.8,0.56c-0.68,0-1.22-0.16-1.61-0.47
				s-0.6-0.73-0.6-1.26c0-0.38,0.08-0.71,0.25-0.97c0.17-0.27,0.46-0.52,0.87-0.75c-0.21-0.24-0.36-0.47-0.45-0.69
				c-0.09-0.22-0.14-0.46-0.14-0.72c0-0.42,0.16-0.76,0.49-1.02c0.32-0.26,0.76-0.39,1.3-0.39c0.52,0,0.93,0.12,1.24,0.36
				s0.47,0.56,0.47,0.97c0,0.33-0.1,0.63-0.29,0.91c-0.19,0.27-0.5,0.53-0.93,0.78l1.18,1.16c0.2-0.33,0.37-0.74,0.51-1.26h1.33
				c-0.1,0.38-0.24,0.74-0.41,1.1c-0.17,0.36-0.37,0.67-0.6,0.95L56.47,71.99z M51.75,70.22c0,0.24,0.09,0.43,0.27,0.57
				c0.18,0.14,0.41,0.21,0.69,0.21c0.35,0,0.67-0.08,0.95-0.25l-1.38-1.38c-0.16,0.12-0.29,0.25-0.38,0.38
				C51.8,69.89,51.75,70.05,51.75,70.22z M53.25,67.27c0-0.15-0.05-0.26-0.15-0.35c-0.1-0.09-0.23-0.13-0.39-0.13
				c-0.19,0-0.33,0.04-0.44,0.13c-0.11,0.09-0.16,0.22-0.16,0.38c0,0.25,0.13,0.51,0.4,0.81c0.24-0.13,0.42-0.27,0.55-0.39
				S53.25,67.44,53.25,67.27z"/>
			<path class="st0" d="M11.93,83.35h-1.27v-2.72c0-0.34-0.06-0.59-0.17-0.76c-0.11-0.17-0.29-0.25-0.53-0.25
				c-0.33,0-0.56,0.12-0.71,0.36c-0.15,0.24-0.22,0.63-0.22,1.18v2.19H7.76v-4.66h0.97l0.17,0.6h0.07c0.12-0.21,0.31-0.38,0.54-0.5
				c0.24-0.12,0.51-0.18,0.81-0.18c0.7,0,1.17,0.23,1.42,0.68h0.11c0.13-0.22,0.31-0.39,0.55-0.5c0.24-0.12,0.52-0.18,0.82-0.18
				c0.53,0,0.93,0.14,1.2,0.41c0.27,0.27,0.41,0.71,0.41,1.3v3.04h-1.28v-2.72c0-0.34-0.06-0.59-0.17-0.76
				c-0.11-0.17-0.29-0.25-0.53-0.25c-0.31,0-0.55,0.11-0.7,0.33c-0.15,0.22-0.23,0.58-0.23,1.06V83.35z"/>
			<path class="st0" d="M20.67,81.02c0,0.76-0.2,1.35-0.6,1.78c-0.4,0.43-0.96,0.64-1.67,0.64c-0.45,0-0.84-0.1-1.19-0.29
				c-0.34-0.2-0.6-0.48-0.79-0.84c-0.18-0.37-0.28-0.79-0.28-1.28c0-0.76,0.2-1.35,0.6-1.78c0.4-0.42,0.96-0.63,1.68-0.63
				c0.45,0,0.84,0.1,1.19,0.29c0.34,0.2,0.6,0.47,0.79,0.84C20.57,80.1,20.67,80.53,20.67,81.02z M17.44,81.02
				c0,0.46,0.08,0.81,0.23,1.05c0.15,0.24,0.4,0.35,0.74,0.35c0.34,0,0.58-0.12,0.73-0.35c0.15-0.23,0.22-0.58,0.22-1.05
				c0-0.46-0.07-0.81-0.23-1.04s-0.4-0.35-0.74-0.35c-0.34,0-0.58,0.11-0.73,0.34C17.52,80.2,17.44,80.55,17.44,81.02z"/>
			<path class="st0" d="M23.96,82.42c0.22,0,0.49-0.05,0.8-0.15v0.95c-0.32,0.14-0.71,0.21-1.17,0.21c-0.51,0-0.88-0.13-1.11-0.39
				c-0.23-0.26-0.35-0.64-0.35-1.16v-2.25h-0.61v-0.54l0.7-0.43l0.37-0.98h0.81v0.99h1.3v0.95h-1.3v2.25c0,0.18,0.05,0.31,0.15,0.4
				C23.66,82.38,23.8,82.42,23.96,82.42z"/>
			<path class="st0" d="M30.22,81.02c0,0.76-0.2,1.35-0.6,1.78c-0.4,0.43-0.96,0.64-1.67,0.64c-0.45,0-0.84-0.1-1.19-0.29
				c-0.34-0.2-0.6-0.48-0.79-0.84c-0.18-0.37-0.28-0.79-0.28-1.28c0-0.76,0.2-1.35,0.6-1.78c0.4-0.42,0.96-0.63,1.68-0.63
				c0.45,0,0.84,0.1,1.19,0.29c0.34,0.2,0.6,0.47,0.79,0.84C30.13,80.1,30.22,80.53,30.22,81.02z M27,81.02
				c0,0.46,0.08,0.81,0.23,1.05c0.15,0.24,0.4,0.35,0.74,0.35c0.34,0,0.58-0.12,0.73-0.35c0.15-0.23,0.22-0.58,0.22-1.05
				c0-0.46-0.07-0.81-0.23-1.04s-0.4-0.35-0.74-0.35c-0.34,0-0.58,0.11-0.73,0.34C27.08,80.2,27,80.55,27,81.02z"/>
			<path class="st0" d="M34.16,78.6c0.17,0,0.32,0.01,0.43,0.04l-0.1,1.19c-0.1-0.03-0.23-0.04-0.38-0.04
				c-0.41,0-0.72,0.1-0.95,0.31c-0.23,0.21-0.34,0.5-0.34,0.88v2.37h-1.27v-4.66h0.96l0.19,0.78h0.06c0.15-0.26,0.34-0.47,0.59-0.63
				C33.6,78.68,33.87,78.6,34.16,78.6z"/>
			<path class="st0" d="M39.49,83.35h-1.27v-6.49h1.27V83.35z"/>
			<path class="st0" d="M45.34,81.02c0,0.76-0.2,1.35-0.6,1.78c-0.4,0.43-0.96,0.64-1.67,0.64c-0.45,0-0.84-0.1-1.19-0.29
				c-0.34-0.2-0.6-0.48-0.79-0.84c-0.18-0.37-0.28-0.79-0.28-1.28c0-0.76,0.2-1.35,0.6-1.78c0.4-0.42,0.96-0.63,1.68-0.63
				c0.45,0,0.84,0.1,1.19,0.29c0.34,0.2,0.6,0.47,0.79,0.84C45.25,80.1,45.34,80.53,45.34,81.02z M42.12,81.02
				c0,0.46,0.08,0.81,0.23,1.05c0.15,0.24,0.4,0.35,0.74,0.35c0.34,0,0.58-0.12,0.73-0.35c0.15-0.23,0.22-0.58,0.22-1.05
				c0-0.46-0.07-0.81-0.23-1.04s-0.4-0.35-0.74-0.35c-0.34,0-0.58,0.11-0.73,0.34C42.19,80.2,42.12,80.55,42.12,81.02z"/>
			<path class="st0" d="M49.27,78.6c0.55,0,0.98,0.21,1.29,0.64c0.31,0.43,0.47,1.02,0.47,1.77c0,0.77-0.16,1.37-0.48,1.79
				c-0.32,0.42-0.76,0.63-1.31,0.63c-0.55,0-0.98-0.2-1.29-0.6h-0.09l-0.21,0.51h-0.97v-6.49h1.27v1.51c0,0.19-0.02,0.5-0.05,0.92
				h0.05C48.25,78.84,48.69,78.6,49.27,78.6z M48.86,79.62c-0.31,0-0.54,0.1-0.69,0.29c-0.14,0.19-0.22,0.51-0.23,0.96v0.14
				c0,0.5,0.07,0.86,0.22,1.08c0.15,0.22,0.38,0.33,0.71,0.33c0.26,0,0.47-0.12,0.62-0.36c0.15-0.24,0.23-0.59,0.23-1.05
				c0-0.46-0.08-0.8-0.23-1.03C49.34,79.74,49.13,79.62,48.86,79.62z"/>
			<path class="st0" d="M54.96,78.6c0.55,0,0.98,0.21,1.29,0.64c0.31,0.43,0.47,1.02,0.47,1.77c0,0.77-0.16,1.37-0.48,1.79
				c-0.32,0.42-0.76,0.63-1.31,0.63c-0.55,0-0.98-0.2-1.29-0.6h-0.09l-0.21,0.51h-0.97v-6.49h1.27v1.51c0,0.19-0.02,0.5-0.05,0.92
				h0.05C53.93,78.84,54.37,78.6,54.96,78.6z M54.55,79.62c-0.31,0-0.54,0.1-0.69,0.29c-0.14,0.19-0.22,0.51-0.23,0.96v0.14
				c0,0.5,0.07,0.86,0.22,1.08c0.15,0.22,0.38,0.33,0.71,0.33c0.26,0,0.47-0.12,0.62-0.36c0.15-0.24,0.23-0.59,0.23-1.05
				c0-0.46-0.08-0.8-0.23-1.03C55.03,79.74,54.82,79.62,54.55,79.62z"/>
			<path class="st0" d="M57.38,78.69h1.39l0.88,2.62c0.08,0.23,0.13,0.5,0.15,0.81h0.02c0.03-0.29,0.09-0.56,0.18-0.81l0.86-2.62
				h1.36l-1.97,5.26c-0.18,0.49-0.44,0.85-0.77,1.09c-0.33,0.24-0.73,0.36-1.17,0.36c-0.22,0-0.44-0.02-0.65-0.07v-1.01
				c0.15,0.04,0.32,0.05,0.5,0.05c0.23,0,0.42-0.07,0.59-0.21c0.17-0.14,0.3-0.34,0.39-0.62l0.08-0.23L57.38,78.69z"/>
		</g>
	</g>
</g>
</svg>
