<svg id="Capa_1" data-name="Capa 1" xmlns="http://www.w3.org/2000/svg" viewBox="0 0 70 110"><defs><style>.cls-1{fill:#efefef;}.cls-2{fill:#036381;}</style></defs><circle class="cls-1" cx="32.63" cy="40.39" r="19.83"/><path class="cls-2" d="M32.63,41.94a3.87,3.87,0,1,0-3.87-3.87A3.88,3.88,0,0,0,32.63,41.94Zm0-7a3.1,3.1,0,1,1-3.1,3.1A3.1,3.1,0,0,1,32.63,35Z"/><path class="cls-2" d="M32.63,33.43A.39.39,0,0,0,33,33V31.49a.39.39,0,1,0-.77,0V33A.39.39,0,0,0,32.63,33.43Z"/><path class="cls-2" d="M32.24,43.1v1.55a.39.39,0,1,0,.77,0V43.1a.39.39,0,1,0-.77,0Z"/><path class="cls-2" d="M36.46,34.79l1.09-1.1a.39.39,0,0,0,0-.55.38.38,0,0,0-.54,0l-1.1,1.1a.39.39,0,0,0,.55.55Z"/><path class="cls-2" d="M28.8,41.35l-1.1,1.1a.39.39,0,0,0,.55.55l1.09-1.1a.39.39,0,0,0,0-.55A.38.38,0,0,0,28.8,41.35Z"/><path class="cls-2" d="M37.27,38.07a.4.4,0,0,0,.39.39h1.55a.39.39,0,0,0,0-.78H37.66A.4.4,0,0,0,37.27,38.07Z"/><path class="cls-2" d="M26.05,38.46H27.6a.39.39,0,0,0,0-.78H26.05a.39.39,0,0,0,0,.78Z"/><path class="cls-2" d="M36.46,41.35a.39.39,0,0,0-.55.55L37,43a.38.38,0,0,0,.54,0,.39.39,0,0,0,0-.55Z"/><path class="cls-2" d="M28.8,34.79a.38.38,0,0,0,.54,0,.39.39,0,0,0,0-.55l-1.09-1.1a.39.39,0,0,0-.55.55Z"/><path class="cls-2" d="M41.53,45.81H23.72a.38.38,0,0,0-.38.39.39.39,0,0,0,.38.39H41.53a.4.4,0,0,0,.39-.39A.39.39,0,0,0,41.53,45.81Z"/><path class="cls-2" d="M38.43,48.91H26.82a.39.39,0,1,0,0,.77H38.43a.39.39,0,1,0,0-.77Z"/><path class="cls-2" d="M40,47.36H25.27a.39.39,0,0,0,0,.77H40a.39.39,0,1,0,0-.77Z"/><path class="cls-2" d="M11.39,69.72a1.9,1.9,0,0,1-.62,1.52A2.7,2.7,0,0,1,9,71.77H8.43V74H7.12V67.79h2a2.64,2.64,0,0,1,1.71.48A1.79,1.79,0,0,1,11.39,69.72Zm-3,1h.43a1.45,1.45,0,0,0,.91-.24.84.84,0,0,0,.3-.7.9.9,0,0,0-.25-.68A1.24,1.24,0,0,0,9,68.86h-.6Z"/><path class="cls-2" d="M15.38,69.15a2.42,2.42,0,0,1,.43,0l-.09,1.21a1.43,1.43,0,0,0-.38,0,1.34,1.34,0,0,0-1,.32,1.12,1.12,0,0,0-.34.88V74H12.74V69.24h1l.19.8H14a1.82,1.82,0,0,1,.59-.64A1.49,1.49,0,0,1,15.38,69.15Z"/><path class="cls-2" d="M16.9,68c0-.42.24-.63.7-.63s.7.21.7.63a.61.61,0,0,1-.17.47.75.75,0,0,1-.53.17C17.14,68.66,16.9,68.44,16.9,68Zm1.35,6H17V69.24h1.29Z"/><path class="cls-2" d="M21,74l-1.8-4.73h1.35l.91,2.7a5.24,5.24,0,0,1,.19,1h0a4.61,4.61,0,0,1,.19-1l.91-2.7h1.35L22.33,74Z"/><path class="cls-2" d="M28.09,74l-.25-.64h0a1.87,1.87,0,0,1-.67.56,2.1,2.1,0,0,1-.9.16,1.35,1.35,0,0,1-1.46-1.49,1.26,1.26,0,0,1,.53-1.11,3.06,3.06,0,0,1,1.58-.4l.82,0v-.21A.64.64,0,0,0,27,70.1a3.47,3.47,0,0,0-1.33.34l-.43-.87A3.89,3.89,0,0,1,27,69.15a2.25,2.25,0,0,1,1.46.41A1.54,1.54,0,0,1,29,70.82V74Zm-.38-2.19-.5,0a1.6,1.6,0,0,0-.83.2.64.64,0,0,0-.28.57q0,.54.63.54a1,1,0,0,0,.72-.26.93.93,0,0,0,.26-.68Z"/><path class="cls-2" d="M32.6,73a2.81,2.81,0,0,0,.81-.15v1a3,3,0,0,1-1.18.21,1.46,1.46,0,0,1-1.13-.39,1.72,1.72,0,0,1-.35-1.17V70.21h-.62v-.54l.71-.44.37-1H32v1h1.32v1H32v2.28a.53.53,0,0,0,.15.41A.65.65,0,0,0,32.6,73Z"/><path class="cls-2" d="M36.79,74.05A2.42,2.42,0,0,1,35,73.42a2.37,2.37,0,0,1-.65-1.78A2.63,2.63,0,0,1,35,69.8a2.11,2.11,0,0,1,1.64-.65,2.08,2.08,0,0,1,1.56.57,2.19,2.19,0,0,1,.56,1.58v.63h-3a1.22,1.22,0,0,0,.33.86,1.14,1.14,0,0,0,.85.3,3.6,3.6,0,0,0,1.6-.37v1a2.92,2.92,0,0,1-.72.25A4.28,4.28,0,0,1,36.79,74.05Zm-.18-4a.81.81,0,0,0-.64.26,1.16,1.16,0,0,0-.27.74h1.81a1.1,1.1,0,0,0-.25-.74A.86.86,0,0,0,36.61,70.07Z"/><path class="cls-2" d="M46.33,72.25a1.6,1.6,0,0,1-.6,1.32,2.61,2.61,0,0,1-1.67.48,3.89,3.89,0,0,1-1.75-.37V72.46a7,7,0,0,0,1.06.4,3.33,3.33,0,0,0,.79.11,1.11,1.11,0,0,0,.66-.16.58.58,0,0,0,.23-.49A.56.56,0,0,0,45,72a1.35,1.35,0,0,0-.3-.27,7,7,0,0,0-.8-.42,4,4,0,0,1-.85-.51,1.78,1.78,0,0,1-.45-.57,1.55,1.55,0,0,1-.17-.76,1.59,1.59,0,0,1,.55-1.29,2.34,2.34,0,0,1,1.54-.47,3.93,3.93,0,0,1,.92.11,6.3,6.3,0,0,1,.91.33l-.42,1a6.16,6.16,0,0,0-.82-.28,2.72,2.72,0,0,0-.63-.08.86.86,0,0,0-.57.17.6.6,0,0,0-.2.46.61.61,0,0,0,.08.3A.89.89,0,0,0,44,70a7.37,7.37,0,0,0,.83.43,3.31,3.31,0,0,1,1.18.83A1.59,1.59,0,0,1,46.33,72.25Z"/><path class="cls-2" d="M51,74l-.18-.61h-.06a1.4,1.4,0,0,1-.59.51,2,2,0,0,1-.87.18A1.67,1.67,0,0,1,48,73.61a1.78,1.78,0,0,1-.43-1.29V69.24H48.9V72a1.35,1.35,0,0,0,.18.77.68.68,0,0,0,.58.26.89.89,0,0,0,.79-.36,2.3,2.3,0,0,0,.24-1.2V69.24H52V74Z"/><path class="cls-2" d="M58,74H56.69V71.21a1.27,1.27,0,0,0-.19-.77.65.65,0,0,0-.57-.25.89.89,0,0,0-.79.36,2.25,2.25,0,0,0-.24,1.2V74H53.61V69.24h1l.17.61h.07a1.44,1.44,0,0,1,.6-.52,2,2,0,0,1,.86-.18,1.65,1.65,0,0,1,1.25.45A1.82,1.82,0,0,1,58,70.89Z"/><path class="cls-2" d="M19.54,78.86h1.93a3.66,3.66,0,0,1,1.9.38,1.29,1.29,0,0,1,.6,1.19,1.5,1.5,0,0,1-.26.9,1.07,1.07,0,0,1-.69.43v0a1.35,1.35,0,0,1,.84.49,1.56,1.56,0,0,1,.26,1,1.58,1.58,0,0,1-.61,1.32,2.66,2.66,0,0,1-1.66.47H19.54Zm1.31,2.45h.76a1.35,1.35,0,0,0,.77-.17.61.61,0,0,0,.24-.54.53.53,0,0,0-.26-.51,1.66,1.66,0,0,0-.82-.16h-.69Zm0,1V84h.86a1.27,1.27,0,0,0,.8-.21.77.77,0,0,0,.25-.63c0-.51-.36-.77-1.1-.77Z"/><path class="cls-2" d="M27.68,85.13a2.43,2.43,0,0,1-1.78-.63,2.39,2.39,0,0,1-.64-1.79,2.58,2.58,0,0,1,.59-1.83,2.41,2.41,0,0,1,3.2-.08,2.15,2.15,0,0,1,.56,1.57V83H26.56a1.24,1.24,0,0,0,.33.86,1.15,1.15,0,0,0,.85.31,3.53,3.53,0,0,0,.81-.09,4,4,0,0,0,.79-.29v1a2.79,2.79,0,0,1-.72.25A4.22,4.22,0,0,1,27.68,85.13Zm-.18-4a.82.82,0,0,0-.64.26,1.18,1.18,0,0,0-.27.74H28.4a1.07,1.07,0,0,0-.25-.74A.86.86,0,0,0,27.5,81.14Z"/><path class="cls-2" d="M33.94,85l-.25-.64h0A2,2,0,0,1,33,85a2.27,2.27,0,0,1-.9.16A1.45,1.45,0,0,1,31,84.74a1.5,1.5,0,0,1-.39-1.11,1.26,1.26,0,0,1,.53-1.11,3.06,3.06,0,0,1,1.58-.4l.82,0v-.21a.64.64,0,0,0-.73-.72,3.33,3.33,0,0,0-1.33.35l-.43-.87a3.78,3.78,0,0,1,1.81-.43,2.31,2.31,0,0,1,1.46.41,1.56,1.56,0,0,1,.5,1.26V85Zm-.38-2.19-.5,0a1.6,1.6,0,0,0-.83.2.63.63,0,0,0-.28.57q0,.54.63.54a.93.93,0,0,0,.71-.26.88.88,0,0,0,.27-.68Z"/><path class="cls-2" d="M38.38,85.13c-1.47,0-2.21-.81-2.21-2.43a2.6,2.6,0,0,1,.6-1.84,2.26,2.26,0,0,1,1.72-.63,3.18,3.18,0,0,1,1.47.32l-.38,1a5.79,5.79,0,0,0-.57-.21,1.86,1.86,0,0,0-.52-.07c-.67,0-1,.47-1,1.43s.34,1.38,1,1.38a2.17,2.17,0,0,0,.69-.1,2.3,2.3,0,0,0,.63-.31v1.1a1.85,1.85,0,0,1-.63.28A3.53,3.53,0,0,1,38.38,85.13Z"/><path class="cls-2" d="M45.56,85H44.27V82.28c0-.68-.26-1-.76-1a.87.87,0,0,0-.79.37,2.23,2.23,0,0,0-.24,1.19V85H41.19V78.46h1.29V79.8c0,.11,0,.35,0,.74l0,.38h.07a1.51,1.51,0,0,1,1.37-.69,1.68,1.68,0,0,1,1.26.44A1.78,1.78,0,0,1,45.56,82Z"/></svg>