<?xml version="1.0" encoding="utf-8"?>
<!-- Generator: Adobe Illustrator 24.1.0, SVG Export Plug-In . SVG Version: 6.00 Build 0)  -->
<svg version="1.1" id="Capa_1" xmlns="http://www.w3.org/2000/svg" xmlns:xlink="http://www.w3.org/1999/xlink" x="0px" y="0px"
	 viewBox="0 0 70 110" style="enable-background:new 0 0 70 110;" xml:space="preserve">
<style type="text/css">
	.st0{fill:#00667C;}
	.st1{fill:#EFEFEF;}
	.st2{fill:#036381;}
</style>
<g>
	<g>
		<g>
			<path class="st0" d="M23.4,66.89c-0.49,0-0.87,0.18-1.13,0.55c-0.27,0.37-0.4,0.87-0.4,1.53c0,1.36,0.51,2.04,1.53,2.04
				c0.43,0,0.95-0.11,1.55-0.32v1.08c-0.5,0.21-1.06,0.31-1.68,0.31c-0.89,0-1.56-0.27-2.03-0.81c-0.47-0.54-0.71-1.31-0.71-2.32
				c0-0.63,0.11-1.19,0.34-1.67c0.23-0.48,0.56-0.84,1-1.1c0.43-0.25,0.94-0.38,1.52-0.38c0.59,0,1.19,0.14,1.78,0.43l-0.42,1.05
				c-0.23-0.11-0.46-0.2-0.69-0.28C23.85,66.93,23.63,66.89,23.4,66.89z"/>
			<path class="st0" d="M29.4,72l-0.25-0.63h-0.03c-0.21,0.27-0.43,0.46-0.66,0.56c-0.23,0.1-0.52,0.16-0.88,0.16
				c-0.45,0-0.8-0.13-1.06-0.38c-0.26-0.26-0.39-0.62-0.39-1.09c0-0.49,0.17-0.86,0.52-1.1c0.35-0.23,0.87-0.36,1.56-0.39l0.81-0.03
				v-0.2c0-0.47-0.24-0.71-0.73-0.71c-0.37,0-0.81,0.11-1.31,0.34l-0.42-0.86c0.54-0.28,1.13-0.42,1.79-0.42
				c0.62,0,1.1,0.14,1.44,0.41c0.33,0.27,0.5,0.69,0.5,1.24V72H29.4z M29.02,69.84l-0.49,0.02c-0.37,0.01-0.65,0.08-0.82,0.2
				c-0.18,0.12-0.27,0.31-0.27,0.56c0,0.36,0.21,0.54,0.62,0.54c0.3,0,0.53-0.09,0.71-0.25c0.18-0.17,0.27-0.39,0.27-0.68V69.84z"/>
			<path class="st0" d="M35.13,70.61c0,0.48-0.17,0.84-0.5,1.09c-0.33,0.25-0.83,0.38-1.49,0.38c-0.34,0-0.63-0.02-0.87-0.07
				s-0.46-0.11-0.67-0.2v-1.05c0.24,0.11,0.5,0.2,0.8,0.28c0.3,0.07,0.56,0.11,0.78,0.11c0.46,0,0.69-0.13,0.69-0.4
				c0-0.1-0.03-0.18-0.09-0.24c-0.06-0.06-0.17-0.13-0.32-0.21c-0.15-0.08-0.35-0.17-0.6-0.28c-0.36-0.15-0.62-0.29-0.79-0.42
				c-0.17-0.13-0.29-0.28-0.37-0.44c-0.08-0.17-0.12-0.37-0.12-0.61c0-0.41,0.16-0.73,0.48-0.96c0.32-0.23,0.78-0.34,1.36-0.34
				c0.56,0,1.11,0.12,1.64,0.37l-0.39,0.92c-0.23-0.1-0.45-0.18-0.65-0.25s-0.41-0.1-0.62-0.1c-0.38,0-0.56,0.1-0.56,0.31
				c0,0.11,0.06,0.21,0.18,0.3c0.12,0.08,0.39,0.21,0.79,0.37c0.36,0.15,0.63,0.28,0.8,0.41c0.17,0.13,0.3,0.28,0.38,0.44
				C35.09,70.18,35.13,70.38,35.13,70.61z"/>
			<path class="st0" d="M38.51,72.08c-0.75,0-1.34-0.21-1.76-0.62c-0.42-0.41-0.63-1-0.63-1.76c0-0.78,0.2-1.38,0.59-1.81
				c0.39-0.43,0.93-0.64,1.62-0.64c0.66,0,1.17,0.19,1.54,0.56c0.37,0.38,0.55,0.89,0.55,1.56v0.62h-3.01
				c0.01,0.36,0.12,0.64,0.32,0.85c0.2,0.2,0.48,0.3,0.84,0.3c0.28,0,0.55-0.03,0.8-0.09c0.25-0.06,0.51-0.15,0.78-0.28v0.98
				c-0.22,0.11-0.46,0.19-0.71,0.25C39.19,72.05,38.88,72.08,38.51,72.08z M38.34,68.15c-0.27,0-0.48,0.09-0.63,0.26
				c-0.15,0.17-0.24,0.41-0.26,0.73h1.78c-0.01-0.31-0.09-0.56-0.25-0.73C38.82,68.24,38.61,68.15,38.34,68.15z"/>
			<path class="st0" d="M43.7,71.07c0.22,0,0.49-0.05,0.8-0.15v0.95c-0.32,0.14-0.71,0.21-1.17,0.21c-0.51,0-0.88-0.13-1.11-0.39
				c-0.23-0.26-0.35-0.64-0.35-1.16v-2.25h-0.61v-0.54l0.7-0.43l0.37-0.98h0.81v0.99h1.3v0.95h-1.3v2.25c0,0.18,0.05,0.31,0.15,0.4
				C43.4,71.02,43.53,71.07,43.7,71.07z"/>
			<path class="st0" d="M48.68,72l-0.25-0.63H48.4c-0.21,0.27-0.44,0.46-0.66,0.56c-0.23,0.1-0.52,0.16-0.89,0.16
				c-0.45,0-0.8-0.13-1.06-0.38c-0.26-0.26-0.39-0.62-0.39-1.09c0-0.49,0.17-0.86,0.52-1.1c0.35-0.23,0.87-0.36,1.57-0.39l0.81-0.03
				v-0.2c0-0.47-0.24-0.71-0.72-0.71c-0.37,0-0.81,0.11-1.32,0.34l-0.42-0.86c0.54-0.28,1.13-0.42,1.78-0.42
				c0.63,0,1.11,0.14,1.44,0.41c0.33,0.27,0.5,0.69,0.5,1.24V72H48.68z M48.31,69.84l-0.49,0.02c-0.37,0.01-0.65,0.08-0.83,0.2
				c-0.18,0.12-0.27,0.31-0.27,0.56c0,0.36,0.21,0.54,0.62,0.54c0.3,0,0.53-0.09,0.71-0.25c0.18-0.17,0.26-0.39,0.26-0.68V69.84z"/>
			<path class="st0" d="M9.03,83.44c-0.55,0-0.98-0.21-1.29-0.64c-0.31-0.43-0.47-1.01-0.47-1.77c0-0.76,0.16-1.36,0.48-1.79
				c0.32-0.43,0.76-0.64,1.32-0.64c0.59,0,1.04,0.23,1.35,0.68h0.04c-0.07-0.35-0.09-0.66-0.09-0.93v-1.49h1.27v6.49h-0.98
				l-0.24-0.6h-0.05C10.06,83.21,9.63,83.44,9.03,83.44z M9.48,82.43c0.33,0,0.56-0.09,0.71-0.28c0.15-0.19,0.24-0.51,0.25-0.96
				v-0.14c0-0.5-0.08-0.86-0.23-1.08c-0.15-0.22-0.41-0.33-0.75-0.33c-0.28,0-0.5,0.12-0.66,0.36c-0.16,0.24-0.24,0.59-0.24,1.05
				c0,0.46,0.08,0.8,0.24,1.03C8.96,82.31,9.18,82.43,9.48,82.43z"/>
			<path class="st0" d="M15.35,83.44c-0.75,0-1.34-0.21-1.76-0.62c-0.42-0.41-0.63-1-0.63-1.76c0-0.78,0.2-1.38,0.59-1.81
				c0.39-0.43,0.93-0.64,1.62-0.64c0.66,0,1.17,0.19,1.54,0.56c0.37,0.38,0.55,0.89,0.55,1.56v0.62h-3.01
				c0.02,0.36,0.12,0.64,0.32,0.85s0.48,0.3,0.84,0.3c0.28,0,0.55-0.03,0.8-0.09c0.25-0.06,0.51-0.15,0.78-0.28v0.98
				c-0.22,0.11-0.46,0.19-0.71,0.25C16.03,83.41,15.72,83.44,15.35,83.44z M15.17,79.51c-0.27,0-0.48,0.09-0.63,0.26
				c-0.15,0.17-0.24,0.41-0.26,0.73h1.78c-0.01-0.31-0.09-0.56-0.24-0.73C15.66,79.6,15.44,79.51,15.17,79.51z"/>
			<path class="st0" d="M22.18,83.36L20.4,78.7h1.33l0.9,2.66c0.1,0.34,0.16,0.65,0.19,0.95h0.02c0.02-0.27,0.08-0.59,0.19-0.95
				l0.89-2.66h1.33l-1.78,4.66H22.18z"/>
			<path class="st0" d="M26.16,77.49c0-0.41,0.23-0.62,0.69-0.62c0.46,0,0.69,0.21,0.69,0.62c0,0.2-0.06,0.35-0.17,0.46
				c-0.12,0.11-0.29,0.16-0.52,0.16C26.39,78.12,26.16,77.91,26.16,77.49z M27.48,83.36h-1.27V78.7h1.27V83.36z"/>
			<path class="st0" d="M33.16,78.7v0.65l-0.73,0.19c0.13,0.21,0.2,0.44,0.2,0.7c0,0.5-0.18,0.89-0.52,1.17
				c-0.35,0.28-0.84,0.42-1.45,0.42l-0.23-0.01l-0.19-0.02c-0.13,0.1-0.2,0.21-0.2,0.33c0,0.18,0.23,0.28,0.7,0.28h0.79
				c0.51,0,0.9,0.11,1.17,0.33c0.27,0.22,0.4,0.54,0.4,0.97c0,0.55-0.23,0.97-0.68,1.27c-0.46,0.3-1.11,0.45-1.96,0.45
				c-0.65,0-1.15-0.11-1.49-0.34c-0.34-0.23-0.52-0.55-0.52-0.95c0-0.28,0.09-0.52,0.26-0.71c0.17-0.19,0.43-0.32,0.77-0.4
				c-0.13-0.06-0.24-0.15-0.34-0.27c-0.1-0.13-0.15-0.26-0.15-0.4c0-0.18,0.05-0.33,0.15-0.44s0.25-0.23,0.45-0.35
				c-0.24-0.11-0.44-0.28-0.58-0.51c-0.14-0.23-0.21-0.51-0.21-0.83c0-0.51,0.17-0.9,0.5-1.18c0.33-0.28,0.8-0.42,1.42-0.42
				c0.13,0,0.28,0.01,0.46,0.04c0.18,0.02,0.3,0.04,0.34,0.05H33.16z M29.56,84.02c0,0.17,0.08,0.31,0.25,0.41
				c0.17,0.1,0.4,0.15,0.71,0.15c0.46,0,0.81-0.06,1.07-0.19c0.26-0.13,0.39-0.3,0.39-0.51c0-0.17-0.08-0.3-0.23-0.36
				c-0.15-0.07-0.39-0.1-0.71-0.1h-0.66c-0.23,0-0.43,0.06-0.59,0.17C29.64,83.69,29.56,83.84,29.56,84.02z M30.02,80.22
				c0,0.25,0.06,0.45,0.17,0.6c0.12,0.15,0.29,0.22,0.53,0.22c0.24,0,0.41-0.07,0.53-0.22s0.17-0.35,0.17-0.6
				c0-0.56-0.23-0.84-0.69-0.84C30.25,79.38,30.02,79.66,30.02,80.22z"/>
			<path class="st0" d="M34.15,77.49c0-0.41,0.23-0.62,0.69-0.62s0.69,0.21,0.69,0.62c0,0.2-0.06,0.35-0.17,0.46
				c-0.12,0.11-0.29,0.16-0.52,0.16C34.38,78.12,34.15,77.91,34.15,77.49z M35.48,83.36h-1.27V78.7h1.27V83.36z"/>
			<path class="st0" d="M38.37,83.36h-1.27v-6.49h1.27V83.36z"/>
			<path class="st0" d="M42.94,83.36l-0.25-0.63h-0.03c-0.21,0.27-0.44,0.46-0.66,0.56c-0.23,0.1-0.52,0.16-0.89,0.16
				c-0.45,0-0.8-0.13-1.06-0.38c-0.26-0.26-0.39-0.62-0.39-1.09c0-0.49,0.17-0.86,0.52-1.1c0.35-0.23,0.87-0.36,1.57-0.39l0.81-0.03
				v-0.2c0-0.47-0.24-0.71-0.72-0.71c-0.37,0-0.81,0.11-1.32,0.34l-0.42-0.86c0.54-0.28,1.13-0.42,1.78-0.42
				c0.63,0,1.11,0.14,1.44,0.41c0.33,0.27,0.5,0.69,0.5,1.24v3.11H42.94z M42.57,81.2l-0.49,0.02c-0.37,0.01-0.65,0.08-0.83,0.2
				c-0.18,0.12-0.27,0.31-0.27,0.56c0,0.36,0.21,0.54,0.62,0.54c0.3,0,0.53-0.09,0.71-0.25c0.18-0.17,0.26-0.39,0.26-0.68V81.2z"/>
			<path class="st0" d="M49.73,83.36h-1.27v-2.72c0-0.34-0.06-0.59-0.18-0.76c-0.12-0.17-0.31-0.25-0.57-0.25
				c-0.36,0-0.61,0.12-0.77,0.36c-0.16,0.24-0.24,0.63-0.24,1.18v2.19h-1.27V78.7h0.97l0.17,0.6h0.07c0.14-0.23,0.34-0.39,0.59-0.51
				c0.25-0.12,0.53-0.17,0.85-0.17c0.54,0,0.95,0.15,1.23,0.44c0.28,0.29,0.42,0.72,0.42,1.27V83.36z"/>
			<path class="st0" d="M53.21,83.44c-1.45,0-2.18-0.8-2.18-2.39c0-0.79,0.2-1.4,0.59-1.82c0.39-0.42,0.96-0.63,1.69-0.63
				c0.54,0,1.03,0.11,1.45,0.32l-0.38,0.98c-0.2-0.08-0.39-0.15-0.56-0.2c-0.17-0.05-0.34-0.08-0.52-0.08
				c-0.66,0-0.99,0.47-0.99,1.41c0,0.91,0.33,1.37,0.99,1.37c0.25,0,0.47-0.03,0.68-0.1c0.21-0.07,0.42-0.17,0.63-0.31v1.09
				c-0.21,0.13-0.41,0.22-0.62,0.27C53.79,83.42,53.53,83.44,53.21,83.44z"/>
			<path class="st0" d="M55.94,77.49c0-0.41,0.23-0.62,0.69-0.62c0.46,0,0.69,0.21,0.69,0.62c0,0.2-0.06,0.35-0.17,0.46
				s-0.29,0.16-0.52,0.16C56.17,78.12,55.94,77.91,55.94,77.49z M57.26,83.36h-1.27V78.7h1.27V83.36z"/>
			<path class="st0" d="M61.84,83.36l-0.25-0.63h-0.03c-0.21,0.27-0.43,0.46-0.66,0.56c-0.23,0.1-0.52,0.16-0.88,0.16
				c-0.45,0-0.8-0.13-1.06-0.38c-0.26-0.26-0.39-0.62-0.39-1.09c0-0.49,0.17-0.86,0.52-1.1c0.35-0.23,0.87-0.36,1.56-0.39l0.81-0.03
				v-0.2c0-0.47-0.24-0.71-0.73-0.71c-0.37,0-0.81,0.11-1.31,0.34L59,79.02c0.54-0.28,1.13-0.42,1.79-0.42
				c0.62,0,1.1,0.14,1.44,0.41c0.33,0.27,0.5,0.69,0.5,1.24v3.11H61.84z M61.47,81.2l-0.49,0.02c-0.37,0.01-0.65,0.08-0.82,0.2
				c-0.18,0.12-0.27,0.31-0.27,0.56c0,0.36,0.21,0.54,0.62,0.54c0.3,0,0.53-0.09,0.71-0.25c0.18-0.17,0.27-0.39,0.27-0.68V81.2z"/>
		</g>
	</g>
	<g>
		<g>
			<circle class="st1" cx="36.37" cy="39.94" r="19.38"/>
		</g>
		<g>
			<g>
				<g>
					<path class="st0" d="M36.77,36.34c-1.12,0-2.25-0.23-3.29-0.68l-0.05-0.02l-0.07-0.6l0.07-0.03c2.13-0.94,4.57-0.94,6.69,0
						l0.07,0.03l-0.07,0.6l-0.05,0.02C39.02,36.11,37.9,36.34,36.77,36.34z M33.62,35.49c2.01,0.86,4.3,0.86,6.31,0l0.04-0.34
						c-2.04-0.88-4.36-0.88-6.39,0L33.62,35.49z"/>
				</g>
			</g>
		</g>
		<g>
			<g>
				<g>
					<path class="st0" d="M36.77,40.25c-0.32,0-0.64-0.05-0.96-0.15c-0.81-0.26-1.47-0.81-1.86-1.57c-0.39-0.75-0.46-1.61-0.2-2.42
						l0.03-0.1l0.1,0.04c1.86,0.68,3.92,0.68,5.78,0l0.1-0.04l0.03,0.1c0.2,0.63,0.2,1.3,0,1.93
						C39.37,39.39,38.11,40.25,36.77,40.25z M33.91,36.27c-0.21,0.73-0.13,1.49,0.22,2.16c0.36,0.7,0.98,1.23,1.74,1.47
						c1.56,0.5,3.23-0.37,3.73-1.93c0.18-0.56,0.19-1.14,0.03-1.7C37.78,36.92,35.76,36.92,33.91,36.27z"/>
				</g>
			</g>
		</g>
		<g>
			<g>
				<path class="st0" d="M33.54,34.76l-0.8-1.21c-0.02-0.02-0.03-0.05-0.04-0.07c-0.08-0.2,0.02-0.42,0.22-0.5
					c0.95-0.39,1.8-0.94,2.54-1.64c0.74-0.7,1.89-0.7,2.62,0c0.74,0.71,1.59,1.26,2.54,1.64c0.02,0.01,0.05,0.02,0.07,0.04
					c0.18,0.12,0.23,0.36,0.11,0.54v0L40,34.76l-0.08-0.03c-2-0.85-4.3-0.85-6.3,0L33.54,34.76z M36.77,33.89
					c1.07,0,2.15,0.21,3.15,0.62l0.71-1.06c0.05-0.08,0.03-0.2-0.05-0.25c-0.01-0.01-0.02-0.01-0.04-0.02
					c-0.97-0.39-1.84-0.96-2.6-1.68c-0.66-0.63-1.68-0.63-2.34,0c-0.75,0.72-1.62,1.29-2.6,1.68c-0.09,0.04-0.14,0.14-0.1,0.24
					c0,0.01,0.01,0.02,0.01,0.02l0.71,1.07C34.62,34.09,35.7,33.89,36.77,33.89z M36.77,33.26l-0.04-0.01
					c-0.09-0.04-0.19-0.09-0.27-0.15c-0.51-0.38-0.61-1.1-0.23-1.61l0.05-0.06l0.07,0.03c0.12,0.05,0.26,0.05,0.37,0l0.04-0.02
					l0.04,0.02c0.12,0.05,0.25,0.05,0.37,0l0.07-0.03l0.05,0.06c0.06,0.08,0.11,0.17,0.15,0.27c0.11,0.28,0.11,0.6-0.01,0.88
					c-0.12,0.28-0.34,0.5-0.63,0.61L36.77,33.26z M36.36,31.68c-0.26,0.41-0.17,0.96,0.23,1.26c0.06,0.04,0.12,0.08,0.18,0.11
					c0.22-0.1,0.38-0.27,0.48-0.49c0.1-0.23,0.1-0.49,0.01-0.72c-0.02-0.06-0.05-0.11-0.08-0.16c-0.13,0.04-0.28,0.04-0.41-0.01
					C36.64,31.71,36.5,31.72,36.36,31.68z"/>
			</g>
		</g>
		<g>
			<g>
				<path class="st0" d="M36.77,49.53c-2.15,0-4.31-0.45-6.32-1.34l-0.05-0.02l-0.01-0.05c-0.81-3.07,0.69-6.28,3.55-7.64L34,40.46
					l0.05,0.04c1.6,1.27,3.84,1.27,5.43,0l0.05-0.04l0.06,0.03c2.87,1.36,4.36,4.57,3.55,7.64l-0.01,0.05l-0.04,0.02
					C41.08,49.09,38.93,49.53,36.77,49.53z M30.58,48.03c3.94,1.74,8.44,1.74,12.38,0c0.75-2.94-0.67-6-3.39-7.32
					c-1.65,1.27-3.93,1.27-5.59,0C31.26,42.03,29.83,45.09,30.58,48.03z M39.25,46.14l-0.09-0.13c-0.14-0.21-0.36-0.35-0.61-0.38
					c-0.14-0.02-0.26-0.07-0.38-0.14c-0.38-0.26-0.47-0.78-0.2-1.16l0,0c0.17-0.24,0.11-0.58-0.13-0.75
					c-0.02-0.02-0.04-0.03-0.06-0.03l-0.15-0.06l0.94-0.83l0.04,0.17c0.02,0.07,0.06,0.13,0.12,0.17c0.06,0.04,0.13,0.05,0.21,0.03
					c0.12-0.03,0.2-0.12,0.21-0.24l0.2,0c0.01,0.07,0.04,0.14,0.09,0.18c0.06,0.05,0.13,0.07,0.2,0.06c0.12-0.01,0.22-0.1,0.24-0.21
					l0.04-0.17l0.93,0.82l-0.14,0.07c-0.13,0.06-0.22,0.18-0.27,0.31c-0.04,0.14-0.03,0.28,0.03,0.41c0.01,0.02,0.02,0.04,0.04,0.06
					c0.08,0.12,0.13,0.25,0.14,0.38c0.03,0.22-0.03,0.44-0.17,0.61c-0.14,0.18-0.33,0.29-0.56,0.31c-0.25,0.03-0.47,0.17-0.61,0.38
					L39.25,46.14z M37.99,43.44c0.31,0.24,0.38,0.68,0.15,1.01l0,0c-0.2,0.28-0.13,0.67,0.15,0.87c0.09,0.06,0.18,0.1,0.28,0.11
					c0.26,0.03,0.5,0.16,0.67,0.36c0.17-0.2,0.41-0.32,0.67-0.36c0.17-0.02,0.32-0.1,0.42-0.24c0.1-0.13,0.15-0.3,0.13-0.46
					c-0.01-0.1-0.05-0.2-0.11-0.28c-0.02-0.03-0.04-0.06-0.05-0.09c-0.09-0.17-0.1-0.37-0.04-0.56c0.05-0.14,0.13-0.26,0.25-0.35
					l-0.48-0.43c-0.08,0.12-0.21,0.21-0.36,0.22c-0.13,0.01-0.25-0.03-0.35-0.11c-0.02-0.02-0.05-0.04-0.07-0.07
					c-0.07,0.08-0.16,0.14-0.27,0.17c-0.12,0.03-0.25,0.01-0.36-0.06c-0.06-0.04-0.11-0.09-0.15-0.15L37.99,43.44z"/>
			</g>
		</g>
	</g>
</g>
</svg>
