<?xml version="1.0" encoding="utf-8"?>
<!-- Generator: Adobe Illustrator 24.1.0, SVG Export Plug-In . SVG Version: 6.00 Build 0)  -->
<svg version="1.1" id="Capa_1" xmlns="http://www.w3.org/2000/svg" xmlns:xlink="http://www.w3.org/1999/xlink" x="0px" y="0px"
	 viewBox="0 0 70 110" style="enable-background:new 0 0 70 110;" xml:space="preserve">
<style type="text/css">
	.st0{fill:#00667C;}
	.st1{fill:#EFEFEF;}
	.st2{fill:#036381;}
</style>
<g>
	<g>
		<g>
			<g>
				<path class="st0" d="M21.77,71.99h-1.29v-5.02h-1.66V65.9h4.6v1.08h-1.66V71.99z"/>
				<path class="st0" d="M26.65,72.08c-0.75,0-1.34-0.21-1.76-0.62c-0.42-0.41-0.63-1-0.63-1.76c0-0.78,0.2-1.38,0.59-1.81
					c0.39-0.43,0.93-0.64,1.62-0.64c0.66,0,1.17,0.19,1.54,0.56c0.37,0.38,0.55,0.89,0.55,1.56v0.62h-3.01
					c0.01,0.36,0.12,0.64,0.32,0.85s0.48,0.3,0.84,0.3c0.28,0,0.55-0.03,0.8-0.09c0.25-0.06,0.51-0.15,0.78-0.28v0.98
					c-0.22,0.11-0.46,0.19-0.71,0.25S27.02,72.08,26.65,72.08z M26.47,68.15c-0.27,0-0.48,0.09-0.63,0.26
					c-0.15,0.17-0.24,0.41-0.26,0.73h1.78c-0.01-0.31-0.09-0.56-0.25-0.73C26.96,68.23,26.74,68.15,26.47,68.15z"/>
				<path class="st0" d="M32.47,67.24c0.17,0,0.32,0.01,0.43,0.04l-0.1,1.19c-0.1-0.03-0.23-0.04-0.38-0.04
					c-0.41,0-0.72,0.1-0.95,0.31s-0.34,0.5-0.34,0.88v2.37h-1.27v-4.66h0.96l0.19,0.78h0.06c0.15-0.26,0.34-0.47,0.59-0.63
					C31.92,67.32,32.18,67.24,32.47,67.24z"/>
				<path class="st0" d="M36.63,67.24c0.17,0,0.32,0.01,0.43,0.04l-0.1,1.19c-0.1-0.03-0.23-0.04-0.38-0.04
					c-0.41,0-0.72,0.1-0.95,0.31s-0.34,0.5-0.34,0.88v2.37h-1.27v-4.66h0.96l0.19,0.78h0.06c0.15-0.26,0.34-0.47,0.59-0.63
					C36.08,67.32,36.34,67.24,36.63,67.24z"/>
				<path class="st0" d="M41.15,71.99l-0.25-0.63h-0.03c-0.21,0.27-0.44,0.46-0.66,0.56s-0.52,0.16-0.89,0.16
					c-0.45,0-0.8-0.13-1.06-0.38c-0.26-0.26-0.39-0.62-0.39-1.09c0-0.49,0.17-0.86,0.52-1.1c0.35-0.23,0.87-0.36,1.57-0.39
					l0.81-0.03v-0.2c0-0.47-0.24-0.71-0.73-0.71c-0.37,0-0.81,0.11-1.31,0.34l-0.42-0.86c0.54-0.28,1.13-0.42,1.79-0.42
					c0.63,0,1.11,0.14,1.44,0.41c0.33,0.27,0.5,0.69,0.5,1.24v3.11H41.15z M40.78,69.83l-0.49,0.02c-0.37,0.01-0.65,0.08-0.83,0.2
					c-0.18,0.12-0.27,0.31-0.27,0.56c0,0.36,0.21,0.54,0.62,0.54c0.3,0,0.53-0.09,0.71-0.25c0.18-0.17,0.26-0.39,0.26-0.68V69.83z"
					/>
				<path class="st0" d="M46.87,71.99h-3.68v-0.75l2.16-2.94h-2.03v-0.97h3.48v0.82l-2.1,2.87h2.18V71.99z"/>
				<path class="st0" d="M51.04,71.99l-0.25-0.63h-0.03c-0.21,0.27-0.44,0.46-0.66,0.56s-0.52,0.16-0.89,0.16
					c-0.45,0-0.8-0.13-1.06-0.38c-0.26-0.26-0.39-0.62-0.39-1.09c0-0.49,0.17-0.86,0.52-1.1c0.35-0.23,0.87-0.36,1.57-0.39
					l0.81-0.03v-0.2c0-0.47-0.24-0.71-0.73-0.71c-0.37,0-0.81,0.11-1.31,0.34l-0.42-0.86c0.54-0.28,1.13-0.42,1.79-0.42
					c0.63,0,1.11,0.14,1.44,0.41c0.33,0.27,0.5,0.69,0.5,1.24v3.11H51.04z M50.66,69.83l-0.49,0.02c-0.37,0.01-0.65,0.08-0.83,0.2
					c-0.18,0.12-0.27,0.31-0.27,0.56c0,0.36,0.21,0.54,0.62,0.54c0.3,0,0.53-0.09,0.71-0.25c0.18-0.17,0.26-0.39,0.26-0.68V69.83z"
					/>
				<path class="st0" d="M20.15,82.42c0.22,0,0.49-0.05,0.8-0.15v0.95c-0.32,0.14-0.71,0.21-1.17,0.21c-0.51,0-0.88-0.13-1.11-0.39
					c-0.23-0.26-0.35-0.64-0.35-1.16v-2.25h-0.61v-0.54l0.7-0.43l0.37-0.98h0.81v0.99h1.3v0.95h-1.3v2.25c0,0.18,0.05,0.31,0.15,0.4
					C19.85,82.38,19.99,82.42,20.15,82.42z"/>
				<path class="st0" d="M24.29,83.44c-0.75,0-1.34-0.21-1.76-0.62c-0.42-0.41-0.63-1-0.63-1.76c0-0.78,0.2-1.38,0.59-1.81
					c0.39-0.43,0.93-0.64,1.62-0.64c0.66,0,1.17,0.19,1.54,0.56c0.37,0.38,0.55,0.89,0.55,1.56v0.62h-3.01
					c0.01,0.36,0.12,0.64,0.32,0.85c0.2,0.2,0.48,0.3,0.84,0.3c0.28,0,0.55-0.03,0.8-0.09c0.25-0.06,0.51-0.15,0.78-0.28v0.98
					c-0.22,0.11-0.46,0.19-0.71,0.25S24.65,83.44,24.29,83.44z M24.11,79.51c-0.27,0-0.48,0.09-0.63,0.26
					c-0.15,0.17-0.24,0.41-0.26,0.73H25c-0.01-0.31-0.09-0.56-0.25-0.73C24.59,79.59,24.38,79.51,24.11,79.51z"/>
				<path class="st0" d="M29.4,83.44c-1.45,0-2.18-0.8-2.18-2.39c0-0.79,0.2-1.4,0.59-1.82c0.39-0.42,0.96-0.63,1.7-0.63
					c0.54,0,1.02,0.11,1.45,0.32l-0.38,0.98c-0.2-0.08-0.39-0.15-0.56-0.2c-0.17-0.05-0.34-0.08-0.52-0.08
					c-0.66,0-0.99,0.47-0.99,1.41c0,0.91,0.33,1.37,0.99,1.37c0.25,0,0.47-0.03,0.68-0.1c0.21-0.07,0.42-0.17,0.63-0.31v1.09
					c-0.21,0.13-0.41,0.22-0.62,0.27S29.72,83.44,29.4,83.44z"/>
				<path class="st0" d="M36.48,83.35h-1.27v-2.72c0-0.67-0.25-1.01-0.75-1.01c-0.36,0-0.61,0.12-0.77,0.36
					c-0.16,0.24-0.24,0.63-0.24,1.18v2.19h-1.27v-6.49h1.27v1.32c0,0.1-0.01,0.35-0.03,0.73l-0.03,0.37h0.07
					c0.28-0.46,0.73-0.68,1.35-0.68c0.55,0,0.96,0.15,1.25,0.44c0.28,0.29,0.43,0.72,0.43,1.27V83.35z"/>
				<path class="st0" d="M41.04,83.35l-0.25-0.63h-0.03c-0.21,0.27-0.44,0.46-0.66,0.56c-0.23,0.1-0.52,0.16-0.89,0.16
					c-0.45,0-0.8-0.13-1.06-0.38c-0.26-0.26-0.39-0.62-0.39-1.09c0-0.49,0.17-0.86,0.52-1.1c0.35-0.23,0.87-0.36,1.57-0.39
					l0.81-0.03v-0.2c0-0.47-0.24-0.71-0.73-0.71c-0.37,0-0.81,0.11-1.31,0.34l-0.42-0.86c0.54-0.28,1.13-0.42,1.79-0.42
					c0.63,0,1.11,0.14,1.44,0.41c0.33,0.27,0.5,0.69,0.5,1.24v3.11H41.04z M40.66,81.19l-0.49,0.02c-0.37,0.01-0.65,0.08-0.83,0.2
					c-0.18,0.12-0.27,0.31-0.27,0.56c0,0.36,0.21,0.54,0.62,0.54c0.3,0,0.53-0.09,0.71-0.25c0.18-0.17,0.26-0.39,0.26-0.68V81.19z"
					/>
				<path class="st0" d="M44.99,83.44c-0.55,0-0.98-0.21-1.29-0.64c-0.31-0.43-0.47-1.01-0.47-1.77c0-0.76,0.16-1.36,0.48-1.79
					c0.32-0.43,0.76-0.64,1.32-0.64c0.59,0,1.03,0.23,1.34,0.68h0.04c-0.07-0.35-0.1-0.66-0.1-0.93v-1.49h1.28v6.49h-0.98l-0.25-0.6
					h-0.05C46.03,83.21,45.59,83.44,44.99,83.44z M45.44,82.42c0.33,0,0.56-0.09,0.71-0.28c0.15-0.19,0.23-0.51,0.25-0.96v-0.14
					c0-0.5-0.08-0.86-0.23-1.08c-0.15-0.22-0.41-0.33-0.75-0.33c-0.28,0-0.5,0.12-0.66,0.36c-0.16,0.24-0.24,0.59-0.24,1.05
					c0,0.46,0.08,0.8,0.24,1.03C44.92,82.31,45.14,82.42,45.44,82.42z"/>
				<path class="st0" d="M52.16,83.35l-0.25-0.63h-0.03c-0.21,0.27-0.44,0.46-0.66,0.56c-0.23,0.1-0.52,0.16-0.89,0.16
					c-0.45,0-0.8-0.13-1.06-0.38c-0.26-0.26-0.39-0.62-0.39-1.09c0-0.49,0.17-0.86,0.52-1.1c0.35-0.23,0.87-0.36,1.57-0.39
					l0.81-0.03v-0.2c0-0.47-0.24-0.71-0.73-0.71c-0.37,0-0.81,0.11-1.31,0.34l-0.42-0.86c0.54-0.28,1.13-0.42,1.79-0.42
					c0.63,0,1.11,0.14,1.44,0.41c0.33,0.27,0.5,0.69,0.5,1.24v3.11H52.16z M51.79,81.19l-0.49,0.02c-0.37,0.01-0.65,0.08-0.83,0.2
					c-0.18,0.12-0.27,0.31-0.27,0.56c0,0.36,0.21,0.54,0.62,0.54c0.3,0,0.53-0.09,0.71-0.25c0.18-0.17,0.26-0.39,0.26-0.68V81.19z"
					/>
			</g>
		</g>
	</g>
	<g>
		<g>
			<circle class="st1" cx="35" cy="39.94" r="19.38"/>
		</g>
		<g>
			<g>
				<path class="st0" d="M37.08,35.51h-2.47l-0.01-0.12c-0.21-2.27-2.23-4.04-4.61-4.04c-2.55,0-4.63,1.99-4.63,4.43
					s2.08,4.43,4.63,4.43c0.02,0,0.05,0,0.07,0l0.19-0.01l0.01,0.12l1.21,9.88h7.47l1.81-14.69h-3.07l2.08-5.3h4.89v-0.53h-5.28
					L37.08,35.51z M29.67,35.51l0.51,4.16l-0.19,0c-2.24,0-4.07-1.75-4.07-3.9s1.82-3.9,4.07-3.9c2.09,0,3.82,1.5,4.04,3.48
					l0.02,0.15H29.67z M30.31,36.04h3.74l-0.02,0.15c-0.18,1.66-1.45,3.02-3.14,3.38l-0.14,0.03L30.31,36.04z M30.81,40.14
					l0.12-0.02c1.98-0.4,3.49-2.02,3.67-3.95l0.01-0.12h2.26l-2.4,6.13h-3.41L30.81,40.14z M31.13,42.71h3.13l-2.39,6.09
					L31.13,42.71z M38.44,49.67h-6.3l2.73-6.97h4.43L38.44,49.67z M40.11,36.04l-0.75,6.13h-4.29l2.4-6.13H40.11z"/>
			</g>
		</g>
	</g>
</g>
</svg>
