<?xml version="1.0" encoding="utf-8"?>
<!-- Generator: Adobe Illustrator 23.0.1, SVG Export Plug-In . SVG Version: 6.00 Build 0)  -->
<svg version="1.1" id="Layer_1" xmlns="http://www.w3.org/2000/svg" xmlns:xlink="http://www.w3.org/1999/xlink" x="0px" y="0px"
	 viewBox="0 0 25 25" style="enable-background:new 0 0 25 25;" xml:space="preserve">
<style type="text/css">
	.st0{fill:#154C5E;}
	.st1{fill:#B7625E;}
	.st2{fill:#ECECE6;}
	.st3{opacity:0.27;fill:#F1A899;}
	.st4{fill:none;}
	.st5{fill:#F1A899;}
	.st6{fill-rule:evenodd;clip-rule:evenodd;fill:#154C5E;}
	.st7{opacity:0.41;fill:#F1A899;}
	.st8{fill:#F4CD87;}
	.st9{fill:none;stroke:#154C5E;stroke-miterlimit:10;}
	.st10{opacity:0.24;fill:#B7625E;}
</style>
<g>
	<path class="st5" d="M3.12,5.62l8.03,6.36c0.36,0.29,0.87,0.41,1.35,0.39c0.49,0.02,0.99-0.1,1.36-0.39l8.03-6.36
		c0.64-0.51,0.5-0.92-0.32-0.92H3.44C2.62,4.7,2.48,5.11,3.12,5.62L3.12,5.62z M3.12,5.62"/>
	<path class="st5" d="M22.46,7.3l-8.77,6.66c-0.33,0.25-0.76,0.37-1.18,0.36c-0.43,0-0.86-0.12-1.19-0.36L2.54,7.3
		C1.89,6.8,1.36,7.07,1.36,7.89v10.93c0,0.82,0.67,1.49,1.48,1.49h19.32c0.82,0,1.48-0.67,1.48-1.49V7.89
		C23.64,7.07,23.11,6.8,22.46,7.3L22.46,7.3z M22.46,7.3"/>
</g>
</svg>
