<?xml version="1.0" encoding="utf-8"?>
<!-- Generator: Adobe Illustrator 23.0.1, SVG Export Plug-In . SVG Version: 6.00 Build 0)  -->
<svg version="1.1" id="Layer_1" xmlns="http://www.w3.org/2000/svg" xmlns:xlink="http://www.w3.org/1999/xlink" x="0px" y="0px"
	 viewBox="0 0 24 24" style="enable-background:new 0 0 24 24;" xml:space="preserve">
<style type="text/css">
	.st0{fill:#154C5E;}
	.st1{fill:#B7625E;}
	.st2{fill:#ECECE6;}
	.st3{opacity:0.27;fill:#F1A899;}
	.st4{fill:none;}
	.st5{fill:#F1A899;}
	.st6{fill-rule:evenodd;clip-rule:evenodd;fill:#154C5E;}
	.st7{opacity:0.41;fill:#F1A899;}
	.st8{fill:#F4CD87;}
	.st9{fill:none;stroke:#154C5E;stroke-miterlimit:10;}
	.st10{opacity:0.24;fill:#B7625E;}
</style>
<g>
	<circle class="st5" cx="12" cy="12" r="11.66"/>
	<g>
		<g>
			<path class="st2" d="M16.82,15.07v1.38c0,0.19-0.15,0.34-0.34,0.34H7.52c-0.19,0-0.34-0.15-0.34-0.34v-1.38
				c0-0.19,0.15-0.34,0.34-0.34c0.19,0,0.34,0.15,0.34,0.34v1.03h8.27v-1.03c0-0.19,0.15-0.34,0.34-0.34S16.82,14.88,16.82,15.07z
				 M11.76,15.32c0.03,0.03,0.07,0.06,0.11,0.07c0.08,0.04,0.18,0.04,0.26,0c0.04-0.02,0.08-0.04,0.11-0.07l3.1-3.1
				c0.14-0.14,0.14-0.35,0-0.49c-0.14-0.14-0.35-0.14-0.49,0l-2.51,2.52V7.15c0-0.19-0.15-0.34-0.34-0.34s-0.34,0.15-0.34,0.34v7.09
				l-2.51-2.52c-0.14-0.14-0.35-0.14-0.49,0c-0.14,0.14-0.14,0.35,0,0.49l0,0L11.76,15.32z"/>
		</g>
	</g>
</g>
</svg>
