<?xml version="1.0" encoding="utf-8"?>
<!-- Generator: Adobe Illustrator 23.0.1, SVG Export Plug-In . SVG Version: 6.00 Build 0)  -->
<svg version="1.1" id="Layer_1" xmlns="http://www.w3.org/2000/svg" xmlns:xlink="http://www.w3.org/1999/xlink" x="0px" y="0px"
	 viewBox="0 0 101.5 18.63" style="enable-background:new 0 0 101.5 18.63;" xml:space="preserve">
<style type="text/css">
	.st0{fill:#154C5E;}
	.st1{fill:#B7625E;}
	.st2{fill:#ECECE6;}
	.st3{opacity:0.27;fill:#F1A899;}
	.st4{fill:none;}
	.st5{fill:#F1A899;}
	.st6{fill-rule:evenodd;clip-rule:evenodd;fill:#154C5E;}
	.st7{opacity:0.41;fill:#F1A899;}
	.st8{fill:#F4CD87;}
	.st9{fill:none;stroke:#154C5E;stroke-miterlimit:10;}
	.st10{opacity:0.24;fill:#B7625E;}
</style>
<path class="st1" d="M92.18,18.63H9.31C4.17,18.63,0,14.46,0,9.31v0C0,4.17,4.17,0,9.31,0l82.87,0c5.14,0,9.31,4.17,9.31,9.31v0
	C101.5,14.46,97.33,18.63,92.18,18.63z"/>
<g>
	<path class="st2" d="M18.94,10.27h-2.61l-0.9,2.27h-0.5l2.58-6.45h0.29l2.53,6.45h-0.51L18.94,10.27z M16.49,9.86h2.3l-0.87-2.31
		c-0.07-0.18-0.16-0.43-0.26-0.76c-0.08,0.28-0.17,0.54-0.26,0.76L16.49,9.86z"/>
	<path class="st2" d="M24.76,9.3h2.37v2.93c-0.62,0.26-1.32,0.4-2.09,0.4c-1.01,0-1.79-0.29-2.33-0.86
		c-0.54-0.57-0.81-1.38-0.81-2.43c0-0.65,0.13-1.23,0.4-1.74c0.27-0.5,0.65-0.89,1.15-1.17c0.5-0.28,1.07-0.41,1.72-0.41
		c0.7,0,1.33,0.13,1.88,0.39l-0.18,0.4c-0.56-0.26-1.13-0.39-1.73-0.39c-0.85,0-1.52,0.26-2.01,0.78c-0.5,0.52-0.74,1.23-0.74,2.11
		c0,0.97,0.24,1.69,0.71,2.18c0.47,0.49,1.16,0.73,2.08,0.73c0.59,0,1.09-0.08,1.51-0.25V9.72h-1.91V9.3z"/>
	<path class="st2" d="M33.24,12.53h-3.51V6.11h3.51v0.41h-3.06v2.43h2.89v0.41h-2.89v2.75h3.06V12.53z"/>
	<path class="st2" d="M40.35,12.53H39.9l-3.8-5.7h-0.04c0.04,0.68,0.05,1.19,0.05,1.54v4.16h-0.43V6.11h0.45l3.8,5.69h0.03
		c-0.03-0.53-0.04-1.03-0.04-1.5V6.11h0.43V12.53z"/>
	<path class="st2" d="M48.03,9.26c0,1.08-0.28,1.89-0.85,2.44c-0.57,0.55-1.4,0.83-2.49,0.83h-1.54V6.11h1.73
		c1.02,0,1.8,0.27,2.34,0.8C47.76,7.45,48.03,8.23,48.03,9.26z M47.54,9.28c0-0.92-0.23-1.61-0.7-2.07c-0.47-0.46-1.15-0.7-2.06-0.7
		H43.6v5.63h1.06C46.58,12.14,47.54,11.18,47.54,9.28z"/>
	<path class="st2" d="M53.59,10.27h-2.61l-0.9,2.27h-0.5l2.58-6.45h0.29l2.53,6.45h-0.51L53.59,10.27z M51.14,9.86h2.3l-0.87-2.31
		c-0.07-0.18-0.16-0.43-0.26-0.76c-0.08,0.28-0.17,0.54-0.26,0.76L51.14,9.86z"/>
	<path class="st2" d="M57.33,9.73v2.8h-0.45V6.11h1.53c0.8,0,1.38,0.15,1.77,0.44c0.38,0.29,0.57,0.74,0.57,1.33
		c0,0.43-0.11,0.79-0.34,1.09c-0.23,0.3-0.57,0.51-1.03,0.64l1.74,2.92h-0.54l-1.66-2.8H57.33z M57.33,9.35h1.23
		c0.54,0,0.96-0.12,1.26-0.36c0.3-0.24,0.45-0.6,0.45-1.07c0-0.49-0.15-0.84-0.44-1.07c-0.29-0.22-0.77-0.33-1.43-0.33h-1.06V9.35z"
		/>
	<path class="st2" d="M69.28,6.42c-0.8,0-1.44,0.26-1.9,0.77c-0.46,0.52-0.69,1.22-0.69,2.12c0,0.92,0.22,1.63,0.65,2.13
		s1.06,0.76,1.87,0.76c0.54,0,1.03-0.07,1.48-0.21v0.4c-0.42,0.15-0.95,0.22-1.59,0.22c-0.9,0-1.61-0.29-2.13-0.87
		s-0.78-1.4-0.78-2.44c0-0.65,0.12-1.23,0.37-1.73c0.25-0.5,0.6-0.88,1.07-1.15c0.46-0.27,1-0.41,1.62-0.41
		c0.63,0,1.19,0.12,1.68,0.35l-0.18,0.4C70.29,6.54,69.8,6.42,69.28,6.42z"/>
	<path class="st2" d="M73.12,12.53V6.11h0.45v6.42H73.12z"/>
	<path class="st2" d="M78.04,12.53h-0.45v-6h-2.09V6.11h4.62v0.42h-2.09V12.53z"/>
	<path class="st2" d="M85.16,10.27h-2.61l-0.9,2.27h-0.5l2.58-6.45h0.29l2.53,6.45h-0.51L85.16,10.27z M82.72,9.86h2.3l-0.87-2.31
		c-0.07-0.18-0.16-0.43-0.26-0.76c-0.08,0.28-0.17,0.54-0.26,0.76L82.72,9.86z"/>
</g>
</svg>
