<?xml version="1.0" encoding="utf-8"?>
<!-- Generator: Adobe Illustrator 23.0.1, SVG Export Plug-In . SVG Version: 6.00 Build 0)  -->
<svg version="1.1" id="Layer_1" xmlns="http://www.w3.org/2000/svg" xmlns:xlink="http://www.w3.org/1999/xlink" x="0px" y="0px"
	 viewBox="0 0 87.37 18.63" style="enable-background:new 0 0 87.37 18.63;" xml:space="preserve">
<style type="text/css">
	.st0{fill:#154C5E;}
	.st1{fill:#B7625E;}
	.st2{fill:#ECECE6;}
	.st3{opacity:0.27;fill:#F1A899;}
	.st4{fill:none;}
	.st5{fill:#F1A899;}
	.st6{fill-rule:evenodd;clip-rule:evenodd;fill:#154C5E;}
	.st7{opacity:0.41;fill:#F1A899;}
	.st8{fill:#F4CD87;}
	.st9{fill:none;stroke:#154C5E;stroke-miterlimit:10;}
	.st10{opacity:0.24;fill:#B7625E;}
</style>
<path class="st5" d="M78.05,18.63H9.31C4.17,18.63,0,14.46,0,9.31v0C0,4.17,4.17,0,9.31,0l68.74,0c5.14,0,9.31,4.17,9.31,9.31v0
	C87.37,14.46,83.2,18.63,78.05,18.63z"/>
<g>
	<path class="st2" d="M17.28,6.11h0.49l-2.4,6.42h-0.4l-2.39-6.42h0.48l1.62,4.37c0.25,0.66,0.41,1.15,0.5,1.48
		c0.06-0.22,0.17-0.56,0.35-1.02L17.28,6.11z"/>
	<path class="st2" d="M23.17,12.53h-3.51V6.11h3.51v0.41h-3.06v2.43H23v0.41h-2.89v2.75h3.06V12.53z"/>
	<path class="st2" d="M26.07,9.73v2.8h-0.45V6.11h1.53c0.8,0,1.38,0.15,1.77,0.44c0.38,0.29,0.57,0.74,0.57,1.33
		c0,0.43-0.11,0.79-0.34,1.09c-0.23,0.3-0.57,0.51-1.03,0.64l1.74,2.92h-0.54l-1.66-2.8H26.07z M26.07,9.35h1.23
		c0.54,0,0.96-0.12,1.26-0.36C28.85,8.74,29,8.39,29,7.92c0-0.49-0.15-0.84-0.44-1.07c-0.29-0.22-0.77-0.33-1.43-0.33h-1.06V9.35z"
		/>
	<path class="st2" d="M37.8,9.3h2.37v2.93c-0.62,0.26-1.32,0.4-2.09,0.4c-1.01,0-1.79-0.29-2.33-0.86
		c-0.54-0.57-0.81-1.38-0.81-2.43c0-0.65,0.13-1.23,0.4-1.74c0.27-0.5,0.65-0.89,1.15-1.17c0.5-0.28,1.07-0.41,1.72-0.41
		c0.7,0,1.33,0.13,1.88,0.39l-0.18,0.4c-0.56-0.26-1.13-0.39-1.73-0.39c-0.85,0-1.52,0.26-2.01,0.78c-0.5,0.52-0.74,1.23-0.74,2.11
		c0,0.97,0.24,1.69,0.71,2.18c0.47,0.49,1.16,0.73,2.08,0.73c0.59,0,1.09-0.08,1.51-0.25V9.72H37.8V9.3z"/>
	<path class="st2" d="M45.86,10.27h-2.61l-0.9,2.27h-0.5l2.58-6.45h0.29l2.53,6.45h-0.51L45.86,10.27z M43.42,9.86h2.3l-0.87-2.31
		c-0.07-0.18-0.16-0.43-0.26-0.76c-0.08,0.28-0.17,0.54-0.26,0.76L43.42,9.86z"/>
	<path class="st2" d="M49.16,12.53V6.11h0.45v6h3.06v0.42H49.16z"/>
	<path class="st2" d="M58.27,12.53h-3.51V6.11h3.51v0.41h-3.06v2.43h2.89v0.41h-2.89v2.75h3.06V12.53z"/>
	<path class="st2" d="M61.16,9.73v2.8h-0.45V6.11h1.53c0.8,0,1.38,0.15,1.77,0.44c0.38,0.29,0.57,0.74,0.57,1.33
		c0,0.43-0.11,0.79-0.34,1.09c-0.23,0.3-0.57,0.51-1.03,0.64l1.74,2.92h-0.54l-1.66-2.8H61.16z M61.16,9.35h1.23
		c0.54,0,0.96-0.12,1.26-0.36c0.3-0.24,0.45-0.6,0.45-1.07c0-0.49-0.15-0.84-0.44-1.07c-0.29-0.22-0.77-0.33-1.43-0.33h-1.06V9.35z"
		/>
	<path class="st2" d="M73.39,10.27h-2.61l-0.9,2.27h-0.5l2.58-6.45h0.29l2.53,6.45h-0.51L73.39,10.27z M70.95,9.86h2.3l-0.87-2.31
		c-0.07-0.18-0.16-0.43-0.26-0.76c-0.08,0.28-0.17,0.54-0.26,0.76L70.95,9.86z"/>
	<path class="st2" d="M66.88,5.5c0.21-0.23,0.43-0.48,0.63-0.75c0.21-0.27,0.35-0.48,0.43-0.62h0.62V4.2
		c-0.11,0.15-0.28,0.35-0.54,0.61c-0.25,0.25-0.53,0.51-0.84,0.76h-0.31V5.5z M66.95,12.5V6.08h0.45v6.42H66.95z"/>
</g>
</svg>
