<?xml version="1.0" encoding="utf-8"?>
<!-- Generator: Adobe Illustrator 23.0.1, SVG Export Plug-In . SVG Version: 6.00 Build 0)  -->
<svg version="1.1" id="Layer_1" xmlns="http://www.w3.org/2000/svg" xmlns:xlink="http://www.w3.org/1999/xlink" x="0px" y="0px"
	 viewBox="0 0 50 50" style="enable-background:new 0 0 50 50;" xml:space="preserve">
<style type="text/css">
	.st0{fill:#154C5E;}
	.st1{fill:#B7625E;}
	.st2{fill:#ECECE6;}
	.st3{opacity:0.27;fill:#F1A899;}
	.st4{fill:none;}
	.st5{fill:#F1A899;}
	.st6{fill-rule:evenodd;clip-rule:evenodd;fill:#154C5E;}
	.st7{opacity:0.41;fill:#F1A899;}
	.st8{fill:#F4CD87;}
	.st9{fill:none;stroke:#154C5E;stroke-miterlimit:10;}
	.st10{opacity:0.24;fill:#B7625E;}
</style>
<circle class="st3" cx="25" cy="25" r="23"/>
<g>
	<circle class="st1" cx="25" cy="25" r="18.03"/>
	<g>
		<path class="st2" d="M24.52,15.17c-5.2,0.25-9.3,4.58-9.28,9.78c0,1.58,0.39,3.08,1.06,4.4l-1.04,5.03
			c-0.06,0.27,0.19,0.51,0.46,0.45l4.93-1.17c1.27,0.63,2.69,0.99,4.19,1.02c5.31,0.08,9.74-4.14,9.91-9.45
			C34.93,19.54,30.23,14.9,24.52,15.17L24.52,15.17z M30.4,30.32c-1.44,1.44-3.36,2.24-5.4,2.24c-1.2,0-2.34-0.27-3.4-0.8
			l-0.69-0.34l-3.02,0.72l0.64-3.09l-0.34-0.66c-0.55-1.08-0.83-2.25-0.83-3.47c0-2.04,0.79-3.96,2.24-5.4
			c1.43-1.43,3.38-2.24,5.4-2.24c2.04,0,3.96,0.79,5.4,2.24c1.44,1.44,2.24,3.36,2.24,5.4C32.64,26.94,31.83,28.89,30.4,30.32
			L30.4,30.32z M30.4,30.32"/>
		<path class="st2" d="M29.74,27.04l-1.89-0.54c-0.25-0.07-0.52,0-0.7,0.18l-0.46,0.47c-0.19,0.2-0.49,0.26-0.75,0.16
			c-0.89-0.36-2.78-2.03-3.26-2.87c-0.14-0.24-0.12-0.54,0.05-0.76l0.4-0.52c0.16-0.2,0.19-0.48,0.09-0.72l-0.8-1.8
			c-0.19-0.43-0.74-0.56-1.1-0.25c-0.53,0.45-1.15,1.12-1.23,1.88c-0.13,1.32,0.43,2.99,2.58,5c2.48,2.32,4.47,2.62,5.76,2.31
			c0.73-0.18,1.32-0.89,1.69-1.47C30.39,27.7,30.19,27.17,29.74,27.04L29.74,27.04z M29.74,27.04"/>
	</g>
</g>
</svg>
