<?xml version="1.0" encoding="utf-8"?>
<!-- Generator: Adobe Illustrator 23.0.1, SVG Export Plug-In . SVG Version: 6.00 Build 0)  -->
<svg version="1.1" id="Layer_1" xmlns="http://www.w3.org/2000/svg" xmlns:xlink="http://www.w3.org/1999/xlink" x="0px" y="0px"
	 viewBox="0 0 25 25" style="enable-background:new 0 0 25 25;" xml:space="preserve">
<style type="text/css">
	.st0{fill:#154C5E;}
	.st1{fill:#B7625E;}
	.st2{fill:#ECECE6;}
	.st3{opacity:0.27;fill:#F1A899;}
	.st4{fill:none;}
	.st5{fill:#F1A899;}
	.st6{fill-rule:evenodd;clip-rule:evenodd;fill:#154C5E;}
	.st7{opacity:0.41;fill:#F1A899;}
	.st8{fill:#F4CD87;}
	.st9{fill:none;stroke:#154C5E;stroke-miterlimit:10;}
	.st10{opacity:0.24;fill:#B7625E;}
</style>
<path class="st5" d="M22.18,17.59c-0.04-0.09-1.13-2.15-4.14-2.88c-0.21-0.05-0.42,0.01-0.59,0.14c-0.95,0.81-2.26,1.68-2.82,1.76
	c-3.78-1.85-5.9-5.41-5.98-6.08c-0.05-0.38,0.82-1.71,1.82-2.8c0.13-0.14,0.19-0.32,0.18-0.51C10.4,4.3,7.35,2.87,7.22,2.81
	C7.1,2.76,6.96,2.74,6.83,2.76C3.32,3.34,2.78,5.39,2.76,5.48C2.73,5.6,2.74,5.72,2.78,5.84C6.97,18.86,15.7,21.27,18.56,22.07
	l0.54,0.16l0.21,0.02l0.27-0.06c0.09-0.04,2.16-1.01,2.67-4.2C22.27,17.85,22.25,17.71,22.18,17.59L22.18,17.59z M22.18,17.59"/>
</svg>
