<?xml version="1.0" encoding="utf-8"?>
<!-- Generator: Adobe Illustrator 23.0.1, SVG Export Plug-In . SVG Version: 6.00 Build 0)  -->
<svg version="1.1" id="Layer_1" xmlns="http://www.w3.org/2000/svg" xmlns:xlink="http://www.w3.org/1999/xlink" x="0px" y="0px"
	 viewBox="0 0 819.12 214.47" style="enable-background:new 0 0 819.12 214.47;" xml:space="preserve">
<style type="text/css">
	.st0{fill:#154C5E;}
	.st1{fill:#B7625E;}
	.st2{fill:#ECECE6;}
	.st3{opacity:0.27;fill:#F1A899;}
	.st4{fill:none;}
	.st5{fill:#F1A899;}
	.st6{fill-rule:evenodd;clip-rule:evenodd;fill:#154C5E;}
	.st7{opacity:0.41;fill:#F1A899;}
	.st8{fill:#F4CD87;}
	.st9{fill:none;stroke:#154C5E;stroke-miterlimit:10;}
	.st10{opacity:0.24;fill:#B7625E;}
</style>
<g>
	<g>
		<g>
			<path class="st0" d="M526.06,85.65c-0.17-0.28-0.31-0.59-0.45-0.9c-0.28-0.83-0.62-1.63-1.04-2.43c-0.38-0.8-0.76-1.6-1.04-2.46
				c-0.07-0.28-0.24-0.52-0.35-0.8c-0.07-0.14-0.21-0.21-0.38-0.21c-1.08,0.04-2.15-0.03-3.19,0.17c-0.28,0.04-0.52,0.07-0.8,0.07
				c-1.63,0-3.3,0-4.96-0.03c-0.31,0-0.52,0.14-0.62,0.38c-0.28,0.73-0.62,1.42-1.01,2.08c-0.07,0.1-0.14,0.21-0.14,0.31
				c-0.38,1.21-1.08,2.29-1.56,3.44c0,0.04-0.03,0.07-0.03,0.1c-0.21,0.49-0.56,0.76-1.08,0.83c-0.24,0.04-0.45,0.07-0.66,0.07
				c-0.45,0.04-0.73-0.28-0.83-0.62c-0.1-0.35-0.1-0.73,0.04-1.08c0-0.03,0.03-0.07,0.03-0.1c0.66-1.25,1.01-2.64,1.46-3.96
				c0.45-1.18,0.94-2.33,1.42-3.47c0.59-1.35,1.18-2.71,1.81-4.06c0.69-1.56,1.35-3.12,1.98-4.72c0.31-0.83,0.69-1.63,1.04-2.43
				c0.38-0.97,0.8-1.91,1.21-2.88c0.03-0.14,0.1-0.28,0.17-0.38c0.31-0.66,0.94-0.94,1.63-0.69c0.14,0.03,0.28,0.14,0.38,0.24
				c0.14,0.17,0.24,0.35,0.35,0.55c0.35,0.9,0.8,1.74,1.11,2.67c0.07,0.24,0.21,0.49,0.31,0.69c0.35,0.69,0.66,1.42,0.9,2.15
				c0.35,0.9,0.76,1.77,1.11,2.64c0.28,0.59,0.52,1.18,0.76,1.74c0.42,1.01,0.97,1.91,1.49,2.85c0.42,0.66,0.73,1.39,0.97,2.12
				c0.31,0.94,0.69,1.88,1.04,2.81c0.31,0.9,0.62,1.8,0.97,2.71c0.1,0.31,0.21,0.62,0.35,0.94c0.24,0.49,0.42,1.04,0.52,1.56
				c0.07,0.35-0.1,0.69-0.45,0.8c-0.1,0.04-0.21,0.07-0.31,0.07c-0.17,0.04-0.38,0.04-0.56,0.07
				C526.93,86.56,526.44,86.21,526.06,85.65z M518.84,75.62c0.73,0,1.46,0,2.22,0c0.07,0,0.14-0.03,0.21-0.03
				c0.14,0,0.28-0.17,0.21-0.28c-0.24-0.55-0.49-1.11-0.73-1.63c-0.31-0.66-0.62-1.32-0.94-2.01c-0.31-0.76-0.59-1.6-0.87-2.4
				c-0.21-0.55-0.38-1.11-0.69-1.6c0-0.03-0.04-0.1-0.07-0.07c-0.07,0-0.14,0.04-0.17,0.07c-0.07,0.1-0.1,0.21-0.17,0.31
				c-0.59,1.6-1.29,3.19-1.84,4.86c-0.24,0.69-0.52,1.35-0.8,2.05c-0.07,0.17-0.1,0.35-0.17,0.52c0,0.07,0.1,0.24,0.17,0.24
				c0.1,0.03,0.24,0.07,0.31,0.03c0.9-0.21,1.77-0.14,2.67-0.1c0.21,0.03,0.42,0,0.66,0V75.62z"/>
			<path class="st0" d="M542.63,76c0,0.83-0.07,1.63-0.07,2.43c0.03,1.28,0.07,2.53,0.1,3.78c0,0.04,0,0.07,0,0.1
				c0,0.28,0.14,0.45,0.38,0.45c0.49,0.04,0.97,0.07,1.46,0.1c0.66,0,1.32,0,1.98,0c0.97,0,1.94,0.03,2.88,0.14
				c0.8,0.07,1.56,0.07,2.33,0.1c0.17,0.03,0.31,0.03,0.45,0.03c0.31,0.04,0.56,0.31,0.59,0.59c0.07,0.52,0,1.04-0.24,1.53
				c-0.07,0.21-0.28,0.31-0.49,0.38c-0.1,0.04-0.21,0.07-0.31,0.07c-0.52,0.03-1.04,0.07-1.56,0.03c-1.77-0.07-3.58,0-5.35,0.04
				c-0.28,0-0.59,0.03-0.87,0.07c-0.97,0.21-1.91,0.1-2.88,0.1c-0.04,0-0.07,0-0.1-0.03c-0.97-0.14-1.18-0.49-1.42-1.32
				c-0.04-0.1-0.04-0.21-0.04-0.35c0-1.25-0.04-2.5-0.04-3.75c0-1.74,0.04-3.51,0.04-5.24c0-0.45,0-0.87,0.1-1.32
				c0.07-0.24,0.07-0.52,0.07-0.76c0.03-1.98,0.03-3.92,0.07-5.9c0-0.66,0-1.32,0.1-1.98c0.07-0.52,0.03-1.04,0.03-1.56
				c0.03-0.28,0-0.59,0.03-0.87c0-0.52,0.24-0.83,0.76-1.01c0.35-0.1,0.69-0.17,1.08-0.14c0.45,0,0.83,0.35,0.87,0.83
				c0,0.14,0.04,0.31,0.04,0.45c-0.04,1.28-0.04,2.57-0.07,3.89c0,0.21-0.04,0.45,0,0.66c0.14,1.67,0.03,3.33,0.07,4.83
				C542.63,73.71,542.63,74.86,542.63,76z"/>
		</g>
		<g>
			<path class="st0" d="M595.63,67.35c0.14-1.39,0.35-2.78,0.49-4.17c0.21-1.32,0.42-2.64,0.56-3.96c0.14-0.83,0.21-1.6,0.28-2.43
				c0.28-2.29,0.49-4.58,0.76-6.88c0.07-0.9,0.21-1.88,0.28-2.85c0.28-3.12,0.69-6.18,0.9-9.31c0.07-1.18,0.42-2.29,0.62-3.47
				c0.21-1.18,0.42-2.36,0.62-3.47c0.14-0.56,0.42-0.97,0.9-1.25c1.11-0.55,2.29-0.55,3.47-0.14c0.56,0.14,0.97,0.62,1.25,1.18
				c0.76,1.6,1.53,3.19,2.36,4.79c0.35,0.69,0.76,1.39,1.11,2.15c0.21,0.42,0.56,0.9,0.69,1.39c0.42,1.18,1.04,2.29,1.6,3.4
				c1.94,3.75,3.82,7.5,5.56,11.39c0.35,0.62,0.62,1.32,0.83,2.01c0.62,1.94,1.53,3.68,2.43,5.49c0.07,0.14,0.21,0.21,0.35,0.28
				s0.35,0,0.49-0.28c0.07-0.14,0.21-0.28,0.28-0.42c0.07-0.14,0.21-0.35,0.28-0.56c0.62-1.94,1.74-3.61,2.78-5.28
				c0.9-1.46,1.67-2.99,2.43-4.51c1.18-2.57,2.36-5.14,3.54-7.64c0.62-1.25,1.32-2.5,1.74-3.89c0-0.07,0.07-0.14,0.07-0.14
				c1.6-2.64,2.64-5.49,4.31-8.06c0.76-1.25,1.88-2.08,3.33-2.29c1.11-0.21,2.57,0.69,2.85,1.67c0.21,1.04,0.42,2.01,0.49,3.13
				c0,3.06,0.07,6.18,0.21,9.31c0,0.97,0.07,1.94,0.21,2.85c0.35,2.08,0.56,4.1,0.62,6.18c0.07,1.94,0.21,3.89,0.56,5.76
				c0.21,1.11,0.28,2.22,0.28,3.33c0,2.43,0.35,4.86,0.56,7.29c0.07,0.9,0.21,1.74,0.28,2.64c0.21,1.74,0.35,3.4,0.49,5.07
				c0.07,0.42,0.07,0.76,0,1.11c0,0.42-0.35,0.76-0.62,0.76c-1.18,0.14-2.36,0.28-3.54,0.28c-1.25,0.07-2.29-0.28-2.57-2.22
				c-0.14-1.11-0.35-2.29-0.49-3.47c-0.14-1.25-0.28-2.5-0.42-3.75c-0.35-3.4-0.69-6.81-0.97-10.21c-0.14-1.53-0.28-3.05-0.35-4.65
				c-0.21-2.64-0.35-5.28-0.49-7.99c0-0.07-0.14-0.21-0.21-0.28c-0.07-0.14-0.42,0-0.49,0.28c-0.35,0.9-0.76,1.74-1.32,2.57
				c-0.07,0.07-0.07,0.07-0.14,0.14c-0.97,2.5-2.5,4.72-3.68,7.08c-0.21,0.42-0.42,0.83-0.62,1.18c-1.32,3.06-2.78,6.04-4.37,9.03
				c-0.9,1.67-1.6,3.47-2.43,5.21c-0.55,1.11-1.18,2.22-1.8,3.33c-0.14,0.28-0.28,0.49-0.49,0.69c-0.28,0.28-0.69,0.42-1.04,0.21
				c-0.9-0.42-1.74-0.83-2.22-1.74c-0.56-0.97-1.04-1.94-1.53-2.99c-0.28-0.76-0.62-1.46-1.11-2.15c-0.35-0.62-0.7-1.25-0.97-1.94
				c-0.83-1.94-1.67-3.82-2.5-5.69c-0.62-1.25-1.11-2.43-1.39-3.75c-0.28-1.11-0.76-2.08-1.25-3.06c-1.18-2.15-2.29-4.38-3.61-6.39
				c-0.14-0.21-0.35-0.35-0.49-0.49c0-0.07-0.14-0.07-0.21-0.07s-0.07,0.07-0.14,0.14c-0.28,0.76-0.28,1.6-0.35,2.43
				c-0.14,1.81-0.28,3.68-0.7,5.49c-0.07,0.42-0.14,0.9-0.14,1.32c-0.28,2.15-0.56,4.24-0.76,6.39c-0.21,1.94-0.49,3.82-0.49,5.76
				c-0.07,2.29-0.42,4.58-0.62,6.88c-0.14,0.69-0.49,1.11-1.11,1.18c-0.62,0.14-1.18,0.21-1.74,0.21c-0.62,0-1.25-0.07-1.81-0.21
				c-1.25-0.35-2.01-1.18-2.08-2.57c0-0.76,0-1.6,0-2.43h-0.07C595.29,69.99,595.43,68.67,595.63,67.35z"/>
			<path class="st0" d="M703.89,76.1c-0.35-0.56-0.62-1.18-0.9-1.81c-0.56-1.67-1.25-3.26-2.08-4.86c-0.76-1.6-1.53-3.19-2.08-4.93
				c-0.14-0.55-0.49-1.04-0.69-1.6c-0.14-0.28-0.42-0.42-0.76-0.42c-2.15,0.07-4.31-0.07-6.39,0.35c-0.56,0.07-1.04,0.14-1.6,0.14
				c-3.26,0-6.6,0-9.93-0.07c-0.62,0-1.04,0.28-1.25,0.76c-0.56,1.46-1.25,2.85-2.01,4.17c-0.14,0.21-0.28,0.42-0.28,0.62
				c-0.76,2.43-2.15,4.58-3.12,6.87c0,0.07-0.07,0.14-0.07,0.21c-0.42,0.97-1.11,1.53-2.15,1.67c-0.49,0.07-0.9,0.14-1.32,0.14
				c-0.9,0.07-1.46-0.56-1.67-1.25c-0.21-0.69-0.21-1.46,0.07-2.15c0-0.07,0.07-0.14,0.07-0.21c1.32-2.5,2.01-5.28,2.92-7.92
				c0.9-2.36,1.88-4.65,2.85-6.94c1.18-2.71,2.36-5.42,3.61-8.12c1.39-3.12,2.71-6.25,3.96-9.44c0.62-1.67,1.39-3.26,2.08-4.86
				c0.76-1.94,1.6-3.82,2.43-5.76c0.07-0.28,0.21-0.56,0.35-0.76c0.62-1.32,1.88-1.88,3.26-1.39c0.28,0.07,0.56,0.28,0.76,0.49
				c0.28,0.35,0.49,0.69,0.7,1.11c0.69,1.81,1.6,3.47,2.22,5.35c0.14,0.49,0.42,0.97,0.62,1.39c0.69,1.39,1.32,2.85,1.81,4.31
				c0.69,1.81,1.53,3.54,2.22,5.28c0.55,1.18,1.04,2.36,1.53,3.47c0.83,2.01,1.94,3.82,2.99,5.69c0.83,1.32,1.46,2.78,1.94,4.24
				c0.62,1.88,1.39,3.75,2.08,5.62c0.62,1.81,1.25,3.61,1.94,5.42c0.21,0.62,0.42,1.25,0.69,1.88c0.49,0.97,0.83,2.08,1.04,3.12
				c0.14,0.69-0.21,1.39-0.9,1.6c-0.21,0.07-0.42,0.14-0.62,0.14c-0.35,0.07-0.76,0.07-1.11,0.14
				C705.63,77.9,704.65,77.21,703.89,76.1z M689.45,56.03c1.46,0,2.92,0,4.44,0c0.14,0,0.28-0.07,0.42-0.07
				c0.28,0,0.56-0.35,0.42-0.56c-0.49-1.11-0.97-2.22-1.46-3.26c-0.62-1.32-1.25-2.64-1.88-4.03c-0.62-1.53-1.18-3.19-1.74-4.79
				c-0.42-1.11-0.76-2.22-1.39-3.19c0-0.07-0.07-0.21-0.14-0.14c-0.14,0-0.28,0.07-0.35,0.14c-0.14,0.21-0.21,0.42-0.35,0.62
				c-1.18,3.19-2.57,6.39-3.68,9.72c-0.49,1.39-1.04,2.71-1.6,4.1c-0.14,0.35-0.21,0.69-0.35,1.04c0,0.14,0.21,0.49,0.35,0.49
				c0.21,0.07,0.49,0.14,0.62,0.07c1.81-0.42,3.54-0.28,5.35-0.21c0.42,0.07,0.83,0,1.32,0V56.03z M692.92,16.73
				c-1.25,1.46-2.43,2.99-3.68,4.44c-0.56,0.62-1.11,1.18-1.81,1.6c-0.62,0.42-1.25,0.49-1.94,0.28c-0.49-0.14-0.97-0.35-1.39-0.56
				c-1.39-0.62-2.01-2.01-1.53-3.47c0.14-0.49,0.42-0.97,0.69-1.39c1.67-1.81,3.26-3.61,4.93-5.35c0.62-0.62,1.39-0.83,2.29-0.56
				c0.9,0.28,1.8,0.62,2.43,1.39c0.42,0.42,0.69,0.97,0.69,1.67S693.4,16.17,692.92,16.73z"/>
			<path class="st0" d="M754.72,56.93c0.97,1.39,1.81,2.78,2.71,4.17c0.97,1.46,1.81,2.99,2.85,4.44c0.62,0.9,1.18,1.94,1.74,2.92
				c1.18,2.15,2.5,4.17,3.82,6.25c0.21,0.35,0.49,0.76,0.62,1.18c0.07,0.21,0.07,0.49-0.14,0.62c-0.14,0.14-0.35,0.35-0.49,0.42
				c-0.62,0.28-1.32,0.49-1.94,0.42c-1.04,0-2.08-0.07-3.12-0.14c-0.35,0-0.7-0.21-0.97-0.49c-0.76-0.9-1.53-1.81-2.22-2.85
				c-1.25-2.08-2.43-4.24-3.89-6.11c-1.6-2.01-2.78-4.17-4.17-6.32c-0.49-0.83-1.04-1.6-1.6-2.43c-0.14-0.21-0.49-0.14-0.62,0
				c-0.49,0.97-0.97,1.88-1.46,2.85c-1.11,2.71-2.5,5.21-4.03,7.71c-0.14,0.28-0.28,0.56-0.49,0.76c-1.04,1.25-1.81,2.78-2.71,4.17
				c-0.42,0.76-0.97,1.39-1.46,2.08c-0.35,0.49-0.9,0.76-1.53,0.76c-1.39,0-2.78,0-4.24,0c-0.42,0-0.76-0.62-0.55-1.04
				c0.49-0.76,0.9-1.6,1.39-2.36c1.18-1.94,2.43-3.82,3.61-5.83c1.39-2.43,2.64-4.93,4.03-7.36c1.39-2.29,2.5-4.72,4.03-6.94
				c0.28-0.42,0.28-0.83,0-1.25c-0.14-0.14-0.21-0.28-0.28-0.35c-1.94-2.57-3.47-5.35-5.14-8.06c-1.46-1.8-2.36-3.89-3.4-5.97
				c-0.35-0.69-0.83-1.46-1.18-2.15c-1.04-1.94-2.01-3.96-2.99-5.9c-0.14-0.21-0.14-0.49-0.21-0.69c-0.07-0.42,0.28-0.97,0.62-1.11
				c0.07,0,0.14,0,0.21-0.07c1.39-0.28,2.85-0.28,4.79,0c0.21,0.28,0.49,0.69,0.69,1.04c1.46,2.64,2.92,5.14,4.58,7.64
				c0.49,0.69,1.04,1.46,1.53,2.22c0.62,0.97,1.25,1.88,1.81,2.92c0.83,1.39,1.67,2.71,2.64,3.96c0.21,0.28,0.62,0.28,0.76,0
				c0.07-0.14,0.21-0.28,0.21-0.42c0.97-2.01,2.29-3.82,3.47-5.62c1.04-1.53,2.22-3.06,3.4-4.51c1.11-1.39,2.01-2.92,2.92-4.38
				c0.49-0.69,1.04-1.32,1.81-1.74c0.21-0.14,0.49-0.28,0.76-0.28c1.25,0,2.43,0,3.61,0.07c0.49,0,0.83,0.69,0.62,1.18
				c-0.07,0.21-0.14,0.49-0.21,0.62c-0.42,0.69-0.76,1.32-1.25,1.94c-2.5,3.26-4.51,6.8-6.8,10.21c-0.9,1.32-1.74,2.71-2.64,4.03
				c-0.97,1.46-1.81,3.12-2.64,4.72C752.56,53.67,753.68,55.27,754.72,56.93z"/>
		</g>
		<g>
			<path class="st0" d="M602.23,127.21c0,0.35,0,0.69-0.07,1.04c0,0.35-0.35,0.69-0.62,0.76c-0.07,0-0.14,0.07-0.21,0.07
				c-1.46-0.07-2.85-0.14-4.24-0.21c-0.28,0-0.55-0.21-0.62-0.49c-0.07-0.42-0.21-0.83-0.21-1.25c-0.14-3.12-0.21-6.18-0.35-9.24
				c0-0.28,0-0.56-0.07-0.83c-0.28-1.39-0.21-2.71-0.21-4.1c-0.07-2.71-0.14-5.42-0.21-8.12c-0.07-0.49-0.07-1.04,0-1.53
				c0.21-1.74,0.14-3.4-0.07-5.14c-0.14-1.39-0.14-2.85-0.07-4.24c0.07-1.11,0.14-2.15-0.07-3.26c0-0.49-0.07-0.97,0-1.46
				c0.28-1.39,0.14-2.71,0.14-4.1c0-0.9,0.07-1.88,0.14-2.78c0-0.56,0.35-0.9,0.83-1.11c0.76-0.42,1.6-0.42,2.43-0.42
				c1.39-0.07,1.94,0.28,2.01,1.88c0.07,0.69,0.07,1.39,0.07,2.08c0,2.64,0.42,5.14,0.7,7.71c0.07,0.76,0.14,1.6,0.14,2.36
				c0,1.94,0.14,3.89,0.42,5.76c0,0.28,0,0.56,0.07,0.83c0.14,3.47,0.35,6.87,0.35,10.35c-0.07,1.94-0.21,3.96-0.28,5.76
				C602.23,120.89,602.23,124.08,602.23,127.21z"/>
			<path class="st0" d="M623.82,119.43c0.14-1.39,0.35-2.78,0.49-4.17c0.21-1.32,0.42-2.64,0.56-3.96c0.14-0.83,0.21-1.6,0.28-2.43
				c0.28-2.29,0.49-4.58,0.76-6.88c0.07-0.9,0.21-1.87,0.28-2.85c0.28-3.12,0.69-6.18,0.9-9.31c0.07-1.18,0.42-2.29,0.62-3.47
				s0.42-2.36,0.62-3.47c0.14-0.55,0.42-0.97,0.9-1.25c1.11-0.55,2.29-0.55,3.47-0.14c0.56,0.14,0.97,0.62,1.25,1.18
				c0.76,1.6,1.53,3.19,2.36,4.79c0.35,0.69,0.76,1.39,1.11,2.15c0.21,0.42,0.56,0.9,0.7,1.39c0.42,1.18,1.04,2.29,1.6,3.4
				c1.94,3.75,3.82,7.5,5.56,11.39c0.35,0.62,0.62,1.32,0.83,2.01c0.62,1.94,1.53,3.68,2.43,5.49c0.07,0.14,0.21,0.21,0.35,0.28
				c0.14,0.07,0.35,0,0.49-0.28c0.07-0.14,0.21-0.28,0.28-0.42c0.07-0.14,0.21-0.35,0.28-0.56c0.62-1.94,1.74-3.61,2.78-5.28
				c0.9-1.46,1.67-2.99,2.43-4.51c1.18-2.57,2.36-5.14,3.54-7.64c0.62-1.25,1.32-2.5,1.74-3.89c0-0.07,0.07-0.14,0.07-0.14
				c1.6-2.64,2.64-5.49,4.31-8.06c0.76-1.25,1.88-2.08,3.33-2.29c1.11-0.21,2.57,0.69,2.85,1.67c0.21,1.04,0.42,2.01,0.49,3.12
				c0,3.06,0.07,6.18,0.21,9.31c0,0.97,0.07,1.94,0.21,2.85c0.35,2.08,0.56,4.1,0.62,6.18c0.07,1.94,0.21,3.89,0.56,5.76
				c0.21,1.11,0.28,2.22,0.28,3.33c0,2.43,0.35,4.86,0.56,7.29c0.07,0.9,0.21,1.74,0.28,2.64c0.21,1.74,0.35,3.4,0.49,5.07
				c0.07,0.42,0.07,0.76,0,1.11c0,0.42-0.35,0.76-0.62,0.76c-1.18,0.14-2.36,0.28-3.54,0.28c-1.25,0.07-2.29-0.28-2.57-2.22
				c-0.14-1.11-0.35-2.29-0.49-3.47c-0.14-1.25-0.28-2.5-0.42-3.75c-0.35-3.4-0.69-6.81-0.97-10.21c-0.14-1.53-0.28-3.05-0.35-4.65
				c-0.21-2.64-0.35-5.28-0.49-7.99c0-0.07-0.14-0.21-0.21-0.28c-0.07-0.14-0.42,0-0.49,0.28c-0.35,0.9-0.76,1.74-1.32,2.57
				c-0.07,0.07-0.07,0.07-0.14,0.14c-0.97,2.5-2.5,4.72-3.68,7.08c-0.21,0.42-0.42,0.83-0.62,1.18c-1.32,3.06-2.78,6.04-4.38,9.03
				c-0.9,1.67-1.6,3.47-2.43,5.21c-0.55,1.11-1.18,2.22-1.8,3.33c-0.14,0.28-0.28,0.49-0.49,0.69c-0.28,0.28-0.7,0.42-1.04,0.21
				c-0.9-0.42-1.74-0.83-2.22-1.74c-0.56-0.97-1.04-1.94-1.53-2.99c-0.28-0.76-0.62-1.46-1.11-2.15c-0.35-0.62-0.7-1.25-0.97-1.94
				c-0.83-1.94-1.67-3.82-2.5-5.69c-0.62-1.25-1.11-2.43-1.39-3.75c-0.28-1.11-0.76-2.08-1.25-3.06c-1.18-2.15-2.29-4.38-3.61-6.39
				c-0.14-0.21-0.35-0.35-0.49-0.49c0-0.07-0.14-0.07-0.21-0.07s-0.07,0.07-0.14,0.14c-0.28,0.76-0.28,1.6-0.35,2.43
				c-0.14,1.81-0.28,3.68-0.69,5.49c-0.07,0.42-0.14,0.9-0.14,1.32c-0.28,2.15-0.56,4.24-0.76,6.39c-0.21,1.94-0.49,3.82-0.49,5.76
				c-0.07,2.29-0.42,4.58-0.62,6.88c-0.14,0.69-0.49,1.11-1.11,1.18c-0.62,0.14-1.18,0.21-1.74,0.21c-0.62,0-1.25-0.07-1.8-0.21
				c-1.25-0.35-2.01-1.18-2.08-2.57c0-0.76,0-1.6,0-2.43h-0.07C623.48,122.07,623.62,120.75,623.82,119.43z"/>
			<path class="st0" d="M696.46,94.43c0.14-0.49,0.28-0.97,0.49-1.46c0.76-1.74,1.67-3.47,2.85-5c0.69-0.83,1.6-1.53,2.5-2.15
				c0.83-0.69,1.74-1.32,2.71-1.94c1.67-0.97,3.26-1.94,5.14-2.57c0.42-0.14,0.83-0.28,1.25-0.49c0.62-0.28,1.25-0.42,1.88-0.56
				c2.57-0.49,5.14-0.56,7.71,0.14c0.42,0.14,0.83,0.28,1.32,0.35c1.6,0.28,3.12,0.83,4.44,1.88c0.28,0.21,0.62,0.35,0.97,0.49
				c0.83,0.35,1.67,0.62,2.5,0.97c1.46,0.69,2.85,1.53,3.96,2.78c0.28,0.35,0.62,0.62,0.9,0.97c1.18,1.25,2.15,2.57,2.85,4.24
				c0.69,1.74,1.39,3.54,2.01,5.35c1.04,3.19,1.39,6.39,1.04,9.65c-0.28,2.57-0.83,5.14-1.46,7.64c-0.76,3.33-2.57,6.11-4.65,8.75
				c-0.28,0.35-0.62,0.62-0.97,0.9c-1.88,1.53-4.03,2.71-6.39,3.33c-1.04,0.28-1.94,0.69-2.99,0.83c-3.33,0.56-6.67,0.56-9.93,0
				c-1.04-0.14-2.08-0.28-3.06-0.56c-0.62-0.21-1.25-0.28-1.67-0.56c-1.11-0.69-2.22-1.18-3.33-1.8c-1.88-0.97-3.47-2.29-5.07-3.61
				c-1.6-1.39-2.78-3.06-3.54-5c-0.62-1.81-1.11-3.68-1.53-5.56c-0.69-2.78-0.76-5.55-0.76-7.01
				C695.55,100.12,695.76,97.28,696.46,94.43z M702.71,110.19c0,0.9,0.14,1.74,0.56,2.57c0.49,1.04,1.04,2.08,1.88,2.99
				c1.32,1.53,2.85,2.78,4.58,3.75c0.56,0.35,1.11,0.69,1.74,1.04c1.18,0.56,2.29,1.32,3.68,1.32c0.28,0,0.49,0.07,0.69,0.07
				c2.43,0.56,4.86,0.42,7.22-0.21c0.35-0.14,0.69-0.28,1.04-0.35c1.11-0.14,2.15-0.62,3.12-1.04c1.39-0.62,2.36-1.53,3.19-2.71
				c0.9-1.18,1.67-2.43,2.29-3.75c0.97-2.22,1.6-4.44,1.8-6.81c0.35-2.99,0-5.9-0.69-8.82c-0.35-1.67-1.18-3.19-2.01-4.65
				c-0.28-0.56-0.69-0.97-1.25-1.25c-1.25-0.83-2.43-1.6-3.68-2.43c-1.18-0.69-2.43-1.18-3.68-1.46c-2.22-0.49-4.38-0.9-6.6-1.18
				c-0.28,0-0.56-0.07-0.83,0c-1.81,0.21-3.54,0.49-5.21,1.11c-0.97,0.42-1.81,0.9-2.57,1.74c-1.46,1.74-2.78,3.61-3.75,5.69
				c-0.83,1.74-1.32,3.61-1.67,5.49c-0.07,0.35-0.07,0.76-0.07,1.11c0.28,1.46,0.14,2.99,0.21,4.51
				C702.71,107.97,702.64,109.08,702.71,110.19z"/>
		</g>
	</g>
	<g>
		<path class="st0" d="M61.04,22.33c1.88,4.84,4.06,9.37,6.09,14.22c1.25,3.12,2.81,6.25,4.38,9.37c1.41,3.28,2.81,6.56,4.37,9.84
			c1.72,3.75,3.44,7.5,5,11.25c0.62,1.25,1.25,2.5,1.56,3.75c1.88,6.88,4.84,13.28,7.19,20c0.16,0.62,0.47,1.25,0.78,1.88
			c0.16,0.16,0.47,0.31,0.78,0.31c0.16,0,0.31-0.16,0.47-0.31c1.72-3.28,3.59-6.56,5.16-10c0.94-2.03,2.03-3.91,3.28-5.78
			c2.03-3.28,3.91-6.56,5.16-10.16c1.25-2.97,2.66-5.94,4.22-8.75c2.34-4.06,4.53-8.12,6.72-12.19c0.78-1.41,1.25-2.81,2.03-4.22
			c4.53-9.53,9.22-19.22,13.91-28.75c0.47-0.78,1.25-1.25,2.03-1.25c2.5,0,4.84,0.31,7.19,0.31c2.97,0.16,3.59,1.09,3.28,4.06
			c-0.16,1.09-0.47,2.34-0.78,3.44c-2.34,5.94-4.53,11.87-7.5,17.5c-1.09,2.19-1.72,4.53-2.66,6.72c-0.62,1.72-1.25,3.59-2.03,5.31
			c-3.59,7.03-7.03,14.06-11.25,20.78c-2.97,4.84-5.62,9.84-8.28,14.84c-3.12,5.94-5.78,12.19-8.59,18.28
			c-1.25,2.81-2.66,5.47-4.06,8.28c-1.09,2.34-2.19,4.53-3.44,6.88c-0.31,0.62-0.47,1.25-0.78,1.87c-1.25,2.5-3.12,3.59-5.78,3.59
			c-1.41,0-2.34-0.47-2.97-1.56c-0.62-0.94-0.94-1.88-1.41-2.81c-1.72-3.75-3.59-7.5-5.31-11.25c0-0.16-0.16-0.31-0.16-0.47
			c-2.97-4.22-4.53-9.22-6.41-13.91c-2.81-6.87-5.47-13.75-8.59-20.47c-2.97-6.25-5-12.81-7.81-19.06
			c-2.66-6.41-4.84-12.81-7.03-19.37c-1.56-4.84-2.97-9.84-4.84-14.69c-0.31-1.09-0.62-2.34-0.78-3.44c-0.16-0.94,0-1.72,0.16-2.66
			c0-0.94,0.94-1.88,2.03-1.88c2.66-0.16,5.47-0.31,7.97,0C57.92,15.14,59.48,18.58,61.04,22.33z"/>
		<path class="st0" d="M207.59,119.04c0,0.78,0,1.56-0.16,2.34c0,0.78-0.78,1.56-1.41,1.72c-0.16,0-0.31,0.16-0.47,0.16
			c-3.28-0.16-6.41-0.31-9.53-0.47c-0.62,0-1.25-0.47-1.41-1.09c-0.16-0.94-0.47-1.88-0.47-2.81c-0.31-7.03-0.47-13.9-0.78-20.78
			c0-0.62,0-1.25-0.16-1.87c-0.62-3.12-0.47-6.09-0.47-9.22c-0.16-6.09-0.31-12.19-0.47-18.28c-0.16-1.09-0.16-2.34,0-3.44
			c0.47-3.91,0.31-7.66-0.16-11.56c-0.31-3.12-0.31-6.41-0.16-9.53c0.16-2.5,0.31-4.84-0.16-7.34c0-1.09-0.16-2.19,0-3.28
			c0.62-3.13,0.31-6.09,0.31-9.22c0-2.03,0.16-4.22,0.31-6.25c0-1.25,0.78-2.03,1.87-2.5c1.72-0.94,3.59-0.94,5.47-0.94
			c3.12-0.16,4.37,0.62,4.53,4.22c0.16,1.56,0.16,3.12,0.16,4.69c0,5.94,0.94,11.56,1.56,17.34c0.16,1.72,0.31,3.59,0.31,5.31
			c0,4.37,0.31,8.75,0.94,12.97c0,0.62,0,1.25,0.16,1.88c0.31,7.81,0.78,15.47,0.78,23.28c-0.16,4.37-0.47,8.91-0.62,12.97
			C207.59,104.82,207.59,112.01,207.59,119.04z"/>
		<path class="st0" d="M272.12,22.33c1.88,4.84,4.06,9.37,6.09,14.22c1.25,3.12,2.81,6.25,4.38,9.37c1.41,3.28,2.81,6.56,4.37,9.84
			c1.72,3.75,3.44,7.5,5,11.25c0.62,1.25,1.25,2.5,1.56,3.75c1.88,6.88,4.84,13.28,7.19,20c0.16,0.62,0.47,1.25,0.78,1.88
			c0.16,0.16,0.47,0.31,0.78,0.31c0.16,0,0.31-0.16,0.47-0.31c1.72-3.28,3.59-6.56,5.16-10c0.94-2.03,2.03-3.91,3.28-5.78
			c2.03-3.28,3.91-6.56,5.16-10.16c1.25-2.97,2.66-5.94,4.22-8.75c2.34-4.06,4.53-8.12,6.72-12.19c0.78-1.41,1.25-2.81,2.03-4.22
			c4.53-9.53,9.22-19.22,13.91-28.75c0.47-0.78,1.25-1.25,2.03-1.25c2.5,0,4.84,0.31,7.19,0.31c2.97,0.16,3.59,1.09,3.28,4.06
			c-0.16,1.09-0.47,2.34-0.78,3.44c-2.34,5.94-4.53,11.87-7.5,17.5c-1.09,2.19-1.72,4.53-2.66,6.72c-0.62,1.72-1.25,3.59-2.03,5.31
			c-3.59,7.03-7.03,14.06-11.25,20.78c-2.97,4.84-5.62,9.84-8.28,14.84c-3.12,5.94-5.78,12.19-8.59,18.28
			c-1.25,2.81-2.66,5.47-4.06,8.28c-1.09,2.34-2.19,4.53-3.44,6.88c-0.31,0.62-0.47,1.25-0.78,1.87c-1.25,2.5-3.12,3.59-5.78,3.59
			c-1.41,0-2.34-0.47-2.97-1.56c-0.62-0.94-0.94-1.88-1.41-2.81c-1.72-3.75-3.59-7.5-5.31-11.25c0-0.16-0.16-0.31-0.16-0.47
			c-2.97-4.22-4.53-9.22-6.41-13.91c-2.81-6.87-5.47-13.75-8.59-20.47c-2.97-6.25-5-12.81-7.81-19.06
			c-2.66-6.41-4.84-12.81-7.03-19.37c-1.56-4.84-2.97-9.84-4.84-14.69c-0.31-1.09-0.62-2.34-0.78-3.44c-0.16-0.94,0-1.72,0.16-2.66
			c0-0.94,0.94-1.88,2.03-1.88c2.66-0.16,5.47-0.31,7.97,0C268.99,15.14,270.56,18.58,272.12,22.33z"/>
		<path class="st0" d="M403.35,40.76c-0.78-5.78-0.62-11.41-0.16-17.19c0.16-1.72,0.31-3.44,0.47-5.31
			c0.16-1.09,0.78-1.72,1.87-2.03c0.94-0.31,1.88-0.47,2.81-0.62c4.84-0.16,9.69-0.31,14.53-0.62c5.31-0.31,10.62-0.31,15.94-0.31
			c0.94,0,1.72,0,2.5-0.16c5.47-0.78,11.09-0.31,16.56-0.31c1.88,0,3.91,0.31,5.94,0.47c0.94,0.16,1.72,1.09,1.87,2.03
			c0.16,2.81,0.31,5.62,0.47,8.44c0,0.47-0.16,0.94-0.31,1.41c-0.16,0.62-0.62,1.09-1.25,1.25c-0.78,0.31-1.72,0.47-2.5,0.31
			c-3.91,0-7.66,0.47-11.41,0.94c-5.62,0.62-11.41,0.94-17.03,0.94c-3.59,0-7.34,0-10.94,0c-0.62,0-1.41,0-2.03,0.16
			c-0.47,0.16-0.78,0.47-0.94,1.09c0,0.31,0,0.62,0,0.94c0,9.69,0,19.22,0,28.9c0,0.78,0.16,1.72,0.16,2.5
			c0,0.78,0.78,1.41,1.56,1.41c2.03-0.16,4.06-0.31,6.09-0.47c2.19-0.31,4.53-0.47,6.87,0c1.72,0.31,3.28,0.31,5,0
			c3.91-0.62,7.97-0.31,12.03-0.31c0.94,0,1.88,0.94,1.88,1.88c0.31,2.81,0,5.62-0.62,8.28c-0.16,0.62-0.47,1.25-1.25,1.41
			c-1.56,0.47-3.12,0.94-4.84,0.94c-4.84,0-9.69,0-14.53,0.31c-3.44,0-6.87,0.47-10.47,0.78c-1.25,0-1.88,0.62-1.88,1.72
			c-0.47,6.56-0.31,13.12-0.31,19.69c0.16,1.88,0.16,3.91,0.31,5.78c0,1.09,0.16,2.34,0.62,3.28c0.62,1.09,1.41,1.88,2.81,1.88
			c2.81,0,5.62,0,8.44,0c2.19-0.16,4.38-0.16,6.41,0.31c1.56,0.31,2.97,0.31,4.53,0.16c3.12-0.47,6.25-0.47,9.53-0.16
			c2.66,0.31,5.31,0.47,7.97,0.78c0.78,0,1.56,0,2.34,0.31c2.5,0.78,2.97,0.94,3.12,3.75c0,1.72,0,3.28-0.16,4.84
			c0,0.78-0.47,1.56-0.78,2.34s-1.09,1.41-1.87,1.41c-3.59,0.16-7.03,0.47-10.47,0.47c-5.94,0.16-11.72,0.16-17.5,0.47
			c-6.72,0.31-13.28,0-20-0.47c-2.81-0.16-5.62-0.94-8.28-1.72c-1.72-0.47-2.81-1.72-2.97-3.59c-0.47-3.44-0.31-6.87-0.16-10.31
			c0.16-3.12,0.16-6.09,0-9.22c-0.31-2.5-0.16-4.84-0.16-7.34c0-4.22,0-8.44,0-12.81c0.16-11.56,0.16-23.12,0.31-34.68
			C403.51,43.42,403.51,42.01,403.35,40.76z"/>
	</g>
	<g>
		<g>
			<path class="st0" d="M415.36,178.9c0,1.92-0.16,3.75-0.16,5.59c0.08,2.95,0.16,5.83,0.24,8.7v0.24c0,0.64,0.32,1.04,0.88,1.04
				c1.12,0.08,2.23,0.16,3.35,0.24h4.55c2.23,0,4.47,0.08,6.62,0.32c1.84,0.16,3.59,0.16,5.35,0.24c0.4,0.08,0.72,0.08,1.04,0.08
				c0.72,0.08,1.28,0.72,1.36,1.36c0.16,1.2,0,2.39-0.56,3.51c-0.16,0.48-0.64,0.72-1.12,0.88c-0.24,0.08-0.48,0.16-0.72,0.16
				c-1.2,0.08-2.39,0.16-3.59,0.08c-4.07-0.16-8.22,0-12.29,0.08c-0.64,0-1.36,0.08-2,0.16c-2.23,0.48-4.39,0.24-6.62,0.24
				c-0.08,0-0.16,0-0.24-0.08c-2.23-0.32-2.71-1.12-3.27-3.03c-0.08-0.24-0.08-0.48-0.08-0.8c0-2.87-0.08-5.74-0.08-8.62
				c0-3.99,0.08-8.06,0.08-12.05c0-1.04,0-1.99,0.24-3.03c0.16-0.56,0.16-1.2,0.16-1.76c0.08-4.55,0.08-9.02,0.16-13.56
				c0-1.52,0-3.03,0.24-4.55c0.16-1.2,0.08-2.39,0.08-3.59c0.08-0.64,0-1.36,0.08-1.99c0-1.2,0.56-1.92,1.76-2.31
				c0.8-0.24,1.59-0.4,2.47-0.32c1.04,0,1.92,0.8,2,1.92c0,0.32,0.08,0.72,0.08,1.04c-0.08,2.95-0.08,5.9-0.16,8.94
				c0,0.48-0.08,1.04,0,1.52c0.32,3.83,0.08,7.66,0.16,11.09V178.9z"/>
			<path class="st0" d="M469.43,199.97c0,0.4,0,0.8-0.08,1.2c0,0.4-0.4,0.8-0.72,0.88c-0.08,0-0.16,0.08-0.24,0.08
				c-1.68-0.08-3.27-0.16-4.87-0.24c-0.32,0-0.64-0.24-0.72-0.56c-0.08-0.48-0.24-0.96-0.24-1.44c-0.16-3.59-0.24-7.1-0.4-10.61
				c0-0.32,0-0.64-0.08-0.96c-0.32-1.6-0.24-3.11-0.24-4.71c-0.08-3.11-0.16-6.22-0.24-9.34c-0.08-0.56-0.08-1.2,0-1.75
				c0.24-2,0.16-3.91-0.08-5.9c-0.16-1.6-0.16-3.27-0.08-4.87c0.08-1.28,0.16-2.47-0.08-3.75c0-0.56-0.08-1.12,0-1.68
				c0.32-1.6,0.16-3.11,0.16-4.71c0-1.04,0.08-2.15,0.16-3.19c0-0.64,0.4-1.04,0.96-1.28c0.88-0.48,1.83-0.48,2.79-0.48
				c1.59-0.08,2.23,0.32,2.31,2.15c0.08,0.8,0.08,1.59,0.08,2.39c0,3.03,0.48,5.9,0.8,8.86c0.08,0.88,0.16,1.84,0.16,2.71
				c0,2.23,0.16,4.47,0.48,6.62c0,0.32,0,0.64,0.08,0.96c0.16,3.99,0.4,7.9,0.4,11.89c-0.08,2.23-0.24,4.55-0.32,6.62V199.97z"/>
			<path class="st0" d="M517.15,189.43c0,1.2,0.08,2.39,0.16,3.59v7.58c0,0.48-0.08,0.88-0.16,1.36c0,0.24-0.4,0.56-0.64,0.64
				c-0.16,0.08-0.32,0.16-0.48,0.16h-4.87c-0.56,0-0.96-0.4-1.12-0.96c-0.16-0.48-0.24-0.96-0.24-1.52c-0.08-1.76-0.08-3.43,0-5.19
				c0-1.68,0-3.35-0.16-4.95c-0.08-1.28-0.08-2.47-0.08-3.67c0.08-2.95-0.24-5.9-0.24-8.86c0-0.48-0.08-0.88-0.08-1.36
				c-0.08-4.15-0.08-8.3-0.16-12.53c-0.08-3.11-0.32-6.23-0.48-9.34c-0.08-0.48-0.4-0.8-0.88-0.8c-2.31-0.08-4.55-0.48-6.86-0.4
				c-1.44,0-2.87-0.08-4.31-0.16c-0.72-0.08-1.04-0.56-1.12-1.28v-0.8c0.08-1.12,0.16-2.23,0.24-3.35c0.08-0.8,0.56-1.28,1.28-1.52
				c0.32-0.16,0.64-0.24,0.96-0.24c2,0,3.91,0,5.9-0.08c0.08,0,0.16,0.08,0.24,0.08c4.79-0.08,9.5,0.32,14.28,0.48h1.28
				c3.19,0.08,6.46,0.08,9.65,0.08c0.96,0,1.92,0.08,2.79,0.4c0.8,0.24,1.36,0.8,1.52,1.6c0.08,1.12,0.16,2.31,0.16,3.43
				c0,0.56-0.4,0.96-0.96,1.12c-0.32,0.16-0.8,0.24-1.2,0.16c-1.59,0-3.19,0.24-4.87,0.4c-2.23,0.24-4.55,0.4-6.86,0.32
				c-0.72-0.08-1.52,0.08-2.23,0.16c-0.48,0-0.72,0.4-0.72,0.96c0.4,4.87,0.16,9.74,0.24,14.6v8.38V189.43z"/>
			<path class="st0" d="M560.25,180.41c0,1.04,0.16,2,0.64,2.95c0.56,1.2,1.2,2.39,2.15,3.43c1.52,1.76,3.27,3.19,5.27,4.31
				c0.64,0.4,1.28,0.8,2,1.2c1.36,0.64,2.63,1.52,4.23,1.52c0.32,0,0.56,0.08,0.8,0.08c2.79,0.64,5.58,0.48,8.3-0.24
				c0.4-0.16,0.8-0.32,1.2-0.4c1.28-0.16,2.47-0.72,3.59-1.2c1.59-0.72,2.71-1.76,3.67-3.11c1.04-1.36,1.92-2.79,2.63-4.31
				c1.12-2.56,1.84-5.11,2.08-7.82c0.4-3.43,0-6.78-0.8-10.13c-0.4-1.92-1.36-3.67-2.31-5.35c-0.32-0.64-0.8-1.12-1.44-1.44
				c-1.44-0.96-2.79-1.83-4.23-2.79c-1.36-0.8-2.79-1.36-4.23-1.68c-2.55-0.56-5.03-1.04-7.58-1.36c-0.32,0-0.64-0.08-0.96,0
				c-2.07,0.24-4.07,0.56-5.98,1.28c-1.12,0.48-2.07,1.04-2.95,1.99c-1.68,2-3.19,4.15-4.31,6.54c-0.96,1.99-1.52,4.15-1.92,6.3
				c-0.08,0.4-0.08,0.88-0.08,1.28c0.32,1.67,0.16,3.43,0.24,5.19C560.25,177.86,560.17,179.14,560.25,180.41 M553.07,162.3
				c0.16-0.56,0.32-1.12,0.56-1.68c0.88-2,1.92-3.99,3.27-5.75c0.8-0.96,1.84-1.75,2.87-2.47c0.96-0.8,2-1.52,3.11-2.23
				c1.92-1.12,3.75-2.23,5.9-2.95c0.48-0.16,0.96-0.32,1.44-0.56c0.72-0.32,1.44-0.48,2.15-0.64c2.95-0.56,5.9-0.64,8.86,0.16
				c0.48,0.16,0.96,0.32,1.52,0.4c1.84,0.32,3.59,0.96,5.11,2.15c0.32,0.24,0.72,0.4,1.12,0.56c0.96,0.4,1.92,0.72,2.87,1.12
				c1.68,0.8,3.27,1.76,4.55,3.19c0.32,0.4,0.72,0.72,1.04,1.12c1.36,1.44,2.47,2.95,3.27,4.87c0.8,2,1.6,4.07,2.31,6.14
				c1.2,3.67,1.59,7.34,1.2,11.09c-0.32,2.95-0.96,5.9-1.67,8.78c-0.88,3.83-2.95,7.02-5.35,10.05c-0.32,0.4-0.72,0.72-1.12,1.04
				c-2.15,1.75-4.63,3.11-7.34,3.83c-1.2,0.32-2.23,0.8-3.43,0.96c-3.83,0.64-7.66,0.64-11.41,0c-1.2-0.16-2.39-0.32-3.51-0.64
				c-0.72-0.24-1.44-0.32-1.92-0.64c-1.28-0.8-2.55-1.36-3.83-2.08c-2.15-1.12-3.99-2.63-5.83-4.15c-1.84-1.6-3.19-3.51-4.07-5.75
				c-0.72-2.07-1.28-4.23-1.76-6.38c-0.8-3.19-0.88-6.38-0.88-8.06C552.03,168.84,552.27,165.57,553.07,162.3"/>
			<path class="st0" d="M635.11,173.15c1.76,0,3.59,0.08,5.35,0.16h4.87c2.63,0.08,5.03-0.56,7.02-2.47c0-0.08,0.08-0.16,0.16-0.16
				c1.84-1.28,2.55-3.19,2.79-5.27c0.16-1.84,0-3.75-0.48-5.59c-0.24-0.88-0.64-1.75-1.2-2.47c-0.48-0.64-1.04-1.2-1.75-1.44
				c-1.92-0.72-3.83-1.44-5.9-1.59c-2.31-0.24-4.55-0.08-6.86-0.16c-2.23-0.08-4.47,0.24-6.62,0.32c-0.32,0.08-0.72,0.4-0.72,0.72
				v2.23c0,1.28,0.08,2.55,0.08,3.83c0,2.87-0.08,5.83-0.08,8.7c0,0.88,0.08,1.68,0.08,2.64
				C633.03,173.07,634.07,173.15,635.11,173.15 M658.73,190.87c1.04,2.47,2,4.87,2.95,7.34c0.32,0.72,0.4,1.52,0.56,2.23
				s-0.4,1.36-1.12,1.44h-0.72c-1.84-0.16-3.59-0.24-5.35-0.4c-0.48-0.08-0.8-0.32-0.96-0.72c-0.96-1.92-1.84-3.91-2.55-5.9
				c-0.4-1.2-0.88-2.39-1.52-3.51c-1.2-2-1.99-4.07-2.95-6.22c-0.64-1.52-1.36-3.11-1.99-4.63c-0.08-0.16-0.24-0.24-0.4-0.4
				c-0.8-0.32-1.67-0.16-2.47-0.16c-3.19,0.16-6.3,0.24-9.5-0.08c-0.32,0-0.64,0.32-0.64,0.64c-0.08,2-0.16,3.91-0.24,5.9
				c0,2-0.08,4.07-0.08,6.06c0,1.52,0,3.11-0.32,4.63c-0.16,0.72-0.08,1.52-0.08,2.24c0,0.56,0,1.04-0.08,1.59
				c0,0.48-0.48,0.96-0.96,0.96c-2.15,0-4.23-0.08-6.39-0.16c-0.16,0-0.4-0.32-0.48-0.48c-0.08-0.32-0.08-0.72-0.08-1.04v-6.38
				c0-0.64-0.08-1.36-0.08-2c0-0.88,0.08-1.75,0.08-2.55c0.08-1.44,0.16-2.87,0.24-4.39c0.08-2.39-0.08-4.87,0.16-7.34
				c0.08-0.32,0-0.72,0-1.04c-0.24-4.31-0.16-8.7,0.24-13.01c0.08-1.52,0.08-3.03,0.16-4.63c0.16-3.35,0.32-6.78,0.48-10.13
				c0.08-1.12,0.64-1.75,1.44-2.31c0.24-0.16,0.48-0.16,0.72-0.16c1.12,0,2.23,0,3.35,0.08c1.68,0.08,3.35,0.32,5.03,0.4
				c1.12,0.08,2.23,0.08,3.35,0.08c3.83-0.08,7.66-0.16,11.49-0.24c1.36,0,2.71,0.24,3.99,0.72c0.4,0.16,0.8,0.32,1.2,0.48
				c2.95,0.88,4.87,3.03,6.22,5.67c0.8,1.76,1.36,3.51,1.76,5.35c0.08,0.48,0.16,1.04,0.08,1.52c-0.08,2.47-0.16,4.95-0.24,7.42
				c-0.08,2.39-0.96,4.47-2.31,6.38c-0.8,1.12-1.6,2.15-2.55,3.19c-0.88,0.88-1.92,1.68-3.19,2.08c-0.32,0.08-0.56,0.32-1.12,0.56
				C655.54,183.77,657.13,187.28,658.73,190.87"/>
			<path class="st0" d="M710.88,177.93h5.11c0.16,0,0.32-0.08,0.48-0.08c0.32,0,0.64-0.4,0.48-0.64c-0.56-1.28-1.12-2.55-1.68-3.75
				c-0.72-1.52-1.44-3.03-2.15-4.63c-0.72-1.76-1.36-3.67-2-5.51c-0.48-1.28-0.88-2.55-1.59-3.67c0-0.08-0.08-0.24-0.16-0.16
				c-0.16,0-0.32,0.08-0.4,0.16c-0.16,0.24-0.24,0.48-0.4,0.72c-1.36,3.67-2.95,7.34-4.23,11.17c-0.56,1.59-1.2,3.11-1.83,4.71
				c-0.16,0.4-0.24,0.8-0.4,1.2c0,0.16,0.24,0.56,0.4,0.56c0.24,0.08,0.56,0.16,0.72,0.08c2.08-0.48,4.07-0.32,6.14-0.24
				c0.48,0.08,0.96,0,1.52,0V177.93z M727.48,200.99c-0.4-0.64-0.72-1.36-1.04-2.08c-0.64-1.92-1.44-3.75-2.39-5.59
				c-0.88-1.84-1.76-3.67-2.39-5.67c-0.16-0.64-0.56-1.2-0.8-1.83c-0.16-0.32-0.48-0.48-0.88-0.48c-2.47,0.08-4.95-0.08-7.34,0.4
				c-0.64,0.08-1.2,0.16-1.84,0.16c-3.75,0-7.58,0-11.41-0.08c-0.72,0-1.2,0.32-1.44,0.88c-0.64,1.67-1.44,3.27-2.31,4.79
				c-0.16,0.24-0.32,0.48-0.32,0.72c-0.88,2.79-2.47,5.27-3.59,7.9c0,0.08-0.08,0.16-0.08,0.24c-0.48,1.12-1.28,1.76-2.47,1.92
				c-0.56,0.08-1.04,0.16-1.52,0.16c-1.04,0.08-1.68-0.64-1.92-1.44c-0.24-0.8-0.24-1.68,0.08-2.47c0-0.08,0.08-0.16,0.08-0.24
				c1.52-2.87,2.31-6.06,3.35-9.1c1.04-2.71,2.15-5.34,3.27-7.98c1.36-3.11,2.71-6.22,4.15-9.34c1.59-3.59,3.11-7.18,4.55-10.85
				c0.72-1.92,1.6-3.75,2.39-5.59c0.88-2.23,1.84-4.39,2.79-6.62c0.08-0.32,0.24-0.64,0.4-0.88c0.72-1.52,2.15-2.15,3.75-1.6
				c0.32,0.08,0.64,0.32,0.88,0.56c0.32,0.4,0.56,0.8,0.8,1.28c0.8,2.07,1.83,3.99,2.55,6.14c0.16,0.56,0.48,1.12,0.72,1.59
				c0.8,1.6,1.52,3.27,2.08,4.95c0.8,2.08,1.75,4.07,2.55,6.06c0.64,1.36,1.2,2.71,1.76,3.99c0.96,2.31,2.23,4.39,3.43,6.54
				c0.96,1.52,1.68,3.19,2.23,4.87c0.72,2.15,1.6,4.31,2.39,6.46c0.72,2.07,1.44,4.15,2.23,6.22c0.24,0.72,0.48,1.44,0.8,2.15
				c0.56,1.12,0.96,2.39,1.2,3.59c0.16,0.8-0.24,1.6-1.04,1.84c-0.24,0.08-0.48,0.16-0.72,0.16c-0.4,0.08-0.88,0.08-1.28,0.16
				C729.48,203.06,728.36,202.26,727.48,200.99"/>
			<path class="st0" d="M767.86,170.53c0.08-3.43-0.16-7.26,0.16-11.09c0.08-0.48,0-1.04,0-1.52c-0.08-3.03-0.08-5.98-0.16-8.94
				c0-0.32,0.08-0.72,0.08-1.04c0.08-1.12,0.93-1.92,1.95-1.92c0.86-0.08,1.63,0.08,2.41,0.32c1.17,0.4,1.71,1.12,1.71,2.31
				c0.08,0.64,0,1.36,0.08,2c0,1.2-0.08,2.39,0.08,3.59c0.23,1.52,0.23,3.03,0.23,4.55c0.08,4.55,0.08,9.02,0.16,13.57
				c0,0.56,0,1.2,0.15,1.76c0.23,1.04,0.23,1.99,0.23,3.03c0,3.99,0.08,8.06,0.08,12.05c0,2.87-0.08,5.75-0.08,8.62
				c0,0.32,0,0.56-0.08,0.8c-0.54,1.92-1.01,2.71-3.19,3.03c-0.08,0.08-0.16,0.08-0.23,0.08c-2.18,0-4.28,0.24-6.46-0.24
				c-0.62-0.08-1.32-0.16-1.95-0.16c-3.97-0.08-8.02-0.24-11.98-0.08c-1.17,0.08-2.33,0-3.5-0.08c-0.23,0-0.47-0.08-0.7-0.16
				c-0.47-0.16-0.93-0.4-1.09-0.88c-0.55-1.12-0.7-2.31-0.55-3.51c0.08-0.64,0.62-1.28,1.32-1.36c0.31,0,0.62,0,1.01-0.08
				c1.71-0.08,3.42-0.08,5.21-0.24c2.1-0.24,4.28-0.32,6.46-0.32h4.44c1.09-0.08,2.18-0.16,3.27-0.24c0.54,0,0.86-0.4,0.86-1.04
				v-0.24c0.08-2.87,0.16-5.75,0.23-8.7c0-1.83-0.16-3.67-0.16-5.59V170.53z"/>
		</g>
	</g>
</g>
</svg>
