<?xml version="1.0" encoding="utf-8"?>
<!-- Generator: Adobe Illustrator 23.0.1, SVG Export Plug-In . SVG Version: 6.00 Build 0)  -->
<svg version="1.1" id="Layer_1" xmlns="http://www.w3.org/2000/svg" xmlns:xlink="http://www.w3.org/1999/xlink" x="0px" y="0px"
	 viewBox="0 0 24 24" style="enable-background:new 0 0 24 24;" xml:space="preserve">
<style type="text/css">
	.st0{fill:#154C5E;}
	.st1{fill:#B7625E;}
	.st2{fill:#ECECE6;}
	.st3{opacity:0.27;fill:#F1A899;}
	.st4{fill:none;}
	.st5{fill:#F1A899;}
	.st6{fill-rule:evenodd;clip-rule:evenodd;fill:#154C5E;}
	.st7{opacity:0.41;fill:#F1A899;}
	.st8{fill:#F4CD87;}
	.st9{fill:none;stroke:#154C5E;stroke-miterlimit:10;}
	.st10{opacity:0.24;fill:#B7625E;}
</style>
<g>
	<circle class="st2" cx="12" cy="12" r="11.66"/>
	<g>
		<g>
			<path class="st0" d="M17.05,17.76h-0.82c-0.46,0-0.73-0.27-0.73-0.73V16.7c-2.41,0.16-4.71,0.16-7.05,0v0.34
				c0,0.46-0.27,0.73-0.73,0.73H6.91c-0.43,0-0.71-0.28-0.71-0.71V16.4c-0.23-0.07-0.34-0.24-0.44-0.41
				c-0.19-0.4-0.31-0.84-0.36-1.29c-0.01-0.14-0.02-0.28-0.04-0.42c-0.04-0.41-0.08-0.84-0.08-1.26c-0.02-0.83,0.26-1.58,0.83-2.22
				H5.48c-0.38,0-0.64-0.26-0.64-0.64V9.63c0.03-0.38,0.28-0.62,0.62-0.62h0.26c0.45,0,0.78,0.34,0.94,0.54
				c0.01-0.05,0.02-0.1,0.04-0.14c0.23-0.81,0.57-1.53,1.04-2.2c0.41-0.55,0.98-0.71,1.43-0.79c0.94-0.18,1.9-0.18,2.83-0.18
				c1.05,0,1.94,0.03,2.83,0.18c0.5,0.08,1.07,0.24,1.43,0.79c0.47,0.67,0.81,1.39,1.04,2.19c0.01,0.05,0.03,0.1,0.04,0.15
				c0.15-0.2,0.49-0.54,0.94-0.54h0.26c0.35,0,0.62,0.27,0.62,0.62c0,0.18,0,0.36-0.04,0.55c-0.01,0.36-0.27,0.62-0.64,0.62h-0.65
				c0.57,0.64,0.85,1.39,0.83,2.23c0,0.5-0.04,1.05-0.11,1.67c-0.05,0.5-0.16,0.9-0.35,1.28c-0.1,0.2-0.22,0.35-0.44,0.42l0,0.66
				C17.75,17.47,17.46,17.76,17.05,17.76z M15.9,16.27v0.77c0,0.24,0.09,0.33,0.33,0.33h0.82c0.2,0,0.31-0.11,0.31-0.31v-0.68
				c0-0.19,0.08-0.31,0.24-0.35c0.12-0.03,0.17-0.07,0.24-0.23c0.17-0.33,0.26-0.69,0.31-1.14c0.07-0.61,0.11-1.15,0.11-1.63
				c0.02-0.83-0.29-1.55-0.93-2.17c-0.04-0.03-0.07-0.05-0.09-0.07l-0.06-0.06v-0.17l0.02-0.03V10.5l-0.12-0.41
				c-0.07-0.22-0.11-0.4-0.16-0.58c-0.22-0.76-0.54-1.44-0.98-2.08c-0.27-0.4-0.66-0.54-1.17-0.62C13.9,6.67,13.04,6.64,12,6.64
				c-0.91,0-1.85,0-2.76,0.17C8.68,6.91,8.32,7.1,8.06,7.44C7.62,8.07,7.3,8.75,7.08,9.51c-0.04,0.17-0.09,0.35-0.15,0.58L6.8,10.52
				l-0.04-0.06v0.09c0.01,0.03,0.02,0.06,0.02,0.1v0.08l-0.15,0.13c-0.64,0.62-0.95,1.34-0.93,2.16c0,0.41,0.04,0.82,0.07,1.23
				c0.01,0.14,0.02,0.28,0.04,0.41c0.04,0.4,0.15,0.8,0.31,1.14c0.08,0.14,0.13,0.2,0.24,0.22c0.1,0.03,0.17,0.07,0.21,0.14
				c0.05,0.09,0.04,0.18,0.03,0.23v0.66c0,0.21,0.1,0.31,0.31,0.31h0.82c0.24,0,0.33-0.09,0.33-0.33v-0.77l0.22,0.02
				c2.46,0.18,4.87,0.18,7.42,0L15.9,16.27z M17.25,10.48c0,0-0.01,0.01-0.01,0.01L17.25,10.48z M17.28,10.4h1.2
				c0.15,0,0.24-0.09,0.24-0.24l0.01-0.05c0.04-0.15,0.04-0.31,0.04-0.48c0-0.13-0.09-0.22-0.22-0.22h-0.26
				c-0.35,0-0.63,0.39-0.68,0.46c-0.02,0.05-0.06,0.1-0.09,0.15c-0.02,0.03-0.05,0.06-0.07,0.1L17.28,10.4z M5.46,9.41
				c-0.18,0-0.21,0.17-0.22,0.24l0,0.51c0,0.15,0.09,0.24,0.24,0.24h1.24l-0.16-0.27C6.5,10.03,6.46,9.96,6.41,9.9
				C6.41,9.89,6.11,9.41,5.72,9.41H5.46z"/>
		</g>
		<g>
			<path class="st0" d="M6.99,10.56l0.35-0.35c0-0.02,0-0.03,0-0.05l0.01-0.05c0.21-0.88,0.54-1.68,0.97-2.39
				C8.36,7.66,8.4,7.61,8.47,7.57c0.04-0.03,0.09-0.06,0.13-0.08c0.36-0.15,1.27-0.4,3.42-0.4c1.61,0.02,2.78,0.15,3.4,0.39
				c0.07,0.02,0.14,0.05,0.2,0.13l0.1,0.11c0.43,0.71,0.76,1.52,0.97,2.39c0.03,0.08,0.03,0.15,0.03,0.2v0.22l-0.22-0.02
				c-2.97-0.26-5.98-0.26-8.95,0L6.99,10.56z M12.02,9.92c1.41,0,2.84,0.06,4.25,0.18c-0.21-0.79-0.5-1.51-0.88-2.14l-0.08-0.08
				c-0.02-0.01-0.04-0.01-0.05-0.02c-0.31-0.12-1.17-0.33-3.24-0.35c-2.15,0-2.99,0.25-3.25,0.36C8.76,7.86,8.74,7.87,8.72,7.89
				L8.67,7.92c-0.4,0.66-0.7,1.38-0.9,2.18C9.19,9.97,10.61,9.92,12.02,9.92z"/>
		</g>
		<g>
			<path class="st0" d="M7.79,13.89c-0.66,0-1.17-0.51-1.17-1.17c0-0.63,0.54-1.17,1.17-1.17s1.17,0.54,1.17,1.17
				C8.96,13.36,8.44,13.89,7.79,13.89z M7.79,11.95c-0.42,0-0.77,0.35-0.77,0.77c0,0.43,0.34,0.77,0.77,0.77s0.77-0.34,0.77-0.77
				C8.56,12.3,8.21,11.95,7.79,11.95z"/>
		</g>
		<g>
			<path class="st0" d="M16.25,13.89c-0.65,0-1.17-0.53-1.17-1.17c0-0.63,0.54-1.17,1.17-1.17c0.66,0,1.17,0.51,1.17,1.17
				C17.42,13.35,16.89,13.89,16.25,13.89z M16.25,11.95c-0.42,0-0.77,0.35-0.77,0.77c0,0.43,0.34,0.77,0.77,0.77
				c0.42,0,0.77-0.35,0.77-0.77C17.02,12.29,16.68,11.95,16.25,11.95z"/>
		</g>
	</g>
</g>
</svg>
