<?xml version="1.0" encoding="utf-8"?>
<!-- Generator: Adobe Illustrator 23.0.1, SVG Export Plug-In . SVG Version: 6.00 Build 0)  -->
<svg version="1.1" id="Layer_1" xmlns="http://www.w3.org/2000/svg" xmlns:xlink="http://www.w3.org/1999/xlink" x="0px" y="0px"
	 viewBox="0 0 24 24" style="enable-background:new 0 0 24 24;" xml:space="preserve">
<style type="text/css">
	.st0{fill:#154C5E;}
	.st1{fill:#B7625E;}
	.st2{fill:#ECECE6;}
	.st3{opacity:0.27;fill:#F1A899;}
	.st4{fill:none;}
	.st5{fill:#F1A899;}
	.st6{fill-rule:evenodd;clip-rule:evenodd;fill:#154C5E;}
	.st7{opacity:0.41;fill:#F1A899;}
	.st8{fill:#F4CD87;}
	.st9{fill:none;stroke:#154C5E;stroke-miterlimit:10;}
	.st10{opacity:0.24;fill:#B7625E;}
</style>
<g>
	<circle class="st5" cx="12" cy="12" r="11.66"/>
	<g>
		<path class="st2" d="M7.31,9.31l4.01,3.18c0.18,0.14,0.43,0.21,0.68,0.2c0.24,0.01,0.49-0.05,0.68-0.2l4.01-3.18
			c0.32-0.25,0.25-0.46-0.16-0.46H7.47C7.06,8.85,6.99,9.06,7.31,9.31L7.31,9.31z M7.31,9.31"/>
		<path class="st2" d="M16.98,10.15l-4.39,3.33c-0.16,0.12-0.38,0.18-0.59,0.18c-0.21,0-0.43-0.06-0.59-0.18l-4.39-3.33
			c-0.33-0.25-0.59-0.11-0.59,0.29v5.46c0,0.41,0.33,0.74,0.74,0.74h9.66c0.41,0,0.74-0.34,0.74-0.74v-5.46
			C17.57,10.04,17.31,9.9,16.98,10.15L16.98,10.15z M16.98,10.15"/>
	</g>
</g>
</svg>
