<?xml version="1.0" encoding="utf-8"?>
<!-- Generator: Adobe Illustrator 23.0.1, SVG Export Plug-In . SVG Version: 6.00 Build 0)  -->
<svg version="1.1" id="Layer_1" xmlns="http://www.w3.org/2000/svg" xmlns:xlink="http://www.w3.org/1999/xlink" x="0px" y="0px"
	 viewBox="0 0 50 50" style="enable-background:new 0 0 50 50;" xml:space="preserve">
<style type="text/css">
	.st0{fill:#154C5E;}
	.st1{fill:#B7625E;}
	.st2{fill:#ECECE6;}
	.st3{opacity:0.27;fill:#F1A899;}
	.st4{fill:none;}
	.st5{fill:#F1A899;}
	.st6{fill-rule:evenodd;clip-rule:evenodd;fill:#154C5E;}
	.st7{opacity:0.41;fill:#F1A899;}
	.st8{fill:#F4CD87;}
	.st9{fill:none;stroke:#154C5E;stroke-miterlimit:10;}
	.st10{opacity:0.24;fill:#B7625E;}
</style>
<g>
	<path class="st1" d="M2.61,47.58H31.4c8.83,0,15.99-7.9,15.99-17.64V2.42H2.61V47.58z"/>
	<g>
		<g>
			<g>
				<g>
					<g>
						<path class="st2" d="M17.98,25.71c0.04,0.21,0.12,0.41,0.22,0.59c0.1,0.18,0.23,0.33,0.39,0.44c0.16,0.12,0.35,0.17,0.58,0.17
							c0.26,0,0.46-0.05,0.62-0.16c0.16-0.11,0.28-0.25,0.37-0.42c0.09-0.17,0.15-0.36,0.18-0.57c0.03-0.21,0.04-0.42,0.04-0.63
							c0-0.2-0.01-0.39-0.04-0.59c-0.03-0.2-0.08-0.37-0.15-0.53c-0.08-0.15-0.19-0.28-0.33-0.38c-0.14-0.1-0.33-0.15-0.56-0.15
							c-0.09,0-0.19,0-0.29,0.01c-0.1,0.01-0.2,0.02-0.29,0.04c0.03-0.17,0.05-0.34,0.05-0.51c0-0.07,0-0.13-0.01-0.2
							c0-0.06-0.01-0.13-0.02-0.2c0.08,0.01,0.16,0.02,0.24,0.03c0.08,0.01,0.16,0.01,0.22,0.01c0.22,0,0.4-0.04,0.54-0.13
							c0.14-0.09,0.24-0.21,0.32-0.35c0.08-0.14,0.13-0.31,0.15-0.49c0.03-0.19,0.04-0.38,0.04-0.56c0-0.22-0.02-0.43-0.05-0.63
							c-0.03-0.2-0.09-0.37-0.17-0.51c-0.08-0.15-0.18-0.26-0.31-0.35c-0.13-0.09-0.29-0.13-0.47-0.13c-0.17,0-0.32,0.04-0.44,0.13
							c-0.12,0.09-0.23,0.2-0.31,0.33c-0.08,0.13-0.14,0.26-0.19,0.41c-0.04,0.15-0.07,0.27-0.09,0.38l-0.08,0.63l-0.19,0.03
							c-0.07-0.1-0.16-0.22-0.28-0.35c-0.12-0.13-0.24-0.25-0.37-0.37c-0.13-0.12-0.25-0.23-0.38-0.34
							c-0.12-0.11-0.23-0.19-0.31-0.26c0.11-0.14,0.24-0.29,0.39-0.45c0.15-0.17,0.34-0.32,0.56-0.46c0.22-0.14,0.49-0.26,0.81-0.36
							c0.32-0.1,0.7-0.15,1.14-0.15c0.34,0,0.7,0.04,1.09,0.12s0.74,0.2,1.06,0.38c0.32,0.18,0.59,0.41,0.8,0.69
							c0.21,0.29,0.32,0.64,0.32,1.07c0,0.28-0.05,0.54-0.16,0.76c-0.11,0.23-0.25,0.42-0.42,0.59c-0.18,0.17-0.37,0.3-0.59,0.41
							c-0.22,0.11-0.44,0.18-0.66,0.22c0.26,0.03,0.52,0.1,0.78,0.21c0.25,0.11,0.48,0.25,0.68,0.42c0.2,0.17,0.36,0.38,0.48,0.62
							c0.12,0.24,0.18,0.52,0.18,0.84c0,0.5-0.11,0.92-0.33,1.27c-0.22,0.35-0.51,0.64-0.86,0.86c-0.35,0.22-0.74,0.38-1.17,0.47
							c-0.43,0.09-0.86,0.13-1.29,0.13c-0.31,0-0.59-0.01-0.85-0.04c-0.26-0.03-0.51-0.08-0.75-0.17c-0.24-0.09-0.47-0.21-0.7-0.37
							c-0.23-0.16-0.47-0.36-0.72-0.61c0.25-0.26,0.47-0.51,0.67-0.72c0.2-0.22,0.4-0.48,0.58-0.78l0.26,0.05
							C17.92,25.3,17.94,25.5,17.98,25.71z"/>
						<path class="st2" d="M27.01,26.47c0,0.19-0.03,0.36-0.1,0.52c-0.07,0.16-0.16,0.3-0.29,0.42c-0.12,0.12-0.27,0.21-0.43,0.27
							c-0.16,0.06-0.33,0.09-0.51,0.09c-0.18,0-0.35-0.03-0.51-0.09c-0.16-0.06-0.31-0.15-0.43-0.27c-0.12-0.12-0.22-0.26-0.29-0.42
							c-0.07-0.16-0.1-0.33-0.1-0.52c0-0.18,0.03-0.35,0.1-0.51c0.07-0.16,0.16-0.3,0.29-0.42c0.12-0.12,0.27-0.22,0.43-0.29
							c0.16-0.07,0.33-0.11,0.51-0.11c0.18,0,0.35,0.04,0.51,0.11c0.16,0.07,0.31,0.17,0.43,0.29c0.12,0.12,0.22,0.26,0.29,0.42
							C26.97,26.12,27.01,26.29,27.01,26.47z"/>
						<path class="st2" d="M34.68,25.13c0,0.48-0.09,0.89-0.28,1.22c-0.18,0.34-0.43,0.61-0.74,0.82c-0.31,0.21-0.66,0.36-1.06,0.45
							c-0.4,0.09-0.81,0.13-1.24,0.13c-0.41,0-0.81-0.04-1.2-0.13c-0.39-0.09-0.75-0.24-1.06-0.44c-0.32-0.21-0.57-0.47-0.76-0.8
							c-0.19-0.33-0.29-0.72-0.29-1.19c0-0.35,0.05-0.66,0.15-0.92c0.1-0.26,0.23-0.5,0.4-0.69c0.17-0.2,0.37-0.36,0.59-0.5
							c0.22-0.14,0.46-0.25,0.7-0.33c-0.25-0.08-0.48-0.16-0.69-0.26c-0.21-0.1-0.39-0.22-0.54-0.37c-0.15-0.15-0.26-0.32-0.35-0.53
							c-0.08-0.21-0.12-0.45-0.12-0.73c0-0.35,0.08-0.66,0.24-0.94c0.16-0.27,0.38-0.5,0.67-0.69c0.28-0.18,0.61-0.32,0.99-0.42
							c0.38-0.1,0.78-0.15,1.22-0.15c0.44,0,0.85,0.04,1.24,0.13c0.39,0.09,0.73,0.22,1.03,0.4c0.29,0.18,0.53,0.41,0.7,0.69
							c0.17,0.28,0.26,0.6,0.26,0.98c0,0.26-0.04,0.49-0.13,0.69c-0.09,0.21-0.21,0.39-0.36,0.54c-0.15,0.16-0.33,0.29-0.53,0.4
							c-0.21,0.11-0.42,0.2-0.65,0.26c0.17,0.07,0.36,0.15,0.57,0.25c0.21,0.1,0.41,0.23,0.6,0.4c0.19,0.17,0.34,0.39,0.47,0.67
							C34.62,24.36,34.68,24.71,34.68,25.13z M31.38,26.94c0.15,0,0.27-0.04,0.36-0.13c0.09-0.09,0.15-0.22,0.19-0.38
							c0.04-0.16,0.07-0.35,0.08-0.56c0.01-0.21,0.01-0.45,0.01-0.7c0-0.64-0.04-1.12-0.12-1.45c-0.08-0.32-0.25-0.49-0.53-0.49
							c-0.16,0-0.29,0.06-0.38,0.17c-0.09,0.12-0.15,0.26-0.19,0.44c-0.04,0.18-0.06,0.37-0.07,0.58c-0.01,0.21-0.01,0.41-0.01,0.61
							c0,0.21,0,0.42,0.01,0.65c0.01,0.23,0.03,0.43,0.07,0.62c0.04,0.19,0.1,0.34,0.19,0.47C31.09,26.88,31.21,26.94,31.38,26.94z
							 M30.79,20.92c0,0.34,0.01,0.62,0.04,0.82c0.03,0.21,0.07,0.36,0.13,0.47c0.06,0.11,0.13,0.18,0.21,0.21
							c0.08,0.03,0.17,0.05,0.27,0.05c0.13,0,0.23-0.05,0.3-0.15c0.07-0.1,0.13-0.22,0.16-0.37c0.03-0.15,0.05-0.31,0.06-0.49
							c0-0.18,0.01-0.35,0.01-0.51c0-0.17,0-0.34-0.01-0.52c0-0.18-0.03-0.33-0.06-0.47c-0.04-0.14-0.1-0.25-0.17-0.33
							c-0.08-0.09-0.19-0.13-0.33-0.13c-0.15,0-0.27,0.04-0.35,0.13c-0.08,0.09-0.14,0.21-0.18,0.35c-0.04,0.14-0.06,0.29-0.06,0.46
							C30.79,20.6,30.79,20.76,30.79,20.92z"/>
					</g>
					<g>
						<path class="st2" d="M18.36,31.44c0.08-0.08,0.17-0.16,0.27-0.22c0.1-0.07,0.22-0.12,0.36-0.16c0.14-0.04,0.3-0.06,0.49-0.06
							c0.27,0,0.52,0.06,0.74,0.18c0.22,0.12,0.39,0.31,0.5,0.56c0.07-0.14,0.16-0.25,0.27-0.34c0.1-0.09,0.22-0.17,0.33-0.23
							c0.12-0.06,0.24-0.1,0.37-0.13c0.13-0.03,0.25-0.04,0.37-0.04c0.28,0,0.51,0.05,0.69,0.14c0.18,0.1,0.32,0.23,0.43,0.39
							c0.1,0.17,0.18,0.36,0.21,0.58c0.04,0.22,0.05,0.45,0.04,0.7c0,0.12,0,0.29-0.01,0.49c-0.01,0.2-0.01,0.4-0.01,0.58v0.31
							c0,0.18,0,0.38,0,0.58c0,0.21,0.01,0.44,0.03,0.69c-0.16-0.02-0.32-0.04-0.47-0.06c-0.16-0.01-0.31-0.02-0.46-0.02
							c-0.15,0-0.31,0.01-0.46,0.03c-0.15,0.02-0.3,0.03-0.45,0.05c0.01-0.15,0.01-0.31,0.02-0.47c0.01-0.16,0.02-0.33,0.02-0.51
							c0.01-0.18,0.01-0.38,0.01-0.6c0-0.22,0-0.46,0-0.72c0-0.18,0-0.33,0-0.47c0-0.14-0.02-0.25-0.04-0.35
							c-0.03-0.1-0.06-0.17-0.11-0.22c-0.05-0.05-0.12-0.08-0.22-0.08c-0.11,0-0.2,0.02-0.27,0.07c-0.07,0.05-0.11,0.12-0.14,0.22
							c-0.03,0.1-0.05,0.22-0.06,0.37c-0.01,0.15-0.01,0.33-0.01,0.53v0.58c0,0.29,0,0.59,0.01,0.88c0.01,0.29,0.02,0.54,0.04,0.76
							c-0.15-0.02-0.3-0.03-0.44-0.05c-0.15-0.02-0.3-0.03-0.44-0.03c-0.16,0-0.33,0.01-0.49,0.03s-0.32,0.03-0.49,0.05
							c0.02-0.36,0.04-0.71,0.05-1.06c0.01-0.35,0.02-0.71,0.02-1.06c0-0.24,0-0.44-0.01-0.6c-0.01-0.16-0.02-0.3-0.05-0.4
							c-0.03-0.1-0.07-0.18-0.12-0.22c-0.06-0.05-0.14-0.07-0.24-0.07c-0.11,0-0.19,0.03-0.25,0.08c-0.06,0.05-0.11,0.12-0.13,0.21
							c-0.03,0.09-0.04,0.19-0.05,0.3c-0.01,0.11-0.01,0.23-0.01,0.34v1.45c0,0.16,0,0.34,0.01,0.52c0.01,0.18,0.01,0.35,0.03,0.52
							c-0.16-0.02-0.32-0.03-0.48-0.05c-0.16-0.02-0.32-0.03-0.48-0.03c-0.15,0-0.31,0.01-0.46,0.03c-0.15,0.02-0.3,0.03-0.45,0.05
							c0.02-0.17,0.03-0.37,0.04-0.6c0.01-0.23,0.02-0.46,0.03-0.7c0.01-0.23,0.01-0.46,0.01-0.67c0-0.21,0-0.38,0-0.5
							c0-0.27,0-0.57-0.01-0.9c-0.01-0.33-0.03-0.69-0.06-1.08c0.15,0.02,0.3,0.04,0.45,0.06c0.15,0.01,0.3,0.02,0.45,0.02
							c0.15,0,0.29-0.01,0.44-0.02c0.14-0.01,0.29-0.03,0.44-0.06l-0.04,0.67C18.21,31.6,18.28,31.52,18.36,31.44z"/>
						<path class="st2" d="M24.2,33.32c0-0.45,0.06-0.83,0.19-1.12c0.13-0.3,0.29-0.54,0.48-0.72c0.19-0.18,0.4-0.31,0.61-0.38
							c0.21-0.07,0.41-0.11,0.58-0.11c0.15,0,0.29,0.01,0.4,0.04c0.12,0.03,0.22,0.06,0.31,0.11c0.09,0.04,0.16,0.09,0.23,0.14
							c0.06,0.05,0.13,0.1,0.18,0.14c0-0.41-0.01-0.81-0.02-1.2c-0.01-0.4-0.03-0.8-0.04-1.2c0.16,0.03,0.31,0.05,0.45,0.06
							c0.14,0.01,0.29,0.02,0.46,0.02c0.34,0,0.66-0.03,0.97-0.08c-0.04,0.53-0.06,1.08-0.07,1.65c-0.01,0.58-0.01,1.13-0.01,1.65
							c0,0.37,0,0.71,0,1c0,0.3,0.01,0.57,0.01,0.81c0.01,0.25,0.01,0.47,0.03,0.69c0.01,0.21,0.03,0.42,0.04,0.63
							c-0.15-0.02-0.29-0.04-0.43-0.06c-0.14-0.01-0.28-0.02-0.42-0.02c-0.15,0-0.29,0.01-0.43,0.02c-0.14,0.01-0.29,0.03-0.43,0.06
							c0.02-0.17,0.03-0.34,0.03-0.52c-0.09,0.11-0.18,0.2-0.26,0.27c-0.08,0.07-0.18,0.13-0.28,0.17c-0.1,0.04-0.2,0.07-0.31,0.08
							c-0.11,0.01-0.24,0.02-0.38,0.02c-0.34,0-0.63-0.06-0.87-0.19c-0.24-0.12-0.44-0.29-0.59-0.5c-0.15-0.21-0.26-0.44-0.33-0.7
							C24.24,33.83,24.2,33.58,24.2,33.32z M26.65,34.77c0.13,0,0.23-0.04,0.31-0.12c0.07-0.08,0.13-0.19,0.17-0.33
							c0.04-0.14,0.06-0.3,0.08-0.5c0.01-0.19,0.02-0.4,0.02-0.62c0-0.53-0.04-0.9-0.12-1.12c-0.08-0.22-0.22-0.33-0.43-0.33
							c-0.12,0-0.22,0.04-0.3,0.12c-0.08,0.08-0.14,0.19-0.18,0.33c-0.04,0.14-0.07,0.31-0.08,0.5c-0.01,0.19-0.02,0.39-0.02,0.61
							c0,0.2,0.01,0.38,0.02,0.56c0.01,0.18,0.04,0.33,0.08,0.46c0.04,0.13,0.1,0.24,0.17,0.31C26.44,34.73,26.53,34.77,26.65,34.77
							z"/>
						<path class="st2" d="M31.7,35.96c0,0.15,0,0.3,0.01,0.46c0.01,0.16,0.01,0.32,0.02,0.47c0.01,0.16,0.01,0.3,0.02,0.44
							c0.01,0.14,0.02,0.25,0.02,0.34c-0.18-0.02-0.33-0.04-0.48-0.06c-0.14-0.01-0.3-0.02-0.46-0.02c-0.15,0-0.31,0.01-0.47,0.02
							c-0.16,0.01-0.32,0.03-0.47,0.06c0.03-0.51,0.05-1.03,0.06-1.53c0.01-0.51,0.02-1,0.02-1.48c0-0.47,0-0.86,0-1.17
							c0-0.31,0-0.58-0.01-0.83c-0.01-0.25-0.01-0.49-0.02-0.74c-0.01-0.25-0.02-0.55-0.04-0.91c0.15,0.02,0.31,0.03,0.46,0.05
							c0.15,0.02,0.31,0.03,0.46,0.03c0.28,0,0.56-0.03,0.83-0.08l-0.03,0.52c0.16-0.18,0.33-0.32,0.5-0.41
							c0.17-0.09,0.39-0.14,0.64-0.14c0.31,0,0.59,0.06,0.83,0.19c0.24,0.12,0.44,0.29,0.61,0.5c0.17,0.21,0.29,0.44,0.38,0.71
							c0.08,0.27,0.13,0.55,0.13,0.83c0,0.28-0.04,0.56-0.12,0.83c-0.08,0.27-0.2,0.52-0.35,0.73c-0.16,0.21-0.35,0.39-0.58,0.51
							c-0.23,0.13-0.51,0.19-0.82,0.19c-0.25,0-0.47-0.03-0.64-0.08c-0.17-0.06-0.33-0.17-0.48-0.35V35.96z M31.67,33.25
							c0,0.31,0.01,0.56,0.04,0.75c0.03,0.19,0.07,0.35,0.12,0.47c0.05,0.12,0.11,0.2,0.18,0.24c0.07,0.05,0.15,0.07,0.23,0.07
							c0.2,0,0.34-0.11,0.43-0.33c0.09-0.22,0.14-0.59,0.14-1.11c0-0.16,0-0.34-0.01-0.52c-0.01-0.18-0.03-0.35-0.06-0.51
							c-0.04-0.16-0.09-0.29-0.17-0.39c-0.08-0.1-0.19-0.16-0.33-0.16c-0.14,0-0.24,0.05-0.32,0.15c-0.08,0.1-0.14,0.22-0.17,0.37
							c-0.04,0.15-0.06,0.31-0.07,0.49C31.67,32.94,31.67,33.1,31.67,33.25z"/>
					</g>
				</g>
				<g>
					<path class="st2" d="M17.28,13.5c0-0.36,0-0.68-0.01-0.96c-0.01-0.28-0.02-0.56-0.04-0.84c0.07,0.01,0.15,0.02,0.24,0.02
						c0.09,0.01,0.18,0.01,0.29,0.01c0.14,0,0.3-0.01,0.48-0.02c0.18-0.01,0.41-0.02,0.69-0.02c0.37,0,0.71,0.03,1.02,0.1
						c0.31,0.07,0.57,0.18,0.79,0.34c0.22,0.16,0.39,0.38,0.51,0.65c0.12,0.27,0.18,0.61,0.18,1.02c0,0.36-0.06,0.68-0.18,0.97
						c-0.12,0.29-0.28,0.54-0.49,0.74c-0.21,0.21-0.44,0.36-0.71,0.47c-0.27,0.11-0.56,0.16-0.87,0.16c-0.32,0-0.6,0-0.83-0.01
						c-0.23,0-0.43-0.01-0.6-0.01c-0.11,0-0.21,0-0.29,0c-0.09,0-0.17,0-0.24,0.01c0.02-0.27,0.03-0.54,0.04-0.82
						c0.01-0.28,0.01-0.6,0.01-0.96V13.5z M18.24,14.86v0.39c0,0.13,0,0.24,0,0.34c0,0.1,0,0.17,0,0.2c0.06,0,0.14,0.01,0.23,0.01
						c0.09,0,0.2,0.01,0.34,0.01c0.49,0,0.88-0.17,1.16-0.5c0.29-0.33,0.43-0.84,0.43-1.51c0-0.27-0.04-0.51-0.11-0.72
						c-0.07-0.21-0.17-0.39-0.3-0.54c-0.13-0.15-0.29-0.26-0.47-0.34c-0.18-0.08-0.39-0.12-0.61-0.12c-0.16,0-0.28,0-0.38,0.01
						c-0.1,0.01-0.2,0.01-0.3,0.02c0,0.03,0,0.1,0,0.2c0,0.1,0,0.22,0,0.35v0.39v0.32v1.16V14.86z"/>
					<path class="st2" d="M22.93,14.61c0,0.17,0.02,0.34,0.05,0.49c0.03,0.15,0.09,0.28,0.16,0.39c0.07,0.11,0.16,0.2,0.27,0.26
						c0.11,0.06,0.24,0.09,0.39,0.09c0.3,0,0.56-0.1,0.8-0.29l0.08,0.06l-0.14,0.36c-0.11,0.08-0.24,0.15-0.39,0.2
						c-0.15,0.05-0.35,0.07-0.6,0.07c-0.21,0-0.41-0.03-0.6-0.09c-0.19-0.06-0.36-0.15-0.5-0.29c-0.15-0.13-0.26-0.3-0.34-0.51
						c-0.08-0.21-0.13-0.45-0.13-0.74c0-0.28,0.04-0.53,0.11-0.73c0.08-0.21,0.18-0.38,0.31-0.52c0.13-0.14,0.29-0.24,0.48-0.31
						c0.18-0.07,0.38-0.1,0.6-0.1c0.43,0,0.76,0.13,0.98,0.38c0.23,0.25,0.34,0.61,0.34,1.06v0.14c0,0.04,0,0.07-0.01,0.08H22.93z
						 M23.93,14.32c-0.01-0.32-0.05-0.58-0.12-0.78c-0.07-0.19-0.19-0.29-0.36-0.29c-0.1,0-0.18,0.03-0.24,0.1
						c-0.06,0.06-0.12,0.15-0.16,0.25c-0.04,0.1-0.07,0.22-0.09,0.34c-0.02,0.13-0.03,0.25-0.04,0.38H23.93z"/>
					<path class="st2" d="M25.55,15.56c0.04,0.06,0.09,0.12,0.15,0.17c0.06,0.05,0.13,0.09,0.22,0.12c0.08,0.03,0.18,0.05,0.3,0.05
						c0.15,0,0.27-0.04,0.35-0.12c0.08-0.08,0.12-0.16,0.12-0.25c0-0.1-0.04-0.18-0.11-0.24c-0.07-0.06-0.17-0.12-0.28-0.17
						c-0.11-0.05-0.23-0.1-0.36-0.15c-0.13-0.05-0.25-0.12-0.36-0.2c-0.11-0.08-0.2-0.18-0.28-0.3c-0.07-0.12-0.11-0.28-0.11-0.47
						c0-0.18,0.03-0.34,0.1-0.47c0.07-0.13,0.15-0.24,0.26-0.32c0.11-0.08,0.23-0.15,0.37-0.19s0.27-0.06,0.41-0.06
						c0.18,0,0.34,0.03,0.48,0.08c0.14,0.05,0.28,0.13,0.43,0.23c-0.04,0.09-0.07,0.18-0.1,0.28c-0.03,0.1-0.05,0.2-0.06,0.29h-0.18
						c-0.01-0.05-0.03-0.11-0.06-0.17c-0.03-0.06-0.07-0.12-0.12-0.18c-0.05-0.06-0.11-0.1-0.19-0.14
						c-0.07-0.04-0.16-0.06-0.27-0.06c-0.13,0-0.24,0.03-0.33,0.1c-0.09,0.07-0.13,0.16-0.13,0.27c0,0.1,0.04,0.19,0.11,0.25
						c0.08,0.06,0.17,0.12,0.28,0.17c0.11,0.05,0.24,0.1,0.37,0.14c0.13,0.05,0.26,0.11,0.37,0.19c0.11,0.08,0.21,0.17,0.28,0.3
						c0.08,0.12,0.11,0.28,0.11,0.47c0,0.19-0.03,0.35-0.1,0.49c-0.07,0.14-0.16,0.25-0.28,0.34c-0.12,0.09-0.25,0.15-0.4,0.19
						c-0.15,0.04-0.31,0.06-0.47,0.06c-0.19,0-0.37-0.03-0.53-0.08c-0.16-0.06-0.28-0.11-0.37-0.18c0.05-0.21,0.08-0.42,0.1-0.62
						h0.16C25.48,15.43,25.51,15.5,25.55,15.56z"/>
					<path class="st2" d="M30.74,13.94c0,0.42,0,0.81,0.01,1.17c0.01,0.36,0.02,0.71,0.04,1.06c-0.06-0.01-0.13-0.01-0.21-0.01
						c-0.09,0-0.18,0-0.27,0c-0.09,0-0.17,0-0.25,0c-0.08,0-0.14,0-0.19,0.01c0-0.01,0.01-0.04,0.01-0.08c0-0.05,0.01-0.1,0.02-0.16
						c0.01-0.06,0.01-0.12,0.02-0.17c0-0.05,0.01-0.08,0.01-0.1l-0.01-0.01c-0.08,0.19-0.19,0.35-0.34,0.45
						c-0.14,0.11-0.34,0.16-0.59,0.16c-0.22,0-0.41-0.04-0.56-0.13c-0.16-0.08-0.28-0.2-0.38-0.35c-0.1-0.15-0.17-0.33-0.22-0.53
						s-0.07-0.42-0.07-0.66s0.03-0.45,0.1-0.65c0.07-0.2,0.15-0.37,0.27-0.51c0.11-0.15,0.25-0.26,0.4-0.34
						c0.15-0.08,0.32-0.12,0.49-0.12c0.19,0,0.37,0.05,0.52,0.14c0.15,0.09,0.27,0.21,0.34,0.34h0.01c0-0.39,0-0.76-0.01-1.1
						c-0.01-0.34-0.02-0.7-0.04-1.07c0.06,0.01,0.13,0.02,0.21,0.02c0.09,0.01,0.18,0.01,0.27,0.01s0.19,0,0.27-0.01
						c0.09-0.01,0.16-0.01,0.21-0.02c-0.02,0.36-0.03,0.72-0.04,1.08c-0.01,0.36-0.01,0.74-0.01,1.17V13.94z M28.7,14.68
						c0,0.22,0.02,0.41,0.05,0.56s0.07,0.27,0.12,0.37c0.05,0.09,0.11,0.16,0.18,0.2s0.14,0.06,0.21,0.06c0.18,0,0.32-0.1,0.44-0.3
						c0.11-0.2,0.17-0.54,0.17-1c0-0.4-0.05-0.7-0.16-0.88c-0.11-0.18-0.25-0.28-0.42-0.28c-0.07,0-0.14,0.02-0.21,0.06
						c-0.07,0.04-0.13,0.11-0.19,0.2c-0.06,0.1-0.1,0.23-0.14,0.39S28.7,14.43,28.7,14.68z"/>
					<path class="st2" d="M32.31,14.61c0,0.17,0.02,0.34,0.05,0.49c0.03,0.15,0.09,0.28,0.16,0.39c0.07,0.11,0.16,0.2,0.27,0.26
						c0.11,0.06,0.24,0.09,0.39,0.09c0.3,0,0.56-0.1,0.8-0.29l0.08,0.06l-0.14,0.36c-0.11,0.08-0.24,0.15-0.39,0.2
						c-0.15,0.05-0.35,0.07-0.6,0.07c-0.21,0-0.41-0.03-0.6-0.09c-0.19-0.06-0.36-0.15-0.5-0.29c-0.15-0.13-0.26-0.3-0.34-0.51
						c-0.08-0.21-0.13-0.45-0.13-0.74c0-0.28,0.04-0.53,0.11-0.73c0.08-0.21,0.18-0.38,0.31-0.52c0.13-0.14,0.29-0.24,0.48-0.31
						c0.18-0.07,0.38-0.1,0.6-0.1c0.43,0,0.76,0.13,0.98,0.38c0.23,0.25,0.34,0.61,0.34,1.06v0.14c0,0.04,0,0.07-0.01,0.08H32.31z
						 M33.31,14.32c-0.01-0.32-0.05-0.58-0.12-0.78c-0.07-0.19-0.19-0.29-0.36-0.29c-0.1,0-0.18,0.03-0.24,0.1
						c-0.06,0.06-0.12,0.15-0.16,0.25c-0.04,0.1-0.07,0.22-0.09,0.34c-0.02,0.13-0.03,0.25-0.04,0.38H33.31z"/>
				</g>
			</g>
			<g>
				<path class="st2" d="M28.11,41.62h-5.13c-6.34,0-11.49-5.15-11.49-11.49V17.9c0-6.34,5.15-11.49,11.49-11.49h5.13
					c6.34,0,11.49,5.15,11.49,11.49v12.23C39.6,36.46,34.44,41.62,28.11,41.62z M22.98,6.71c-6.17,0-11.19,5.02-11.19,11.19v12.23
					c0,6.17,5.02,11.19,11.19,11.19h5.13c6.17,0,11.19-5.02,11.19-11.19V17.9c0-6.17-5.02-11.19-11.19-11.19H22.98z"/>
			</g>
		</g>
	</g>
</g>
</svg>
