<?xml version="1.0" encoding="utf-8"?>
<!-- Generator: Adobe Illustrator 23.0.5, SVG Export Plug-In . SVG Version: 6.00 Build 0)  -->
<svg version="1.1" id="Layer_1" xmlns="http://www.w3.org/2000/svg" xmlns:xlink="http://www.w3.org/1999/xlink" x="0px" y="0px"
	 viewBox="0 0 50 50" style="enable-background:new 0 0 50 50;" xml:space="preserve">
<style type="text/css">
	.st0{fill:#B7625E;}
	.st1{fill:#ECECE6;}
	.st2{fill:#ECECE6;stroke:#ECECE6;stroke-width:0.5;stroke-miterlimit:10;}
</style>
<g>
	<path class="st0" d="M2.6,47.6h28.8c8.8,0,16-7.9,16-17.6V2.4H2.6V47.6z"/>
	<g>
		<g>
			<g>
				<g>
					<g>
						<path class="st1" d="M18.4,31.4c0.1-0.1,0.2-0.2,0.3-0.2c0.1-0.1,0.2-0.1,0.4-0.2c0.1,0,0.3-0.1,0.5-0.1
							c0.3,0,0.5,0.1,0.7,0.2s0.4,0.3,0.5,0.6c0.1-0.1,0.2-0.2,0.3-0.3c0.1-0.1,0.2-0.2,0.3-0.2c0.1-0.1,0.2-0.1,0.4-0.1
							c0.1,0,0.2,0,0.4,0c0.3,0,0.5,0,0.7,0.1c0.2,0.1,0.3,0.2,0.4,0.4c0.1,0.2,0.2,0.4,0.2,0.6c0,0.2,0,0.5,0,0.7
							c0,0.1,0,0.3,0,0.5s0,0.4,0,0.6v0.3c0,0.2,0,0.4,0,0.6c0,0.2,0,0.4,0,0.7c-0.2,0-0.3,0-0.5-0.1c-0.2,0-0.3,0-0.5,0
							s-0.3,0-0.5,0s-0.3,0-0.5,0c0-0.2,0-0.3,0-0.5s0-0.3,0-0.5c0-0.2,0-0.4,0-0.6c0-0.2,0-0.5,0-0.7c0-0.2,0-0.3,0-0.5
							s0-0.2,0-0.3c0-0.1-0.1-0.2-0.1-0.2c0,0-0.1-0.1-0.2-0.1c-0.1,0-0.2,0-0.3,0.1s-0.1,0.1-0.1,0.2c0,0.1,0,0.2-0.1,0.4
							c0,0.2,0,0.3,0,0.5v0.6c0,0.3,0,0.6,0,0.9s0,0.5,0,0.8c-0.1,0-0.3,0-0.4,0c-0.1,0-0.3,0-0.4,0c-0.2,0-0.3,0-0.5,0
							s-0.3,0-0.5,0c0-0.4,0-0.7,0-1.1c0-0.3,0-0.7,0-1.1c0-0.2,0-0.4,0-0.6s0-0.3,0-0.4c0-0.1-0.1-0.2-0.1-0.2
							c-0.1,0-0.1-0.1-0.2-0.1c-0.1,0-0.2,0-0.2,0.1c-0.1,0-0.1,0.1-0.1,0.2c0,0.1,0,0.2,0,0.3c0,0.1,0,0.2,0,0.3v1.5
							c0,0.2,0,0.3,0,0.5s0,0.3,0,0.5c-0.2,0-0.3,0-0.5,0s-0.3,0-0.5,0c-0.1,0-0.3,0-0.5,0s-0.3,0-0.5,0c0-0.2,0-0.4,0-0.6
							s0-0.5,0-0.7c0-0.2,0-0.5,0-0.7s0-0.4,0-0.5c0-0.3,0-0.6,0-0.9c0-0.3,0-0.7-0.1-1.1c0.1,0,0.3,0,0.5,0.1c0.1,0,0.3,0,0.5,0
							c0.1,0,0.3,0,0.4,0c0.1,0,0.3,0,0.4-0.1l0,0.7C18.2,31.6,18.3,31.5,18.4,31.4z"/>
						<path class="st1" d="M24.2,33.3c0-0.5,0.1-0.8,0.2-1.1c0.1-0.3,0.3-0.5,0.5-0.7c0.2-0.2,0.4-0.3,0.6-0.4
							c0.2-0.1,0.4-0.1,0.6-0.1c0.1,0,0.3,0,0.4,0c0.1,0,0.2,0.1,0.3,0.1c0.1,0,0.2,0.1,0.2,0.1c0.1,0,0.1,0.1,0.2,0.1
							c0-0.4,0-0.8,0-1.2c0-0.4,0-0.8,0-1.2c0.2,0,0.3,0,0.5,0.1c0.1,0,0.3,0,0.5,0c0.3,0,0.7,0,1-0.1c0,0.5-0.1,1.1-0.1,1.6
							c0,0.6,0,1.1,0,1.6c0,0.4,0,0.7,0,1c0,0.3,0,0.6,0,0.8c0,0.2,0,0.5,0,0.7c0,0.2,0,0.4,0,0.6c-0.1,0-0.3,0-0.4-0.1
							c-0.1,0-0.3,0-0.4,0c-0.1,0-0.3,0-0.4,0c-0.1,0-0.3,0-0.4,0.1c0-0.2,0-0.3,0-0.5c-0.1,0.1-0.2,0.2-0.3,0.3s-0.2,0.1-0.3,0.2
							c-0.1,0-0.2,0.1-0.3,0.1c-0.1,0-0.2,0-0.4,0c-0.3,0-0.6-0.1-0.9-0.2c-0.2-0.1-0.4-0.3-0.6-0.5s-0.3-0.4-0.3-0.7
							C24.2,33.8,24.2,33.6,24.2,33.3z M26.6,34.8c0.1,0,0.2,0,0.3-0.1c0.1-0.1,0.1-0.2,0.2-0.3c0-0.1,0.1-0.3,0.1-0.5
							c0-0.2,0-0.4,0-0.6c0-0.5,0-0.9-0.1-1.1c-0.1-0.2-0.2-0.3-0.4-0.3c-0.1,0-0.2,0-0.3,0.1s-0.1,0.2-0.2,0.3
							c0,0.1-0.1,0.3-0.1,0.5s0,0.4,0,0.6c0,0.2,0,0.4,0,0.6s0,0.3,0.1,0.5c0,0.1,0.1,0.2,0.2,0.3C26.4,34.7,26.5,34.8,26.6,34.8z"
							/>
						<path class="st1" d="M31.7,36c0,0.2,0,0.3,0,0.5s0,0.3,0,0.5c0,0.2,0,0.3,0,0.4s0,0.2,0,0.3c-0.2,0-0.3,0-0.5-0.1
							c-0.1,0-0.3,0-0.5,0c-0.1,0-0.3,0-0.5,0c-0.2,0-0.3,0-0.5,0.1c0-0.5,0-1,0.1-1.5c0-0.5,0-1,0-1.5c0-0.5,0-0.9,0-1.2
							c0-0.3,0-0.6,0-0.8s0-0.5,0-0.7c0-0.2,0-0.5,0-0.9c0.1,0,0.3,0,0.5,0c0.1,0,0.3,0,0.5,0c0.3,0,0.6,0,0.8-0.1l0,0.5
							c0.2-0.2,0.3-0.3,0.5-0.4c0.2-0.1,0.4-0.1,0.6-0.1c0.3,0,0.6,0.1,0.8,0.2c0.2,0.1,0.4,0.3,0.6,0.5c0.2,0.2,0.3,0.4,0.4,0.7
							c0.1,0.3,0.1,0.5,0.1,0.8c0,0.3,0,0.6-0.1,0.8c-0.1,0.3-0.2,0.5-0.3,0.7c-0.2,0.2-0.3,0.4-0.6,0.5c-0.2,0.1-0.5,0.2-0.8,0.2
							c-0.2,0-0.5,0-0.6-0.1c-0.2-0.1-0.3-0.2-0.5-0.3L31.7,36L31.7,36z M31.7,33.2c0,0.3,0,0.6,0,0.8s0.1,0.3,0.1,0.5
							c0,0.1,0.1,0.2,0.2,0.2c0.1,0,0.2,0.1,0.2,0.1c0.2,0,0.3-0.1,0.4-0.3s0.1-0.6,0.1-1.1c0-0.2,0-0.3,0-0.5s0-0.3-0.1-0.5
							c0-0.2-0.1-0.3-0.2-0.4c-0.1-0.1-0.2-0.2-0.3-0.2c-0.1,0-0.2,0-0.3,0.1c-0.1,0.1-0.1,0.2-0.2,0.4c0,0.2-0.1,0.3-0.1,0.5
							C31.7,32.9,31.7,33.1,31.7,33.2z"/>
					</g>
				</g>
				<g>
					<path class="st1" d="M17.3,13.5c0-0.4,0-0.7,0-1s0-0.6,0-0.8c0.1,0,0.1,0,0.2,0c0.1,0,0.2,0,0.3,0c0.1,0,0.3,0,0.5,0
						s0.4,0,0.7,0c0.4,0,0.7,0,1,0.1c0.3,0.1,0.6,0.2,0.8,0.3c0.2,0.2,0.4,0.4,0.5,0.6c0.1,0.3,0.2,0.6,0.2,1c0,0.4-0.1,0.7-0.2,1
						s-0.3,0.5-0.5,0.7c-0.2,0.2-0.4,0.4-0.7,0.5c-0.3,0.1-0.6,0.2-0.9,0.2c-0.3,0-0.6,0-0.8,0c-0.2,0-0.4,0-0.6,0
						c-0.1,0-0.2,0-0.3,0c-0.1,0-0.2,0-0.2,0c0-0.3,0-0.5,0-0.8s0-0.6,0-1L17.3,13.5L17.3,13.5z M18.2,14.9v0.4c0,0.1,0,0.2,0,0.3
						s0,0.2,0,0.2c0.1,0,0.1,0,0.2,0s0.2,0,0.3,0c0.5,0,0.9-0.2,1.2-0.5c0.3-0.3,0.4-0.8,0.4-1.5c0-0.3,0-0.5-0.1-0.7
						s-0.2-0.4-0.3-0.5s-0.3-0.3-0.5-0.3c-0.2-0.1-0.4-0.1-0.6-0.1c-0.2,0-0.3,0-0.4,0c-0.1,0-0.2,0-0.3,0c0,0,0,0.1,0,0.2
						c0,0.1,0,0.2,0,0.4v0.4v0.3v1.2L18.2,14.9L18.2,14.9z"/>
					<path class="st1" d="M22.9,14.6c0,0.2,0,0.3,0,0.5c0,0.1,0.1,0.3,0.2,0.4c0.1,0.1,0.2,0.2,0.3,0.3s0.2,0.1,0.4,0.1
						c0.3,0,0.6-0.1,0.8-0.3l0.1,0.1L24.5,16c-0.1,0.1-0.2,0.2-0.4,0.2s-0.4,0.1-0.6,0.1c-0.2,0-0.4,0-0.6-0.1s-0.4-0.1-0.5-0.3
						c-0.1-0.1-0.3-0.3-0.3-0.5S22,14.9,22,14.6c0-0.3,0-0.5,0.1-0.7c0.1-0.2,0.2-0.4,0.3-0.5s0.3-0.2,0.5-0.3
						c0.2-0.1,0.4-0.1,0.6-0.1c0.4,0,0.8,0.1,1,0.4c0.2,0.2,0.3,0.6,0.3,1.1v0.1c0,0,0,0.1,0,0.1C24.8,14.6,22.9,14.6,22.9,14.6z
						 M23.9,14.3c0-0.3,0-0.6-0.1-0.8c-0.1-0.2-0.2-0.3-0.4-0.3c-0.1,0-0.2,0-0.2,0.1c-0.1,0.1-0.1,0.1-0.2,0.2
						c0,0.1-0.1,0.2-0.1,0.3c0,0.1,0,0.2,0,0.4C22.9,14.3,23.9,14.3,23.9,14.3z"/>
					<path class="st1" d="M25.5,15.6c0,0.1,0.1,0.1,0.1,0.2s0.1,0.1,0.2,0.1c0.1,0,0.2,0.1,0.3,0.1c0.1,0,0.3,0,0.4-0.1
						s0.1-0.2,0.1-0.2c0-0.1,0-0.2-0.1-0.2c-0.1-0.1-0.2-0.1-0.3-0.2S26.1,15,25.9,15c-0.1-0.1-0.2-0.1-0.4-0.2s-0.2-0.2-0.3-0.3
						c-0.1-0.1-0.1-0.3-0.1-0.5c0-0.2,0-0.3,0.1-0.5s0.1-0.2,0.3-0.3s0.2-0.1,0.4-0.2s0.3-0.1,0.4-0.1c0.2,0,0.3,0,0.5,0.1
						s0.3,0.1,0.4,0.2c0,0.1-0.1,0.2-0.1,0.3c0,0.1,0,0.2-0.1,0.3h-0.2c0-0.1,0-0.1-0.1-0.2c0-0.1-0.1-0.1-0.1-0.2
						c0-0.1-0.1-0.1-0.2-0.1c-0.1,0-0.2-0.1-0.3-0.1c-0.1,0-0.2,0-0.3,0.1c-0.1,0.1-0.1,0.2-0.1,0.3c0,0.1,0,0.2,0.1,0.2
						c0.1,0.1,0.2,0.1,0.3,0.2s0.2,0.1,0.4,0.1c0.1,0.1,0.3,0.1,0.4,0.2s0.2,0.2,0.3,0.3c0.1,0.1,0.1,0.3,0.1,0.5
						c0,0.2,0,0.4-0.1,0.5c-0.1,0.1-0.2,0.2-0.3,0.3s-0.2,0.1-0.4,0.2s-0.3,0.1-0.5,0.1c-0.2,0-0.4,0-0.5-0.1
						c-0.2-0.1-0.3-0.1-0.4-0.2c0-0.2,0.1-0.4,0.1-0.6h0.2C25.5,15.4,25.5,15.5,25.5,15.6z"/>
					<path class="st1" d="M30.7,13.9c0,0.4,0,0.8,0,1.2s0,0.7,0,1.1c-0.1,0-0.1,0-0.2,0c-0.1,0-0.2,0-0.3,0s-0.2,0-0.2,0
						s-0.1,0-0.2,0c0,0,0,0,0-0.1c0,0,0-0.1,0-0.2c0-0.1,0-0.1,0-0.2c0-0.1,0-0.1,0-0.1l0,0c-0.1,0.2-0.2,0.4-0.3,0.5
						c-0.1,0.1-0.3,0.2-0.6,0.2c-0.2,0-0.4,0-0.6-0.1c-0.2-0.1-0.3-0.2-0.4-0.4c-0.1-0.1-0.2-0.3-0.2-0.5s-0.1-0.4-0.1-0.7
						s0-0.4,0.1-0.6s0.1-0.4,0.3-0.5c0.1-0.1,0.2-0.3,0.4-0.3S28.9,13,29,13c0.2,0,0.4,0.1,0.5,0.1s0.3,0.2,0.3,0.3h0
						c0-0.4,0-0.8,0-1.1s0-0.7,0-1.1c0.1,0,0.1,0,0.2,0c0.1,0,0.2,0,0.3,0s0.2,0,0.3,0c0.1,0,0.2,0,0.2,0c0,0.4,0,0.7,0,1.1
						s0,0.7,0,1.2L30.7,13.9L30.7,13.9z M28.7,14.7c0,0.2,0,0.4,0,0.6s0.1,0.3,0.1,0.4c0,0.1,0.1,0.2,0.2,0.2s0.1,0.1,0.2,0.1
						c0.2,0,0.3-0.1,0.4-0.3c0.1-0.2,0.2-0.5,0.2-1c0-0.4,0-0.7-0.2-0.9s-0.2-0.3-0.4-0.3c-0.1,0-0.1,0-0.2,0.1s-0.1,0.1-0.2,0.2
						c-0.1,0.1-0.1,0.2-0.1,0.4S28.7,14.4,28.7,14.7z"/>
					<path class="st1" d="M32.3,14.6c0,0.2,0,0.3,0,0.5s0.1,0.3,0.2,0.4c0.1,0.1,0.2,0.2,0.3,0.3s0.2,0.1,0.4,0.1
						c0.3,0,0.6-0.1,0.8-0.3l0.1,0.1L33.9,16c-0.1,0.1-0.2,0.2-0.4,0.2c-0.2,0-0.3,0.1-0.6,0.1c-0.2,0-0.4,0-0.6-0.1
						S32,16,31.8,15.9c-0.1-0.1-0.3-0.3-0.3-0.5s-0.1-0.4-0.1-0.7c0-0.3,0-0.5,0.1-0.7c0.1-0.2,0.2-0.4,0.3-0.5s0.3-0.2,0.5-0.3
						c0.2-0.1,0.4-0.1,0.6-0.1c0.4,0,0.8,0.1,1,0.4c0.2,0.2,0.3,0.6,0.3,1.1v0.1c0,0,0,0.1,0,0.1C34.2,14.6,32.3,14.6,32.3,14.6z
						 M33.3,14.3c0-0.3,0-0.6-0.1-0.8c-0.1-0.2-0.2-0.3-0.4-0.3c-0.1,0-0.2,0-0.2,0.1c-0.1,0.1-0.1,0.1-0.2,0.2s-0.1,0.2-0.1,0.3
						c0,0.1,0,0.2,0,0.4C32.3,14.3,33.3,14.3,33.3,14.3z"/>
				</g>
			</g>
			<g>
				<path class="st1" d="M28.1,41.6H23c-6.3,0-11.5-5.2-11.5-11.5V17.9c0-6.3,5.1-11.5,11.5-11.5h5.1c6.3,0,11.5,5.1,11.5,11.5v12.2
					C39.6,36.5,34.4,41.6,28.1,41.6z M23,6.7c-6.2,0-11.2,5-11.2,11.2v12.2c0,6.2,5,11.2,11.2,11.2h5.1c6.2,0,11.2-5,11.2-11.2V17.9
					c0-6.2-5-11.2-11.2-11.2H23z"/>
			</g>
		</g>
	</g>
</g>
<g>
	<g>
		<path class="st2" d="M20.1,28.8v-3.6c0-0.1-0.2-0.2-0.3-0.2L16,25.2c-0.2,0-0.2,0-0.2-0.1c0-0.1,0.1-0.2,0.3-0.4
			c0.2-0.2,1.7-1.9,4.7-5.2l0.3-0.3c0.2-0.3,0.4-0.4,0.4-0.4h0c0,0,0.1,0.1,0.1,0.2l-0.1,5.1c0,0.1,0.1,0.1,0.2,0.1
			c0.1,0,0.3,0,0.5,0c0.2,0,0.6,0,1.1,0c0.1,0,0.2,0,0.2,0.1c0,0.3-0.2,0.7-0.4,0.7l-0.8,0c-0.5,0-0.7,0.1-0.7,0.1v3
			c0,0.4-0.8,0.8-1,0.8C20.2,29,20.1,28.9,20.1,28.8z M19.9,24.1c0.1,0,0.2-0.1,0.2-0.1v-2.9c0-0.1-0.1-0.1-0.2,0
			c-0.6,0.6-1.5,1.6-2.6,2.9c-0.1,0.1-0.1,0.2,0,0.2H19.9z"/>
		<path class="st2" d="M24.8,25.2c0-0.3,0.1-0.5,0.3-0.7c0.2-0.2,0.4-0.3,0.7-0.3c0.5,0,0.9,0.4,0.9,0.9c0,0.5-0.4,0.9-0.9,0.9
			S24.8,25.7,24.8,25.2z"/>
		<path class="st2" d="M32.7,25.9c-0.7,0-1.3,0-1.7,0c-1,0-1.8,0-2.4,0l-0.5,0c-0.1,0-0.1-0.1-0.1-0.1c0-0.1,0-0.1,0.1-0.2
			c0.5-0.5,0.8-0.8,1-1c1.5-1.3,2.3-2.3,2.3-3.3c0-0.8-0.4-1.3-1.1-1.3c-0.8,0-1.5,0.3-2,0.8c-0.1,0.1-0.2,0.1-0.2,0.1
			c-0.1,0-0.2-0.1-0.1-0.2c0.1-0.4,0.1-0.4,0.4-0.8c0.2-0.2,0.3-0.4,0.5-0.5c0.5-0.4,1.1-0.6,1.9-0.6c1,0,1.8,1,1.8,2.1
			s-0.8,1.9-1.8,2.8c-0.5,0.5-0.8,0.8-0.9,0.8c-0.1,0.1-0.1,0.1,0.1,0.1l0.1,0h2.6c0.6,0,1.3-0.4,1.6-1.1c0.1-0.1,0.2-0.2,0.3-0.2
			c0.1,0,0.1,0,0.1,0.1s-0.1,0.4-0.3,0.9c-0.2,0.5-0.3,0.9-0.3,1s0,0.3-0.1,0.3c-0.1,0.1-0.1,0.1-0.2,0.1C33.8,26,33.4,26,32.7,25.9
			z"/>
	</g>
</g>
</svg>
