<?xml version="1.0" encoding="utf-8"?>
<!-- Generator: Adobe Illustrator 23.0.1, SVG Export Plug-In . SVG Version: 6.00 Build 0)  -->
<svg version="1.1" id="Layer_1" xmlns="http://www.w3.org/2000/svg" xmlns:xlink="http://www.w3.org/1999/xlink" x="0px" y="0px"
	 viewBox="0 0 24 24" style="enable-background:new 0 0 24 24;" xml:space="preserve">
<style type="text/css">
	.st0{fill:#154C5E;}
	.st1{fill:#B7625E;}
	.st2{fill:#ECECE6;}
	.st3{opacity:0.27;fill:#F1A899;}
	.st4{fill:none;}
	.st5{fill:#F1A899;}
	.st6{fill-rule:evenodd;clip-rule:evenodd;fill:#154C5E;}
	.st7{opacity:0.41;fill:#F1A899;}
	.st8{fill:#F4CD87;}
	.st9{fill:none;stroke:#154C5E;stroke-miterlimit:10;}
	.st10{opacity:0.24;fill:#B7625E;}
</style>
<g>
	<circle class="st2" cx="12" cy="12" r="11.66"/>
	<g>
		<g>
			<path class="st4" d="M16.55,12.7l-0.14,0.03c-0.03,0.01-0.05,0.01-0.08,0.02l-0.04,0.01c-0.04,0.01-0.08,0.02-0.12,0.03
				c0,0-0.02,0.01-0.02,0.01c-0.04,0.01-0.09,0.03-0.13,0.04c-0.37,0.12-0.73,0.29-1.07,0.49c-1.25,0.74-2.19,1.93-2.57,3.27
				c0.41,0.12,0.85,0.18,1.29,0.18c0.91,0,1.83-0.26,2.66-0.75c1.25-0.74,2.19-1.93,2.57-3.27c-0.73-0.22-1.53-0.24-2.32-0.08
				C16.57,12.7,16.56,12.7,16.55,12.7z"/>
			<path class="st4" d="M12,7.43c-1.04,1.13-1.63,2.76-1.63,4.49c0,0.61,0.07,1.21,0.22,1.79c0.61,0.6,1.1,1.32,1.42,2.09
				c0.32-0.78,0.81-1.5,1.42-2.09c0.14-0.57,0.22-1.17,0.22-1.79C13.63,10.19,13.04,8.56,12,7.43z"/>
			<path class="st4" d="M14.17,13.08c0.16-0.11,0.32-0.22,0.48-0.31c0.48-0.28,0.98-0.49,1.5-0.63c0.36-1.2,0.39-2.42,0.09-3.55
				c-0.8,0.26-1.57,0.74-2.22,1.39c0.16,0.63,0.24,1.28,0.24,1.94C14.25,12.31,14.22,12.7,14.17,13.08z"/>
			<path class="st4" d="M9.36,12.77c0.16,0.09,0.32,0.2,0.48,0.31c-0.05-0.38-0.08-0.77-0.08-1.16c0-0.66,0.08-1.32,0.24-1.94
				C9.34,9.32,8.58,8.85,7.77,8.59c-0.3,1.13-0.27,2.35,0.08,3.55C8.38,12.28,8.88,12.49,9.36,12.77z"/>
			<path class="st4" d="M7.72,12.77c-0.02,0-0.03-0.01-0.04-0.01c-0.03-0.01-0.06-0.01-0.08-0.02L7.43,12.7c0,0-0.02-0.01-0.02-0.01
				c-0.33-0.07-0.67-0.1-1.01-0.1c-0.45,0-0.88,0.06-1.29,0.18c0.38,1.34,1.32,2.53,2.57,3.27c0.83,0.49,1.75,0.75,2.66,0.75
				c0.45,0,0.88-0.06,1.29-0.18c-0.38-1.35-1.32-2.54-2.57-3.27c-0.34-0.2-0.7-0.36-1.07-0.49c-0.04-0.01-0.09-0.03-0.13-0.04
				l0-0.07h0L7.83,12.8C7.79,12.79,7.76,12.78,7.72,12.77z"/>
			<polygon class="st0" points="7.85,12.73 7.85,12.73 7.85,12.73 			"/>
			<path class="st0" d="M16.74,12.15c-0.02,0-0.05,0-0.06-0.02c-0.02-0.02-0.02-0.04-0.02-0.07c0.35-1.34,0.33-2.7-0.07-3.93
				l-0.05-0.15l-0.14,0.04c-0.93,0.24-1.82,0.74-2.57,1.46c-0.02,0.02-0.04,0.02-0.07,0.02c-0.02-0.01-0.04-0.02-0.05-0.05
				c-0.34-1.02-0.89-1.91-1.6-2.6L12,6.73l-0.11,0.11c-0.71,0.69-1.26,1.59-1.6,2.6c-0.01,0.02-0.03,0.04-0.05,0.05
				c-0.02,0-0.05,0-0.07-0.02C9.42,8.76,8.53,8.25,7.61,8.01L7.46,7.98L7.41,8.13c-0.4,1.23-0.42,2.59-0.07,3.93
				c0.01,0.02,0,0.05-0.02,0.07c-0.02,0.02-0.04,0.02-0.06,0.02C6.35,12,5.48,12.09,4.68,12.38l-0.14,0.05l0.04,0.16
				c0.36,1.61,1.41,3.03,2.88,3.89c0.9,0.53,1.9,0.81,2.88,0.81c0.57,0,1.12-0.09,1.64-0.28c0.01,0,0.02,0,0.02,0
				c0.01,0,0.02,0,0.02,0c0.52,0.18,1.07,0.28,1.64,0.28c0.98,0,1.98-0.28,2.88-0.81c1.47-0.86,2.52-2.28,2.88-3.89l0.04-0.16
				l-0.14-0.05C18.52,12.09,17.65,12,16.74,12.15z M13.89,9.9c0.69-0.7,1.51-1.21,2.37-1.47c0.02-0.01,0.04,0,0.05,0.01
				c0.02,0.01,0.03,0.02,0.03,0.04c0.33,1.18,0.3,2.48-0.08,3.74c-0.01,0.02-0.03,0.04-0.05,0.05c-0.52,0.14-1.02,0.35-1.5,0.63
				c-0.2,0.12-0.41,0.26-0.6,0.4c-0.01,0.01-0.03,0.01-0.04,0.01c-0.01,0-0.03,0-0.04-0.01C14.01,13.28,14,13.25,14,13.23
				c0.07-0.43,0.11-0.87,0.11-1.31c0-0.66-0.08-1.31-0.24-1.94c0-0.01,0-0.01,0-0.02C13.86,9.93,13.87,9.91,13.89,9.9z M7.66,8.48
				c0.01-0.02,0.02-0.03,0.03-0.04c0.02-0.01,0.04-0.01,0.05-0.01C8.61,8.69,9.43,9.2,10.12,9.9c0.02,0.02,0.02,0.04,0.02,0.07
				c-0.16,0.63-0.24,1.28-0.24,1.95c0,0.44,0.04,0.88,0.11,1.31c0,0.03-0.01,0.06-0.03,0.07c-0.01,0.01-0.02,0.01-0.04,0.01
				c-0.01,0-0.03,0-0.04-0.01c-0.2-0.15-0.4-0.29-0.6-0.4c-0.48-0.28-0.98-0.49-1.5-0.63c-0.02-0.01-0.04-0.02-0.05-0.05
				C7.35,10.96,7.32,9.66,7.66,8.48z M11.74,16.72c-0.44,0.14-0.92,0.21-1.4,0.21c-0.93,0-1.87-0.26-2.73-0.76
				c-1.31-0.77-2.27-2.01-2.65-3.42C4.94,12.71,4.97,12.67,5,12.66c0.77-0.24,1.62-0.27,2.45-0.1l0.17,0.04
				c0.03,0.01,0.06,0.01,0.08,0.02c0.01,0,0.03,0.01,0.04,0.01c0.04,0.01,0.08,0.02,0.12,0.03c0.01,0,0.02,0.01,0.03,0.01
				c0.04,0.01,0.08,0.02,0.13,0.04c0.38,0.13,0.75,0.29,1.1,0.5c1.31,0.77,2.27,2.01,2.65,3.42C11.79,16.67,11.77,16.71,11.74,16.72
				z M12,16.06c-0.03,0-0.06-0.02-0.07-0.05c-0.31-0.83-0.82-1.6-1.46-2.22c-0.01-0.01-0.02-0.02-0.02-0.03
				c-0.15-0.59-0.23-1.21-0.23-1.84c0-1.79,0.63-3.48,1.72-4.64c0.03-0.03,0.08-0.03,0.1,0c1.09,1.16,1.72,2.85,1.72,4.64
				c0,0.63-0.08,1.25-0.23,1.84c0,0.01-0.01,0.02-0.02,0.03c-0.65,0.63-1.15,1.4-1.46,2.22C12.06,16.04,12.03,16.06,12,16.06z
				 M16.39,16.16c-0.85,0.5-1.8,0.76-2.73,0.76c-0.48,0-0.95-0.07-1.4-0.21c-0.04-0.01-0.06-0.05-0.05-0.09
				c0.38-1.41,1.35-2.65,2.65-3.42c0.35-0.21,0.72-0.37,1.1-0.5c0.04-0.01,0.09-0.03,0.13-0.04c0,0,0.01,0,0.02-0.01
				c0.04-0.01,0.08-0.02,0.12-0.03l0.04-0.01c0.03-0.01,0.05-0.01,0.08-0.02l0.16-0.04c0.85-0.18,1.7-0.14,2.46,0.1
				c0.04,0.01,0.06,0.05,0.05,0.09C18.66,14.15,17.7,15.4,16.39,16.16z"/>
		</g>
	</g>
</g>
</svg>
