<?xml version="1.0" encoding="utf-8"?>
<!-- Generator: Adobe Illustrator 23.0.1, SVG Export Plug-In . SVG Version: 6.00 Build 0)  -->
<svg version="1.1" id="Layer_1" xmlns="http://www.w3.org/2000/svg" xmlns:xlink="http://www.w3.org/1999/xlink" x="0px" y="0px"
	 viewBox="0 0 25 25" style="enable-background:new 0 0 25 25;" xml:space="preserve">
<style type="text/css">
	.st0{fill:#154C5E;}
	.st1{fill:#B7625E;}
	.st2{fill:#ECECE6;}
	.st3{opacity:0.27;fill:#F1A899;}
	.st4{fill:none;}
	.st5{fill:#F1A899;}
	.st6{fill-rule:evenodd;clip-rule:evenodd;fill:#154C5E;}
	.st7{opacity:0.41;fill:#F1A899;}
	.st8{fill:#F4CD87;}
	.st9{fill:none;stroke:#154C5E;stroke-miterlimit:10;}
	.st10{opacity:0.24;fill:#B7625E;}
</style>
<g>
	<path class="st5" d="M12.5,5.12c2.4,0,2.69,0.01,3.64,0.05c0.88,0.04,1.35,0.19,1.67,0.31c0.42,0.16,0.72,0.36,1.04,0.67
		c0.32,0.32,0.51,0.62,0.67,1.04c0.12,0.32,0.27,0.79,0.31,1.67c0.04,0.95,0.05,1.23,0.05,3.64c0,2.4-0.01,2.69-0.05,3.64
		c-0.04,0.88-0.19,1.35-0.31,1.67c-0.16,0.42-0.36,0.72-0.67,1.04c-0.32,0.32-0.62,0.51-1.04,0.67c-0.32,0.12-0.79,0.27-1.67,0.31
		c-0.95,0.04-1.23,0.05-3.64,0.05c-2.4,0-2.69-0.01-3.64-0.05c-0.88-0.04-1.35-0.19-1.67-0.31c-0.42-0.16-0.72-0.36-1.04-0.67
		c-0.32-0.32-0.51-0.62-0.67-1.04c-0.12-0.32-0.27-0.79-0.31-1.67c-0.04-0.95-0.05-1.23-0.05-3.64c0-2.4,0.01-2.69,0.05-3.64
		c0.04-0.88,0.19-1.35,0.31-1.67c0.16-0.42,0.36-0.72,0.67-1.04c0.32-0.32,0.62-0.51,1.04-0.67c0.32-0.12,0.79-0.27,1.67-0.31
		C9.81,5.13,10.1,5.12,12.5,5.12 M12.5,3.5c-2.45,0-2.75,0.01-3.71,0.05C7.83,3.59,7.17,3.75,6.6,3.97C6.01,4.2,5.51,4.51,5.01,5.01
		c-0.5,0.5-0.81,1-1.04,1.59C3.75,7.17,3.59,7.83,3.55,8.79C3.51,9.75,3.5,10.05,3.5,12.5c0,2.45,0.01,2.75,0.05,3.71
		c0.04,0.96,0.2,1.61,0.42,2.19c0.23,0.59,0.54,1.09,1.04,1.59c0.5,0.5,1,0.81,1.59,1.04c0.57,0.22,1.23,0.37,2.19,0.42
		c0.96,0.04,1.27,0.05,3.71,0.05c2.45,0,2.75-0.01,3.71-0.05c0.96-0.04,1.61-0.2,2.19-0.42c0.59-0.23,1.09-0.54,1.59-1.04
		c0.5-0.5,0.81-1,1.04-1.59c0.22-0.57,0.37-1.23,0.42-2.19c0.04-0.96,0.05-1.27,0.05-3.71c0-2.45-0.01-2.75-0.05-3.71
		c-0.04-0.96-0.2-1.61-0.42-2.19c-0.23-0.59-0.54-1.09-1.04-1.59c-0.5-0.5-1-0.81-1.59-1.04c-0.57-0.22-1.23-0.37-2.19-0.42
		C15.25,3.51,14.95,3.5,12.5,3.5"/>
	<path class="st5" d="M12.5,7.88c-2.55,0-4.62,2.07-4.62,4.62c0,2.55,2.07,4.62,4.62,4.62s4.62-2.07,4.62-4.62
		C17.12,9.95,15.05,7.88,12.5,7.88 M12.5,15.5c-1.66,0-3-1.34-3-3s1.34-3,3-3s3,1.34,3,3S14.16,15.5,12.5,15.5"/>
	<path class="st5" d="M18.39,7.69c0,0.6-0.48,1.08-1.08,1.08c-0.6,0-1.08-0.48-1.08-1.08c0-0.6,0.48-1.08,1.08-1.08
		C17.9,6.61,18.39,7.1,18.39,7.69"/>
</g>
</svg>
