<?xml version="1.0" encoding="utf-8"?>
<!-- Generator: Adobe Illustrator 23.0.1, SVG Export Plug-In . SVG Version: 6.00 Build 0)  -->
<svg version="1.1" id="Layer_1" xmlns="http://www.w3.org/2000/svg" xmlns:xlink="http://www.w3.org/1999/xlink" x="0px" y="0px"
	 viewBox="0 0 87.37 18.63" style="enable-background:new 0 0 87.37 18.63;" xml:space="preserve">
<style type="text/css">
	.st0{fill:#154C5E;}
	.st1{fill:#B7625E;}
	.st2{fill:#ECECE6;}
	.st3{opacity:0.27;fill:#F1A899;}
	.st4{fill:none;}
	.st5{fill:#F1A899;}
	.st6{fill-rule:evenodd;clip-rule:evenodd;fill:#154C5E;}
	.st7{opacity:0.41;fill:#F1A899;}
	.st8{fill:#F4CD87;}
	.st9{fill:none;stroke:#154C5E;stroke-miterlimit:10;}
	.st10{opacity:0.24;fill:#B7625E;}
</style>
<path class="st5" d="M78.05,18.63H9.31C4.17,18.63,0,14.46,0,9.31v0C0,4.17,4.17,0,9.31,0l68.74,0c5.14,0,9.31,4.17,9.31,9.31v0
	C87.37,14.46,83.2,18.63,78.05,18.63z"/>
<g>
	<path class="st2" d="M30.45,13.5h-3.51V7.08h3.51v0.41h-3.06v2.43h2.89v0.41h-2.89v2.75h3.06V13.5z"/>
	<path class="st2" d="M37.56,13.5h-0.45l-3.8-5.7h-0.04c0.04,0.68,0.05,1.19,0.05,1.54v4.16h-0.43V7.08h0.45l3.8,5.69h0.03
		c-0.03-0.53-0.04-1.03-0.04-1.5V7.08h0.43V13.5z"/>
	<path class="st2" d="M44.16,7.08h0.49l-2.4,6.42h-0.4l-2.39-6.42h0.48l1.62,4.37c0.25,0.66,0.41,1.15,0.5,1.48
		c0.06-0.22,0.17-0.56,0.35-1.02L44.16,7.08z"/>
	<path class="st2" d="M46.48,6.5c0.21-0.23,0.43-0.48,0.63-0.75c0.21-0.27,0.35-0.48,0.43-0.62h0.62V5.2
		c-0.11,0.15-0.28,0.35-0.54,0.61c-0.25,0.25-0.53,0.51-0.84,0.76h-0.31V6.5z M46.55,13.5V7.08H47v6.42H46.55z"/>
	<path class="st2" d="M52.9,11.24h-2.61l-0.9,2.27h-0.5l2.58-6.45h0.29l2.53,6.45h-0.51L52.9,11.24z M50.45,10.83h2.3l-0.87-2.31
		c-0.07-0.18-0.16-0.43-0.26-0.76c-0.08,0.28-0.17,0.54-0.26,0.76L50.45,10.83z"/>
	<path class="st2" d="M56.64,10.7v2.8h-0.45V7.08h1.53c0.8,0,1.38,0.15,1.77,0.44c0.38,0.29,0.57,0.74,0.57,1.33
		c0,0.43-0.11,0.79-0.34,1.09c-0.23,0.3-0.57,0.51-1.03,0.64l1.74,2.92h-0.54l-1.66-2.8H56.64z M56.64,10.32h1.23
		c0.54,0,0.96-0.12,1.26-0.36c0.3-0.24,0.45-0.6,0.45-1.07c0-0.49-0.15-0.84-0.44-1.07c-0.29-0.22-0.77-0.33-1.43-0.33h-1.06V10.32z
		"/>
</g>
</svg>
