<?xml version="1.0" encoding="utf-8"?>
<!-- Generator: Adobe Illustrator 23.0.1, SVG Export Plug-In . SVG Version: 6.00 Build 0)  -->
<svg version="1.1" id="Layer_1" xmlns="http://www.w3.org/2000/svg" xmlns:xlink="http://www.w3.org/1999/xlink" x="0px" y="0px"
	 viewBox="0 0 25 25" style="enable-background:new 0 0 25 25;" xml:space="preserve">
<style type="text/css">
	.st0{fill:#154C5E;}
	.st1{fill:#B7625E;}
	.st2{fill:#ECECE6;}
	.st3{opacity:0.27;fill:#F1A899;}
	.st4{fill:none;}
	.st5{fill:#F1A899;}
	.st6{fill-rule:evenodd;clip-rule:evenodd;fill:#154C5E;}
	.st7{opacity:0.41;fill:#F1A899;}
	.st8{fill:#F4CD87;}
	.st9{fill:none;stroke:#154C5E;stroke-miterlimit:10;}
	.st10{opacity:0.24;fill:#B7625E;}
</style>
<path class="st0" d="M21.58,12.25c-0.07,0.01-0.15,0.03-0.22,0.04c-0.07,0.01-0.14,0.02-0.21,0.02c-0.02,0-0.03,0-0.05,0
	s-0.03,0-0.05,0c-0.03,0-0.07,0-0.1,0c-0.03,0-0.07,0-0.1-0.01c-0.03,0-0.07-0.01-0.1-0.01c-0.07-0.01-0.14-0.02-0.2-0.04
	c-0.06-0.02-0.13-0.04-0.2-0.07c-0.07-0.03-0.15-0.05-0.22-0.07c-0.08-0.02-0.16-0.04-0.24-0.05c-0.04-0.01-0.08-0.01-0.12-0.01
	c-0.04,0-0.08-0.01-0.12-0.01c-0.04,0-0.08,0-0.12,0c-0.02,0-0.04,0-0.06,0c-0.02,0-0.04,0-0.06,0c-0.08,0-0.17,0.02-0.25,0.03
	c-0.08,0.01-0.15,0.03-0.21,0.04c-0.06,0.01-0.12,0.01-0.18,0.01h-0.02l-0.02,0l-0.05,0l-0.1-0.01c-0.03,0-0.06-0.01-0.1-0.01
	l-0.05-0.01l-0.02,0l-0.02,0c-0.06-0.01-0.11-0.03-0.17-0.05c-0.01,0-0.03-0.01-0.04-0.02l-0.05-0.02l-0.05-0.02
	c-0.02-0.01-0.04-0.01-0.06-0.02c-0.08-0.03-0.17-0.05-0.26-0.07c-0.02,0-0.04-0.01-0.07-0.01c-0.02,0-0.04-0.01-0.06-0.01
	l-0.06-0.01l-0.03,0l-0.03,0c-0.04,0-0.08-0.01-0.12-0.01l-0.06,0c-0.02,0-0.04,0-0.06,0c-0.09,0-0.18,0-0.27,0.01
	c-0.09,0.01-0.19,0.03-0.26,0.04s-0.12,0.02-0.17,0.02c-0.05,0-0.1,0-0.16,0c-0.01,0-0.03,0-0.04,0l-0.04,0
	c-0.03,0-0.06-0.01-0.09-0.01l-0.02,0l-0.02,0l-0.04-0.01c-0.01,0-0.03-0.01-0.04-0.01c-0.01,0-0.03-0.01-0.04-0.01
	c-0.05-0.01-0.09-0.03-0.15-0.05l-0.05-0.02c-0.01-0.01-0.03-0.01-0.05-0.02c-0.02-0.01-0.04-0.01-0.06-0.02
	c-0.01,0-0.02-0.01-0.03-0.01l-0.03-0.01c-0.05-0.01-0.11-0.02-0.16-0.04l0.02-0.02c0.02-0.02,0.04-0.03,0.11-0.05l0.06-0.01l0.04,0
	l0.02,0l0.02,0c0.01,0,0.03,0,0.04-0.01l0.04-0.01c0.03-0.01,0.06-0.02,0.08-0.02c0.03-0.01,0.05-0.02,0.08-0.03
	c0.01,0,0.03-0.01,0.04-0.02l0.03-0.02c0.05-0.02,0.09-0.05,0.13-0.08c0.08-0.06,0.16-0.12,0.24-0.2c0.02-0.02,0.04-0.04,0.05-0.06
	l0.03-0.03c0.01-0.01,0.02-0.02,0.02-0.03l0.01-0.02c0,0,0.01-0.01,0.01-0.02l0.02-0.03c0-0.01,0.01-0.01,0.01-0.02l0.01-0.01
	l0.01-0.03c0.04-0.07,0.05-0.11,0.08-0.15c0.02-0.04,0.06-0.08,0.11-0.12c0.05-0.04,0.09-0.07,0.14-0.09
	c0.05-0.02,0.09-0.04,0.17-0.05c0.04-0.01,0.08-0.01,0.12-0.02c0.01,0,0.02,0,0.03-0.01l0.03-0.01c0.02-0.01,0.04-0.01,0.06-0.02
	c0.08-0.03,0.16-0.08,0.22-0.12c0.07-0.05,0.13-0.1,0.19-0.17c0.01-0.02,0.03-0.03,0.04-0.05l0.02-0.03
	c0.01-0.01,0.01-0.02,0.02-0.03c0.02-0.04,0.04-0.07,0.06-0.11C18,9.9,18.03,9.84,18.08,9.78c0.05-0.06,0.1-0.11,0.16-0.15
	c-0.07,0.02-0.14,0.04-0.21,0.08C18.01,9.73,18,9.74,17.98,9.75l-0.02,0.02c-0.01,0.01-0.02,0.01-0.02,0.02
	c-0.03,0.02-0.06,0.05-0.09,0.08c-0.06,0.05-0.11,0.09-0.17,0.12c-0.06,0.03-0.12,0.05-0.18,0.07c-0.07,0.01-0.13,0.02-0.19,0.02
	c-0.06,0-0.11-0.01-0.19-0.03l-0.03-0.01c-0.01,0-0.02,0-0.03,0l-0.03,0c-0.01,0-0.02,0-0.03,0c-0.01,0-0.02,0-0.04,0l-0.04,0
	c-0.02,0-0.05,0-0.07,0c-0.1,0.01-0.19,0.03-0.28,0.05c-0.09,0.03-0.17,0.06-0.26,0.12c-0.02,0.01-0.04,0.03-0.06,0.04l-0.03,0.02
	c-0.01,0.01-0.02,0.02-0.03,0.02c-0.01,0.01-0.02,0.02-0.03,0.02l-0.03,0.02l-0.05,0.04c-0.06,0.05-0.09,0.06-0.12,0.08
	c-0.04,0.01-0.08,0.02-0.13,0.03c-0.05,0.01-0.1,0.01-0.13,0c-0.03-0.01-0.06-0.02-0.13-0.03l-0.03-0.01l0,0
	c0,0,0.01-0.01,0.01-0.01l0.04-0.05l0.02-0.02l0.02-0.03c0.03-0.03,0.06-0.07,0.08-0.1l0.04-0.05c0.01-0.02,0.03-0.04,0.04-0.05
	c0.05-0.07,0.1-0.15,0.15-0.24c0.05-0.08,0.08-0.17,0.11-0.24c0.03-0.07,0.05-0.12,0.07-0.17c0.02-0.05,0.05-0.1,0.08-0.15
	c0.01-0.01,0.01-0.03,0.02-0.04l0.03-0.04c0.02-0.03,0.04-0.05,0.06-0.08l0.01-0.02l0.01-0.02l0.03-0.04
	c0.01-0.01,0.02-0.02,0.03-0.03c0.01-0.01,0.02-0.02,0.03-0.03c0.04-0.04,0.08-0.08,0.13-0.12c0.01-0.01,0.03-0.02,0.04-0.03
	l0.04-0.03l0.05-0.04c0.02-0.01,0.03-0.03,0.05-0.04c0.07-0.06,0.14-0.12,0.19-0.18l0.02-0.02l0.02-0.02l0.04-0.05
	c0.03-0.03,0.05-0.06,0.08-0.1c0.02-0.03,0.05-0.06,0.07-0.1l0.04-0.05l0.02-0.03l0.02-0.03c0.05-0.07,0.09-0.15,0.12-0.23
	c0.04-0.08,0.06-0.15,0.09-0.22c0.03-0.06,0.05-0.12,0.08-0.18c0.01-0.01,0.02-0.03,0.02-0.04c0.01-0.01,0.02-0.03,0.03-0.04
	c0.02-0.03,0.03-0.06,0.06-0.08c0.02-0.03,0.04-0.06,0.06-0.08l0.03-0.04c0.01-0.01,0.02-0.03,0.03-0.04
	c0.04-0.05,0.09-0.1,0.13-0.14c0.05-0.05,0.1-0.09,0.16-0.13c0.06-0.04,0.12-0.09,0.18-0.15c0.06-0.05,0.11-0.11,0.16-0.17
	c0.02-0.03,0.05-0.06,0.07-0.09c0.02-0.03,0.05-0.06,0.07-0.09c0.02-0.03,0.04-0.06,0.06-0.09c0.01-0.02,0.02-0.03,0.03-0.05
	c0.01-0.02,0.02-0.03,0.03-0.05c0.04-0.07,0.07-0.14,0.1-0.21c0.03-0.07,0.05-0.14,0.08-0.21c0.06-0.13,0.14-0.26,0.23-0.37
	c-0.11,0.1-0.22,0.2-0.31,0.32c-0.04,0.06-0.08,0.12-0.13,0.18c-0.04,0.06-0.08,0.12-0.13,0.17c-0.01,0.01-0.02,0.02-0.04,0.04
	c-0.01,0.01-0.02,0.02-0.04,0.04c-0.03,0.02-0.05,0.05-0.08,0.07c-0.03,0.02-0.05,0.05-0.08,0.07c-0.03,0.02-0.05,0.04-0.08,0.06
	C18.12,6.48,18.06,6.52,18,6.55c-0.06,0.03-0.12,0.06-0.19,0.09c-0.07,0.03-0.14,0.07-0.21,0.11c-0.07,0.04-0.14,0.09-0.2,0.14
	c-0.03,0.02-0.06,0.05-0.09,0.07c-0.03,0.02-0.06,0.05-0.09,0.08c-0.03,0.03-0.06,0.05-0.09,0.08c-0.01,0.01-0.03,0.03-0.04,0.04
	c-0.01,0.01-0.03,0.03-0.04,0.05C17,7.28,16.94,7.35,16.9,7.42c-0.05,0.07-0.08,0.12-0.12,0.17c-0.04,0.05-0.08,0.09-0.12,0.14
	l-0.02,0.02l-0.02,0.02l-0.03,0.03l-0.07,0.06c-0.03,0.02-0.05,0.04-0.08,0.06L16.4,7.95l-0.02,0.01l-0.02,0.01
	c-0.05,0.03-0.1,0.06-0.15,0.09c-0.01,0.01-0.03,0.01-0.04,0.02L16.12,8.1l-0.05,0.02c-0.02,0.01-0.03,0.02-0.05,0.03
	c-0.07,0.04-0.16,0.08-0.23,0.13c-0.02,0.01-0.04,0.02-0.05,0.04c-0.02,0.01-0.04,0.03-0.05,0.04L15.63,8.4L15.6,8.42l-0.02,0.02
	c-0.03,0.03-0.06,0.05-0.09,0.08l-0.05,0.04c-0.01,0.01-0.03,0.03-0.05,0.04c-0.06,0.06-0.12,0.13-0.18,0.2
	c-0.06,0.07-0.11,0.15-0.15,0.22c-0.04,0.06-0.07,0.1-0.11,0.14c-0.03,0.04-0.07,0.07-0.11,0.11c-0.01,0.01-0.02,0.02-0.03,0.03
	l-0.03,0.03c-0.02,0.02-0.05,0.04-0.07,0.06l-0.02,0.01l-0.02,0.01l-0.03,0.02c-0.01,0.01-0.02,0.01-0.03,0.02
	c-0.01,0.01-0.02,0.01-0.03,0.02c-0.04,0.03-0.08,0.04-0.14,0.07l-0.04,0.02c-0.01,0.01-0.03,0.02-0.05,0.02
	c-0.02,0.01-0.04,0.02-0.06,0.03c-0.01,0.01-0.02,0.01-0.03,0.02l-0.03,0.02c-0.05,0.03-0.09,0.06-0.14,0.09l0-0.03
	c0-0.03,0-0.05,0.04-0.11l0.04-0.05l0.02-0.03l0.01-0.02l0.01-0.02c0.01-0.01,0.02-0.02,0.02-0.04l0.02-0.04
	c0.02-0.02,0.03-0.05,0.04-0.08c0.01-0.03,0.02-0.05,0.03-0.08c0-0.01,0.01-0.03,0.01-0.04l0.01-0.04c0.02-0.05,0.03-0.1,0.04-0.15
	c0.02-0.1,0.03-0.2,0.03-0.32c0-0.03,0-0.06,0-0.08l0-0.04c0-0.01,0-0.03-0.01-0.04l0-0.02c0-0.01,0-0.01,0-0.02l-0.01-0.04
	c0-0.01,0-0.01,0-0.02l0-0.01l-0.01-0.03c-0.02-0.07-0.04-0.11-0.05-0.16c-0.01-0.05-0.01-0.1,0-0.16c0.01-0.06,0.02-0.12,0.03-0.17
	c0.01-0.05,0.04-0.1,0.08-0.16c0.02-0.03,0.05-0.06,0.07-0.1c0.01-0.01,0.01-0.02,0.02-0.03l0.02-0.03
	c0.01-0.02,0.02-0.04,0.03-0.06c0.04-0.08,0.06-0.17,0.07-0.25c0.01-0.08,0.02-0.17,0.01-0.25c0-0.02,0-0.04-0.01-0.06l0-0.03
	c0-0.01,0-0.02-0.01-0.03c-0.01-0.04-0.02-0.08-0.03-0.12c-0.02-0.07-0.04-0.14-0.05-0.22c-0.01-0.07,0-0.15,0.01-0.22
	c-0.04,0.07-0.07,0.13-0.09,0.21c0,0.02-0.01,0.04-0.01,0.06l-0.01,0.03c0,0.01,0,0.02,0,0.03c0,0.04-0.01,0.08-0.01,0.12
	c0,0.08-0.01,0.14-0.03,0.2c-0.02,0.06-0.05,0.12-0.08,0.18c-0.04,0.06-0.07,0.11-0.12,0.15c-0.04,0.04-0.09,0.07-0.15,0.11
	l-0.02,0.02C14.01,7.47,14.01,7.48,14,7.48L13.97,7.5c-0.01,0.01-0.02,0.02-0.03,0.02c-0.01,0.01-0.02,0.01-0.03,0.02l-0.03,0.03
	c-0.02,0.02-0.03,0.04-0.05,0.05c-0.06,0.07-0.12,0.16-0.16,0.23c-0.04,0.08-0.08,0.17-0.1,0.27c0,0.03-0.01,0.05-0.01,0.08l0,0.04
	c0,0.01,0,0.03,0,0.04c0,0.01,0,0.03,0,0.04l0,0.04l0,0.06c0,0.07-0.02,0.11-0.03,0.14c-0.02,0.03-0.04,0.07-0.07,0.12
	c-0.03,0.04-0.06,0.08-0.09,0.09c-0.03,0.02-0.05,0.03-0.12,0.07L13.2,8.87l0,0c0-0.01,0-0.01,0-0.02l0-0.07l0-0.03l0-0.03
	c0-0.04-0.01-0.09-0.01-0.13l-0.01-0.06c0-0.02-0.01-0.04-0.01-0.07c-0.01-0.09-0.04-0.18-0.06-0.27C13.07,8.1,13.03,8.01,13,7.94
	c-0.03-0.07-0.05-0.12-0.07-0.17c-0.02-0.05-0.03-0.1-0.05-0.16c0-0.01-0.01-0.03-0.01-0.04l-0.01-0.05
	c-0.01-0.03-0.01-0.06-0.01-0.09l0-0.02l0-0.02l0-0.04c0-0.02,0-0.03,0-0.04c0-0.01,0-0.03,0-0.04c0-0.06,0-0.11,0.01-0.18
	c0-0.01,0-0.03,0.01-0.05l0.01-0.06l0.01-0.06c0-0.02,0-0.04,0.01-0.06c0.01-0.09,0.01-0.18,0.01-0.26l0-0.03l0-0.03l0-0.06
	c0-0.04-0.01-0.08-0.01-0.12c-0.01-0.04-0.01-0.08-0.02-0.12l-0.01-0.06l0-0.03l-0.01-0.03c-0.02-0.08-0.04-0.17-0.07-0.25
	c-0.03-0.08-0.06-0.15-0.09-0.22c-0.03-0.06-0.05-0.12-0.07-0.18c0-0.01-0.01-0.03-0.01-0.05c0-0.02-0.01-0.03-0.01-0.05
	c-0.01-0.03-0.01-0.06-0.02-0.1c-0.01-0.03-0.01-0.07-0.01-0.1l-0.01-0.05c0-0.02,0-0.03,0-0.05c-0.01-0.07-0.01-0.13-0.01-0.2
	c0-0.07,0.01-0.13,0.02-0.21c0.01-0.07,0.02-0.15,0.02-0.23c0-0.08,0-0.16,0-0.24c0-0.04-0.01-0.08-0.01-0.12
	c0-0.04-0.01-0.08-0.02-0.11c0-0.04-0.01-0.08-0.02-0.11c0-0.02-0.01-0.04-0.01-0.06c0-0.02-0.01-0.04-0.01-0.06
	c-0.02-0.07-0.05-0.15-0.07-0.22c-0.03-0.07-0.06-0.14-0.08-0.21c-0.05-0.14-0.08-0.28-0.1-0.43c-0.01,0.15-0.01,0.3,0.01,0.45
	c0.01,0.07,0.03,0.15,0.04,0.22c0.01,0.07,0.02,0.14,0.02,0.21c0,0.02,0,0.03,0,0.05c0,0.02,0,0.03,0,0.05c0,0.04,0,0.07,0,0.11
	c0,0.04,0,0.07-0.01,0.11c0,0.03-0.01,0.07-0.01,0.1c-0.01,0.07-0.02,0.14-0.04,0.2c-0.02,0.07-0.04,0.13-0.07,0.2
	c-0.03,0.07-0.05,0.15-0.07,0.23c-0.02,0.08-0.04,0.16-0.05,0.24c-0.01,0.04-0.01,0.08-0.01,0.12c0,0.04-0.01,0.08-0.01,0.12
	c0,0.04,0,0.08,0,0.12c0,0.02,0,0.04,0,0.06c0,0.02,0,0.04,0,0.06c0,0.08,0.02,0.17,0.03,0.25c0.01,0.08,0.03,0.15,0.04,0.21
	c0.01,0.06,0.01,0.12,0.01,0.19l0,0.02l0,0.02l0,0.05l-0.01,0.1c0,0.03-0.01,0.07-0.01,0.1l-0.01,0.05l0,0.02l0,0.02
	c-0.01,0.06-0.03,0.12-0.05,0.17c0,0.01-0.01,0.03-0.01,0.04L12,6.79l-0.02,0.05c-0.01,0.02-0.01,0.04-0.02,0.06
	c-0.03,0.08-0.05,0.17-0.07,0.26c0,0.02-0.01,0.04-0.01,0.07c0,0.02-0.01,0.04-0.01,0.07l-0.01,0.06l0,0.03l0,0.03
	c0,0.04-0.01,0.08-0.01,0.13l0,0.06c0,0.02,0,0.04,0,0.07c0,0.09,0,0.18,0.01,0.27c0.01,0.09,0.03,0.19,0.04,0.26
	c0.01,0.07,0.02,0.12,0.02,0.18c0,0.05,0,0.1,0,0.16c0,0.01,0,0.03,0,0.04l0,0.04c0,0.03-0.01,0.06-0.01,0.09l0,0.02l0,0.02
	l-0.01,0.04c0,0.01-0.01,0.03-0.01,0.04c0,0.01,0,0.03-0.01,0.04c-0.01,0.05-0.03,0.09-0.05,0.15l-0.02,0.05
	c-0.01,0.01-0.01,0.04-0.02,0.05c-0.01,0.02-0.01,0.04-0.02,0.06c0,0.01-0.01,0.02-0.01,0.03l-0.01,0.03
	c-0.01,0.05-0.02,0.11-0.03,0.16l-0.02-0.02c-0.02-0.02-0.03-0.04-0.05-0.11l-0.01-0.07L11.61,9.2l0-0.02l0-0.02
	c0-0.01,0-0.03-0.01-0.04l-0.01-0.04c-0.01-0.03-0.02-0.06-0.02-0.09c-0.01-0.03-0.02-0.05-0.03-0.08c0-0.01-0.01-0.03-0.02-0.04
	L11.5,8.83c-0.02-0.05-0.05-0.09-0.08-0.13c-0.05-0.08-0.12-0.16-0.2-0.24c-0.02-0.02-0.04-0.04-0.06-0.06l-0.03-0.03
	c-0.01-0.01-0.02-0.02-0.03-0.02l-0.02-0.01c0,0-0.01-0.01-0.02-0.01L11.03,8.3c0,0-0.01-0.01-0.01-0.01L11,8.29l-0.03-0.02
	c-0.07-0.04-0.1-0.05-0.14-0.08c-0.04-0.03-0.08-0.06-0.12-0.11c-0.04-0.05-0.07-0.09-0.09-0.14c-0.02-0.05-0.04-0.09-0.05-0.17
	c-0.01-0.04-0.01-0.08-0.02-0.13c0-0.01,0-0.02-0.01-0.03l-0.01-0.03c-0.01-0.02-0.01-0.04-0.02-0.07
	c-0.03-0.09-0.08-0.16-0.12-0.23c-0.05-0.07-0.1-0.13-0.17-0.19c-0.02-0.01-0.03-0.03-0.05-0.04l-0.03-0.02
	c-0.01-0.01-0.02-0.01-0.03-0.02C10.08,7,10.05,6.98,10.01,6.96C9.94,6.92,9.88,6.89,9.82,6.84c-0.06-0.05-0.1-0.1-0.15-0.16
	c0.02,0.07,0.04,0.14,0.08,0.21c0.01,0.02,0.02,0.03,0.03,0.05L9.8,6.97c0.01,0.01,0.01,0.02,0.02,0.02
	C9.85,7.02,9.87,7.05,9.9,7.08c0.05,0.06,0.09,0.11,0.12,0.17c0.03,0.06,0.05,0.12,0.06,0.19C10.1,7.5,10.1,7.57,10.1,7.63
	c0,0.06-0.01,0.12-0.03,0.19l-0.01,0.03c0,0.01,0,0.02,0,0.03l0,0.03c0,0.01,0,0.02,0,0.04c0,0.01,0,0.02,0,0.04l0,0.04
	c0,0.02,0,0.05,0,0.07c0.01,0.1,0.03,0.19,0.05,0.28c0.03,0.09,0.06,0.18,0.12,0.27c0.01,0.02,0.03,0.04,0.04,0.07l0.02,0.03
	c0.01,0.01,0.02,0.02,0.02,0.03c0.01,0.01,0.02,0.02,0.02,0.03l0.02,0.03l0.04,0.05c0.05,0.06,0.06,0.09,0.08,0.13
	c0.01,0.04,0.02,0.08,0.03,0.13c0.01,0.05,0.01,0.1,0,0.13C10.5,9.3,10.49,9.32,10.48,9.4l-0.01,0.03l0,0c0,0-0.01-0.01-0.01-0.01
	l-0.05-0.05l-0.02-0.02l-0.03-0.02c-0.03-0.03-0.07-0.06-0.1-0.08L10.2,9.21c-0.02-0.01-0.04-0.03-0.05-0.04
	C10.08,9.12,10,9.07,9.92,9.03C9.83,8.98,9.74,8.94,9.68,8.91C9.61,8.88,9.56,8.87,9.51,8.84C9.46,8.82,9.41,8.8,9.36,8.76
	C9.35,8.75,9.34,8.75,9.32,8.74L9.29,8.71C9.26,8.69,9.24,8.67,9.21,8.65L9.19,8.64L9.18,8.62L9.14,8.6
	C9.13,8.59,9.12,8.58,9.11,8.57C9.1,8.56,9.09,8.55,9.08,8.54C9.03,8.5,9,8.46,8.96,8.41C8.95,8.4,8.94,8.38,8.93,8.37L8.89,8.32
	L8.86,8.27C8.85,8.26,8.83,8.24,8.82,8.22C8.76,8.15,8.7,8.09,8.64,8.03L8.62,8.01L8.6,7.98L8.55,7.94
	C8.52,7.92,8.49,7.89,8.46,7.86c-0.03-0.02-0.06-0.05-0.1-0.07L8.31,7.76L8.28,7.74L8.25,7.72C8.18,7.67,8.11,7.63,8.03,7.59
	C7.95,7.56,7.88,7.53,7.82,7.5C7.76,7.48,7.7,7.45,7.65,7.42C7.63,7.41,7.62,7.41,7.6,7.4C7.59,7.39,7.58,7.38,7.56,7.37
	C7.54,7.35,7.51,7.34,7.48,7.32C7.45,7.3,7.43,7.28,7.4,7.25L7.36,7.22C7.35,7.21,7.33,7.2,7.32,7.19C7.27,7.15,7.22,7.1,7.18,7.05
	C7.13,7.01,7.09,6.95,7.05,6.9C7,6.84,6.96,6.77,6.9,6.71C6.85,6.65,6.79,6.6,6.74,6.55C6.71,6.52,6.68,6.5,6.65,6.47
	C6.62,6.45,6.59,6.43,6.56,6.4C6.53,6.38,6.5,6.36,6.47,6.34C6.45,6.33,6.43,6.32,6.42,6.31C6.4,6.3,6.38,6.29,6.37,6.28
	C6.3,6.24,6.23,6.2,6.16,6.17c-0.07-0.03-0.14-0.05-0.2-0.08C5.83,6.03,5.71,5.95,5.59,5.86c0.09,0.11,0.2,0.22,0.32,0.31
	C5.97,6.22,6.03,6.26,6.09,6.3C6.15,6.34,6.2,6.38,6.25,6.43c0.01,0.01,0.03,0.02,0.04,0.04C6.3,6.48,6.31,6.49,6.33,6.5
	C6.35,6.53,6.37,6.56,6.4,6.58c0.02,0.03,0.05,0.05,0.07,0.08c0.02,0.03,0.04,0.05,0.06,0.08C6.57,6.8,6.61,6.86,6.64,6.92
	C6.67,6.98,6.7,7.04,6.73,7.11C6.76,7.18,6.8,7.25,6.84,7.33c0.04,0.07,0.09,0.14,0.14,0.2C7,7.56,7.02,7.59,7.05,7.62
	C7.07,7.65,7.1,7.68,7.12,7.71C7.15,7.74,7.18,7.77,7.21,7.8c0.01,0.01,0.03,0.03,0.04,0.04c0.01,0.01,0.03,0.03,0.04,0.04
	c0.06,0.06,0.13,0.11,0.2,0.15c0.07,0.05,0.12,0.08,0.17,0.12C7.71,8.2,7.75,8.24,7.8,8.28L7.81,8.3l0.02,0.02l0.03,0.04l0.06,0.07
	c0.02,0.03,0.04,0.05,0.06,0.08l0.03,0.04l0.01,0.02l0.01,0.02c0.03,0.05,0.06,0.1,0.09,0.16c0.01,0.01,0.01,0.03,0.02,0.04
	l0.02,0.05l0.02,0.05C8.2,8.9,8.2,8.91,8.21,8.93C8.25,9.01,8.3,9.09,8.35,9.17C8.36,9.19,8.37,9.2,8.38,9.22
	C8.4,9.24,8.41,9.26,8.42,9.28l0.04,0.05l0.02,0.03L8.5,9.38c0.03,0.03,0.05,0.07,0.08,0.1l0.04,0.05c0.01,0.02,0.03,0.03,0.04,0.05
	c0.06,0.06,0.13,0.12,0.2,0.18c0.07,0.06,0.15,0.11,0.21,0.15c0.06,0.04,0.1,0.07,0.14,0.11c0.04,0.04,0.07,0.07,0.11,0.12
	c0.01,0.01,0.02,0.02,0.03,0.03l0.03,0.03c0.02,0.02,0.04,0.05,0.06,0.07l0.01,0.02l0.01,0.02l0.02,0.03
	c0.01,0.01,0.01,0.02,0.02,0.03c0.01,0.01,0.01,0.02,0.02,0.03c0.03,0.04,0.04,0.08,0.07,0.14l0.02,0.04
	c0.01,0.01,0.02,0.03,0.02,0.05c0.01,0.02,0.02,0.04,0.03,0.06c0,0.01,0.01,0.02,0.02,0.03l0.02,0.03c0.03,0.05,0.06,0.09,0.09,0.14
	l-0.03,0c-0.03,0-0.05,0-0.11-0.04L9.6,10.82L9.57,10.8l-0.02-0.01l-0.02-0.01c-0.01-0.01-0.02-0.02-0.03-0.02l-0.04-0.02
	c-0.02-0.02-0.05-0.03-0.08-0.04c-0.03-0.01-0.05-0.02-0.08-0.04c-0.01,0-0.03-0.01-0.04-0.01l-0.04-0.01
	c-0.05-0.02-0.1-0.03-0.15-0.04c-0.1-0.02-0.2-0.03-0.31-0.03c-0.03,0-0.06,0-0.08,0l-0.04,0c-0.01,0-0.03,0-0.04,0.01l-0.02,0
	c-0.01,0-0.01,0-0.02,0l-0.04,0.01c-0.01,0-0.01,0-0.02,0l-0.01,0l-0.03,0.01c-0.07,0.02-0.11,0.04-0.16,0.05
	c-0.04,0.01-0.1,0.01-0.16,0.01c-0.06-0.01-0.11-0.02-0.16-0.03c-0.05-0.01-0.09-0.04-0.15-0.08c-0.03-0.02-0.06-0.05-0.1-0.07
	c-0.01-0.01-0.02-0.01-0.03-0.02l-0.03-0.02c-0.02-0.01-0.04-0.02-0.06-0.03c-0.08-0.04-0.17-0.06-0.25-0.07
	c-0.08-0.01-0.16-0.02-0.25-0.01c-0.02,0-0.04,0-0.06,0.01l-0.03,0c-0.01,0-0.02,0-0.03,0.01c-0.04,0.01-0.08,0.02-0.12,0.03
	c-0.07,0.02-0.14,0.04-0.21,0.05c-0.07,0.01-0.15,0-0.22-0.01c0.06,0.04,0.13,0.07,0.21,0.09c0.02,0,0.04,0.01,0.06,0.01l0.03,0.01
	c0.01,0,0.02,0,0.03,0c0.04,0,0.08,0.01,0.12,0.01c0.07,0,0.14,0.01,0.2,0.03c0.06,0.02,0.12,0.05,0.18,0.08
	c0.06,0.04,0.11,0.08,0.15,0.12c0.04,0.04,0.07,0.09,0.11,0.16l0.02,0.03c0.01,0.01,0.01,0.02,0.02,0.03l0.02,0.03
	c0.01,0.01,0.01,0.02,0.02,0.03c0.01,0.01,0.01,0.02,0.02,0.03l0.03,0.03c0.02,0.02,0.03,0.03,0.05,0.05
	c0.07,0.07,0.15,0.12,0.23,0.16c0.08,0.04,0.17,0.08,0.27,0.11c0.02,0.01,0.05,0.01,0.08,0.02l0.04,0c0.01,0,0.02,0,0.04,0
	c0.01,0,0.03,0,0.04,0l0.03,0l0.06,0c0.07,0,0.11,0.02,0.14,0.03c0.03,0.02,0.07,0.04,0.12,0.07c0.04,0.03,0.07,0.06,0.09,0.09
	c0.02,0.03,0.02,0.05,0.07,0.12l0.02,0.03l0,0c-0.01,0-0.01,0-0.02,0l-0.07,0l-0.03,0l-0.03,0c-0.04,0-0.09,0.01-0.13,0.01
	l-0.06,0.01c-0.02,0-0.04,0.01-0.07,0.01c-0.09,0.01-0.18,0.04-0.27,0.06C8.16,11.92,8.07,11.96,8,11.99
	c-0.07,0.03-0.12,0.05-0.17,0.07c-0.05,0.02-0.1,0.03-0.16,0.05c-0.01,0-0.03,0.01-0.04,0.01l-0.05,0.01
	c-0.03,0.01-0.06,0.01-0.09,0.01l-0.02,0l-0.02,0l-0.04,0c-0.01,0-0.03,0-0.04,0c-0.01,0-0.03,0-0.04,0c-0.06,0-0.11,0-0.17-0.01
	c-0.01,0-0.03,0-0.05-0.01l-0.05-0.01l-0.06-0.01c-0.02,0-0.04,0-0.06-0.01c-0.09-0.01-0.18-0.01-0.26-0.01l-0.03,0l-0.03,0l-0.06,0
	c-0.04,0-0.08,0.01-0.12,0.01c-0.04,0.01-0.08,0.01-0.12,0.02l-0.06,0.01L6.2,12.16l-0.03,0.01C6.08,12.18,6,12.21,5.92,12.24
	c-0.08,0.03-0.15,0.06-0.21,0.09c-0.06,0.03-0.12,0.05-0.18,0.07c-0.01,0-0.03,0.01-0.05,0.01c-0.02,0-0.03,0.01-0.05,0.01
	c-0.03,0.01-0.06,0.01-0.1,0.02c-0.03,0-0.07,0.01-0.1,0.01l-0.05,0.01c-0.02,0-0.03,0-0.05,0c-0.07,0.01-0.13,0.01-0.2,0.01
	c-0.06,0-0.13-0.01-0.2-0.02c-0.07-0.01-0.15-0.02-0.23-0.03c-0.08,0-0.16,0-0.23,0c-0.04,0-0.08,0.01-0.11,0.01
	c-0.04,0-0.07,0.01-0.11,0.02c-0.04,0-0.07,0.01-0.11,0.02c-0.02,0-0.04,0.01-0.06,0.01c-0.02,0-0.04,0.01-0.06,0.01
	c-0.07,0.02-0.15,0.05-0.22,0.08c-0.07,0.03-0.14,0.06-0.2,0.08c-0.13,0.05-0.28,0.08-0.42,0.1c0.15,0.01,0.29,0.01,0.44-0.01
	c0.07-0.01,0.15-0.03,0.22-0.04c0.07-0.01,0.14-0.02,0.21-0.02c0.02,0,0.03,0,0.05,0c0.02,0,0.03,0,0.05,0c0.03,0,0.07,0,0.1,0
	c0.03,0,0.07,0,0.1,0.01c0.03,0,0.07,0.01,0.1,0.01c0.07,0.01,0.13,0.02,0.2,0.04c0.07,0.02,0.13,0.04,0.2,0.07
	c0.07,0.03,0.15,0.05,0.22,0.07c0.08,0.02,0.16,0.04,0.24,0.05c0.04,0.01,0.08,0.01,0.12,0.01c0.04,0,0.08,0.01,0.12,0.01
	c0.04,0,0.08,0,0.12,0c0.02,0,0.04,0,0.06,0c0.02,0,0.04,0,0.06,0c0.08,0,0.17-0.02,0.25-0.03c0.08-0.01,0.15-0.03,0.21-0.04
	c0.06-0.01,0.12-0.01,0.18-0.01h0.02l0.02,0l0.05,0l0.1,0.01c0.03,0,0.06,0.01,0.1,0.01l0.05,0.01l0.02,0l0.02,0
	c0.06,0.01,0.11,0.03,0.17,0.05c0.01,0,0.03,0.01,0.04,0.02l0.05,0.02l0.05,0.02c0.02,0.01,0.04,0.01,0.06,0.02
	c0.08,0.03,0.17,0.05,0.26,0.07c0.02,0,0.04,0.01,0.07,0.01c0.02,0,0.04,0.01,0.06,0.01l0.06,0.01l0.03,0l0.03,0
	c0.04,0,0.08,0.01,0.12,0.01l0.06,0c0.02,0,0.04,0,0.06,0c0.09,0,0.18,0,0.27-0.01c0.09-0.01,0.19-0.03,0.26-0.04
	S8.4,13.1,8.45,13.1c0.05,0,0.1,0,0.16,0c0.01,0,0.03,0,0.04,0l0.04,0c0.03,0,0.06,0.01,0.09,0.01l0.02,0l0.02,0l0.04,0.01
	c0.01,0,0.03,0.01,0.04,0.01c0.01,0,0.03,0,0.04,0.01c0.05,0.01,0.09,0.03,0.15,0.05l0.04,0.02c0.01,0.01,0.03,0.01,0.05,0.02
	c0.02,0.01,0.04,0.01,0.06,0.02c0.01,0,0.02,0.01,0.03,0.01l0.03,0.01c0.05,0.01,0.11,0.02,0.16,0.04l-0.02,0.02
	c-0.02,0.02-0.03,0.03-0.11,0.05l-0.06,0.01L9.24,13.4l-0.02,0l-0.02,0c-0.01,0-0.03,0-0.04,0.01l-0.04,0.01
	c-0.03,0.01-0.06,0.02-0.08,0.02C9,13.46,8.98,13.47,8.95,13.48c-0.01,0.01-0.03,0.01-0.04,0.02l-0.03,0.02
	c-0.05,0.02-0.09,0.05-0.13,0.08c-0.08,0.05-0.16,0.12-0.24,0.2c-0.02,0.02-0.04,0.04-0.05,0.06l-0.03,0.03
	c-0.01,0.01-0.01,0.02-0.02,0.03l-0.01,0.02c0,0.01-0.01,0.01-0.01,0.02l-0.02,0.03c0,0-0.01,0.01-0.01,0.02l-0.01,0.01l-0.01,0.03
	c-0.04,0.07-0.05,0.11-0.08,0.15c-0.02,0.04-0.06,0.08-0.11,0.12c-0.05,0.04-0.09,0.07-0.14,0.09c-0.05,0.02-0.09,0.04-0.17,0.05
	c-0.04,0.01-0.08,0.01-0.12,0.02c-0.01,0-0.02,0-0.03,0.01L7.65,14.5c-0.02,0.01-0.04,0.01-0.06,0.02
	c-0.08,0.03-0.16,0.08-0.22,0.12c-0.07,0.05-0.13,0.1-0.19,0.17c-0.01,0.02-0.03,0.03-0.04,0.05l-0.02,0.03
	C7.11,14.9,7.1,14.91,7.1,14.92c-0.02,0.04-0.04,0.07-0.06,0.11C7,15.09,6.97,15.16,6.92,15.21c-0.05,0.06-0.1,0.11-0.16,0.15
	c0.07-0.02,0.14-0.04,0.21-0.08c0.02-0.01,0.03-0.02,0.05-0.03l0.02-0.02c0.01-0.01,0.02-0.01,0.02-0.02
	c0.03-0.02,0.06-0.05,0.09-0.08c0.06-0.05,0.11-0.09,0.17-0.12c0.06-0.03,0.12-0.05,0.18-0.07c0.06-0.01,0.13-0.02,0.19-0.02
	c0.06,0,0.11,0.01,0.19,0.03l0.03,0.01c0.01,0,0.02,0,0.03,0l0.03,0c0.01,0,0.02,0,0.04,0c0.01,0,0.02,0,0.04,0l0.04,0
	c0.02,0,0.05,0,0.07,0c0.1-0.01,0.19-0.03,0.28-0.05c0.08-0.03,0.17-0.06,0.26-0.12c0.02-0.01,0.04-0.03,0.06-0.04l0.03-0.02
	c0.01-0.01,0.02-0.02,0.03-0.02c0.01-0.01,0.02-0.02,0.03-0.02l0.03-0.02l0.05-0.04c0.06-0.05,0.09-0.06,0.12-0.08
	c0.04-0.01,0.08-0.02,0.13-0.03c0.05-0.01,0.1-0.01,0.13,0c0.03,0.01,0.05,0.02,0.13,0.03l0.03,0.01l0,0c0,0-0.01,0.01-0.01,0.01
	l-0.04,0.05L9.4,14.65l-0.02,0.02c-0.03,0.03-0.06,0.07-0.08,0.1l-0.04,0.05c-0.01,0.02-0.03,0.04-0.04,0.05
	c-0.05,0.07-0.1,0.15-0.15,0.24c-0.05,0.08-0.08,0.17-0.11,0.24c-0.03,0.07-0.04,0.12-0.07,0.17c-0.02,0.05-0.05,0.1-0.08,0.15
	c-0.01,0.01-0.01,0.02-0.02,0.04l-0.03,0.04c-0.02,0.03-0.04,0.05-0.06,0.08l-0.01,0.02l-0.01,0.02l-0.03,0.03
	c-0.01,0.01-0.02,0.02-0.03,0.03c-0.01,0.01-0.02,0.02-0.03,0.03c-0.04,0.04-0.08,0.08-0.13,0.12c-0.01,0.01-0.03,0.02-0.04,0.03
	l-0.04,0.03l-0.05,0.04c-0.02,0.01-0.03,0.03-0.05,0.04c-0.07,0.05-0.14,0.12-0.19,0.18l-0.02,0.02l-0.02,0.02l-0.04,0.05
	c-0.03,0.03-0.05,0.06-0.08,0.1c-0.02,0.03-0.05,0.07-0.07,0.1l-0.03,0.05L7.8,16.78l-0.02,0.03c-0.05,0.07-0.09,0.15-0.12,0.23
	c-0.04,0.08-0.06,0.15-0.09,0.22c-0.03,0.06-0.05,0.12-0.08,0.18c-0.01,0.01-0.02,0.03-0.02,0.04c-0.01,0.01-0.02,0.03-0.02,0.04
	c-0.02,0.03-0.03,0.06-0.06,0.08c-0.02,0.03-0.04,0.06-0.06,0.08L7.3,17.72c-0.01,0.01-0.02,0.03-0.03,0.04
	c-0.04,0.05-0.09,0.1-0.13,0.15c-0.05,0.05-0.1,0.09-0.16,0.13c-0.06,0.04-0.12,0.09-0.18,0.15c-0.06,0.05-0.11,0.11-0.16,0.17
	c-0.03,0.03-0.05,0.06-0.07,0.09c-0.02,0.03-0.05,0.06-0.07,0.09c-0.02,0.03-0.04,0.06-0.06,0.09c-0.01,0.02-0.02,0.03-0.03,0.05
	c-0.01,0.02-0.02,0.03-0.03,0.05c-0.04,0.07-0.07,0.14-0.1,0.21C6.24,19,6.21,19.07,6.18,19.14c-0.06,0.13-0.14,0.26-0.23,0.37
	c0.11-0.09,0.22-0.2,0.31-0.32c0.04-0.06,0.08-0.12,0.13-0.18c0.04-0.06,0.08-0.11,0.13-0.17c0.01-0.01,0.02-0.03,0.04-0.04
	c0.01-0.01,0.02-0.02,0.04-0.04c0.03-0.02,0.05-0.05,0.08-0.07c0.03-0.02,0.05-0.05,0.08-0.07c0.03-0.02,0.05-0.04,0.08-0.07
	c0.06-0.04,0.11-0.08,0.17-0.11c0.06-0.03,0.12-0.06,0.19-0.09c0.07-0.03,0.14-0.07,0.21-0.11c0.07-0.04,0.14-0.09,0.2-0.14
	c0.03-0.02,0.06-0.05,0.09-0.07c0.03-0.02,0.06-0.05,0.09-0.08c0.03-0.03,0.06-0.05,0.09-0.08c0.01-0.01,0.03-0.03,0.04-0.04
	c0.01-0.01,0.03-0.03,0.04-0.05c0.06-0.06,0.11-0.13,0.15-0.2c0.04-0.07,0.08-0.13,0.12-0.17c0.04-0.05,0.08-0.09,0.12-0.14
	l0.02-0.02l0.02-0.02l0.03-0.03l0.07-0.06c0.03-0.02,0.05-0.04,0.08-0.06l0.04-0.03l0.02-0.01l0.02-0.01
	c0.05-0.03,0.1-0.06,0.15-0.09c0.01-0.01,0.03-0.01,0.04-0.02l0.04-0.02l0.05-0.02c0.02-0.01,0.03-0.02,0.05-0.03
	c0.07-0.04,0.16-0.08,0.23-0.13c0.02-0.01,0.04-0.03,0.05-0.04c0.02-0.01,0.04-0.03,0.05-0.04l0.05-0.04l0.03-0.02l0.02-0.02
	c0.03-0.03,0.06-0.05,0.09-0.08l0.05-0.04c0.02-0.01,0.03-0.03,0.05-0.04c0.06-0.06,0.12-0.13,0.18-0.2
	c0.06-0.07,0.11-0.15,0.15-0.21c0.04-0.06,0.07-0.1,0.11-0.14c0.03-0.04,0.07-0.07,0.11-0.11c0.01-0.01,0.02-0.02,0.03-0.03
	l0.03-0.03c0.02-0.02,0.05-0.04,0.07-0.06l0.02-0.01l0.02-0.01l0.03-0.02c0.01-0.01,0.02-0.01,0.03-0.02
	c0.01-0.01,0.02-0.01,0.03-0.02c0.04-0.03,0.08-0.04,0.14-0.07l0.04-0.02c0.01-0.01,0.03-0.02,0.05-0.02
	c0.02-0.01,0.04-0.02,0.06-0.03c0.01,0,0.02-0.01,0.03-0.02l0.03-0.02c0.05-0.03,0.09-0.06,0.14-0.09l0,0.03
	c0,0.03,0,0.05-0.04,0.11l-0.04,0.05l-0.02,0.03l-0.01,0.02l-0.01,0.02c-0.01,0.01-0.02,0.02-0.02,0.03l-0.02,0.04
	c-0.02,0.02-0.03,0.05-0.04,0.08c-0.01,0.03-0.02,0.05-0.03,0.08c0,0.01-0.01,0.03-0.02,0.04l-0.01,0.04
	c-0.02,0.05-0.03,0.1-0.04,0.15c-0.02,0.1-0.03,0.2-0.03,0.31c0,0.03,0,0.06,0.01,0.09l0,0.04c0,0.01,0,0.03,0.01,0.04l0,0.02
	c0,0.01,0,0.01,0,0.02l0.01,0.04c0,0.01,0,0.01,0,0.02l0,0.02l0.01,0.03c0.02,0.07,0.04,0.11,0.05,0.16
	c0.01,0.05,0.01,0.1,0.01,0.16c-0.01,0.06-0.02,0.12-0.03,0.17c-0.02,0.05-0.04,0.09-0.08,0.16c-0.02,0.03-0.05,0.07-0.07,0.1
	c-0.01,0.01-0.01,0.02-0.02,0.03l-0.02,0.03c-0.01,0.02-0.02,0.04-0.03,0.06c-0.04,0.08-0.06,0.17-0.07,0.25
	c-0.01,0.08-0.02,0.17-0.01,0.25c0,0.02,0,0.04,0.01,0.06l0,0.03c0,0.01,0,0.02,0.01,0.03c0.01,0.04,0.02,0.08,0.03,0.12
	c0.02,0.07,0.04,0.14,0.05,0.22c0.01,0.07,0,0.15-0.01,0.22c0.04-0.07,0.07-0.13,0.09-0.21c0-0.02,0.01-0.04,0.01-0.06l0.01-0.03
	c0-0.01,0-0.02,0-0.03c0-0.04,0.01-0.08,0.01-0.12c0-0.08,0.01-0.14,0.03-0.2c0.02-0.06,0.05-0.12,0.08-0.18
	c0.04-0.06,0.07-0.11,0.12-0.15c0.04-0.04,0.09-0.07,0.15-0.11l0.03-0.02c0.01-0.01,0.02-0.01,0.03-0.02l0.03-0.02
	c0.01-0.01,0.02-0.01,0.03-0.02c0.01-0.01,0.02-0.01,0.03-0.02l0.03-0.03c0.02-0.02,0.03-0.04,0.05-0.05
	c0.06-0.07,0.12-0.16,0.16-0.23c0.04-0.08,0.08-0.17,0.1-0.27c0.01-0.03,0.01-0.05,0.01-0.08l0.01-0.04c0-0.01,0-0.03,0-0.04
	c0-0.01,0-0.03,0-0.04l0-0.04l0-0.06c0-0.07,0.02-0.11,0.03-0.14c0.02-0.03,0.04-0.07,0.07-0.12c0.03-0.04,0.06-0.08,0.09-0.09
	c0.03-0.02,0.05-0.03,0.12-0.07l0.03-0.02l0,0c0,0.01,0,0.01,0,0.02l0,0.07l0,0.03l0,0.03c0,0.04,0.01,0.09,0.01,0.13l0.01,0.06
	c0,0.02,0.01,0.04,0.01,0.07c0.01,0.09,0.04,0.18,0.06,0.27c0.03,0.09,0.06,0.18,0.09,0.25c0.03,0.07,0.05,0.12,0.07,0.17
	c0.02,0.05,0.03,0.1,0.05,0.16c0,0.01,0.01,0.03,0.01,0.04l0.01,0.05c0.01,0.03,0.01,0.06,0.01,0.09l0,0.02l0,0.02l0,0.04
	c0,0.02,0,0.03,0,0.04c0,0.01,0,0.03,0,0.04c0,0.06,0,0.11-0.01,0.18c0,0.01,0,0.03-0.01,0.05l-0.01,0.06l-0.01,0.06
	c0,0.02,0,0.04-0.01,0.06c-0.01,0.09-0.01,0.18-0.01,0.27v0.03l0,0.03l0,0.06c0,0.04,0.01,0.08,0.01,0.12
	c0.01,0.04,0.01,0.08,0.02,0.12l0.01,0.06l0.01,0.03l0.01,0.03c0.02,0.08,0.04,0.17,0.07,0.25c0.03,0.08,0.06,0.15,0.09,0.22
	c0.03,0.06,0.05,0.12,0.07,0.18c0,0.02,0.01,0.03,0.01,0.05c0,0.02,0.01,0.03,0.01,0.05c0.01,0.03,0.01,0.06,0.02,0.1
	c0,0.03,0.01,0.07,0.01,0.1l0.01,0.05c0,0.02,0,0.03,0,0.05c0.01,0.07,0.01,0.13,0.01,0.2s-0.01,0.13-0.02,0.21
	c-0.01,0.07-0.02,0.15-0.03,0.23c0,0.08,0,0.16,0,0.24c0,0.04,0.01,0.08,0.01,0.11c0,0.04,0.01,0.08,0.01,0.11s0.01,0.08,0.02,0.11
	c0,0.02,0.01,0.04,0.01,0.06c0,0.02,0.01,0.04,0.01,0.06c0.02,0.08,0.05,0.15,0.07,0.22c0.03,0.07,0.06,0.14,0.08,0.21
	c0.05,0.14,0.08,0.28,0.1,0.43c0.01-0.15,0.01-0.3-0.01-0.45c-0.01-0.07-0.03-0.15-0.04-0.22c-0.01-0.07-0.02-0.14-0.02-0.21
	c0-0.02,0-0.03,0-0.05c0-0.02,0-0.04,0-0.05c0-0.04,0-0.07,0-0.11c0-0.04,0-0.07,0.01-0.11c0-0.04,0.01-0.07,0.01-0.11
	c0.01-0.07,0.02-0.14,0.04-0.2c0.02-0.07,0.04-0.13,0.07-0.2c0.03-0.07,0.05-0.15,0.07-0.23c0.02-0.08,0.04-0.16,0.05-0.24
	c0.01-0.04,0.01-0.08,0.01-0.12s0.01-0.08,0.01-0.12c0-0.04,0-0.08,0-0.12c0-0.02,0-0.04,0-0.06c0-0.02,0-0.04,0-0.06
	c0-0.08-0.02-0.17-0.03-0.25c-0.01-0.08-0.03-0.15-0.04-0.21c-0.01-0.06-0.01-0.12-0.01-0.18v-0.02l0-0.02l0-0.05l0.01-0.1
	c0-0.03,0.01-0.07,0.01-0.1l0.01-0.05l0-0.02l0-0.02c0.01-0.06,0.03-0.12,0.05-0.17c0-0.01,0.01-0.03,0.02-0.04l0.02-0.05l0.02-0.05
	c0.01-0.02,0.01-0.04,0.02-0.06c0.03-0.08,0.05-0.17,0.07-0.26c0.01-0.02,0.01-0.04,0.01-0.07c0-0.02,0.01-0.04,0.01-0.07l0.01-0.06
	l0-0.03l0-0.03c0-0.04,0.01-0.08,0.01-0.13l0-0.06c0-0.02,0-0.04,0-0.07c0-0.09,0-0.18-0.01-0.27c-0.01-0.09-0.03-0.19-0.04-0.26
	c-0.01-0.07-0.02-0.12-0.02-0.18c0-0.05,0-0.1,0-0.16c0-0.01,0-0.03,0-0.04l0-0.05c0-0.03,0.01-0.06,0.01-0.09l0-0.02l0-0.02
	l0.01-0.04c0-0.01,0.01-0.03,0.01-0.04c0-0.01,0.01-0.03,0.01-0.04c0.01-0.05,0.03-0.09,0.05-0.15l0.02-0.05
	c0-0.01,0.01-0.04,0.02-0.05c0.01-0.02,0.01-0.04,0.02-0.06c0-0.01,0.01-0.02,0.01-0.03l0.01-0.03c0.01-0.05,0.02-0.11,0.03-0.16
	l0.02,0.02c0.02,0.02,0.03,0.04,0.05,0.11l0.01,0.07l0.01,0.04l0,0.02l0,0.02c0,0.01,0,0.03,0.01,0.04l0.01,0.04
	c0.01,0.03,0.02,0.06,0.02,0.09c0.01,0.03,0.02,0.05,0.03,0.08c0,0.01,0.01,0.03,0.02,0.04l0.02,0.04c0.02,0.05,0.05,0.09,0.08,0.13
	c0.05,0.08,0.12,0.16,0.2,0.24c0.02,0.02,0.04,0.04,0.06,0.06l0.03,0.03c0.01,0.01,0.02,0.02,0.03,0.02l0.02,0.01
	c0,0,0.01,0.01,0.02,0.01l0.03,0.02c0.01,0,0.01,0.01,0.02,0.01L14,16.71l0.03,0.01c0.07,0.04,0.1,0.05,0.14,0.08
	c0.04,0.03,0.08,0.06,0.12,0.11c0.04,0.05,0.07,0.09,0.09,0.14c0.02,0.05,0.04,0.09,0.05,0.17c0.01,0.04,0.01,0.08,0.02,0.13
	c0,0.01,0,0.02,0.01,0.03l0.01,0.03c0,0.02,0.01,0.04,0.02,0.07c0.03,0.09,0.08,0.16,0.12,0.23c0.05,0.07,0.1,0.13,0.17,0.19
	c0.02,0.01,0.03,0.03,0.05,0.04l0.02,0.02c0.01,0.01,0.02,0.01,0.03,0.02c0.04,0.02,0.07,0.04,0.11,0.06
	c0.07,0.04,0.13,0.07,0.19,0.12c0.06,0.05,0.1,0.1,0.15,0.16c-0.02-0.07-0.04-0.14-0.08-0.21c-0.01-0.02-0.02-0.03-0.03-0.05
	l-0.02-0.02c-0.01-0.01-0.01-0.02-0.02-0.02c-0.02-0.03-0.05-0.06-0.07-0.09c-0.05-0.06-0.09-0.11-0.12-0.17
	c-0.03-0.06-0.05-0.12-0.06-0.19c-0.01-0.07-0.02-0.13-0.02-0.19c0-0.06,0.01-0.11,0.03-0.19l0-0.03c0-0.01,0-0.02,0.01-0.03l0-0.03
	c0-0.01,0-0.02,0-0.03c0-0.01,0-0.02,0-0.04l0-0.04c0-0.02,0-0.05,0-0.07c-0.01-0.1-0.03-0.19-0.05-0.28
	c-0.03-0.09-0.06-0.18-0.12-0.27c-0.01-0.02-0.03-0.04-0.04-0.07l-0.02-0.03c-0.01-0.01-0.02-0.02-0.02-0.03
	c-0.01-0.01-0.02-0.02-0.02-0.03l-0.02-0.03l-0.04-0.05c-0.05-0.06-0.06-0.09-0.08-0.13c-0.01-0.04-0.02-0.08-0.03-0.13
	c-0.01-0.05-0.01-0.1,0-0.13c0.01-0.03,0.02-0.06,0.03-0.13l0.01-0.03l0,0c0,0,0.01,0.01,0.01,0.01l0.05,0.05l0.02,0.02l0.02,0.02
	c0.03,0.03,0.07,0.06,0.1,0.08l0.05,0.04c0.02,0.01,0.04,0.03,0.05,0.04c0.07,0.05,0.15,0.1,0.24,0.15
	c0.08,0.05,0.17,0.09,0.24,0.11c0.07,0.03,0.12,0.05,0.17,0.07c0.05,0.02,0.1,0.05,0.15,0.08c0.01,0.01,0.02,0.02,0.04,0.02
	l0.04,0.03c0.03,0.02,0.05,0.04,0.07,0.06l0.02,0.01l0.02,0.01l0.03,0.03c0.01,0.01,0.02,0.02,0.03,0.03
	c0.01,0.01,0.02,0.02,0.03,0.03c0.04,0.04,0.08,0.08,0.12,0.13c0.01,0.01,0.02,0.03,0.03,0.04l0.03,0.04l0.04,0.05
	c0.01,0.02,0.03,0.03,0.04,0.05c0.05,0.07,0.11,0.14,0.18,0.19l0.02,0.02l0.02,0.02l0.05,0.04c0.03,0.03,0.06,0.05,0.09,0.08
	c0.03,0.02,0.06,0.05,0.1,0.07l0.05,0.04l0.03,0.02l0.03,0.02c0.07,0.05,0.15,0.09,0.22,0.13c0.08,0.04,0.15,0.06,0.21,0.09
	c0.06,0.03,0.12,0.05,0.17,0.08c0.01,0.01,0.03,0.02,0.04,0.02c0.01,0.01,0.03,0.02,0.04,0.02c0.03,0.02,0.05,0.04,0.08,0.06
	c0.03,0.02,0.05,0.04,0.08,0.06l0.04,0.03c0.01,0.01,0.03,0.02,0.04,0.03c0.05,0.04,0.1,0.09,0.14,0.14
	c0.04,0.05,0.08,0.1,0.13,0.16c0.04,0.06,0.09,0.12,0.14,0.18c0.05,0.06,0.11,0.11,0.17,0.16c0.03,0.03,0.06,0.05,0.09,0.07
	c0.03,0.02,0.06,0.05,0.09,0.07c0.03,0.02,0.06,0.04,0.09,0.07c0.02,0.01,0.03,0.02,0.05,0.03c0.02,0.01,0.03,0.02,0.05,0.03
	c0.07,0.04,0.14,0.07,0.21,0.1c0.07,0.03,0.14,0.06,0.2,0.09c0.13,0.06,0.25,0.14,0.37,0.23c-0.09-0.11-0.2-0.22-0.32-0.31
	c-0.06-0.05-0.12-0.09-0.18-0.13c-0.06-0.04-0.11-0.08-0.16-0.13c-0.01-0.01-0.03-0.02-0.04-0.04c-0.01-0.01-0.02-0.02-0.04-0.04
	c-0.02-0.03-0.05-0.05-0.07-0.08c-0.02-0.03-0.05-0.05-0.07-0.08c-0.02-0.03-0.04-0.06-0.06-0.08c-0.04-0.06-0.08-0.11-0.11-0.17
	c-0.03-0.06-0.06-0.12-0.09-0.19c-0.03-0.07-0.07-0.14-0.11-0.21c-0.04-0.07-0.09-0.14-0.14-0.2c-0.02-0.03-0.05-0.06-0.07-0.09
	c-0.02-0.03-0.05-0.06-0.08-0.09c-0.02-0.03-0.05-0.06-0.08-0.09c-0.01-0.01-0.03-0.03-0.04-0.04c-0.01-0.01-0.03-0.03-0.05-0.04
	c-0.06-0.06-0.13-0.11-0.2-0.15c-0.07-0.05-0.12-0.08-0.17-0.12s-0.09-0.08-0.14-0.12l-0.02-0.02l-0.02-0.02l-0.03-0.04l-0.06-0.07
	c-0.02-0.03-0.04-0.05-0.06-0.08l-0.03-0.04l-0.01-0.02l-0.01-0.02c-0.03-0.05-0.06-0.1-0.09-0.16c-0.01-0.01-0.01-0.03-0.02-0.04
	l-0.02-0.05l-0.02-0.05c-0.01-0.02-0.02-0.03-0.03-0.05c-0.04-0.08-0.08-0.16-0.13-0.23c-0.01-0.02-0.02-0.04-0.04-0.06
	c-0.01-0.02-0.03-0.04-0.04-0.05l-0.04-0.05l-0.02-0.03l-0.02-0.02c-0.03-0.03-0.05-0.07-0.08-0.1l-0.04-0.05
	c-0.01-0.02-0.03-0.03-0.04-0.05c-0.06-0.06-0.13-0.12-0.2-0.18c-0.07-0.06-0.15-0.11-0.21-0.15c-0.06-0.04-0.1-0.07-0.14-0.11
	c-0.04-0.03-0.07-0.07-0.11-0.12c-0.01-0.01-0.02-0.02-0.03-0.03l-0.03-0.03c-0.02-0.02-0.04-0.05-0.06-0.07l-0.01-0.02l-0.01-0.02
	l-0.02-0.03c-0.01-0.01-0.01-0.02-0.02-0.03c-0.01-0.01-0.01-0.02-0.02-0.03c-0.03-0.04-0.04-0.09-0.07-0.14l-0.02-0.04
	c-0.01-0.01-0.02-0.03-0.02-0.05c-0.01-0.02-0.02-0.04-0.03-0.06c-0.01-0.01-0.01-0.02-0.02-0.03l-0.02-0.03
	c-0.03-0.05-0.06-0.09-0.09-0.14l0.03,0c0.03,0,0.05,0,0.11,0.04l0.05,0.04l0.03,0.02l0.02,0.01l0.02,0.01
	c0.01,0.01,0.02,0.02,0.03,0.02l0.04,0.02c0.02,0.02,0.05,0.03,0.08,0.04c0.03,0.01,0.05,0.02,0.08,0.03
	c0.01,0.01,0.03,0.01,0.04,0.02l0.04,0.01c0.05,0.02,0.1,0.03,0.15,0.04c0.1,0.02,0.2,0.03,0.31,0.03c0.03,0,0.06,0,0.08-0.01
	l0.04,0c0.01,0,0.03,0,0.04-0.01l0.02,0c0.01,0,0.01,0,0.02,0l0.04-0.01c0.01,0,0.01,0,0.02,0l0.01,0l0.03-0.01
	c0.07-0.02,0.11-0.04,0.15-0.05c0.05-0.01,0.1-0.01,0.16,0c0.06,0.01,0.11,0.02,0.16,0.03c0.05,0.02,0.09,0.04,0.15,0.08
	c0.03,0.02,0.06,0.05,0.1,0.07c0.01,0.01,0.02,0.01,0.03,0.02l0.03,0.02c0.02,0.01,0.04,0.02,0.06,0.03
	c0.08,0.04,0.17,0.06,0.25,0.07c0.08,0.01,0.16,0.02,0.25,0.01c0.02,0,0.04,0,0.06-0.01l0.03,0c0.01,0,0.02,0,0.03-0.01
	c0.04-0.01,0.08-0.02,0.12-0.03c0.07-0.02,0.14-0.04,0.21-0.05c0.07-0.01,0.15,0,0.22,0.01c-0.06-0.04-0.13-0.07-0.21-0.09
	c-0.02-0.01-0.04-0.01-0.06-0.01l-0.03-0.01c-0.01,0-0.02,0-0.03,0c-0.04,0-0.08-0.01-0.12-0.01c-0.07,0-0.14-0.01-0.2-0.03
	c-0.06-0.02-0.12-0.05-0.18-0.09c-0.06-0.04-0.11-0.08-0.15-0.12c-0.04-0.04-0.07-0.09-0.11-0.16l-0.02-0.03
	c-0.01-0.01-0.01-0.02-0.02-0.03l-0.02-0.03c-0.01-0.01-0.01-0.02-0.02-0.03c-0.01-0.01-0.02-0.02-0.02-0.03l-0.03-0.03
	c-0.02-0.02-0.03-0.03-0.05-0.05c-0.07-0.07-0.15-0.12-0.23-0.16c-0.08-0.04-0.17-0.08-0.27-0.11c-0.02-0.01-0.05-0.01-0.08-0.02
	l-0.04-0.01c-0.01,0-0.02,0-0.04,0c-0.01,0-0.03,0-0.04,0l-0.03,0l-0.06,0c-0.07,0-0.11-0.02-0.14-0.03
	c-0.03-0.02-0.07-0.04-0.12-0.07c-0.04-0.03-0.07-0.06-0.09-0.09c-0.02-0.03-0.02-0.05-0.07-0.12l-0.02-0.03l0,0
	c0.01,0,0.01,0,0.02,0l0.07,0l0.03,0l0.03,0c0.04,0,0.09-0.01,0.13-0.01l0.06-0.01c0.02,0,0.04-0.01,0.06-0.01
	c0.09-0.01,0.18-0.04,0.27-0.06c0.09-0.03,0.18-0.06,0.25-0.09c0.07-0.03,0.12-0.05,0.17-0.07c0.05-0.02,0.1-0.03,0.16-0.05
	c0.01,0,0.03-0.01,0.04-0.01l0.05-0.01c0.03-0.01,0.06-0.01,0.09-0.01l0.02,0l0.02,0l0.04,0c0.01,0,0.03,0,0.04,0
	c0.01,0,0.03,0,0.04,0c0.06,0,0.11,0,0.17,0.01c0.01,0,0.03,0,0.05,0.01l0.05,0.01l0.06,0.01c0.02,0,0.04,0.01,0.06,0.01
	c0.09,0.01,0.18,0.01,0.26,0.01l0.03,0l0.03,0l0.06,0c0.04,0,0.08-0.01,0.12-0.01c0.04-0.01,0.08-0.01,0.12-0.02l0.06-0.01
	l0.03-0.01l0.03-0.01c0.08-0.02,0.17-0.04,0.25-0.07c0.08-0.03,0.15-0.06,0.21-0.09c0.06-0.03,0.12-0.05,0.18-0.07
	c0.01,0,0.03-0.01,0.05-0.01c0.02,0,0.03-0.01,0.05-0.01c0.03-0.01,0.06-0.01,0.1-0.02c0.03-0.01,0.07-0.01,0.1-0.01l0.05-0.01
	c0.02,0,0.03,0,0.05,0c0.07-0.01,0.13-0.01,0.2-0.01c0.06,0,0.13,0.01,0.2,0.02c0.07,0.01,0.15,0.02,0.23,0.03c0.08,0,0.16,0,0.23,0
	c0.04,0,0.08-0.01,0.11-0.01c0.04,0,0.07-0.01,0.11-0.02c0.04,0,0.07-0.01,0.11-0.02c0.02,0,0.04-0.01,0.06-0.01
	c0.02,0,0.04-0.01,0.06-0.01c0.07-0.02,0.15-0.05,0.22-0.07c0.07-0.03,0.14-0.06,0.2-0.09c0.13-0.05,0.28-0.08,0.42-0.1
	C21.87,12.23,21.72,12.22,21.58,12.25"/>
</svg>
