<?xml version="1.0" encoding="utf-8"?>
<!-- Generator: Adobe Illustrator 23.0.1, SVG Export Plug-In . SVG Version: 6.00 Build 0)  -->
<svg version="1.1" id="Layer_1" xmlns="http://www.w3.org/2000/svg" xmlns:xlink="http://www.w3.org/1999/xlink" x="0px" y="0px"
	 viewBox="0 0 96.02 18.66" style="enable-background:new 0 0 96.02 18.66;" xml:space="preserve">
<style type="text/css">
	.st0{fill:#154C5E;}
	.st1{fill:#B7625E;}
	.st2{fill:#ECECE6;}
	.st3{opacity:0.27;fill:#F1A899;}
	.st4{fill:none;}
	.st5{fill:#F1A899;}
	.st6{fill-rule:evenodd;clip-rule:evenodd;fill:#154C5E;}
	.st7{opacity:0.41;fill:#F1A899;}
	.st8{fill:#F4CD87;}
	.st9{fill:none;stroke:#154C5E;stroke-miterlimit:10;}
	.st10{opacity:0.24;fill:#B7625E;}
</style>
<g>
	<g>
		<path class="st1" d="M86.69,18.66H9.33C4.18,18.66,0,14.48,0,9.33v0C0,4.18,4.18,0,9.33,0l77.36,0c5.15,0,9.33,4.18,9.33,9.33v0
			C96.02,14.48,91.84,18.66,86.69,18.66z"/>
	</g>
	<g>
		<path class="st2" d="M15.27,10.44h-2.06l-0.71,1.79h-0.39l2.04-5.08h0.23l2,5.08h-0.4L15.27,10.44z M13.35,10.12h1.81l-0.69-1.83
			c-0.06-0.14-0.13-0.34-0.21-0.6c-0.06,0.22-0.13,0.42-0.2,0.6L13.35,10.12z"/>
		<path class="st2" d="M20.87,7.16h0.38l-1.89,5.06h-0.31l-1.89-5.06h0.38l1.27,3.45c0.19,0.52,0.32,0.91,0.39,1.17
			c0.05-0.17,0.14-0.44,0.27-0.81L20.87,7.16z"/>
		<path class="st2" d="M25.19,10.44h-2.06l-0.71,1.79h-0.39l2.04-5.08h0.23l2,5.08h-0.4L25.19,10.44z M23.26,10.12h1.81l-0.69-1.83
			c-0.06-0.14-0.13-0.34-0.21-0.6c-0.06,0.22-0.13,0.42-0.2,0.6L23.26,10.12z"/>
		<path class="st2" d="M31.47,12.23h-0.36l-3-4.5h-0.03c0.03,0.54,0.04,0.94,0.04,1.21v3.28h-0.34V7.16h0.35l3,4.49h0.02
			c-0.02-0.42-0.03-0.81-0.03-1.18v-3.3h0.34V12.23z"/>
		<path class="st2" d="M35.84,7.41c-0.63,0-1.13,0.2-1.5,0.61c-0.36,0.41-0.55,0.96-0.55,1.67c0,0.72,0.17,1.28,0.52,1.68
			c0.34,0.4,0.84,0.6,1.48,0.6c0.43,0,0.82-0.05,1.17-0.16v0.31c-0.33,0.12-0.75,0.18-1.25,0.18c-0.71,0-1.27-0.23-1.68-0.69
			c-0.41-0.46-0.61-1.1-0.61-1.93c0-0.51,0.1-0.97,0.29-1.36c0.19-0.39,0.48-0.7,0.84-0.91c0.37-0.21,0.79-0.32,1.28-0.32
			c0.49,0,0.94,0.09,1.33,0.28l-0.14,0.32C36.64,7.5,36.25,7.41,35.84,7.41z"/>
		<path class="st2" d="M41.64,12.23h-2.77V7.16h2.77v0.33h-2.41V9.4h2.28v0.33h-2.28v2.17h2.41V12.23z"/>
		<path class="st2" d="M46.36,10.92c0,0.42-0.16,0.76-0.47,1c-0.31,0.25-0.72,0.37-1.24,0.37c-0.62,0-1.09-0.07-1.42-0.2v-0.35
			c0.37,0.15,0.83,0.23,1.4,0.23c0.42,0,0.75-0.1,0.99-0.29c0.24-0.19,0.37-0.44,0.37-0.75c0-0.19-0.04-0.35-0.12-0.48
			c-0.08-0.13-0.21-0.24-0.39-0.34c-0.18-0.1-0.45-0.22-0.8-0.34c-0.52-0.18-0.87-0.37-1.07-0.58c-0.2-0.21-0.3-0.48-0.3-0.83
			c0-0.38,0.15-0.69,0.45-0.93c0.3-0.24,0.68-0.36,1.14-0.36c0.48,0,0.92,0.09,1.34,0.27l-0.13,0.3c-0.42-0.18-0.82-0.26-1.21-0.26
			c-0.37,0-0.67,0.09-0.89,0.26c-0.22,0.17-0.33,0.41-0.33,0.71c0,0.19,0.03,0.34,0.1,0.46c0.07,0.12,0.18,0.23,0.33,0.32
			c0.15,0.1,0.42,0.21,0.8,0.34c0.39,0.14,0.69,0.27,0.89,0.4c0.2,0.13,0.34,0.27,0.43,0.44C46.31,10.49,46.36,10.69,46.36,10.92z"
			/>
		<path class="st2" d="M54.68,9.65c0,0.85-0.22,1.49-0.67,1.93c-0.45,0.44-1.1,0.65-1.96,0.65h-1.21V7.16h1.37
			c0.81,0,1.42,0.21,1.84,0.63C54.47,8.22,54.68,8.84,54.68,9.65z M54.29,9.66c0-0.72-0.18-1.27-0.55-1.64
			c-0.37-0.37-0.91-0.55-1.62-0.55h-0.93v4.44h0.84C53.54,11.91,54.29,11.16,54.29,9.66z"/>
		<path class="st2" d="M59.39,12.23h-2.77V7.16h2.77v0.33h-2.41V9.4h2.28v0.33h-2.28v2.17h2.41V12.23z"/>
		<path class="st2" d="M68.2,9.69c0,0.8-0.2,1.44-0.6,1.91c-0.4,0.47-0.96,0.7-1.66,0.7c-0.7,0-1.26-0.23-1.66-0.7
			c-0.4-0.47-0.6-1.11-0.6-1.91c0-0.81,0.2-1.44,0.61-1.9c0.41-0.46,0.96-0.69,1.66-0.69c0.71,0,1.26,0.23,1.66,0.7
			C68,8.25,68.2,8.88,68.2,9.69z M64.05,9.69c0,0.73,0.16,1.29,0.48,1.68c0.32,0.4,0.79,0.59,1.39,0.59c0.61,0,1.08-0.2,1.4-0.59
			c0.32-0.39,0.48-0.95,0.48-1.69c0-0.73-0.16-1.29-0.48-1.68c-0.32-0.39-0.79-0.58-1.39-0.58c-0.6,0-1.07,0.2-1.39,0.59
			C64.22,8.41,64.05,8.96,64.05,9.69z"/>
		<path class="st2" d="M70.14,7.16h1.39c0.63,0,1.09,0.11,1.38,0.32c0.29,0.21,0.44,0.53,0.44,0.96c0,0.29-0.09,0.54-0.27,0.73
			c-0.18,0.19-0.44,0.32-0.78,0.38v0.02c0.4,0.06,0.7,0.19,0.89,0.38c0.19,0.19,0.29,0.47,0.29,0.82c0,0.47-0.15,0.83-0.46,1.08
			c-0.31,0.25-0.75,0.38-1.32,0.38h-1.55V7.16z M70.49,9.42h1.12c0.48,0,0.82-0.08,1.04-0.24c0.22-0.16,0.32-0.41,0.32-0.74
			c0-0.34-0.12-0.58-0.37-0.73C72.36,7.55,72,7.47,71.51,7.47h-1.02V9.42z M70.49,9.73v2.19h1.19c0.94,0,1.41-0.38,1.41-1.14
			c0-0.69-0.49-1.04-1.48-1.04H70.49z"/>
		<path class="st2" d="M75.72,10.02v2.21h-0.35V7.16h1.21c0.63,0,1.09,0.12,1.39,0.35c0.3,0.23,0.45,0.58,0.45,1.05
			c0,0.34-0.09,0.63-0.27,0.86c-0.18,0.23-0.45,0.4-0.82,0.5l1.38,2.31h-0.42l-1.31-2.21H75.72z M75.72,9.72h0.97
			c0.43,0,0.76-0.1,0.99-0.29c0.24-0.19,0.35-0.47,0.35-0.84c0-0.39-0.12-0.67-0.35-0.84c-0.23-0.18-0.61-0.26-1.13-0.26h-0.84V9.72
			z"/>
		<path class="st2" d="M82.8,10.44h-2.06l-0.71,1.79h-0.39l2.04-5.08h0.23l2,5.08h-0.4L82.8,10.44z M80.87,10.12h1.81l-0.69-1.83
			c-0.06-0.14-0.13-0.34-0.21-0.6c-0.06,0.22-0.13,0.42-0.2,0.6L80.87,10.12z"/>
	</g>
</g>
</svg>
